<?xml version="1.0" encoding="iso-8859-1"?>
<!-- Uploaded to: SVG Repo, www.svgrepo.com, Generator: SVG Repo Mixer Tools -->
<svg fill="#000000" height="800px" width="800px" version="1.1" id="Layer_1" xmlns="http://www.w3.org/2000/svg" xmlns:xlink="http://www.w3.org/1999/xlink" 
	 viewBox="0 0 512 512" xml:space="preserve">
<g>
	<g>
		<path d="M398.056,211.231h-95.806c-2.258-6.737-8.531-11.228-15.935-11.228h-14.596v-10.265v-6.83
			c0-18.359,15.462-33.432,33.821-33.432h6.354h118.991c29.692,0,53.848-24.202,53.848-53.895s-24.156-53.895-53.848-53.895H401.67
			c-9.301,0-16.842,7.655-16.842,16.957c0,4.687,1.918,8.867,5.008,11.92c3.042,3.006,7.22,4.808,11.834,4.808h29.215
			c11.118,0,20.163,9.091,20.163,20.211c0,11.118-9.045,20.211-20.163,20.211h-85.706h-39.637
			c-36.932,0-67.505,30.183-67.505,67.116v17.095h-13.474c-7.404,0-13.678,4.491-15.935,11.228h-94.683
			C51.01,211.231,0,262.627,0,325.56v28.86c0,46.498,21.996,88.13,56.182,106.207c28.626,15.137,61.712,12.217,93.835-7.993h211.828
			c18.55,12.351,37.452,17.679,55.628,17.679c13.345,0,26.206-3.136,38.341-9.546C490.002,442.704,512,401.027,512,354.521v-28.959
			C512,262.627,460.99,211.231,398.056,211.231z M478.316,354.521c0,33.649-15.31,64.396-38.237,76.509
			c-18.684,9.871-40.702,6.678-63.763-9.057c-2.798-1.909-6.059-3.023-9.445-3.023H144.998c-3.382,0-6.686,1.112-9.482,3.016
			c-23.01,15.673-44.936,18.794-63.589,8.931c-22.931-12.126-38.243-42.832-38.243-76.478v-28.86c0-44.36,35.9-80.646,80.259-80.646
			h284.113c44.36,0,80.259,36.286,80.259,80.646V354.521z"/>
	</g>
</g>
<g>
	<g>
		<path d="M151.579,314.53h-14.596v-14.596c0-9.301-7.541-16.842-16.842-16.842s-16.842,7.541-16.842,16.842v14.596H88.702
			c-9.301,0-16.842,7.541-16.842,16.842s7.541,16.842,16.842,16.842h14.596v14.596c0,9.301,7.541,16.842,16.842,16.842
			s16.842-7.541,16.842-16.842v-14.596h14.596c9.301,0,16.842-7.541,16.842-16.842S160.88,314.53,151.579,314.53z"/>
	</g>
</g>
<g>
	<g>
		<path d="M238.035,353.828h-24.702c-9.301,0-16.842,7.541-16.842,16.842s7.541,16.842,16.842,16.842h24.702
			c9.301,0,16.842-7.541,16.842-16.842S247.336,353.828,238.035,353.828z"/>
	</g>
</g>
<g>
	<g>
		<path d="M308.772,353.828h-25.825c-9.301,0-16.842,7.541-16.842,16.842s7.541,16.842,16.842,16.842h25.825
			c9.301,0,16.842-7.541,16.842-16.842S318.073,353.828,308.772,353.828z"/>
	</g>
</g>
<g>
	<g>
		<circle cx="393.016" cy="362.42" r="19.491"/>
	</g>
</g>
<g>
	<g>
		<circle cx="426.7" cy="317.507" r="19.491"/>
	</g>
</g>
</svg>