<?xml version="1.0" encoding="UTF-8"?><svg id="Layer_1" xmlns="http://www.w3.org/2000/svg" viewBox="0 0 349.04 371.35"><defs><style>.CrlMsct-1{fill:#522720;}</style></defs><circle cx="173.14" cy="176.74" r="131.87"/><path d="M163.89,28.86c-.69-.17-.59.32-.69.81-.21,1.09-.23,2.23-.41,3.32.63.16.66-.27.75-.75.2-1.09.11-2.29.35-3.38ZM172.17,30.24l-8-1.11-.27,3.86c.71.12.5-.1.63-.6.26-.95-.1-2.23.75-2.71l-.27,3.59c1.63-.08.17-2.64,1.38-3.31l-.27,3.59h.83c.06-.89.14-1.96.36-2.82.07-.28.08-.83.47-.77l-.27,3.58c1.7-.12.06-2.66,1.38-3.31.16,1.07-.41,2.11-.28,3.17.05.38.17.82.56.42.19-.88.22-1.84.48-2.71.14-.48-.1-.72.63-.6-.06.87-.25,1.71-.31,2.59-.01.18-.39,1.03.17.99.72-.05.53-3.3,1.51-3.58-.04,1.07-.55,2.09-.56,3.17,0,.55.04.44.56.42l.55-3.86ZM237.8,30.54l-2.42-.27c-.19,3.34-3.44,3.55-4.91.81l-2,.97c.4,1.32,1.29,1.92.13,3.16-1.64,1.74-2.85.06-3.46.38l-1.11,1.96c0,.8,1.24.76,1.52,1.22.32.52.28,2.63-.26,3.06-.48.39-1.5.23-1.97.8l.61,2.17,2.27.08,1.03,2.71c-1.99.95-1.75,2.05,0,3.05.9.13,1.12-1.01,1.93-1.13.9-.13,1.87.57,2.71.81l.2,2.76,2.18.58c.11-1.94.7-3.82,3.13-2.99.58.2.78,1.44,1.16,1.9l.42.16,2.16-1.13c-2.08-2.4.74-5.48,3.25-3.49l.37-.08.8-1.91c-1.36-.92-2.12-1.79-1.58-3.58.5-1.65,3.83.07,2.43-3.78-3.05,1.13-4.83-2.34-2.27-4.27l-1.77-1.78c-1.54,1.26-2.21,1.94-4.07.5-.84-.65-.28-1.8-.47-2.7ZM172.99,30.52c-.78-.13-.46.16-.59.64-.26.95-.33,1.98-.51,2.95.78.13.46-.16.59-.64.26-.97.22-1.98.51-2.95ZM140.99,31.9c-1.16-.15-2.16.19-3.24.48-3.61.93-7.85,2.67-11.29,4.16-5.18,2.25-10.64,5.04-14.99,8.6,6.21-1.08,12.44-3.61,18.12-6.29,3.97-1.87,8.17-3.93,11.4-6.94ZM173.55,36.03l-12.41-1.66c-.2.71.58.66,1.04.75,1.95.36,4.31.62,6.31.87,1.47.19,3.23.5,4.65.59.55.04.43-.06.41-.55ZM211.34,61.69l5.2-23.29c-.19-.83-5.41-2.36-6.44-2.11l-8.41,22.92,9.65,2.49ZM142.65,86.79c6.01.75,12.02,1.5,18.03,2.24,1.92.24,4.64,1.05,6.4,1.08,3.59.06,8.12-1.52,11.85-1.38,2.05-.83.08-3.45.2-4.52.08-.77,1.63-2.54,1.83-4.49.17-1.62-.58-3.95-.47-4.6.11-.69,1.25-1.74,1.54-2.89.18-.68.39-2.54.36-3.25-.04-.92-.61-1.77-.56-2.46.04-.62.78-1.57.98-2.35,1.11-4.52,1.54-10.29-.3-14.63-2.02-4.76-6.73-7.22-9.81-11.16-.44-.32-9.59-1.82-10.62-1.83-1.05,0-2.63,1.66-3.73,2.34-4.74,2.9-10.08,4.34-12.25,10.09-.67,1.77-1.78,7.41-1.8,9.25-.01,1.05.75,2.06.72,2.75-.02.62-.88,1.43-1.13,2.07-1.28,3.35.14,4.95-.14,7.01-.16,1.18-1.82,3.38-1.91,5.58-.05,1.2.71,2.24.52,3.52-.14.99-1.35,2.33-1.58,3.95-.27,1.96.54,3.99.4,5.14-.06.47-1.13,1.9-1.4,2.97-.15.57-.66,4.14-.45,4.37l17.65-3.86-13.58-2.27-1.04-.75,17.84,2.37,2.57-.45-19.47-3.3-.67-.56ZM137.13,36.86c-.36-.27-7.04,3.43-8.09,3.91-5.5,2.52-11.25,4.73-17.17,6.01l4.29,11.2c6.38-1.38,12.66-3.53,18.59-6.27.96-.44,6.98-3.41,7.23-3.82.21-.34-.19-.83-.16-1.24s.47-.58.4-.97c-.19-1.08-1.14-.68-1.78-.97-1.6-.72-2.3-3.25-2.77-4.82l1.65-.14-.56-1.79-1.33-.05-.32-1.07ZM62.09,55.62c3.42-.08,10.23-6.94,9.94-10.08-.03-.34-.17-.47-.42-.67-2.6.91-4.89,2.86-6.63,4.95-.64.77-3.61,4.97-2.89,5.8ZM86.43,60.64c.09-.15.75-.26.76-.47l-13.93-13.65-2.75,4.42c-2.09,2.31-4.42,4.24-7.03,5.93l21.95,20.27c2.67.26,7.35-4.21,8.13-6.74-2.19-1.03-2.45-2.9-.29-4.15l-4-4c-.98,1.93-3.61-.31-2.84-1.61ZM264.31,47.34l-.69.27-5.37,5.11,5.1,5.1,5.37-5.37c0-.43-4.57-3.85-4.41-5.1ZM269.55,51.2c.33-.38-2.69-3.23-3.31-3.31-.45.48,2.96,2.89,3.31,3.31ZM142.37,59.76c-.05-3.72.74-7.44,1.66-11.03-8.44,4.97-17.63,8.95-27.31,10.76l15.07,38.09,5.6-1.41c-.1-2.29.15-4.57.83-6.76.18-.59.78-.99.83-1.65.13-1.75-.77-2.79-.18-5.42.37-1.68,1.56-2.82,1.72-3.5.13-.56-.72-1.93-.71-2.91.04-2.57,1.46-4.54,1.66-6.11.13-1.02-.47-1.84-.5-2.73-.04-1.37.54-4.08,1.32-5.25-1.76.46-2.19-1.42-1.23-2.62l1.23.55ZM260.9,57.37c-.7-.73-1.88-1.41-2.52-2.3-8.18,8.05-16.55,16.1-26.35,22.2,2.68.59,4.86,1.31,4.69,4.55l1.65-.55c.58.59-2.59,3.69-3.44,2.22-.11-.19.23-1.35-.21-1.88-.28-.33-1.3-.29-1.58-1.32l1.37-.41c.06-.83-.87-1.03-1.51-1.11-2.21-.26-6.62.55-6.47,3.41.08,1.49.64,2.51,2.12,2.87,5.65,1.35,9.72-.96,13.86-4.48l-.79-.88.1-.64c6.97-6.39,12.95-13.89,19.46-20.69v1.65c2.03-.32.4-1.86-.37-2.66ZM230.45,68.52l.62.24c7.84-3.86.57-14.05-5.91-8.53.49,3.03,1.99.03,3.95.1,3.88.15,4.6,5.41,1.02,7.06l.32,1.13ZM213.82,68.86l-2.33-5.53c-2.32-.44-9.02-3.37-10.99-2.97-1.2.24-3.88,2.78-5.17,3.4l18.48,5.1ZM231.11,65.73c.76-.76.83-1.96.52-2.95-.76-2.46-5.35-1.83-4.8.09.06.19,2.08,3.11,2.28,3.25.72.48,1.43.18,1.99-.39ZM210.49,87.59l4.32-16.8-21.12-6.07-6.63,23.17,23.42-.3ZM93.1,74.27c-.17-.17-.05-.52-.25-.44-1.42,1.74-3.33,2.83-5.11,4.13,2.47.24,4.54-1.5,5.79-3.45.03-.15-.31-.12-.44-.25ZM107.88,87.34l-12.59-12.11-3.41,2.88,12.41,11.31,3.59-2.07ZM261.55,93.14v-4.69l-4.44-.45-1.36-3.81,2.76-3.31-2.2-3.34-4,1.98-4.1-2.36-1.55,2.05c8.19,3.07,10.76,13.84,4.96,20.41-.75.85-3.21,2.41-3.46,2.91s.43,1.33.7,1.8c.69.45,2.88-2.09,3.4-2.04.87.17,3.45,2.42,4.05,2.04l2.43-3.33-2.85-3.14c-.04-.19.88-3.44,1.02-3.7.67-1.18,3.38-.59,4.64-1.02ZM116.94,80.22c-.05-.08-1.27-.56-1.49-.59-1.21-.16-2.88.48-4.05.88-.7.24-4.2,1.64-4.05,2.26l1.23,1.18c3.36-1.86,7.39-2.9,3.32,2.01-1.54,1.86-4.14,3.85-6.23,5.08-.85.5-5.45,2.96-6.04,2.08-.25-1.9,1.68-2.68,2.22-4.25l-1.26-.97c-1.91,1.48-7.81,8.46-2.2,8.28,5.63-.18,13.87-6.39,16.91-10.96.63-.95,2.31-3.96,1.66-5.01ZM247.21,101.14c9.08-4.16,7.84-18.35-1.79-20.98l-4.01,3.32c8.13.08,11.35,9.98,4.42,14.36l1.38,3.3ZM122.23,88.72l-.44-1.08-3.42-4.99c.12,2.6,1.83,4.68,3.86,6.07ZM67.61,85.69c-.81-2.76-3.45-.6-4.68.7-2.17,2.28-4.16,6.59-4.67,9.68-.35,2.15-1.11,7.07,2.17,6.72-1.72-5.95,1.4-14.49,7.17-17.11ZM243.48,84.86c-1.27-.2-2.95.14-4.28,0,1.21,4.28,3.83,7.98,5.94,11.87,5.29-2.27,3.95-10.99-1.66-11.87ZM62.09,103.89c7.46.1,12.58-13.57,7.58-18.75-.76-.32-.13,1.44-.12,1.78.21,5.6-1.71,12.49-6.22,16.15-.44.36-1.13.37-1.24.82ZM67.88,87.07c-1.07-.51-4.21,3.21-3.86,3.59,1.4-.79,2.23-1.72,3.86-.83v-2.76ZM224.78,87.13c-7.75,1.58-4.29,16.52,4.07,17.32,11.23,1.07,6.39-19.45-4.07-17.32ZM221.55,87.35c-1.71.58-3.07,3.16-3.29,4.85-1.03,7.8,5.34,16.57,13.77,13.63h-3.71c-7.44-1.79-12.7-12.52-6.78-18.48ZM117.2,91.54c-.07-.13-.67-.31-.92-.59-.41-.47-1.33-2-1.87-1.91-4.79,4.12-9.75,7.91-16.19,8.93l7.04,8.97.76.24,15.65-6.31-2.48-3.72c.75-.4,1.46-2.03,1.79-2.9.37-.99.77-2.2-.68-2.48.41,2-2.08,2.95-2.9,1.1-.2-.45-.04-1.02-.2-1.31ZM228.17,108.04c-8.03-.88-13.28-10.53-10.76-17.93-1.49.99-7.63,5.53-7.68,7.02-.11,2.95,4.56,10.81,7.54,11.2,1.54.2,9.04.72,10.09.41.31-.09.75-.35.82-.7ZM200.57,90.67c-1.99-.75-4.25-.06-6.2-.02-31.55.7-61.78,7.61-90.44,20.47-.94.42-1.94.8-2.94,1.06-.34.46,1.81,1.7,2.21,2.06.45.4,1.91,2.1,2.19,2.2.66.24,1.62-.66,2.78.56,3.31,3.49-3.29,12.19-7.66,10.42-2.46-1-.99-3.29-1.24-4.59-.06-.3-1.88-2.12-2.14-1.82l-1.93,11.03c15.31-7.19,31.75-12.65,48.27-16.42,19.57-4.46,39.77-6.94,59.87-7.31-1.24-1.82.04-4.05,1.93-4.55-.25-.52-.88-.07-1.11-.26-.27-.22-1.55-5.73-1.85-6.72-.52-1.7-1.49-3.69-1.88-5.3-.07-.29.03-.56.15-.82ZM208.86,90.66c-.78.02-1.57-.03-2.35,0-.33.01-1.03-.21-.96.27,1.03-.05,2.63.9,3.31-.27ZM125.54,93.69l-1.37-2.2c-.72.74,1,2.59,1.37,2.2ZM61.81,98.93c-.36-1.84.76-3.19.55-4.97-.49.28-.76,1.46-.9,1.99-.12.46-.67,2.79-.47,2.97h.82ZM98.78,114.38c-1.68-.73-3.26-1.66-4.97-2.34-1.89-.75-8.63-2.52-9.67-3.59-.39-.41.34-.72-1.45-1.84-1.71-1.06-2.33-1.29-4.11-1.65-.96-.2-1.8-1.57-2.57-2.16-.15-.34.52-.47.31-1.09-.09-.28-2.99-4.52-3.35-4.96-.14-.17-.52-.69-.66-.58-.42,2.14-1.97,3.77-2.95,5.65,3.36,4.61,7,8.68,12.33,11.03,4.55,2.01,9.58,2.53,13.97,5.07,2.7,1.56,4.66,3.61,6.57,6.02,1.99-.53,3.73-2.45,3.45-4.6-.81.49-1.12-.12-1.65-.69l.55-.82c-.28-.68-5.13-4.57-5.93-4.83-.14-.05-.45-.07-.41.13l.55,1.24ZM243.06,99.21l-1.37-2.76c-.06,1.1.34,2.24,1.37,2.76ZM238.38,107.48c-1.14-1.12-1.77-2.57-.94-4.12.18-.33.94-.89.94-.99,0-.14-.69-.48-.76-.86-.14-.72.9-2.82-.34-3.42-.32,3.17-1.53,5.99-3.62,8.38l-3.55,2.65,4.69.28c-.27-.91-2.05-.39-1.62-1.48.26-.66,1.8-1.27,2.36-1.79,1.09.27,1.6,1.6,2.85,1.33ZM214.65,108.31c-2.1-2.43-4.25-4.56-5.51-7.59l-1.05.48c-.44.71,1.93,6.13,2.68,6.73.98.78,2.67.24,3.88.39ZM246.93,107.48l-.31-1.21-2.72-5.41c.31,2.34,1,5.23,3.03,6.62ZM209.41,108.31l-2.75-6.89c-.74,1.21.42,6.49,1.57,6.84.38.12.8.05,1.19.05ZM240.79,103.96c-1.65-1.65-3.31,1.35-1.67,2.44,1.46.97,2.85-1.27,1.67-2.44ZM241.96,107.21c1.45-.04,1.43-2.44.69-3.31.12,1.37.35,2.19-.69,3.31ZM206.37,108.31c-.54-3.1-2.6-4.07-1.65,0l.69-.83.96.83ZM100.16,124.31c-.06,4.55,4.56,1.23,6.06-.7,1.32-1.69,3.11-5.49,0-6.2,2.07,2.53.23,5.85-2.29,7.23-1.59.87-2.4.96-3.78-.33ZM195.14,138.03c-.19-.11-.34-.71-.69-.82l-9.05-5.99c4.26,3.96,8.89,7.57,13.93,10.48-.19-1.12.21-.7.69-1.37-1.45-.15-2.38-1.9-3.86-1.38l.02-.7c-.29-.16-.76-.04-1.05-.21ZM260.17,141.7c-6.64-.83-13.05-2.85-19.13-5.56l-7.9-4.1c6.81,6.27,15.77,9.41,24.96,9.94.44.03,1.89.21,2.08-.28ZM246.1,150.52c-10.28-2.01-19.98-6.75-28.94-12.03l-8.85-5.91c6.59,6.58,15.03,12.08,23.86,15.18,3.77,1.32,9.01,2.73,12.98,3.03.31.02,1.03.2.96-.27ZM157.54,135.35c-.24-.48-.44-1.22-1.1-1.1.24.48.44,1.22,1.1,1.1ZM195.34,154.66c-10.12-4.27-18.86-11.53-26.76-19.04l4.55,6.07c5.23,5.54,14.03,11.02,21.37,13.12.26.08.91.35.84-.15ZM209.96,170.66c-15.71.86-31.32-4.34-44.23-13.02-7.5-5.04-13.92-11.56-19.12-18.93l-19.66,5.5c-.21,11.54-3.27,23.59-12.06,31.54.22,2.92.25,5.92.17,8.85-.18,6.75,0,12.53.27,19.3.77,20.09-3.15,36.55,14.21,50.9,7.83,6.48,16.65,9.34,25.7,13.48,5.32,2.43,9.54,5.47,15.48,6.59,11.03,2.08,16.43-2.47,25.61-6.78,11.89-5.57,21.64-7.9,30.71-18.39,10.65-12.32,8.09-24.52,8.55-39.45l1.37-18.45c-1.67-6.6-3.06-13.36-3.56-20.17-.07-.97.25-4.9-.26-5.26l-11.33-.67,2.81,5.05.92,3.5c-6.81-6.2-16.09-8.86-25.24-8.27,2.58,1.97,5.93,3.07,9.01,4.11.43.14.79-.24.65.58ZM161.4,140.04c.07-.58-.59-1.09-1.1-1.38-.07.58.59,1.09,1.1,1.38ZM160.3,140.04c.09-.5-.37-.9-.82-1.1-.09.5.37.9.82,1.1ZM217.13,148.04c-1.37-.27-2.84-.73-4.13-1.25-2.66-1.06-7.73-4.17-9.93-4.71-.68-.17-.96.43-1.47.38-.41-.03-.96-.68-1.56-.49l7.1,3.52c2.88.85,5.94,2.14,8.89,2.7.29.05,1.16.39,1.12-.15ZM246.38,144.73l-11.31-2.76,3.24,1.59c2.17.6,4.59,1.27,6.84,1.44.3.02,1.28.22,1.23-.27ZM181.55,157.97c-6.24-4.38-11.98-9.38-17.24-14.89l-.18.79-.78.04v.41c4.97,5.74,11.14,10.75,18.21,13.66ZM110.37,169.55c2.66-6.54,3.31-13.41,2.48-20.41l-2.48,20.41ZM116.44,163.21c1.43-1.61,2.66-4.16,3.29-6.22.41-1.35,1.17-4.78,1.09-6.07-.03-.45-.61-.94-.52-1.5l-3.86,13.79ZM248.86,160.18c-11.91-1.82-23.58-5.24-34.76-9.66,1.77,1.31,4.12,2.43,6.16,3.36,8.33,3.77,17.08,6.01,26.25,6.58l2.36-.28ZM105.95,172.59l-1.34-7.35-.86-8.37-.21,1.11-.64.14c-.2,3.8.27,7.35,1.48,10.94l1.57,3.53ZM195.86,161.86l-2.73-.58c.78.85,3.39,3.32,2.73.58ZM111.99,218.35c-.15-7.28-.2-14.62-.79-21.89-.59-7.23-1.05-11.52-6.06-17.11-7.55-8.42-18.91-6.52-21.13,5.1-1.67,8.76,1.58,19.61,7.33,26.35,5.05,5.92,12.76,10.17,20.65,7.56ZM239.51,218.63c17.18,3.86,29.11-16.32,28.11-31.28-1.22-18.12-19.69-16.17-25.62-1.9-1.88,4.52-2.36,18.83-2.52,24.24-.09,2.97.06,5.98.04,8.95ZM155.61,274.39c.04-.75.16-1.91-.75-2.16-.96-.27-6.65,1.42-7.94,1.88-1.74.63-3.37,1.49-5.03,2.28-.52,2.65-.83,5.33-1.59,7.93-.75,2.59-2.08,4.91-2.86,7.4,5.12,3.75,10.67,6.91,16.63,9.16,3.52-10.3,9.79-8.76,14.38-.3.52.97,1.47,4.24,2.47,4.43.7.13,1.61-.08,2.35,0-2.1-5.08-4.9-8.82-9.29-12.08-4.52-3.35-12.19-7.16-15.04-12-.74-1.25-1.51-2.75-.8-4.21l-.55-.27c.31-1.68,1.76-2.63,3.45-2.32.42.08.72.49,1.1.51.94.06,2.33-1.09,3.46-.25ZM159.48,275.22v10.07c0,.08-.29.27-.24.52l.23.3c5.09,3.13,10.01,6.09,13.48,11.1,1.14,1.66,1.87,3.53,3.08,5.05,2.6-7.89,9.67-12.62,16.5-16.61l-.22-5.19c-10.8,5.31-24.02,2.58-32.83-5.24ZM209.6,276.4c-.24-.33-1.86-1.12-2.4-1.18l1.93,2.07.69,1.24c.3-.43.04-1.76-.22-2.12ZM207.18,288.47c.41.29.08,2.09,2.36,1.64.94-.18.82-1.2.57-1.95-.3-.89-1.2-.92-1.82-1.49-1.66-1.52-1.11-4.69-1.78-6.78l-2.9-1.93c.41,1.88-2.1,3.76-2.43,4.88-.16.54.08,1.31-.19,1.74-.43.69-1.09-.35-1.53-.15-1.11.49-3.85,3.06-5.15,3.96-2.18,1.5-4.57,2.76-6.68,4.35-4.13,3.1-7.56,7.26-9.13,12.25l2.45-.03c1.63-4.49,6.96-15.21,13-10.32,1.74,1.41,2.65,4.15,3.31,6.21l9.1-4.14c.08-.53-.59-.07-.86-.43-.86-1.18-1.16-6.53-2.45-8.11.99-.06,1.94.42,2.9.5.35.03,1-.36,1.22-.21ZM213,289.01l-2.2-5.24c.06.99-.17,2.09.12,3.05.13.44,1.42,2.7,2.08,2.19ZM157.82,300.32c.95-.9,1.78-2.34,2.2-3.59-1.09.81-1.84,2.31-2.2,3.59ZM192.3,297.84c.06-.59-.55-1.17-1.1-1.1l1.1,1.1ZM185.68,303.91c-1.43.15-2.17-.33-2.62-1.66l-1.79,2.48,1.72-.07,2.7-.75Z"/><path d="M284.03,125.7c-8.43-7.25-21.29-10.18-31.72-13.25l-2.65-6.99,2.66-1.85c1.01-.1,2.89,2.22,4.07,1.9.44-.12,3.73-4.31,3.67-4.66-1.98-2.48-4.04-2.48-2.1-6.21l4.66-.71c-.1-1.08.38-5.38-.23-5.9-.14-.12-.41-.17-.6-.23-1.25-.39-2.7.12-3.85-.64l-1.02-2.95c.14-.71,3.01-1.96,2.96-3.35-.02-.61-3.4-4.85-3.87-4.72l-3.71,2.28-2.91-2.25,13.94-15.9c.58-.45,1.21.29,2.07-.11.33-.15,3.79-3.71,4.28-4.27.98-1.13,2.37-2.37,2.01-3.94-.34-1.53-5.97-7.24-7.59-6.62l-6.72,6.27c-.73.77.21,1.89-.12,2.62-.18.41-3.88,3.92-4.56,4.56-3.42,3.28-9.04,8.62-12.88,11.13-.63.4-1.87,1.18-2.56,1.31-.4.06-.55-.31-.84-.44-.05.89.71,1.04-.35,1.72-.91.58-2.56,1.25-3.23.07l.54-.13.32-2.18c1.12-.31,1.81.13,2.72.51.09-1.33,2.05-.87,1.06-2.58-.46-.8-1.39-.83-.88-2.03l2.04-.75.22-2.87c-.3-.47-2.82.2-2.13-1.79.22-.66,1.59-.37.85-2.04-1.16-2.61-2.86-.62-3.64-1.02-1.11-.57-.07-1.73-.4-2.36l-1.81-.8-.56-.24c.07-.21.16-.38.27-.5.88-.09,2.43,1.01,3.15.46.53-3.29,2.43-3.85,3.8-.6l3.54-1.38c.41-.58-1.84-2.55.15-3.87,1.09-.73,2.17,1.43,3.3.01.24-.31,1.22-2.37,1.18-2.61-2.77-1.53-3.02-3.6.61-3.73l-.3-3.81c-2.92.46-4.4-1.53-1.93-3.52.15-.77-2-2.5-2.57-3.07-1.54.7-1.65,2.32-3.56,1.06l-.2-2.75-3.79-.55c-.41,1.09-.23,2.39-1.68,2.61-1.48.23-1.52-1.72-2.65-1.83-.78.1-2.87.97-2.88,1.8-.01.8,1.11,1.38.29,2.78-.84,1.43-2.41-.33-3.06-.02-.51.58-1.93,2.84-1.53,3.45.42.66,1.93.32,1.84,2.07-.06,1.36-1.74,1.3-2.78,1.52.48.78.13,3.53,1,3.83.96.32,2.77-.62,2.87,1.3.05,1.14-1.73,1.46-1.19,2.78.15.35,1.64,1.91,1.93,1.99.83.22,1.37-1.38,2.71-1.37,3.08.04.69,6.46-.99,5.68-1.19-2.09-1.75-2.5-4.01-1.25l.42,2.08c-1.2,1.21-2.44-.61-3.85-.57l-6.02-5.14,2.7-12.75c-.18-1.82-3.42-2.7-4.95-3.06-1.25-.3-3.3-.88-4.27.16l-4.14,10.16c-5.51-2.05-11.77-3.32-17.66-3.83-1.6-.15-7.81-.03-8.69-.42-.22-.11-3.22-2.87-3.26-3.08-.24-1.03,1.29-2.19-.22-3.37-.26-.2-.88-.27-.92-.32-.17-.22,1.29-4.34.39-5.48-1-1.29-10.69-2.6-11.87-1.7-.96.73-.62,3.94-.99,5.09-.24.78-1.36.2-1.65.62l-.49,3.3c-3.56,2.05-7.43,3.59-10.65,6.18-.57-.01-3.95-9.31-4.59-10.58-1.34-2.65-2.21-2.23-4.94-1.7-7.11,1.38-22.6,8.3-28.11,13-.81.7-2.02,1.62-1.5,2.82l5.89,14.83c-4.31,6.01-7.54,12.7-9.94,19.71l-8.67-7.98c.38-2.28-.26-4.68-1.38-6.65l-22.39-22.03c-3.18-1.63-8.15,3.7-9.87,6.07-.84,1.15-2.65,3.94-2.56,5.31.1,1.58,4.43,4.61,5.71,5.82,5.93,5.65,11.7,11.49,17.79,16.98,2.26.95,4.69,1.15,7.03.96l8.28,7.72c-1.91,1.64-5.02,5.41-4.96,8.01.03,2,4.07,5.28,4.92,7.23l-1.88,8.08-11.86-4.01c-4.79-1.98-10.48-7.31-12.4-12.17-.48-1.22.28-4.45-.21-6.4-.9-3.62-5.72-6.02-9-4.14-4.56,2.61-8.98,13.7-7.1,18.6,1.06,2.76,5.58,3.85,8.21,2.93.89-.31,3.21-2.2,3.63-1.96,3.19,5.32,7.96,9.5,13.75,11.77,4.08,1.59,8.76,2,12.4,4.59l-2.82,14.23c-8.53,4.41-27.54,15.34-28,26.09-.41,9.62,13.56,13.31,20.96,14.47l-2.53,3.68c-6.5,12.05-.18,31.17,10.13,39.35,5.36,4.25,12.34,6.73,19.17,5.1.55.39.19,6.49.28,7.74,1.38,20.04,19.49,33.77,37.24,39.32.08.67,0,.44-.38.58-2.16.78-8.71,2.68-9.96,4.39-.82,1.12-.75,3.86-1.05,5.29-.96,4.54-2.44,8.09-4.56,12.18.16,1.71,7.55,6.32,9.24,7.3,8.95,5.19,19.38,8.53,29.74,9.44,12.46,1.07,28.82-4.18,39.28-10.92,1.12-.71,6.12-4.24,6.51-5.09.47-1.01-1.37-3.62-1.85-4.77-1.77-4.34-1.93-7.62-3.11-11.78-.97-3.41-7.14-5.14-10.22-6.05-.4-.13-.49.15-.4-.56,15.49-5.27,30.83-15.53,35.29-32.16,1.3-4.85,1.52-9.74,1.68-14.74,16.01,2.94,28.14-11.55,31.04-25.93,2.67-13.25-1.94-28.99-18.35-25.66l.86-4.38c6.79-1.21,14.22-2.96,18.72-8.59-2.74.15-5.43-.16-8.13-.56-.37-.05-.85-.11-.41-.54,12.05-4.38,38.35-16.09,20.82-31.17ZM223.65,58.08c.68.21,1.69-.36,2-1l-.24-2.01c2.85-1.03,1.81,2.62,4.8,1.62.05-.02.11-.05.15-.1.17-.15.3-.43.4-.77.07-.21.13-.45.19-.68.03-.12.06-.23.1-.34.35.4,1.68.62,1.79.99.17.63-.71,1.14.15,2.04,1.55,1.64,2.53-.06,3.01.02,2.15,1.35.16,1.79-.05,2.93-.46,2.53,2.34,2.02,2.45,2.44.57,2.67-2.47.97-2.73,3.63-.11,1.12,1.64,1.46,1.22,2.27-.63,1.22-2.44-.19-3.56.53-.66.41-.14,1.91-.87,1.68l-.71-1.75c8.51-5.22.09-16.45-7.29-9.84l-1.8-2.35c.71-.56.53.53,1,.67Z"/><path class="CrlMsct-1" d="M235.66,66.87c-.11,1.12,1.64,1.46,1.22,2.27-.63,1.22-2.44-.19-3.56.53-.66.41-.14,1.91-.87,1.68l-.71-1.75c8.51-5.22.09-16.45-7.29-9.84l-1.8-2.35c.71-.56.53.53,1,.67.68.21,1.69-.36,2-1l-.24-2.01c2.85-1.03,1.81,2.62,4.8,1.62.05-.02.11-.05.15-.1.17-.15.3-.43.4-.77.07-.21.14-.45.19-.68.03-.12.06-.23.1-.34.35.4,1.68.62,1.79.99.17.63-.71,1.14.15,2.04,1.55,1.64,2.53-.06,3.01.02,2.15,1.35.16,1.79-.05,2.93-.46,2.53,2.34,2.02,2.45,2.44.57,2.67-2.47.97-2.73,3.63Z"/><path class="CrlMsct-1" d="M209.96,170.66c.14-.82-.22-.44-.65-.58-3.08-1.03-6.43-2.13-9.01-4.11,9.16-.58,18.44,2.08,25.24,8.27l-.92-3.5-2.81-5.05,11.33.67c.51.35.19,4.29.26,5.26.5,6.81,1.89,13.57,3.56,20.17l-1.37,18.45c-.46,14.93,2.1,27.14-8.55,39.45-9.07,10.5-18.82,12.82-30.71,18.39-9.18,4.3-14.58,8.86-25.61,6.78-5.94-1.12-10.17-4.16-15.48-6.59-9.05-4.14-17.86-7-25.7-13.48-17.36-14.35-13.44-30.81-14.21-50.9-.26-6.77-.45-12.54-.27-19.3.08-2.93.05-5.93-.17-8.85,8.79-7.94,11.85-20,12.06-31.54l19.66-5.5c5.19,7.36,11.62,13.89,19.12,18.93,12.9,8.68,28.52,13.87,44.23,13.02ZM153.93,166.22c.23-1.28,1.04-7.21.3-7.84-.35-.3-3.07-.64-3.73-.68-11.42-.81-22.98,4.36-24.96,16.55,7.61-7.04,18.24-9.32,28.39-8.02ZM155.89,196.46c.17-1.7-.13-3.65,0-5.38l.52,2.1c.53,4.83.43,9.45-.79,14.17l1.41-3.69c1.54-6.2,1.57-12.92-.73-18.93-5.43-14.21-20.31-15.14-25.8-.43-2.49,6.66-2.38,13.96-.27,20.7.15.49.34,1.58.83,1.79-1.77-8.35-1.4-19.05,4.31-25.9,3.92-4.71,10.09-5.61,14.65-1.19.28.27.78.27.63.88-8.71-4.19-13.58,5.48-14.06,12.83-.3,4.5.94,9.57,3.31,13.37-3.37.3-7.17.53-10.38,1.62-.36.12-.84.08-.93.59,8.96-1.29,18.15-.35,27.03,1.1,0-.41-.78-.52-1.12-.67-.99-.44-1.87-.67-2.89-.97-.19-.06-.62.08-.4-.42.13-.3,1-1.15,1.32-1.71,1.53-2.72,3.05-6.76,3.37-9.88ZM195.06,191.63v4.55c0,.8.65,3.42.9,4.34.77,2.75,2.36,5.54,4.06,7.8l-4.41,1.79c8.8-1.53,17.86-2.29,26.76-1.1l-3.53-1.29-7.5-.91c3.51-6.01,4.15-13.88,1.43-20.32-1.87-4.42-5.87-8.33-11-6.49-.66.24-1.05.85-1.74.88,8.13-8.39,16.27-2.74,19.32,6.76,1.92,5.97,1.99,12.19,1.1,18.35l1.62-5.96c2.04-10.1-3.01-29.03-16.58-25.96-11.26,2.55-14.65,19.82-11.56,29.34l1.41,3.96c-.91-4.52-1.42-9.04-.82-13.65l.55-2.07ZM169.96,212.87c2.42-8.09,2.09-16.81-.42-24.83-.35,0,.67,6.41.7,7.03.23,4.21-.15,9.03-.92,13.17-.71,3.82-2.55,7.69-2.12,11.53l1.42-4.23c2.6-2.34,7.2-2.79,10.5-2.03,1.01.23,1.97.89,2.97.89-3.49-2.45-8.14-3.05-12.13-1.52ZM129.82,210.39c-.7.21-.53,1.81.27,1.65.85-.17.97-2.02-.27-1.65ZM221.55,210.66l-1.06.04c-.92,1.82,1.41,1.85,1.06-.04ZM210.79,214.8c.2.27,1.94.57,1.61-.64-.38-1.39-2.12-.05-1.61.64ZM217.56,213.43c-.8.18-.81,1.51-.02,1.58,1.3.12.83-1.77.02-1.58ZM123.86,215.05c.91-1.46-1.75-1.74-1.35-.11.14.58,1.24.3,1.35.11ZM132.72,213.71c-.87.68,1.02,2.12,1.37.95.27-.91-1.04-1.21-1.37-.95ZM138.81,213.73c-.2.13-.47,1.15.13,1.34,1.92.59,1.24-2.2-.13-1.34ZM144.72,213.98c-.55.16-.55,1.22,0,1.37,1.27.36,1.27-1.73,0-1.37ZM206.65,215.35c.33-1.52-1.31-2.06-1.37-.42l1.37.42ZM227.07,215.08c1.85.19,1.83-1.3,0-1.1v1.1ZM127.63,214.26c-.95.29-.01,1.58.8,1.36s.51-1.77-.8-1.36ZM222.52,214.25c-.55.16-.55,1.22,0,1.37,1.27.36,1.27-1.73,0-1.37ZM185.96,215.63c1.04,2.44,2.32,6.98.11,9.08-1.51,1.43-2.02-1.13-4.68.29-2.79,1.49-2.82,3.19-6.9,2.78-2.83-.28-3.98-3.19-6.12-3.55-1.6-.27-2.25,2.24-3.81-.58-1.5-2.72-.21-5.48.98-8.01-2.87,2.27-5.24,6.71-2.75,10.07,2.04,2.75,3.79,1.21,6.08,1.92.71.22,1.42,1.28,2.1,1.76,3.12,2.19,6.14,2.21,9.28,0,.68-.48,1.4-1.54,2.1-1.76,2.43-.75,4.18,1.02,6.14-2.14,2.06-3.33.08-7.45-2.53-9.85ZM125.44,217.03c-1.05.18-.65,1.76.2,1.61,1.05-.18.65-1.76-.2-1.61ZM136.75,217.03c-.63.1-1.06,1.44-.31,1.64,1.37.36,1.49-1.83.31-1.64ZM213.73,217.05c-1.18.32-.61,1.61.23,1.55.77-.06,1.05-1.9-.23-1.55ZM225.96,217.01c-1.03-.7-2.04,2.37.16,1.11l-.16-1.11ZM142.37,217.28c-.77-.55-1.67,1.1-.69,1.38,1.1.31,1-1.15.69-1.38ZM209.68,217.29c-.81-.61-1.86.81-1.09,1.37.59.44,1.77-.86,1.09-1.37ZM130.79,217.84l.73,1.36.91-.71-.71-.87-.92.22ZM218.8,218.93c.42.28,1.63-.11,1.37-.96-.12-.39-1.13-.57-1.37-.41-.16.11-.16,1.26,0,1.37ZM215.21,220.88c-.21.26.04,1.53.68,1.37,1.45-.36.04-2.27-.68-1.37ZM134.37,222.25l1.37-.42c-.07-1.64-1.7-1.11-1.37.42ZM145.4,228.32c-5.06-1.38-11.1,2.39-10.48,8l1.38-2.06c1.59-1.78,3.38-3.3,5.5-4.43l3.6-1.5ZM216.3,236.32c.51-5.93-5.4-9.45-10.75-8l4.14,1.78c1.8,1.1,3.6,2.23,4.95,3.87.62.75.9,1.76,1.66,2.34ZM142.37,233.56c-.1.49.25.68.54.97,6.52,6.56,16.49,11.92,25.61,13.56,15.09,2.72,30.53-3.49,40.61-14.67l-7.82,5.15c-9.48,5.22-20.05,7.78-30.91,6.53-10.2-1.17-19.87-5.47-28.04-11.55ZM187.34,252.6c-7.43,2.76-16,2.69-23.45,0,5.18,6.13,15.87,6.08,22.05,1.49l1.4-1.49Z"/><path class="CrlMsct-1" d="M200.57,90.67c-.11.25-.22.53-.15.82.39,1.61,1.37,3.6,1.88,5.3.3.98,1.58,6.5,1.85,6.72.23.19.86-.27,1.11.26-1.89.5-3.17,2.72-1.93,4.55-20.1.37-40.3,2.85-59.87,7.31-16.52,3.77-32.97,9.23-48.27,16.42l1.93-11.03c.26-.3,2.08,1.52,2.14,1.82.25,1.3-1.22,3.59,1.24,4.59,4.37,1.78,10.97-6.93,7.66-10.42-1.16-1.22-2.12-.32-2.78-.56-.28-.1-1.74-1.8-2.19-2.2-.4-.36-2.55-1.6-2.21-2.06,1-.26,2-.64,2.94-1.06,28.66-12.85,58.88-19.76,90.44-20.47,1.95-.04,4.21-.73,6.2.02ZM188.64,98.44c-2.84.64-2.75,5.13.53,5.45,4.08.39,3.78-6.43-.53-5.45ZM143.12,105.06c-2.63.59-2.66,4.98.29,5.41,4.21.61,4.16-6.41-.29-5.41ZM114.99,113.6c-2.98.61-2.9,6,1.02,5.46,3.83-.53,2.53-6.18-1.02-5.46Z"/><path class="CrlMsct-1" d="M142.65,86.79l.67.56,19.47,3.3-2.57.45-17.84-2.37,1.04.75,13.58,2.27-17.65,3.86c-.21-.24.31-3.8.45-4.37.27-1.07,1.34-2.49,1.4-2.97.14-1.15-.67-3.18-.4-5.14.22-1.63,1.43-2.96,1.58-3.95.19-1.29-.57-2.33-.52-3.52.09-2.19,1.75-4.4,1.91-5.58.28-2.07-1.14-3.67.14-7.01.24-.64,1.1-1.45,1.13-2.07.02-.68-.74-1.7-.72-2.75.02-1.84,1.14-7.49,1.8-9.25,2.17-5.75,7.51-7.19,12.25-10.09,1.1-.67,2.68-2.35,3.73-2.34,1.03,0,10.18,1.51,10.62,1.83,3.08,3.94,7.79,6.4,9.81,11.16,1.84,4.34,1.4,10.11.3,14.63-.19.78-.93,1.72-.98,2.35-.05.69.52,1.55.56,2.46.03.71-.19,2.56-.36,3.25-.29,1.15-1.43,2.2-1.54,2.89-.1.65.64,2.98.47,4.6-.21,1.95-1.75,3.72-1.83,4.49-.12,1.07,1.85,3.69-.2,4.52-3.73-.14-8.26,1.44-11.85,1.38-1.75-.03-4.48-.84-6.4-1.08-6.01-.74-12.02-1.49-18.03-2.24ZM182.37,55.62l-35.31-4.97c.08.49.55.48.92.59,1.33.4,3.39.72,4.82.97,7.3,1.32,15.47,2.52,22.85,3.36,1.76.2,4.06.51,5.77.54.25,0,1.01-.1.95-.5ZM180.99,65c-.12-.51-.69-.56-1.1-.69-1.46-.46-3.81-.67-5.42-.92-9.19-1.43-18.48-2.33-27.69-3.62.85.92,2.82,1.07,4.08,1.3,9.94,1.81,20.1,2.78,30.13,3.94ZM180.17,66.38l-33.93-4.69c-.13.79.16.46.64.59,9.3,2.53,21.08,2.4,30.66,4.39l2.63-.28ZM179.61,73.55l-34.21-4.69c-.07.39.48.38.77.47,8.91,2.8,21.5,2.43,30.82,4.49l2.62-.27ZM179.06,75.49l-34.21-4.69c-.06.4.49.38.77.46,1,.28,2.23.42,3.27.59,9.02,1.47,19.61,3.26,28.65,3.91.33.02,1.51.23,1.51-.27ZM178.79,82.66l-34.76-4.97c-.13.75.14.48.6.63.56.18,1.24.27,1.83.39,7.88,1.57,23.79,4.54,31.37,4.22.33-.01,1.03.21.96-.27ZM177.96,84.59l-34.21-4.69c.33.58,1.73.68,2.38.79,9.71,1.66,20.81,3.39,30.59,4.17.3.02,1.28.22,1.24-.27Z"/><path class="CrlMsct-1" d="M111.99,218.35c-7.89,2.61-15.59-1.63-20.65-7.56-5.75-6.74-9.01-17.6-7.33-26.35,2.22-11.62,13.58-13.52,21.13-5.1,5.01,5.59,5.47,9.89,6.06,17.11.6,7.27.64,14.61.79,21.89ZM99.89,204.59v-4.28c0-.21.53-1.46.68-1.8,2.41-5.64,6.71-.7,7.25,3.25.85,6.22-2.82,12.44-8.75,6.69-.48.51,2.47,2.67,3.08,2.85,3.45,1,5.92-.98,7.17-4.04,3.3-8.03-2.96-23.25-11.22-26.4-7.69-2.93-10.75,3.42-10.93,10.08l.57,2.62c.03-4.83,1.73-11.53,7.8-10.69.32.04,1.5.35,1.58.76-4.81,1.71-5.69,7.08-5.51,11.59l2.06-5.52c1.12-2.18,3.42-4.25,6.06-3.84,2.13.33,5.56,6.12,5.95,8.26-6.73-2.99-9.11,6.21-5.79,10.48Z"/><path class="CrlMsct-1" d="M239.51,218.63c.02-2.97-.13-5.97-.04-8.95.16-5.4.65-19.71,2.52-24.24,5.93-14.27,24.41-16.22,25.62,1.9,1,14.96-10.92,35.14-28.11,31.28ZM263.76,193.28v-5.38c0-.44-.74-2.61-.97-3.17-1.64-3.97-5.26-5.51-9.31-4.08-8.59,3.03-14.53,18.12-11.64,26.42,1.21,3.49,4.81,6.02,8.27,3.6.54-.38,2.18-1.95,1.93-2.48-6.34,6.98-10.3-1.71-8.27-7.99,1.07-3.32,4.94-6.42,6.8-1.85.97,2.37.81,4.34.5,6.81l1.53-3.3c.91-4.95-1.74-10.45-7.32-7.46,1.61-3.89,5.06-11.61,10.18-7.29,2.28,1.93,2.75,4.39,3.41,7.08.07.28.08.83.47.77v-4.28c0-.25-.86-2.66-1.05-3.09-1-2.19-2.32-2.91-4.19-4.22,3.97-1.48,6.61-.25,8.13,3.59l1.52,6.34Z"/><path class="CrlMsct-1" d="M142.37,59.76l-1.23-.55c-.96,1.2-.53,3.08,1.23,2.62-.78,1.17-1.36,3.87-1.32,5.25.03.89.63,1.71.5,2.73-.2,1.57-1.62,3.54-1.66,6.11-.01.99.84,2.35.71,2.91-.16.68-1.35,1.82-1.72,3.5-.58,2.64.31,3.68.18,5.42-.05.66-.65,1.06-.83,1.65-.68,2.19-.93,4.46-.83,6.76l-5.6,1.41-15.07-38.09c9.68-1.81,18.87-5.79,27.31-10.76-.91,3.59-1.71,7.31-1.66,11.03Z"/><path class="CrlMsct-1" d="M210.49,87.59l-23.42.3,6.63-23.17,21.12,6.07-4.32,16.8ZM200.23,71.12c-2.64.58-1.68,4.83.97,4.32,2.8-.54,2.34-5.04-.97-4.32ZM207.14,78.01c-3.07.39-2.28,5.36,1.25,4.31,2.18-.65,1.35-4.64-1.25-4.31ZM201.06,79.12c-2.33.52-1.78,4.53.98,4.04,2.41-.43,2.02-4.71-.98-4.04Z"/><path class="CrlMsct-1" d="M86.43,60.64c-.77,1.3,1.86,3.54,2.84,1.61l4,4c-2.15,1.25-1.89,3.12.29,4.15-.78,2.53-5.46,7-8.13,6.74l-21.95-20.27c2.62-1.69,4.94-3.62,7.03-5.93l2.75-4.42,13.93,13.65c-.01.21-.67.31-.76.47Z"/><path class="CrlMsct-1" d="M159.48,275.22c8.8,7.82,22.03,10.55,32.83,5.24l.22,5.19c-6.82,3.99-13.9,8.72-16.5,16.61-1.21-1.52-1.94-3.4-3.08-5.05-3.46-5.01-8.39-7.97-13.48-11.1l-.23-.3c-.05-.24.24-.44.24-.52v-10.07Z"/><path class="CrlMsct-1" d="M155.61,274.39c-1.13-.84-2.52.31-3.46.25-.39-.03-.69-.44-1.1-.51-1.69-.31-3.14.64-3.45,2.32l.55.27c-.72,1.47.06,2.96.8,4.21,2.85,4.84,10.52,8.64,15.04,12,4.4,3.26,7.2,7.01,9.29,12.08-.74-.08-1.65.13-2.35,0-1-.19-1.94-3.46-2.47-4.43-4.59-8.46-10.86-10.01-14.38.3-5.96-2.25-11.51-5.41-16.63-9.16.77-2.5,2.1-4.81,2.86-7.4.76-2.61,1.07-5.28,1.59-7.93,1.66-.79,3.29-1.65,5.03-2.28,1.29-.47,6.99-2.15,7.94-1.88.9.26.79,1.42.75,2.16ZM157.27,291.49l-8.01-7.3-2.75-3.73c.96,5.2,6.28,8.86,10.76,11.03Z"/><path class="CrlMsct-1" d="M137.13,36.86l.32,1.07,1.33.05.56,1.79-1.65.14c.46,1.57,1.17,4.11,2.77,4.82.64.29,1.59-.1,1.78.97.07.39-.37.58-.4.97s.36.9.16,1.24c-.25.41-6.28,3.38-7.23,3.82-5.92,2.74-12.21,4.89-18.59,6.27l-4.29-11.2c5.92-1.28,11.67-3.49,17.17-6.01,1.05-.48,7.73-4.18,8.09-3.91Z"/><path class="CrlMsct-1" d="M260.9,57.37c.77.8,2.4,2.34.37,2.66v-1.65c-6.51,6.8-12.49,14.3-19.46,20.69l-.1.64.79.88c-4.14,3.52-8.2,5.83-13.86,4.48-1.48-.35-2.05-1.38-2.12-2.87-.15-2.86,4.27-3.67,6.47-3.41.64.08,1.57.28,1.51,1.11l-1.37.41c.28,1.02,1.3.99,1.58,1.32.44.52.1,1.69.21,1.88.85,1.47,4.02-1.63,3.44-2.22l-1.65.55c.17-3.24-2.01-3.96-4.69-4.55,9.79-6.11,18.16-14.15,26.35-22.2.65.89,1.83,1.57,2.52,2.3Z"/><path class="CrlMsct-1" d="M117.2,91.54c.17.29,0,.86.2,1.31.81,1.85,3.31.91,2.9-1.1,1.46.28,1.06,1.49.68,2.48-.33.87-1.04,2.49-1.79,2.9l2.48,3.72-15.65,6.31-.76-.24-7.04-8.97c6.43-1.02,11.4-4.8,16.19-8.93.54-.08,1.46,1.44,1.87,1.91.25.29.84.46.92.59Z"/><path class="CrlMsct-1" d="M98.78,114.38l-.55-1.24c-.04-.21.27-.18.41-.13.8.26,5.65,4.14,5.93,4.83l-.55.82c.54.57.84,1.18,1.65.69.28,2.15-1.47,4.06-3.45,4.6-1.9-2.42-3.86-4.46-6.57-6.02-4.39-2.54-9.42-3.06-13.97-5.07-5.33-2.35-8.97-6.42-12.33-11.03.97-1.88,2.53-3.51,2.95-5.65.14-.11.53.41.66.58.36.44,3.26,4.67,3.35,4.96.2.62-.46.75-.31,1.09.78.59,1.62,1.97,2.57,2.16,1.78.36,2.4.59,4.11,1.65,1.79,1.11,1.06,1.43,1.45,1.84,1.04,1.07,7.78,2.84,9.67,3.59,1.71.68,3.29,1.61,4.97,2.34Z"/><path class="CrlMsct-1" d="M207.18,288.47c-.22-.15-.87.24-1.22.21-.96-.07-1.91-.55-2.9-.5,1.29,1.58,1.59,6.94,2.45,8.11.26.36.94-.1.86.43l-9.1,4.14c-.65-2.06-1.57-4.81-3.31-6.21-6.04-4.89-11.37,5.83-13,10.32l-2.45.03c1.56-4.99,5-9.15,9.13-12.25,2.12-1.59,4.5-2.85,6.68-4.35,1.3-.9,4.05-3.46,5.15-3.96.44-.2,1.09.85,1.53.15.27-.43.03-1.2.19-1.74.32-1.12,2.83-3,2.43-4.88l2.9,1.93c.67,2.09.11,5.25,1.78,6.78.62.57,1.53.6,1.82,1.49.25.75.37,1.77-.57,1.95-2.29.44-1.96-1.36-2.36-1.64ZM193.96,291.77c4.43-2.44,10.09-5.97,11.03-11.31-.8.75-1.18,1.76-1.92,2.63-2.47,2.92-5.83,4.98-8.43,7.57-.32.32-.77.59-.68,1.11Z"/><path class="CrlMsct-1" d="M211.34,61.69l-9.65-2.49,8.41-22.92c1.03-.24,6.25,1.29,6.44,2.11l-5.2,23.29ZM211.88,39.08c-1.18-.51-2.33-.43-1.79,1.09,1.02.95,1.89.2,1.79-1.09ZM206.37,55.89l4.16-13.1-.46-.66-.96.13-4.06,12.19.08.89,1.25.55Z"/><path class="CrlMsct-1" d="M237.8,30.54c.2.9-.37,2.05.47,2.7,1.86,1.44,2.53.76,4.07-.5l1.77,1.78c-2.56,1.92-.78,5.4,2.27,4.27,1.41,3.85-1.93,2.13-2.43,3.78-.54,1.79.22,2.66,1.58,3.58l-.8,1.91-.37.08c-2.51-1.99-5.33,1.09-3.25,3.49l-2.16,1.13-.42-.16c-.37-.47-.57-1.7-1.16-1.9-2.43-.82-3.02,1.05-3.13,2.99l-2.18-.58-.2-2.76c-.84-.23-1.81-.93-2.71-.81-.82.11-1.04,1.26-1.93,1.13-1.75-1-1.99-2.1,0-3.05l-1.03-2.71-2.27-.08-.61-2.17c.48-.57,1.49-.41,1.97-.8.53-.43.57-2.54.26-3.06-.28-.47-1.53-.42-1.52-1.22l1.11-1.96c.61-.32,1.82,1.36,3.46-.38,1.17-1.24.28-1.83-.13-3.16l2-.97c1.47,2.74,4.71,2.53,4.91-.81l2.42.27ZM233.06,34.17c-2.54.4-5.3,3.27-5.82,5.77-1.29,6.23,4.65,11.42,10.58,8.93,7.97-3.35,5.37-16.3-4.76-14.69Z"/><path class="CrlMsct-1" d="M224.78,87.13c10.46-2.13,15.3,18.39,4.07,17.32-8.37-.8-11.82-15.74-4.07-17.32ZM226.45,92.93c-6.29.34-1.59,12.22,3.64,8.33,3.24-2.41.28-8.54-3.64-8.33Z"/><path class="CrlMsct-1" d="M261.55,93.14c-1.25.43-3.97-.16-4.64,1.02-.15.26-1.07,3.52-1.02,3.7l2.85,3.14-2.43,3.33c-.6.38-3.19-1.88-4.05-2.04-.52-.04-2.72,2.49-3.4,2.04-.27-.47-.95-1.29-.7-1.8s2.71-2.07,3.46-2.91c5.8-6.57,3.23-17.34-4.96-20.41l1.55-2.05,4.1,2.36,4-1.98,2.2,3.34-2.76,3.31,1.36,3.81,4.44.45v4.69Z"/><path class="CrlMsct-1" d="M228.17,108.04c-.06.35-.51.61-.82.7-1.06.31-8.56-.21-10.09-.41-2.98-.4-7.64-8.25-7.54-11.2.06-1.48,6.19-6.03,7.68-7.02-2.51,7.41,2.73,17.05,10.76,17.93Z"/><path class="CrlMsct-1" d="M116.94,80.22c.65,1.05-1.03,4.06-1.66,5.01-3.05,4.58-11.28,10.78-16.91,10.96-5.6.18.3-6.8,2.2-8.28l1.26.97c-.54,1.57-2.47,2.35-2.22,4.25.6.87,5.19-1.59,6.04-2.08,2.09-1.22,4.69-3.21,6.23-5.08,4.07-4.91.04-3.87-3.32-2.01l-1.23-1.18c-.14-.62,3.35-2.02,4.05-2.26,1.17-.4,2.84-1.04,4.05-.88.23.03,1.44.5,1.49.59Z"/><path class="CrlMsct-1" d="M247.21,101.14l-1.38-3.3c6.93-4.38,3.71-14.28-4.42-14.36l4.01-3.32c9.63,2.63,10.87,16.81,1.79,20.98Z"/><path class="CrlMsct-1" d="M213.82,68.86l-18.48-5.1c1.28-.63,3.97-3.16,5.17-3.4,1.97-.4,8.66,2.53,10.99,2.97l2.33,5.53Z"/><polygon class="CrlMsct-1" points="107.88 87.34 104.3 89.41 91.89 78.1 95.3 75.23 107.88 87.34"/><path class="CrlMsct-1" d="M140.99,31.9c-3.23,3.01-7.43,5.07-11.4,6.94-5.68,2.68-11.91,5.21-18.12,6.29,4.35-3.56,9.81-6.35,14.99-8.6,3.44-1.49,7.68-3.23,11.29-4.16,1.09-.28,2.08-.63,3.24-.48ZM130.23,36.31c-.54-.5-8.73,3.51-9.63,4.3-.31.28-.68.42-.57.94,2.66-.76,5.62-1.74,8-3.17.28-.17,2.72-1.59,2.2-2.07Z"/><path class="CrlMsct-1" d="M243.48,84.86c5.61.88,6.95,9.6,1.66,11.87-2.12-3.89-4.73-7.59-5.94-11.87,1.33.14,3-.2,4.28,0Z"/><path class="CrlMsct-1" d="M246.1,150.52c.07.47-.65.29-.96.27-3.97-.29-9.21-1.7-12.98-3.03-8.83-3.09-17.27-8.59-23.86-15.18l8.85,5.91c8.96,5.28,18.67,10.02,28.94,12.03Z"/><path class="CrlMsct-1" d="M264.31,47.34c-.16,1.25,4.41,4.67,4.41,5.1l-5.37,5.37-5.1-5.1,5.37-5.11.69-.27ZM264.77,50.44c-2.78.24-2.79,4.71.45,3.74,2.11-.63,1.27-3.89-.45-3.74Z"/><path class="CrlMsct-1" d="M62.09,103.89c.12-.45.81-.47,1.24-.82,4.51-3.66,6.43-10.55,6.22-16.15-.01-.34-.64-2.1.12-1.78,5,5.18-.12,18.85-7.58,18.75Z"/><path class="CrlMsct-1" d="M67.61,85.69c-5.77,2.62-8.89,11.15-7.17,17.11-3.28.35-2.52-4.58-2.17-6.72.5-3.09,2.5-7.4,4.67-9.68,1.24-1.3,3.87-3.46,4.68-.7Z"/><path class="CrlMsct-1" d="M248.86,160.18l-2.36.28c-9.16-.57-17.92-2.81-26.25-6.58-2.04-.92-4.39-2.05-6.16-3.36,11.18,4.41,22.85,7.84,34.76,9.66Z"/><path class="CrlMsct-1" d="M195.34,154.66c.07.5-.58.23-.84.15-7.34-2.1-16.14-7.57-21.37-13.12l-4.55-6.07c7.89,7.51,16.64,14.77,26.76,19.04Z"/><path class="CrlMsct-1" d="M230.45,68.52l-.32-1.13c3.58-1.65,2.86-6.92-1.02-7.06-1.96-.07-3.46,2.92-3.95-.1,6.48-5.52,13.75,4.67,5.91,8.53l-.62-.24Z"/><path class="CrlMsct-1" d="M181.55,157.97c-7.07-2.91-13.24-7.92-18.21-13.66v-.41s.78-.04.78-.04l.18-.79c5.26,5.51,11.01,10.51,17.24,14.89Z"/><path class="CrlMsct-1" d="M62.09,55.62c-.72-.83,2.25-5.02,2.89-5.8,1.74-2.09,4.03-4.04,6.63-4.95.25.2.39.33.42.67.3,3.14-6.51,9.99-9.94,10.08ZM68.89,47.65c-.86.08-5.72,4.15-3.91,5.48,1.22-.46,4.58-3.64,4.56-4.83,0-.36-.26-.72-.65-.64Z"/><path class="CrlMsct-1" d="M260.17,141.7c-.19.49-1.63.31-2.08.28-9.18-.53-18.15-3.67-24.96-9.94l7.9,4.1c6.08,2.71,12.5,4.73,19.13,5.56Z"/><path class="CrlMsct-1" d="M221.55,87.35c-5.92,5.95-.66,16.69,6.78,18.46h3.71c-8.43,2.96-14.79-5.82-13.77-13.61.22-1.69,1.58-4.27,3.29-4.85Z"/><path class="CrlMsct-1" d="M110.37,169.55l2.48-20.41c.83,7.01.18,13.87-2.48,20.41Z"/><path class="CrlMsct-1" d="M172.17,30.24l-.55,3.86c-.52.02-.56.13-.56-.42,0-1.07.52-2.1.56-3.17-.98.28-.79,3.53-1.51,3.58-.56.04-.19-.81-.17-.99.06-.88.25-1.72.31-2.59-.73-.12-.49.12-.63.6-.26.87-.28,1.83-.48,2.71-.38.4-.51-.04-.56-.42-.13-1.07.44-2.1.28-3.17-1.31.65.33,3.19-1.38,3.31l.27-3.58c-.39-.06-.4.49-.47.77-.21.86-.3,1.93-.36,2.82h-.83s.27-3.59.27-3.59c-1.2.66.25,3.23-1.38,3.31l.27-3.59c-.84.48-.49,1.76-.75,2.71-.13.49.08.71-.63.6l.27-3.86,8,1.11Z"/><path class="CrlMsct-1" d="M238.38,107.48c-1.24.27-1.76-1.06-2.85-1.33-.56.52-2.09,1.13-2.36,1.79-.44,1.09,1.35.57,1.62,1.48l-4.69-.28,3.55-2.65c2.09-2.39,3.3-5.22,3.62-8.38,1.23.6.2,2.7.34,3.42.07.37.76.72.76.86,0,.1-.76.66-.94.99-.82,1.54-.19,2.99.94,4.12Z"/><path class="CrlMsct-1" d="M214.65,108.31c-1.22-.15-2.9.39-3.88-.39-.75-.6-3.11-6.01-2.68-6.73l1.05-.48c1.26,3.03,3.42,5.16,5.51,7.59Z"/><path class="CrlMsct-1" d="M231.11,65.73c-.56.57-1.27.88-1.99.39-.2-.14-2.23-3.06-2.28-3.25-.56-1.93,4.03-2.56,4.8-.09.31.99.23,2.19-.52,2.95Z"/><path class="CrlMsct-1" d="M217.13,148.04c.04.54-.83.2-1.12.15-2.95-.56-6-1.85-8.89-2.7l-7.1-3.52c.6-.19,1.15.46,1.56.49.51.04.79-.55,1.47-.38,2.21.54,7.27,3.65,9.93,4.71,1.29.52,2.76.97,4.13,1.25Z"/><path class="CrlMsct-1" d="M105.95,172.59l-1.57-3.53c-1.21-3.59-1.68-7.14-1.48-10.94l.64-.14.21-1.11.86,8.37,1.34,7.35Z"/><path class="CrlMsct-1" d="M116.44,163.21l3.86-13.79c-.09.56.49,1.05.52,1.5.08,1.28-.68,4.72-1.09,6.07-.63,2.07-1.86,4.61-3.29,6.22Z"/><path class="CrlMsct-1" d="M195.14,138.03c.29.17.76.05,1.05.21l-.02.7c1.48-.51,2.41,1.23,3.86,1.38-.48.67-.87.26-.69,1.37-5.04-2.91-9.67-6.52-13.93-10.48l9.05,5.99c.35.11.5.71.69.82Z"/><path class="CrlMsct-1" d="M100.16,124.31c1.38,1.3,2.19,1.2,3.78.33,2.52-1.38,4.36-4.7,2.29-7.23,3.1.71,1.32,4.5,0,6.2-1.5,1.93-6.12,5.25-6.06.7Z"/><path class="CrlMsct-1" d="M246.38,144.73c.05.49-.93.29-1.23.27-2.25-.17-4.66-.84-6.84-1.44l-3.24-1.59,11.31,2.76Z"/><path class="CrlMsct-1" d="M209.41,108.31c-.39,0-.81.06-1.19-.05-1.15-.35-2.31-5.63-1.57-6.84l2.75,6.89Z"/><path class="CrlMsct-1" d="M173.55,36.03c.02.49.14.59-.41.55-1.42-.09-3.18-.41-4.65-.59-2-.25-4.36-.51-6.31-.87-.46-.09-1.23-.04-1.04-.75l12.41,1.66Z"/><path class="CrlMsct-1" d="M93.1,74.27c.13.13.47.1.44.25-1.26,1.95-3.32,3.69-5.79,3.45,1.78-1.3,3.69-2.39,5.11-4.13.2-.08.08.27.25.44Z"/><path class="CrlMsct-1" d="M240.79,103.96c1.17,1.18-.21,3.41-1.67,2.44-1.64-1.09.03-4.09,1.67-2.44Z"/><path class="CrlMsct-1" d="M67.88,87.07v2.76c-1.63-.89-2.45.04-3.86.83-.35-.38,2.79-4.09,3.86-3.59Z"/><path class="CrlMsct-1" d="M122.23,88.72c-2.02-1.39-3.74-3.47-3.86-6.07l3.42,4.99.44,1.08Z"/><path class="CrlMsct-1" d="M246.93,107.48c-2.03-1.39-2.72-4.28-3.03-6.62l2.72,5.41.31,1.21Z"/><path class="CrlMsct-1" d="M213,289.01c-.67.51-1.95-1.75-2.08-2.19-.29-.96-.06-2.06-.12-3.05l2.2,5.24Z"/><path class="CrlMsct-1" d="M185.68,303.91l-2.7.75-1.72.07,1.79-2.48c.45,1.33,1.18,1.8,2.62,1.66Z"/><path class="CrlMsct-1" d="M206.37,108.31l-.96-.83-.69.83c-.95-4.08,1.11-3.1,1.65,0Z"/><path class="CrlMsct-1" d="M61.81,98.93h-.82c-.19-.19.35-2.51.47-2.98.14-.53.42-1.71.9-1.99.21,1.77-.91,3.13-.55,4.97Z"/><path class="CrlMsct-1" d="M209.6,276.4c.26.36.52,1.7.22,2.12l-.69-1.24-1.93-2.07c.53.07,2.15.85,2.4,1.18Z"/><path class="CrlMsct-1" d="M163.89,28.86c-.24,1.1-.15,2.29-.35,3.38-.09.48-.12.91-.75.75.18-1.09.2-2.24.41-3.32.1-.49,0-.98.69-.81Z"/><path class="CrlMsct-1" d="M195.86,161.86c.66,2.74-1.95.27-2.73-.58l2.73.58Z"/><path class="CrlMsct-1" d="M269.55,51.2c-.34-.42-3.75-2.83-3.31-3.31.61.09,3.64,2.93,3.31,3.31Z"/><path class="CrlMsct-1" d="M157.82,300.32c.36-1.28,1.11-2.78,2.2-3.59-.42,1.24-1.26,2.69-2.2,3.59Z"/><path class="CrlMsct-1" d="M172.99,30.52c-.29.96-.25,1.98-.51,2.95-.13.48.19.77-.59.64.18-.97.25-1.99.51-2.95.13-.47-.2-.77.59-.64Z"/><path class="CrlMsct-1" d="M125.54,93.69c-.37.38-2.1-1.46-1.37-2.2l1.37,2.2Z"/><path class="CrlMsct-1" d="M208.86,90.66c-.68,1.17-2.28.22-3.31.27-.06-.48.63-.26.96-.27.78-.03,1.57.02,2.35,0Z"/><path class="CrlMsct-1" d="M243.06,99.21c-1.03-.51-1.43-1.66-1.37-2.76l1.37,2.76Z"/><path class="CrlMsct-1" d="M241.96,107.21c1.04-1.12.81-1.94.69-3.31.74.87.76,3.27-.69,3.31Z"/><path class="CrlMsct-1" d="M157.54,135.35c-.67.12-.86-.62-1.1-1.1.67-.12.86.62,1.1,1.1Z"/><path class="CrlMsct-1" d="M161.4,140.04c-.5-.29-1.17-.8-1.1-1.38.5.29,1.17.8,1.1,1.38Z"/><path class="CrlMsct-1" d="M192.3,297.84l-1.1-1.1c.55-.07,1.16.51,1.1,1.1Z"/><path class="CrlMsct-1" d="M160.3,140.04c-.45-.2-.91-.61-.82-1.1.45.2.91.61.82,1.1Z"/><path d="M195.06,191.63l-.55,2.07c-.6,4.61-.09,9.13.82,13.65l-1.41-3.96c-3.09-9.53.3-26.79,11.56-29.34,13.57-3.07,18.62,15.86,16.58,25.96l-1.62,5.96c.89-6.16.81-12.38-1.1-18.35-3.05-9.5-11.18-15.15-19.32-6.76.68-.03,1.08-.64,1.74-.88,5.14-1.84,9.13,2.07,11,6.49,2.72,6.44,2.08,14.31-1.43,20.32l7.5.91,3.53,1.29c-8.9-1.18-17.95-.43-26.76,1.1l4.41-1.79c-1.7-2.27-3.29-5.06-4.06-7.8-.26-.92-.9-3.54-.9-4.34v-4.55ZM201.61,184.5c-3.36.53-2.65,8.04.98,6.23,2.59-1.29,1.73-6.66-.98-6.23Z"/><path d="M155.89,196.46c-.32,3.11-1.83,7.15-3.37,9.88-.32.57-1.19,1.41-1.32,1.71-.22.5.21.36.4.42,1.02.31,1.9.54,2.89.97.34.15,1.11.26,1.12.67-8.88-1.45-18.08-2.39-27.03-1.1.09-.51.57-.46.93-.59,3.21-1.09,7.01-1.32,10.38-1.62-2.37-3.81-3.6-8.88-3.31-13.37.49-7.35,5.35-17.03,14.06-12.83.15-.61-.35-.61-.63-.88-4.55-4.43-10.73-3.52-14.65,1.19-5.7,6.86-6.07,17.55-4.31,25.9-.49-.21-.68-1.29-.83-1.79-2.1-6.74-2.21-14.04.27-20.7,5.49-14.71,20.37-13.79,25.8.43,2.29,6.01,2.27,12.73.73,18.93l-1.41,3.69c1.22-4.72,1.32-9.34.79-14.17l-.52-2.1c-.13,1.73.17,3.68,0,5.38ZM148.91,184.5c-3.08.48-2.57,6.69.48,6.59,3.36-.11,2.7-7.09-.48-6.59Z"/><path d="M153.93,166.22c-10.15-1.3-20.77.99-28.39,8.02,1.98-12.19,13.54-17.36,24.96-16.55.66.05,3.38.38,3.73.68.74.63-.08,6.57-.3,7.84Z"/><path d="M142.37,233.56c8.16,6.08,17.83,10.38,28.04,11.55,10.85,1.25,21.43-1.31,30.91-6.53l7.82-5.15c-10.08,11.18-25.52,17.39-40.61,14.67-9.12-1.65-19.09-7-25.61-13.56-.29-.29-.65-.48-.54-.97Z"/><path d="M185.96,215.63c2.61,2.4,4.6,6.52,2.53,9.85s-3.7,1.39-6.14,2.14c-.71.22-1.42,1.28-2.1,1.76-3.14,2.21-6.16,2.19-9.28,0-.68-.48-1.39-1.54-2.1-1.76-2.3-.71-4.04.84-6.08-1.92-2.49-3.36-.12-7.79,2.75-10.07-1.19,2.53-2.47,5.29-.98,8.01,1.55,2.83,2.21.31,3.81.58,2.15.37,3.3,3.27,6.12,3.55,4.08.41,4.12-1.29,6.9-2.78,2.66-1.42,3.16,1.14,4.68-.29,2.21-2.1.92-6.64-.11-9.08Z"/><path d="M169.96,212.87c4-1.53,8.64-.93,12.13,1.52-1,0-1.96-.66-2.97-.89-3.3-.75-7.9-.31-10.5,2.03l-1.42,4.23c-.43-3.84,1.42-7.71,2.12-11.53.77-4.15,1.15-8.96.92-13.17-.03-.62-1.06-7.02-.7-7.03,2.5,8.02,2.84,16.74.42,24.83Z"/><path d="M187.34,252.6l-1.4,1.49c-6.18,4.59-16.86,4.64-22.05-1.49,7.45,2.68,16.01,2.76,23.45,0Z"/><path d="M216.3,236.32c-.76-.57-1.04-1.59-1.66-2.34-1.36-1.64-3.16-2.78-4.95-3.87l-4.14-1.78c5.35-1.45,11.27,2.06,10.75,8Z"/><path d="M145.4,228.32l-3.6,1.5c-2.12,1.13-3.91,2.65-5.5,4.43l-1.38,2.06c-.62-5.6,5.42-9.37,10.48-8Z"/><path d="M136.75,217.03c1.18-.2,1.06,2-.31,1.64-.76-.2-.32-1.53.31-1.64Z"/><path d="M210.79,214.8c-.5-.69,1.23-2.03,1.61-.64.33,1.21-1.41.91-1.61.64Z"/><path d="M138.81,213.73c1.37-.86,2.04,1.92.13,1.34-.6-.18-.33-1.21-.13-1.34Z"/><path d="M213.73,217.05c1.29-.35,1,1.49.23,1.55-.85.06-1.41-1.23-.23-1.55Z"/><polygon points="130.79 217.84 131.71 217.62 132.42 218.49 131.51 219.2 130.79 217.84"/><path d="M218.8,218.93c-.16-.11-.16-1.26,0-1.37.24-.16,1.25.02,1.37.41.26.85-.95,1.24-1.37.96Z"/><path d="M129.82,210.39c1.24-.37,1.12,1.48.27,1.65-.79.16-.97-1.44-.27-1.65Z"/><path d="M127.63,214.26c1.31-.4,1.58,1.16.8,1.36s-1.76-1.07-.8-1.36Z"/><path d="M125.44,217.03c.86-.15,1.25,1.43.2,1.61-.86.15-1.25-1.43-.2-1.61Z"/><path d="M123.86,215.05c-.12.19-1.21.46-1.35-.11-.4-1.63,2.26-1.35,1.35.11Z"/><path d="M132.72,213.71c.33-.26,1.64.05,1.37.95-.35,1.16-2.24-.27-1.37-.95Z"/><path d="M134.37,222.25c-.33-1.52,1.31-2.06,1.37-.42l-1.37.42Z"/><path d="M217.56,213.43c.82-.19,1.29,1.7-.02,1.58-.8-.07-.79-1.4.02-1.58Z"/><path d="M206.65,215.35l-1.37-.42c.07-1.64,1.7-1.11,1.37.42Z"/><path d="M209.68,217.29c.68.51-.5,1.81-1.09,1.37-.76-.56.28-1.98,1.09-1.37Z"/><path d="M215.21,220.88c.71-.9,2.12,1.01.68,1.37-.64.16-.88-1.11-.68-1.37Z"/><path d="M221.55,210.66c.36,1.89-1.98,1.87-1.06.04l1.06-.04Z"/><path d="M144.72,213.98c1.27-.36,1.27,1.73,0,1.37-.55-.16-.55-1.22,0-1.37Z"/><path d="M222.52,214.25c1.27-.36,1.27,1.73,0,1.37-.55-.16-.55-1.22,0-1.37Z"/><path d="M225.96,217.01l.16,1.11c-2.19,1.26-1.18-1.81-.16-1.11Z"/><path d="M142.37,217.28c.32.22.42,1.68-.69,1.38-.98-.27-.09-1.92.69-1.38Z"/><path d="M227.07,215.08v-1.1c1.83-.2,1.85,1.29,0,1.1Z"/><path d="M114.99,113.6c3.55-.72,4.84,4.93,1.02,5.46-3.92.54-4-4.85-1.02-5.46ZM115.54,114.98c-1.22.19-1.91,1.9-.85,2.67,2.87.96,3.08-3.01.85-2.67Z"/><path d="M188.64,98.44c4.31-.98,4.61,5.84.53,5.45-3.27-.31-3.37-4.8-.53-5.45ZM190.58,102.18c1.5-1.49-1.61-3.68-2.56-1.58-.77,1.72,1.56,2.57,2.56,1.58Z"/><path d="M143.12,105.06c4.45-1,4.5,6.01.29,5.41-2.95-.42-2.92-4.81-.29-5.41ZM143.4,106.44c-1.63.49-1.28,3.32.98,2.65,1.64-.49,1.38-3.35-.98-2.65Z"/><path d="M182.37,55.62c.06.4-.71.5-.95.5-1.71-.03-4.01-.34-5.77-.54-7.37-.84-15.54-2.04-22.85-3.36-1.43-.26-3.49-.57-4.82-.97-.37-.11-.84-.11-.92-.59l35.31,4.97Z"/><path d="M178.79,82.66c.07.48-.63.26-.96.27-7.57.31-23.48-2.65-31.37-4.22-.59-.12-1.27-.21-1.83-.39-.46-.15-.73.12-.6-.63l34.76,4.97Z"/><path d="M179.61,73.55l-2.62.27c-9.33-2.06-21.92-1.7-30.82-4.49-.29-.09-.83-.07-.77-.47l34.21,4.69Z"/><path d="M180.99,65c-10.02-1.16-20.19-2.13-30.13-3.94-1.26-.23-3.23-.37-4.08-1.3,9.21,1.3,18.5,2.2,27.69,3.62,1.61.25,3.96.46,5.42.92.41.13.98.18,1.1.69Z"/><path d="M177.96,84.59c.05.49-.93.29-1.24.27-9.77-.78-20.88-2.52-30.59-4.17-.66-.11-2.05-.2-2.38-.79l34.21,4.69Z"/><path d="M179.06,75.49c0,.5-1.18.29-1.51.27-9.04-.65-19.62-2.44-28.65-3.91-1.05-.17-2.27-.31-3.27-.59-.28-.08-.84-.07-.77-.46l34.21,4.69Z"/><path d="M180.17,66.38l-2.63.28c-9.58-1.99-21.36-1.85-30.66-4.39-.47-.13-.77.2-.64-.59l33.93,4.69Z"/><path d="M99.89,204.59c-3.32-4.27-.94-13.48,5.79-10.48-.39-2.14-3.82-7.93-5.95-8.26-2.63-.41-4.94,1.66-6.06,3.84l-2.06,5.52c-.18-4.51.71-9.88,5.51-11.59-.08-.41-1.26-.71-1.58-.76-6.07-.84-7.77,5.87-7.8,10.69l-.57-2.62c.18-6.65,3.24-13.01,10.93-10.08,8.26,3.15,14.52,18.37,11.22,26.4-1.26,3.06-3.72,5.04-7.17,4.04-.61-.18-3.56-2.34-3.08-2.85,5.94,5.75,9.61-.47,8.75-6.69-.54-3.96-4.84-8.89-7.25-3.25-.15.34-.68,1.59-.68,1.8v4.28Z"/><path d="M263.76,193.28l-1.52-6.34c-1.52-3.84-4.16-5.07-8.13-3.59,1.87,1.31,3.19,2.03,4.19,4.22.19.42,1.05,2.83,1.05,3.09v4.28c-.39.06-.41-.49-.47-.77-.66-2.69-1.13-5.15-3.41-7.08-5.12-4.32-8.57,3.4-10.18,7.29,5.58-2.99,8.23,2.51,7.32,7.46l-1.53,3.3c.31-2.47.46-4.44-.5-6.81-1.86-4.57-5.73-1.47-6.8,1.85-2.03,6.29,1.93,14.97,8.27,7.99.25.53-1.39,2.11-1.93,2.48-3.46,2.43-7.06-.11-8.27-3.6-2.89-8.29,3.05-23.38,11.64-26.42,4.05-1.43,7.68.11,9.31,4.08.23.56.97,2.73.97,3.17v5.38Z"/><path d="M207.14,78.01c2.6-.33,3.43,3.65,1.25,4.31-3.52,1.05-4.32-3.91-1.25-4.31ZM208.24,79.42c-1.49-1.46-2.96,1.91-.89,1.89,1.04-.01,1.55-1.24.89-1.89Z"/><path d="M200.23,71.12c3.31-.72,3.78,3.78.97,4.32-2.65.51-3.61-3.74-.97-4.32ZM200.5,71.93c-1.26.32-1.26,2.99.72,2.4,1.4-.42.76-2.78-.72-2.4Z"/><path d="M201.06,79.12c3-.68,3.39,3.61.98,4.04-2.75.49-3.31-3.51-.98-4.04ZM202.48,80.21c-1.2-.78-2.63.56-1.62,1.76l.69.3.83-.45.1-1.62Z"/><path d="M157.27,291.49c-4.47-2.17-9.79-5.83-10.76-11.03l2.75,3.73,8.01,7.3Z"/><path d="M193.96,291.77c-.09-.52.36-.79.68-1.11,2.6-2.6,5.96-4.66,8.43-7.57.74-.87,1.12-1.88,1.92-2.63-.94,5.34-6.6,8.87-11.03,11.31Z"/><polygon points="206.37 55.89 205.12 55.34 205.05 54.45 209.1 42.26 210.06 42.13 210.53 42.8 206.37 55.89"/><path d="M211.88,39.08c.1,1.29-.77,2.04-1.79,1.09-.54-1.53.61-1.61,1.79-1.09Z"/><path d="M233.06,34.17c10.13-1.61,12.73,11.34,4.76,14.69-5.93,2.49-11.87-2.69-10.58-8.93.52-2.49,3.28-5.36,5.82-5.77ZM233.9,35c-8.86,1.1-7.49,14.99,2.4,13.43,7.51-1.18,6.99-14.59-2.4-13.43Z"/><path d="M226.45,92.93c3.92-.22,6.87,5.92,3.64,8.33-5.22,3.89-9.93-7.98-3.64-8.33Z"/><path d="M130.23,36.31c.52.49-1.92,1.91-2.2,2.07-2.38,1.43-5.35,2.41-8,3.17-.11-.52.26-.66.57-.94.9-.79,9.1-4.8,9.63-4.3Z"/><path d="M264.77,50.44c1.72-.15,2.56,3.11.45,3.74-3.24.97-3.23-3.5-.45-3.74ZM264.48,51.5c-1.08.18-.73,2.05.2,1.89,1.08-.18.73-2.05-.2-1.89Z"/><path d="M68.89,47.65c.39-.07.64.29.65.64.02,1.19-3.34,4.37-4.56,4.83-1.82-1.33,3.04-5.4,3.91-5.48Z"/><path class="CrlMsct-1" d="M201.61,184.5c2.71-.43,3.57,4.94.98,6.23-3.63,1.81-4.34-5.7-.98-6.23Z"/><path class="CrlMsct-1" d="M148.91,184.5c3.18-.5,3.84,6.48.48,6.59-3.06.1-3.57-6.11-.48-6.59Z"/><path class="CrlMsct-1" d="M115.54,114.98c2.23-.34,2.02,3.63-.85,2.67-1.05-.78-.37-2.49.85-2.67Z"/><path class="CrlMsct-1" d="M190.58,102.18c-1,.99-3.33.14-2.56-1.58.94-2.1,4.06.09,2.56,1.58Z"/><path class="CrlMsct-1" d="M143.4,106.44c2.37-.7,2.62,2.16.98,2.65-2.27.67-2.62-2.16-.98-2.65Z"/><path class="CrlMsct-1" d="M208.24,79.42c.66.64.14,1.88-.89,1.89-2.07.02-.6-3.35.89-1.89Z"/><path class="CrlMsct-1" d="M200.5,71.93c1.48-.38,2.12,1.98.72,2.4-1.98.59-1.98-2.07-.72-2.4Z"/><path class="CrlMsct-1" d="M202.48,80.21l-.1,1.62-.83.45-.69-.3c-1.01-1.2.42-2.55,1.62-1.76Z"/><path class="CrlMsct-1" d="M233.9,35c9.38-1.16,9.9,12.25,2.4,13.43-9.89,1.56-11.26-12.33-2.4-13.43ZM234.42,37.23c-4.81.25-5.76,7.31-.88,8.74,6.6,1.94,8.03-9.11.88-8.74Z"/><path class="CrlMsct-1" d="M264.48,51.5c.94-.16,1.28,1.71.2,1.89-.94.16-1.28-1.71-.2-1.89Z"/><path d="M234.42,37.23c7.15-.37,5.72,10.68-.88,8.74-4.88-1.43-3.93-8.49.88-8.74ZM234.17,38.01c-4.18.62-4.11,7.5.73,7.37,5.06-.14,4.3-8.12-.73-7.37Z"/><path class="CrlMsct-1" d="M234.17,38.01c5.03-.75,5.79,7.23.73,7.37-4.84.13-4.9-6.75-.73-7.37Z"/><path d="M141.25,252.74l-2.02.5c-1.44,1.63,1.74,5.61,3.4,5.65,1.06.02,2.44-1.42,3.39-1.17,1.22.68,1.23,2.29,2.26,3.16,1.19,1.01,4.42,1.37,4.54,3.08.05.67-.45,1.57-.46,2.23-.05,2,3.58,2.91,3.91,4.76-.34.27-7.03-3.02-7.95-3.47-5.29-2.61-11.2-5.88-15.96-9.35-1.34-.97-5.79-4.29-6.06-5.74-.69-3.84,3.88-.78,5.39-.96,1.32-.78.11-2.27.61-3.08.26-.43,1.86-.69,2.22-1.48.77-1.69-2.7-3.27-1.98-4.42,1.06-1.71,5.68,1.3,6.63,2.48,1.19,1.49.84,2.12,1.24,3.68.35,1.36,1.06,2.69.84,4.13Z"/><path d="M228.14,223.68c.24.24-1.81,1.97-2,2.25,1.22,1.67,1.59.47,2.78-.39.45-.32,1.01-.76,1.56-.86l-2.51,2.75c1.14,1.6,2.8,2.87,3.51,4.76l-4.26-4c-.28.37-1.19.91-1.07,1.38.05.17,1.94,2.25,2.29,2.74.49.68,1.04,1.46,1.37,2.22l-4.42-4.34-.73,1.06c1.35,1.43,2.67,2.96,3.49,4.78l-4.26-4-3.42,3.84c.16-.6.51-1.23.8-1.78.27-.5,1.75-2.65,1.68-2.94-.07-.28-.66-.8-.99-.55l-3,3.27,2.48-4.23-3.48-3.28c.91-.02,3.79,2.59,4.25,2.51l.75-1.07c-.78-.84-1.75-1.48-2.49-2.36-.16-.19-.41-.27-.33-.58l3.56,2.32,1.09-1.2-1.65-1.95,2.4,1.49,2.61-1.82ZM225.58,226.7l-1.1,1.1.74.89,1.25-1.1c.04-.21-.67-.93-.89-.89ZM222.97,229.85l.88.32c1.57-1.14-.43-2.01-.88-.32Z"/><path d="M124.52,177.52l-3.32,4.53,1.41,1.65c1.63-1.43,2.74-3.48,4.79-4.41l-3.96,5.46c1.38,2.16,2.89,4.27,3.74,6.72l-4.53-5.53c-.31.54-1.56,1.72-1.42,2.28.07.25,1.44,2.16,1.72,2.73.53,1.07.94,2.29,1.35,3.41l-3.98-5.31-.86,1.83,2.18,5.04-2.99-4.21-2.77,4.43,1.97-5.6-1.41-1.93-3.65,5.31,2.8-6.31-4.35-5.64c.17-.15,1.22.71,1.43.89.52.42,1.17.98,1.67,1.43.57.51,1.09,1.34,1.53,1.74.21.19.26.19.56.15l.96-1.45-3.05-4.09c.42-.1.53.23.78.44,1,.84,1.88,2,2.88,2.88l1.61-1.88-2.16-2.99,3.1,2.21c.41-.9,1.45-1.88,2.22-2.55.22-.19,1.61-1.37,1.77-1.21ZM120.53,186.59l1.33-1.88-1.44-1.66-1.41,1.84c.17.35,1.14,1.96,1.51,1.7ZM118.76,189.25l.68-1.65-1.34-1.67-.86,1.63c.43.4.68.98,1.02,1.41.14.18,0,.41.5.28Z"/></svg>