<?xml version="1.0" encoding="UTF-8"?>
<svg xmlns="http://www.w3.org/2000/svg" xmlns:xlink="http://www.w3.org/1999/xlink" viewBox="1.3 55 120 90">
  <defs>
    <style>
      .clsCoin-1 {
        fill: #f17a10;
      }

      .clsCoin-2 {
        fill: #fdd835;
      }

      .clsCoin-3 {
        fill: #f9bf2e;
      }

      .clsCoin-4 {
        fill: url(#radial-gradient);
      }

      .clsCoin-4, .clsCoin-5, .clsCoin-6, .clsCoin-7 {
        mix-blend-mode: multiply;
      }

      .clsCoin-8 {
        fill: #fff;
      }

      .clsCoin-9 {
        fill: #fbc02d;
      }

      .clsCoin-10 {
        isolation: isolate;
      }

      .clsCoin-11 {
        fill: #faca32;
      }

      .clsCoin-12 {
        fill: #fbd736;
      }

      .clsCoin-6 {
        fill: url(#radial-gradient-2);
      }

      .clsCoin-7 {
        fill: url(#linear-gradient);
      }
    </style>
    <linearGradient id="linear-gradient" x1="-5528.4" y1="97.07" x2="-5528.4" y2="181.83" gradientTransform="translate(-5379.9 -884.26) rotate(-170.78) scale(1 -1)" gradientUnits="userSpaceOnUse">
      <stop offset=".02" stop-color="#fff" stop-opacity="0"/>
      <stop offset="1" stop-color="#f9a825"/>
    </linearGradient>
    <radialGradient id="radial-gradient" cx="-5527.9" cy="98.74" fx="-5527.9" fy="98.74" r="136.77" gradientTransform="translate(-5467.37) rotate(-180) scale(1 -1)" gradientUnits="userSpaceOnUse">
      <stop offset=".02" stop-color="#fff" stop-opacity="0"/>
      <stop offset="1" stop-color="#f9a825"/>
    </radialGradient>
    <radialGradient id="radial-gradient-2" cx="-5527.9" fx="-5527.9" r="136.77" xlink:href="#radial-gradient"/>
  </defs>
  <g class="clsCoin-10">
    <g id="Layer_1" data-name="Layer 1">
      <g>
        <circle class="clsCoin-2" cx="61.04" cy="100.74" r="55.67" transform="translate(-21.51 16.72) rotate(-13.28)"/>
        <circle class="clsCoin-9" cx="61.04" cy="100.35" r="50.38" transform="translate(-15.29 11.07) rotate(-9.22)"/>
        <circle class="clsCoin-7" cx="61.04" cy="100.35" r="50.38" transform="translate(-15.29 11.07) rotate(-9.22)"/>
        <g class="clsCoin-5">
          <path class="clsCoin-4" d="M109.48,100.35c0-27.83-21.69-50.38-48.45-50.38,27.83,0,50.39,22.56,50.39,50.38s-22.56,50.38-50.39,50.38c26.76,0,48.45-22.56,48.45-50.38Z"/>
          <path class="clsCoin-6" d="M61.04,49.97c-26.76,0-48.44,22.56-48.44,50.38s21.69,50.38,48.44,50.38c-27.83,0-50.38-22.56-50.38-50.38s22.56-50.38,50.38-50.38Z"/>
        </g>
      </g>
      <g>
        <path class="clsCoin-11" d="M58.31,59.71c-.2-.05-.18.09-.2.24-.06.32-.07.66-.12.98.19.05.2-.08.22-.22.06-.32.03-.67.1-1ZM60.75,60.12l-2.36-.33-.08,1.14c.21.04.15-.03.19-.18.08-.28-.03-.66.22-.8l-.08,1.06c.48-.02.05-.78.41-.98l-.08,1.06h.24c.02-.26.04-.58.11-.83.02-.08.02-.25.14-.23l-.08,1.06c.5-.03.02-.79.41-.98.05.32-.12.62-.08.94.01.11.05.24.16.12.06-.26.06-.54.14-.8.04-.14-.03-.21.19-.18-.02.26-.07.51-.09.76,0,.05-.11.3.05.29.21-.01.16-.97.45-1.06-.01.32-.16.62-.16.93,0,.16.01.13.17.12l.16-1.14ZM80.11,60.21l-.71-.08c-.06.99-1.01,1.05-1.45.24l-.59.29c.12.39.38.57.04.93-.48.51-.84.02-1.02.11l-.33.58c0,.24.37.22.45.36.09.15.08.78-.08.9-.14.12-.44.07-.58.24l.18.64.67.02.3.8c-.59.28-.52.6,0,.9.26.04.33-.3.57-.33.27-.04.55.17.8.24l.06.81.64.17c.03-.57.21-1.13.92-.88.17.06.23.42.34.56l.12.05.64-.33c-.61-.71.22-1.62.96-1.03l.11-.02.24-.56c-.4-.27-.62-.53-.47-1.06.15-.49,1.13.02.72-1.11-.9.33-1.42-.69-.67-1.26l-.52-.52c-.45.37-.65.57-1.2.15-.25-.19-.08-.53-.14-.8ZM60.99,60.2c-.23-.04-.14.05-.17.19-.08.28-.1.58-.15.87.23.04.14-.05.17-.19.08-.29.07-.59.15-.87ZM51.56,60.61c-.34-.05-.64.06-.96.14-1.06.28-2.31.79-3.33,1.23-1.53.66-3.14,1.49-4.42,2.54,1.83-.32,3.67-1.07,5.34-1.86,1.17-.55,2.41-1.16,3.36-2.05ZM61.16,61.83l-3.66-.49c-.06.21.17.19.31.22.57.11,1.27.18,1.86.26.43.05.95.15,1.37.17.16.01.13-.02.12-.16ZM72.3,69.39l1.53-6.87c-.06-.24-1.6-.7-1.9-.62l-2.48,6.76,2.85.73ZM52.04,76.8c1.77.22,3.55.44,5.32.66.57.07,1.37.31,1.89.32,1.06.02,2.4-.45,3.5-.41.61-.25.02-1.02.06-1.33.02-.23.48-.75.54-1.32.05-.48-.17-1.16-.14-1.36.03-.2.37-.51.45-.85.05-.2.12-.75.11-.96-.01-.27-.18-.52-.17-.73.01-.18.23-.46.29-.69.33-1.33.45-3.04-.09-4.32-.59-1.4-1.98-2.13-2.89-3.29-.13-.09-2.83-.54-3.13-.54s-.77.49-1.1.69c-1.4.86-2.97,1.28-3.61,2.98-.2.52-.53,2.19-.53,2.73,0,.31.22.61.21.81,0,.18-.26.42-.33.61-.38.99.04,1.46-.04,2.07-.05.35-.54,1-.56,1.65-.01.35.21.66.15,1.04-.04.29-.4.69-.46,1.17-.08.58.16,1.18.12,1.52-.02.14-.33.56-.41.88-.04.17-.19,1.22-.13,1.29l5.21-1.14-4.01-.67-.31-.22,5.26.7.76-.13-5.74-.97-.2-.16ZM50.42,62.07c-.11-.08-2.08,1.01-2.39,1.15-1.62.74-3.32,1.4-5.06,1.77l1.27,3.3c1.88-.41,3.74-1.04,5.48-1.85.28-.13,2.06-1.01,2.13-1.13.06-.1-.06-.25-.05-.36s.14-.17.12-.29c-.06-.32-.34-.2-.52-.29-.47-.21-.68-.96-.82-1.42l.49-.04-.16-.53h-.39s-.09-.33-.09-.33ZM28.28,67.6c1.01-.02,3.02-2.05,2.93-2.97,0-.1-.05-.14-.12-.2-.77.27-1.44.84-1.96,1.46-.19.23-1.06,1.46-.85,1.71ZM35.46,69.08s.22-.08.22-.14l-4.11-4.03-.81,1.3c-.62.68-1.3,1.25-2.07,1.75l6.48,5.98c.79.08,2.17-1.24,2.4-1.99-.64-.3-.72-.86-.09-1.23l-1.18-1.18c-.29.57-1.06-.09-.84-.47ZM87.93,65.16l-.2.08-1.58,1.51,1.5,1.5,1.58-1.59c0-.13-1.35-1.14-1.3-1.51ZM89.48,66.3c.1-.11-.79-.95-.97-.98-.13.14.87.85.97.98ZM51.96,68.82c-.02-1.1.22-2.19.49-3.25-2.49,1.47-5.2,2.64-8.06,3.17l4.45,11.24,1.65-.42c-.03-.68.04-1.35.24-1.99.05-.17.23-.29.24-.49.04-.52-.23-.82-.05-1.6.11-.5.46-.83.51-1.03.04-.17-.21-.57-.21-.86.01-.76.43-1.34.49-1.8.04-.3-.14-.54-.15-.81-.01-.41.16-1.2.39-1.55-.52.14-.65-.42-.36-.77l.36.16ZM86.92,68.12c-.21-.21-.55-.42-.74-.68-2.41,2.38-4.88,4.75-7.77,6.55.79.17,1.43.39,1.38,1.34l.49-.16c.17.17-.76,1.09-1.02.65-.03-.06.07-.4-.06-.55-.08-.1-.38-.09-.47-.39l.41-.12c.02-.24-.26-.3-.45-.33-.65-.08-1.95.16-1.91,1.01.02.44.19.74.63.85,1.67.4,2.87-.28,4.09-1.32l-.23-.26.03-.19c2.06-1.88,3.82-4.1,5.74-6.1v.49c.6-.09.12-.55-.11-.78ZM77.94,71.41l.18.07c2.31-1.14.17-4.14-1.74-2.52.14.89.59,0,1.17.03,1.14.04,1.36,1.6.3,2.08l.09.33ZM73.04,71.51l-.69-1.63c-.68-.13-2.66-1-3.24-.88-.35.07-1.15.82-1.52,1l5.45,1.51ZM78.14,70.59c.22-.23.25-.58.15-.87-.23-.73-1.58-.54-1.42.03.02.06.61.92.67.96.21.14.42.05.59-.12ZM72.05,77.03l1.27-4.96-6.23-1.79-1.95,6.83,6.91-.09ZM37.43,73.1s-.01-.15-.07-.13c-.42.51-.98.83-1.51,1.22.73.07,1.34-.44,1.71-1.02,0-.04-.09-.03-.13-.07ZM41.79,76.96l-3.71-3.57-1,.85,3.66,3.34,1.06-.61ZM87.12,78.67v-1.38l-1.31-.13-.4-1.12.82-.98-.65-.98-1.18.59-1.21-.7-.46.6c2.41.91,3.17,4.08,1.46,6.02-.22.25-.95.71-1.02.86s.13.39.21.53c.2.13.85-.62,1-.6.26.05,1.02.72,1.2.6l.72-.98-.84-.93c-.01-.06.26-1.02.3-1.09.2-.35,1-.17,1.37-.3ZM44.46,74.86s-.37-.16-.44-.17c-.36-.05-.85.14-1.19.26-.21.07-1.24.48-1.2.67l.36.35c.99-.55,2.18-.86.98.59-.46.55-1.22,1.14-1.84,1.5-.25.15-1.61.87-1.78.61-.07-.56.5-.79.65-1.25l-.37-.29c-.56.44-2.3,2.5-.65,2.44s4.09-1.88,4.99-3.23c.19-.28.68-1.17.49-1.48ZM82.89,81.03c2.68-1.23,2.31-5.41-.53-6.19l-1.18.98c2.4.02,3.35,2.94,1.3,4.23l.41.97ZM46.02,77.37l-.13-.32-1.01-1.47c.04.77.54,1.38,1.14,1.79ZM29.91,76.47c-.24-.81-1.02-.18-1.38.21-.64.67-1.23,1.94-1.38,2.86-.1.63-.33,2.09.64,1.98-.51-1.76.41-4.27,2.12-5.05ZM81.79,76.23c-.37-.06-.87.04-1.26,0,.36,1.26,1.13,2.35,1.75,3.5,1.56-.67,1.16-3.24-.49-3.5ZM28.28,81.84c2.2.03,3.71-4,2.24-5.53-.22-.09-.04.42-.04.52.06,1.65-.5,3.69-1.83,4.76-.13.1-.33.11-.37.24ZM29.99,76.88c-.31-.15-1.24.95-1.14,1.06.41-.23.66-.51,1.14-.24v-.81ZM76.27,76.9c-2.29.46-1.27,4.87,1.2,5.11,3.31.32,1.88-5.74-1.2-5.11ZM75.32,76.96c-.5.17-.9.93-.97,1.43-.3,2.3,1.57,4.89,4.06,4.02h-1.09c-2.19-.53-3.75-3.69-2-5.45ZM44.54,78.2s-.2-.09-.27-.17c-.12-.14-.39-.59-.55-.56-1.41,1.22-2.88,2.33-4.78,2.63l2.08,2.64.22.07,4.62-1.86-.73-1.1c.22-.12.43-.6.53-.85.11-.29.23-.65-.2-.73.12.59-.61.87-.85.32-.06-.13-.01-.3-.06-.39ZM77.27,83.07c-2.37-.26-3.92-3.11-3.17-5.29-.44.29-2.25,1.63-2.27,2.07-.03.87,1.34,3.19,2.22,3.3.45.06,2.67.21,2.98.12.09-.03.22-.1.24-.21ZM69.13,77.94c-.59-.22-1.25-.02-1.83,0-9.31.21-18.22,2.25-26.68,6.04-.28.12-.57.24-.87.31-.1.14.53.5.65.61.13.12.56.62.65.65.19.07.48-.2.82.16.98,1.03-.97,3.6-2.26,3.07-.72-.29-.29-.97-.37-1.35-.02-.09-.56-.63-.63-.54l-.57,3.25c4.51-2.12,9.37-3.73,14.24-4.84,5.77-1.32,11.73-2.05,17.66-2.16-.37-.54.01-1.19.57-1.34-.07-.15-.26-.02-.33-.08-.08-.07-.46-1.69-.55-1.98-.15-.5-.44-1.09-.56-1.56-.02-.08,0-.17.04-.24ZM71.57,77.94c-.23,0-.46-.01-.69,0-.1,0-.3-.06-.28.08.3-.02.78.27.98-.08ZM47,78.83l-.41-.65c-.21.22.3.76.41.65ZM28.2,80.38c-.11-.54.23-.94.16-1.46-.14.08-.22.43-.27.59-.04.14-.2.82-.14.88h.24ZM39.1,84.94c-.5-.21-.96-.49-1.47-.69-.56-.22-2.54-.74-2.85-1.06-.12-.12.1-.21-.43-.54s-.69-.38-1.21-.49c-.28-.06-.53-.46-.76-.64-.04-.1.15-.14.09-.32-.03-.08-.88-1.33-.99-1.46-.04-.05-.15-.2-.2-.17-.12.63-.58,1.11-.87,1.67.99,1.36,2.07,2.56,3.64,3.25,1.34.59,2.83.75,4.12,1.49.8.46,1.38,1.06,1.94,1.78.59-.16,1.1-.72,1.02-1.36-.24.15-.33-.03-.49-.2l.16-.24c-.08-.2-1.51-1.35-1.75-1.42-.04-.01-.13-.02-.12.04l.16.37ZM81.66,80.46l-.41-.81c-.02.32.1.66.41.81ZM80.28,82.9c-.34-.33-.52-.76-.28-1.21.05-.1.28-.26.28-.29,0-.04-.2-.14-.22-.25-.04-.21.26-.83-.1-1.01-.09.93-.45,1.77-1.07,2.47l-1.05.78,1.38.08c-.08-.27-.61-.11-.48-.44.08-.2.53-.37.7-.53.32.08.47.47.84.39ZM73.28,83.14c-.62-.72-1.25-1.35-1.63-2.24l-.31.14c-.13.21.57,1.81.79,1.98.29.23.79.07,1.15.11ZM82.8,82.9l-.09-.36-.8-1.6c.09.69.3,1.54.89,1.95ZM71.74,83.15l-.81-2.03c-.22.36.12,1.91.46,2.02.11.03.24.01.35.02ZM80.99,81.86c-.49-.49-.98.4-.49.72.43.29.84-.37.49-.72ZM81.34,82.82c.43-.01.42-.72.2-.98.04.4.1.65-.2.98ZM70.84,83.15c-.16-.91-.77-1.2-.49,0l.2-.25.28.24ZM39.51,87.87c-.02,1.34,1.34.36,1.79-.21.39-.5.92-1.62,0-1.83.61.75.07,1.72-.67,2.13-.47.26-.71.28-1.11-.1ZM67.53,91.91c-.05-.03-.1-.21-.2-.24l-2.67-1.77c1.26,1.17,2.62,2.23,4.11,3.09-.05-.33.06-.21.2-.41-.43-.05-.7-.56-1.14-.41v-.21c-.08-.05-.22-.01-.3-.06ZM86.71,92.99c-1.96-.25-3.85-.84-5.64-1.64l-2.33-1.21c2.01,1.85,4.65,2.77,7.36,2.93.13,0,.56.06.61-.08ZM82.56,95.6c-3.03-.59-5.89-1.99-8.54-3.55l-2.61-1.74c1.94,1.94,4.43,3.56,7.04,4.48,1.11.39,2.66.81,3.83.89.09,0,.3.06.28-.08ZM56.44,91.12c-.07-.14-.13-.36-.33-.32.07.14.13.36.33.32ZM67.59,96.82c-2.98-1.26-5.56-3.4-7.89-5.62l1.34,1.79c1.54,1.64,4.14,3.25,6.3,3.87.08.02.27.1.25-.05ZM71.9,101.54c-4.63.25-9.24-1.28-13.05-3.84-2.21-1.49-4.11-3.41-5.64-5.58l-5.8,1.62c-.06,3.4-.96,6.96-3.56,9.3.07.86.07,1.75.05,2.61-.05,1.99,0,3.7.08,5.69.23,5.93-.93,10.78,4.19,15.01,2.31,1.91,4.91,2.75,7.58,3.98,1.57.72,2.81,1.61,4.57,1.94,3.25.61,4.85-.73,7.56-2,3.51-1.64,6.38-2.33,9.06-5.43,3.14-3.63,2.39-7.23,2.52-11.64l.4-5.44c-.49-1.95-.9-3.94-1.05-5.95-.02-.29.07-1.45-.08-1.55l-3.34-.2.83,1.49.27,1.03c-2.01-1.83-4.75-2.61-7.45-2.44.76.58,1.75.91,2.66,1.21.13.04.23-.07.19.17ZM57.58,92.5c.02-.17-.18-.32-.32-.41-.02.17.18.32.32.41ZM57.25,92.5c.03-.15-.11-.27-.24-.33-.03.15.11.27.24.33ZM74.01,94.86c-.4-.08-.84-.22-1.22-.37-.79-.31-2.28-1.23-2.93-1.39-.2-.05-.28.13-.43.11-.12-.01-.28-.2-.46-.15l2.09,1.04c.85.25,1.75.63,2.62.8.08.02.34.12.33-.04ZM82.64,93.89l-3.34-.81.96.47c.64.18,1.35.37,2.02.43.09,0,.38.07.36-.08ZM63.52,97.79c-1.84-1.29-3.53-2.77-5.09-4.39l-.05.23h-.23s0,.13,0,.13c1.46,1.69,3.28,3.17,5.37,4.03ZM42.52,101.21c.79-1.93.98-3.95.73-6.02l-.73,6.02ZM44.31,99.34c.42-.48.78-1.23.97-1.84.12-.4.34-1.41.32-1.79,0-.13-.18-.28-.15-.44l-1.14,4.07ZM83.37,98.44c-3.51-.54-6.96-1.55-10.25-2.85.52.39,1.21.72,1.82.99,2.46,1.11,5.04,1.77,7.74,1.94l.69-.08ZM41.22,102.11l-.39-2.17-.25-2.47-.06.33-.19.04c-.06,1.12.08,2.17.44,3.23l.46,1.04ZM67.74,98.94l-.81-.17c.23.25,1,.98.81.17ZM43,115.6c-.04-2.15-.06-4.31-.23-6.46s-.31-3.4-1.79-5.05c-2.23-2.48-5.58-1.92-6.23,1.5-.49,2.58.47,5.79,2.16,7.77,1.49,1.75,3.76,3,6.09,2.23ZM80.62,115.69c5.07,1.14,8.59-4.81,8.29-9.23-.36-5.35-5.81-4.77-7.56-.56-.55,1.33-.7,5.56-.74,7.15-.03.88.02,1.76.01,2.64ZM55.87,132.13c.01-.22.05-.56-.22-.64-.28-.08-1.96.42-2.34.56-.51.19-.99.44-1.48.67-.15.78-.25,1.57-.47,2.34s-.61,1.45-.84,2.18c1.51,1.11,3.15,2.04,4.91,2.7,1.04-3.04,2.89-2.58,4.24-.09.15.29.43,1.25.73,1.31.21.04.48-.02.69,0-.62-1.5-1.44-2.6-2.74-3.56-1.33-.99-3.59-2.11-4.44-3.54-.22-.37-.45-.81-.24-1.24l-.16-.08c.09-.5.52-.78,1.02-.68.12.02.21.14.33.15.28.02.69-.32,1.02-.07ZM57.01,132.38v2.97s-.08.08-.07.15l.07.09c1.5.92,2.95,1.8,3.97,3.27.34.49.55,1.04.91,1.49.77-2.33,2.85-3.72,4.87-4.9l-.06-1.53c-3.19,1.57-7.09.76-9.68-1.55ZM71.79,132.73c-.07-.1-.55-.33-.71-.35l.57.61.2.37c.09-.13.01-.52-.07-.63ZM71.08,136.29c.12.08.02.62.7.49.28-.05.24-.36.17-.58-.09-.26-.35-.27-.54-.44-.49-.45-.33-1.38-.52-2l-.85-.57c.12.56-.62,1.11-.72,1.44-.05.16.02.39-.05.51-.13.2-.32-.1-.45-.05-.33.15-1.14.9-1.52,1.17-.64.44-1.35.82-1.97,1.28-1.22.91-2.23,2.14-2.69,3.61h.72c.48-1.33,2.05-4.5,3.84-3.05.51.42.78,1.22.98,1.83l2.68-1.22c.02-.16-.18-.02-.25-.13-.25-.35-.34-1.93-.72-2.39.29-.02.57.12.85.15.1,0,.3-.11.36-.06ZM72.79,136.45l-.65-1.55c.02.29-.05.62.04.9.04.13.42.8.61.65ZM56.52,139.78c.28-.27.53-.69.65-1.06-.32.24-.54.68-.65,1.06ZM66.69,139.05c.02-.17-.16-.35-.32-.32l.32.32ZM64.74,140.84c-.42.04-.64-.1-.77-.49l-.53.73.51-.02.8-.22Z"/>
        <path class="clsCoin-11" d="M79.87,107.77c-.49-1.95-.9-3.94-1.05-5.95-.02-.29.07-1.44-.07-1.55l-3.34-.2.83,1.49.27,1.03c-2.01-1.82-4.74-2.61-7.45-2.44.76.58,1.75.9,2.66,1.21.13.04.23-.07.19.17-4.64.25-9.24-1.28-13.05-3.84-2.21-1.49-4.11-3.41-5.64-5.58l-5.8,1.62c-.06,3.4-.97,6.96-3.56,9.3.07.86.08,1.75.05,2.61-.05,1.99,0,3.7.08,5.69.21,5.51-.77,10.1,3.21,14.12.3.3.62.59.98.89,2.08,1.72,4.41,2.58,6.8,3.63.26.11.52.23.78.35,1.57.71,2.81,1.61,4.57,1.94,3.26.61,4.85-.73,7.56-2,3.51-1.64,6.38-2.33,9.06-5.42,3.14-3.63,2.38-7.23,2.52-11.64l.4-5.44Z"/>
        <path class="clsCoin-1" d="M93.74,88.27c-2.48-2.14-6.28-3-9.35-3.91l-.78-2.07.78-.54c.3-.03.85.66,1.2.56.13-.03,1.1-1.27,1.08-1.37-.58-.73-1.19-.73-.62-1.83l1.38-.21c-.03-.32.11-1.59-.07-1.74-.04-.03-.12-.05-.17-.07-.37-.12-.8.03-1.13-.19l-.3-.87c.04-.21.89-.58.87-.99,0-.18-1-1.43-1.14-1.39l-1.09.68-.86-.66,4.11-4.69c.17-.13.36.09.61-.03.1-.04,1.12-1.09,1.26-1.26.29-.33.7-.7.59-1.16-.1-.45-1.76-2.14-2.24-1.95l-1.98,1.85c-.21.23.07.56-.03.78-.05.12-1.15,1.16-1.35,1.34-1.01.97-2.67,2.54-3.8,3.28-.19.12-.55.35-.76.38-.12.02-.16-.09-.24-.13-.02.26.21.31-.1.51-.27.17-.76.37-.95.02l.16-.04.09-.64c.33-.09.53.03.8.15.02-.39.6-.26.31-.76-.13-.23-.41-.24-.26-.6l.6-.22.07-.85c-.09-.14-.83.06-.63-.53.07-.19.47-.11.25-.6-.34-.77-.84-.18-1.08-.3-.32-.17-.02-.51-.12-.7l-.53-.23-.17-.07c.02-.06.05-.11.08-.15.26-.02.72.3.93.14.16-.97.72-1.13,1.12-.17l1.04-.41c.12-.17-.54-.75.04-1.14.32-.22.64.42.97,0,.07-.09.36-.7.35-.77-.82-.45-.89-1.06.18-1.1l-.09-1.13c-.86.14-1.3-.45-.57-1.04.04-.23-.59-.74-.76-.9-.45.21-.49.68-1.05.31l-.06-.81-1.12-.16c-.12.32-.07.71-.5.77-.43.07-.45-.51-.78-.54-.23.03-.85.28-.85.53,0,.24.33.41.08.82-.24.42-.71-.1-.9,0-.15.17-.57.84-.45,1.02.12.19.57.09.54.61-.02.4-.51.38-.82.45.14.23.03,1.04.3,1.13.28.09.82-.18.85.38.02.33-.51.43-.35.82.04.1.49.56.57.59.24.07.4-.41.8-.4.91.01.2,1.91-.29,1.68-.35-.62-.52-.74-1.18-.37l.12.61c-.35.36-.72-.18-1.13-.17l-1.78-1.51.8-3.76c-.05-.54-1.01-.8-1.46-.9-.37-.09-.97-.26-1.26.05l-1.22,3c-1.63-.61-3.47-.98-5.21-1.13-.47-.05-2.31-.01-2.57-.13-.07-.03-.95-.85-.96-.91-.07-.3.38-.64-.07-.99-.08-.06-.26-.08-.28-.09-.05-.07.38-1.28.12-1.62-.3-.38-3.15-.77-3.5-.5-.28.22-.18,1.16-.29,1.5-.07.23-.4.06-.49.18l-.14.97c-1.05.61-2.19,1.06-3.14,1.82-.17,0-1.16-2.74-1.35-3.12-.4-.78-.65-.66-1.46-.5-2.1.4-6.67,2.45-8.29,3.83-.24.21-.59.48-.44.83l1.74,4.38c-1.27,1.77-2.22,3.74-2.93,5.81l-2.56-2.35c.11-.68-.07-1.38-.41-1.96l-6.6-6.5c-.94-.48-2.4,1.09-2.91,1.79-.25.34-.78,1.16-.75,1.57.03.47,1.3,1.36,1.68,1.72,1.75,1.67,3.45,3.39,5.25,5.01.66.28,1.38.34,2.07.28l2.44,2.28c-.57.48-1.48,1.59-1.46,2.36,0,.59,1.2,1.56,1.45,2.13l-.56,2.38-3.5-1.18c-1.41-.58-3.09-2.15-3.66-3.59-.14-.36.08-1.31-.06-1.89-.27-1.07-1.69-1.78-2.66-1.22-1.35.77-2.65,4.04-2.09,5.49.31.82,1.64,1.13,2.42.87.26-.09.94-.65,1.07-.58.94,1.57,2.35,2.8,4.05,3.47,1.2.47,2.58.59,3.66,1.35l-.83,4.2c-2.52,1.3-8.12,4.53-8.26,7.7-.12,2.84,4,3.93,6.18,4.27l-.75,1.08c-1.92,3.55-.05,9.19,2.99,11.61,1.58,1.25,3.64,1.98,5.65,1.51.16.11.06,1.91.08,2.28.41,5.91,5.75,9.96,10.99,11.6.02.2,0,.13-.11.17-.64.23-2.57.79-2.94,1.29-.24.33-.22,1.14-.31,1.56-.28,1.34-.72,2.38-1.34,3.59.05.5,2.23,1.86,2.73,2.15,2.64,1.53,5.72,2.52,8.77,2.78,3.68.32,8.5-1.23,11.59-3.22.33-.21,1.81-1.25,1.92-1.5.14-.3-.4-1.07-.54-1.41-.52-1.28-.57-2.24-.92-3.47-.28-1.01-2.1-1.51-3.01-1.78-.12-.04-.14.04-.12-.17,4.57-1.55,9.09-4.58,10.41-9.49.38-1.43.45-2.88.49-4.35,4.73.87,8.3-3.41,9.16-7.65.79-3.91-.57-8.55-5.41-7.57l.26-1.29c2-.36,4.19-.87,5.52-2.53-.81.04-1.6-.05-2.4-.17-.11-.02-.25-.03-.12-.16,3.55-1.29,11.31-4.74,6.14-9.19ZM75.94,68.33c.2.06.5-.11.59-.3l-.07-.59c.84-.3.53.78,1.42.48.02,0,.03-.02.04-.03.05-.04.09-.12.12-.23.02-.06.03-.13.05-.2.01-.03.02-.07.03-.1.1.12.5.18.53.29.05.19-.21.34.04.6.46.49.75-.02.89,0,.63.4.05.53-.02.87-.14.75.69.59.72.72.17.79-.73.29-.8,1.07-.03.33.48.43.36.67-.19.36-.72-.05-1.05.16-.19.12-.04.56-.26.49l-.21-.52c2.51-1.54.02-4.85-2.15-2.9l-.53-.69c.21-.17.16.16.29.2ZM79.46,113.21c-.14,4.4.62,8-2.52,11.64-2.68,3.09-5.55,3.78-9.06,5.42-2.71,1.27-4.3,2.61-7.56,2-1.75-.33-3-1.23-4.57-1.94-.26-.12-.52-.23-.78-.35-2.4-1.05-4.72-1.91-6.8-3.63-.36-.3-.68-.59-.98-.89-3.99-4.02-3-8.61-3.21-14.12-.08-2-.13-3.7-.08-5.69.02-.86.01-1.75-.05-2.61,2.59-2.35,3.5-5.9,3.56-9.3l5.8-1.62c1.53,2.17,3.43,4.1,5.64,5.58,3.8,2.56,8.41,4.09,13.05,3.84.04-.24-.07-.13-.19-.17-.9-.31-1.89-.63-2.66-1.21,2.7-.17,5.44.61,7.45,2.44l-.27-1.03-.83-1.49,3.34.2c.15.1.05,1.26.07,1.55.15,2.01.56,4,1.05,5.95l-.4,5.44Z"/>
        <path class="clsCoin-12" d="M79.48,70.92c-.03.33.48.43.36.67-.18.36-.72-.06-1.05.16-.19.12-.04.56-.26.5l-.21-.52c2.51-1.54.03-4.85-2.15-2.9l-.53-.69c.21-.17.16.16.29.2.2.06.5-.11.59-.29l-.07-.59c.84-.3.53.77,1.42.48.02,0,.03-.02.04-.03.05-.04.09-.13.12-.23.02-.06.04-.13.06-.2,0-.03.02-.07.03-.1.1.12.5.18.53.29.05.18-.21.34.04.6.46.48.75-.02.89,0,.63.4.05.53-.02.87-.13.75.69.6.72.72.17.79-.73.29-.81,1.07Z"/>
        <path class="clsCoin-3" d="M79.87,107.77c-.49-1.95-.9-3.94-1.05-5.95-.02-.29.07-1.44-.07-1.55l-3.34-.2.83,1.49.27,1.03c-2.01-1.82-4.74-2.61-7.45-2.44.76.58,1.75.9,2.66,1.21.13.04.23-.07.19.17-4.64.25-9.24-1.28-13.05-3.84-2.21-1.49-4.11-3.41-5.64-5.58l-5.8,1.62c-.06,3.4-.97,6.96-3.56,9.3.07.86.08,1.75.05,2.61-.05,1.99,0,3.7.08,5.69.21,5.51-.77,10.1,3.21,14.12.3.3.62.59.98.89,2.08,1.72,4.41,2.58,6.8,3.63.26.11.52.23.78.35,1.57.71,2.81,1.61,4.57,1.94,3.26.61,4.85-.73,7.56-2,3.51-1.64,6.38-2.33,9.06-5.42,3.14-3.63,2.38-7.23,2.52-11.64l.4-5.44ZM70.58,102.53c4-.9,5.49,4.68,4.89,7.66l-.48,1.76c.26-1.82.24-3.65-.32-5.41-.9-2.8-3.3-4.46-5.7-1.99.2,0,.32-.19.51-.26,1.51-.54,2.69.61,3.25,1.91.8,1.9.61,4.22-.42,5.99l2.22.27,1.04.38c-2.62-.35-5.3-.13-7.89.33l1.3-.53c-.5-.67-.97-1.49-1.2-2.3-.08-.27-.27-1.04-.27-1.28v-1.34l-.16.61c-.17,1.36-.03,2.69.24,4.03l-.42-1.17c-.91-2.81.09-7.9,3.41-8.65ZM73.08,115.68c-.25.02-.42-.36-.07-.46.38-.1.3.44.07.46ZM72.14,114.56c-.15-.2.36-.6.47-.19.1.36-.42.27-.47.19ZM71.49,115.7c-.23-.17.09-.59.32-.41.2.15-.15.54-.32.41ZM70.92,114.72l-.4-.12c.02-.48.5-.33.4.12ZM59.91,112.62c.23-1.22.34-2.64.27-3.89,0-.18-.31-2.07-.21-2.07.74,2.36.84,4.94.12,7.32,1.18-.45,2.55-.27,3.58.45-.3,0-.58-.19-.88-.26-.97-.22-2.33-.09-3.1.6l-.42,1.25c-.13-1.13.42-2.27.63-3.4ZM58.8,114.8c-.35.75-.73,1.56-.29,2.36.46.83.65.09,1.12.17.63.11.97.97,1.81,1.05,1.21.12,1.22-.38,2.04-.82.78-.42.93.34,1.38-.09.65-.62.27-1.96-.03-2.68.77.71,1.36,1.92.75,2.9-.58.93-1.09.41-1.81.63-.21.06-.42.38-.62.52-.93.65-1.82.64-2.74,0-.2-.14-.41-.45-.62-.52-.68-.21-1.19.24-1.79-.57-.73-.99-.03-2.3.81-2.97ZM56.07,105.69c.68,1.77.67,3.75.21,5.58l-.42,1.09c.36-1.39.39-2.75.23-4.18l-.15-.62c-.04.51.05,1.08,0,1.58-.09.92-.54,2.11-.99,2.92-.09.17-.35.42-.39.5-.07.15.06.1.12.12.3.09.56.16.85.29.1.04.33.08.33.2-2.62-.43-5.33-.71-7.97-.33.02-.15.17-.14.27-.17.95-.32,2.07-.39,3.06-.48-.7-1.12-1.06-2.62-.97-3.94.14-2.17,1.58-5.02,4.15-3.79.05-.18-.1-.18-.19-.26-1.34-1.3-3.16-1.04-4.32.35-1.68,2.02-1.79,5.18-1.27,7.64-.14-.06-.2-.38-.24-.52-.62-1.99-.65-4.14.08-6.11,1.62-4.34,6.01-4.07,7.61.12ZM47.61,114.4c.39-.12.47.34.24.4-.24.06-.52-.31-.24-.4ZM48.26,113.25c.37-.11.33.43.08.49-.23.05-.29-.43-.08-.49ZM48.76,115.85l-.21-.4.27-.07.21.26-.27.21ZM49.12,114.23c.1-.08.48.02.4.28-.1.34-.66-.08-.4-.28ZM50.01,116.63l-.41.12c-.1-.45.38-.61.41-.12ZM50.17,120.29l-.41.61c-.18-1.65,1.6-2.76,3.09-2.36l-1.06.45c-.63.33-1.15.78-1.62,1.3ZM50.31,115.21c.35-.06.31.59-.09.49-.22-.06-.09-.45.09-.49ZM50.91,114.24c.4-.26.61.57.04.39-.17-.05-.1-.36-.04-.39ZM51.96,115.29c.09.07.12.5-.2.4-.29-.08-.03-.57.2-.4ZM52.65,114.72c-.16-.05-.16-.36,0-.4.37-.1.37.51,0,.4ZM54.36,97.71c.19.02.99.11,1.1.2.22.19-.02,1.94-.09,2.31-2.99-.38-6.13.29-8.37,2.36.59-3.59,4-5.12,7.37-4.88ZM46.5,114.63c-.03.05-.35.14-.4-.03-.12-.48.66-.4.4.03ZM47.03,115.69c-.25.04-.37-.42-.06-.48.25-.04.37.42.06.48ZM64.81,126.14c-1.82,1.36-4.97,1.37-6.5-.44,2.19.79,4.72.82,6.91,0l-.42.44ZM59.68,124.38c-2.69-.49-5.63-2.07-7.56-4-.09-.09-.19-.14-.16-.29,2.41,1.79,5.26,3.06,8.27,3.41,3.2.36,6.32-.39,9.12-1.93l2.31-1.52c-2.97,3.3-7.53,5.13-11.98,4.33ZM73.77,120.9c-.22-.17-.3-.47-.49-.69-.4-.48-.93-.82-1.46-1.14l-1.22-.53c1.58-.43,3.32.61,3.17,2.36ZM73.65,116.75c-.19.05-.26-.33-.2-.4.21-.26.63.3.2.4ZM74.14,114.62c-.24-.02-.23-.41,0-.47.24-.05.38.5,0,.47ZM74.51,115.77s-.05-.37,0-.4c.07-.05.37,0,.4.12.08.25-.28.37-.4.28ZM75.01,113.35h.31c.1.54-.58.54-.31,0ZM75.6,114.8c-.16-.05-.16-.36,0-.4.38-.11.38.51,0,.4ZM76.62,115.21l.05.33c-.65.37-.35-.53-.05-.33ZM76.94,114.64v-.33c.54-.06.54.38,0,.33Z"/>
        <path class="clsCoin-12" d="M69.13,77.94c-.03.08-.06.16-.04.24.12.47.4,1.06.56,1.56.09.29.47,1.92.55,1.98.07.05.25-.08.33.08-.56.15-.94.8-.57,1.34-5.93.11-11.89.84-17.66,2.16-4.87,1.11-9.72,2.72-14.24,4.84l.57-3.25c.08-.09.61.45.63.54.07.38-.36,1.06.37,1.35,1.29.52,3.24-2.04,2.26-3.07-.34-.36-.63-.09-.82-.16-.08-.03-.51-.53-.65-.65-.12-.11-.75-.47-.65-.61.3-.08.59-.19.87-.31,8.45-3.79,17.37-5.83,26.68-6.04.57-.01,1.24-.22,1.83,0ZM65.61,80.23c-.84.19-.81,1.51.16,1.61,1.2.12,1.12-1.9-.16-1.61ZM52.18,82.19c-.78.18-.78,1.47.09,1.59,1.24.18,1.23-1.89-.09-1.59ZM43.88,84.71c-.88.18-.86,1.77.3,1.61s.75-1.82-.3-1.61Z"/>
        <path class="clsCoin-3" d="M52.04,76.8l.2.16,5.74.97-.76.13-5.26-.7.31.22,4.01.67-5.21,1.14c-.06-.07.09-1.12.13-1.29.08-.32.4-.74.41-.88.04-.34-.2-.94-.12-1.52.07-.48.42-.87.46-1.17.06-.38-.17-.69-.15-1.04.03-.65.52-1.3.56-1.65.08-.61-.34-1.08.04-2.07.07-.19.33-.43.33-.61,0-.2-.22-.5-.21-.81,0-.54.34-2.21.53-2.73.64-1.7,2.22-2.12,3.61-2.98.32-.2.79-.69,1.1-.69s3,.45,3.13.54c.91,1.16,2.3,1.89,2.89,3.29.54,1.28.41,2.98.09,4.32-.06.23-.28.51-.29.69-.01.2.15.46.17.73,0,.21-.06.76-.11.96-.09.34-.42.65-.45.85-.03.19.19.88.14,1.36-.06.57-.52,1.1-.54,1.32-.03.32.55,1.09-.06,1.33-1.1-.04-2.44.43-3.5.41-.52,0-1.32-.25-1.89-.32-1.77-.22-3.55-.44-5.32-.66ZM63.76,67.6l-10.42-1.46c.02.14.16.14.27.17.39.12,1,.21,1.42.29,2.15.39,4.56.74,6.74.99.52.06,1.2.15,1.7.16.07,0,.3-.03.28-.15ZM63.35,70.37c-.03-.15-.2-.17-.32-.2-.43-.14-1.12-.2-1.6-.27-2.71-.42-5.45-.69-8.17-1.07.25.27.83.31,1.2.38,2.93.53,5.93.82,8.89,1.16ZM63.11,70.78l-10.01-1.38c-.04.23.05.14.19.17,2.74.75,6.22.71,9.04,1.29l.78-.08ZM62.95,72.89l-10.09-1.38c-.02.12.14.11.23.14,2.63.83,6.34.72,9.09,1.33l.77-.08ZM62.78,73.46l-10.09-1.38c-.02.12.14.11.23.14.29.08.66.12.97.17,2.66.43,5.78.96,8.45,1.15.1,0,.45.07.45-.08ZM62.7,75.58l-10.25-1.47c-.04.22.04.14.18.18.17.05.37.08.54.12,2.33.46,7.02,1.34,9.25,1.25.1,0,.3.06.28-.08ZM62.46,76.15l-10.09-1.38c.1.17.51.2.7.23,2.86.49,6.14,1,9.02,1.23.09,0,.38.06.36-.08Z"/>
        <path class="clsCoin-3" d="M43,115.6c-2.33.77-4.6-.48-6.09-2.23-1.7-1.99-2.66-5.19-2.16-7.77.65-3.43,4-3.99,6.23-1.5,1.48,1.65,1.61,2.92,1.79,5.05s.19,4.31.23,6.46ZM39.43,111.55v-1.26c0-.06.16-.43.2-.53.71-1.66,1.98-.21,2.14.96.25,1.84-.83,3.67-2.58,1.97-.14.15.73.79.91.84,1.02.29,1.74-.29,2.12-1.19.97-2.37-.87-6.86-3.31-7.79-2.27-.87-3.17,1.01-3.22,2.97l.17.77c0-1.42.51-3.4,2.3-3.15.09.01.44.1.47.22-1.42.5-1.68,2.09-1.63,3.42l.61-1.63c.33-.64,1.01-1.25,1.79-1.13.63.1,1.64,1.81,1.75,2.44-1.98-.88-2.69,1.83-1.71,3.09Z"/>
        <path class="clsCoin-3" d="M80.62,115.69c0-.88-.04-1.76-.01-2.64.05-1.59.19-5.82.74-7.15,1.75-4.21,7.2-4.78,7.56.56.3,4.41-3.22,10.37-8.29,9.23ZM87.77,108.21v-1.59c0-.13-.22-.77-.29-.93-.48-1.17-1.55-1.63-2.75-1.2-2.53.89-4.29,5.35-3.43,7.79.36,1.03,1.42,1.78,2.44,1.06.16-.11.64-.57.57-.73-1.87,2.06-3.04-.5-2.44-2.36.32-.98,1.46-1.89,2.01-.55.28.7.24,1.28.15,2.01l.45-.97c.27-1.46-.51-3.08-2.16-2.2.47-1.15,1.49-3.43,3-2.15.67.57.81,1.29,1.01,2.09.02.08.02.24.14.23v-1.26c0-.08-.25-.79-.31-.91-.29-.65-.68-.86-1.24-1.24,1.17-.44,1.95-.07,2.4,1.06l.45,1.87Z"/>
        <path class="clsCoin-12" d="M51.96,68.82l-.36-.16c-.28.35-.16.91.36.77-.23.34-.4,1.14-.39,1.55,0,.26.19.5.15.81-.06.46-.48,1.04-.49,1.8,0,.29.25.69.21.86-.05.2-.4.54-.51,1.03-.17.78.09,1.08.05,1.6-.01.2-.19.31-.24.49-.2.65-.27,1.32-.24,1.99l-1.65.42-4.45-11.24c2.85-.53,5.57-1.71,8.06-3.17-.27,1.06-.5,2.16-.49,3.25Z"/>
        <path class="clsCoin-12" d="M72.05,77.03l-6.91.09,1.95-6.83,6.23,1.79-1.27,4.96ZM69.03,72.18c-.78.17-.49,1.42.29,1.27.83-.16.69-1.49-.29-1.27ZM71.07,74.21c-.91.12-.67,1.58.37,1.27.64-.19.4-1.37-.37-1.27ZM69.27,74.54c-.69.15-.52,1.33.29,1.19.71-.13.6-1.39-.29-1.19Z"/>
        <path class="clsCoin-12" d="M35.46,69.08c-.23.38.55,1.04.84.47l1.18,1.18c-.64.37-.56.92.09,1.23-.23.75-1.61,2.07-2.4,1.99l-6.48-5.98c.77-.5,1.46-1.07,2.07-1.75l.81-1.3,4.11,4.03c0,.06-.2.09-.22.14Z"/>
        <path class="clsCoin-3" d="M57.01,132.38c2.6,2.31,6.5,3.11,9.68,1.55l.06,1.53c-2.01,1.18-4.1,2.57-4.87,4.9-.36-.45-.57-1-.91-1.49-1.02-1.48-2.47-2.35-3.97-3.27l-.07-.09c-.01-.07.07-.13.07-.15v-2.97Z"/>
        <path class="clsCoin-8" d="M55.87,132.13c-.33-.25-.74.09-1.02.07-.11,0-.2-.13-.33-.15-.5-.09-.93.19-1.02.68l.16.08c-.21.43.02.87.24,1.24.84,1.43,3.1,2.55,4.44,3.54,1.3.96,2.12,2.07,2.74,3.56-.22-.02-.49.04-.69,0-.29-.06-.57-1.02-.73-1.31-1.35-2.5-3.2-2.95-4.24.09-1.76-.66-3.39-1.59-4.91-2.7.23-.74.62-1.42.84-2.18s.31-1.56.47-2.34c.49-.23.97-.49,1.48-.67.38-.14,2.06-.63,2.34-.56.27.08.23.42.22.64ZM56.36,137.18l-2.36-2.15-.81-1.1c.28,1.53,1.85,2.61,3.17,3.25Z"/>
        <path class="clsCoin-12" d="M50.42,62.07l.09.32h.39s.16.54.16.54l-.49.04c.14.46.34,1.21.82,1.42.19.08.47-.03.52.29.02.11-.11.17-.12.29s.11.26.05.36c-.07.12-1.85,1-2.13,1.13-1.75.81-3.6,1.44-5.48,1.85l-1.27-3.3c1.75-.38,3.44-1.03,5.06-1.77.31-.14,2.28-1.23,2.39-1.15Z"/>
        <path class="clsCoin-12" d="M86.92,68.12c.23.24.71.69.11.78v-.49c-1.92,2-3.68,4.22-5.74,6.1l-.03.19.23.26c-1.22,1.04-2.42,1.72-4.09,1.32-.44-.1-.6-.41-.63-.85-.04-.84,1.26-1.08,1.91-1.01.19.02.46.08.45.33l-.41.12c.08.3.38.29.47.39.13.15.03.5.06.55.25.43,1.19-.48,1.02-.65l-.49.16c.05-.96-.59-1.17-1.38-1.34,2.89-1.8,5.36-4.17,7.77-6.55.19.26.54.46.74.68Z"/>
        <path class="clsCoin-12" d="M44.54,78.2c.05.09,0,.25.06.39.24.55.98.27.85-.32.43.08.31.44.2.73-.1.26-.31.74-.53.85l.73,1.1-4.62,1.86-.22-.07-2.08-2.64c1.9-.3,3.36-1.42,4.78-2.63.16-.02.43.43.55.56.07.08.25.14.27.17Z"/>
        <path class="clsCoin-12" d="M39.1,84.94l-.16-.37c-.01-.06.08-.05.12-.04.24.08,1.67,1.22,1.75,1.42l-.16.24c.16.17.25.35.49.2.08.63-.43,1.2-1.02,1.36-.56-.71-1.14-1.32-1.94-1.78-1.29-.75-2.78-.9-4.12-1.49-1.57-.69-2.65-1.89-3.64-3.25.29-.55.75-1.04.87-1.67.04-.03.15.12.2.17.11.13.96,1.38.99,1.46.06.18-.14.22-.09.32.23.17.48.58.76.64.53.11.71.18,1.21.49.53.33.31.42.43.54.31.32,2.3.84,2.85,1.06.5.2.97.48,1.47.69Z"/>
        <path class="clsCoin-8" d="M71.08,136.29c-.06-.05-.26.07-.36.06-.28-.02-.56-.16-.85-.15.38.47.47,2.05.72,2.39.08.11.28-.03.25.13l-2.68,1.22c-.19-.61-.46-1.42-.98-1.83-1.78-1.44-3.35,1.72-3.84,3.04h-.72c.46-1.46,1.47-2.69,2.69-3.6.62-.47,1.33-.84,1.97-1.28.38-.26,1.19-1.02,1.52-1.17.13-.06.32.25.45.05.08-.13,0-.35.05-.51.1-.33.84-.89.72-1.44l.85.57c.2.62.03,1.55.52,2,.18.17.45.18.54.44.07.22.11.52-.17.58-.67.13-.58-.4-.7-.49ZM67.18,137.26c1.31-.72,2.98-1.76,3.25-3.34-.24.22-.35.52-.57.77-.73.86-1.72,1.47-2.49,2.23-.09.09-.23.17-.2.33Z"/>
        <path class="clsCoin-12" d="M72.3,69.39l-2.85-.73,2.48-6.76c.31-.07,1.84.38,1.9.62l-1.53,6.87ZM72.47,62.73c-.35-.15-.69-.13-.53.32.3.28.56.06.53-.32ZM70.84,67.68l1.23-3.86-.14-.2-.28.04-1.2,3.59.02.26.37.16Z"/>
        <path class="clsCoin-12" d="M80.11,60.21c.06.27-.11.6.14.8.55.43.75.22,1.2-.15l.52.52c-.75.57-.23,1.59.67,1.26.41,1.13-.57.63-.72,1.11-.16.53.07.78.47,1.06l-.24.56-.11.02c-.74-.59-1.57.32-.96,1.03l-.64.33-.12-.05c-.11-.14-.17-.5-.34-.56-.72-.24-.89.31-.92.88l-.64-.17-.06-.81c-.25-.07-.53-.27-.8-.24-.24.03-.31.37-.57.33-.51-.3-.59-.62,0-.9l-.3-.8-.67-.02-.18-.64c.14-.17.44-.12.58-.24.16-.13.17-.75.08-.9-.08-.14-.45-.12-.45-.36l.33-.58c.18-.09.54.4,1.02-.11.34-.37.08-.54-.04-.93l.59-.29c.43.81,1.39.75,1.45-.24l.71.08ZM78.71,61.28c-.75.12-1.56.97-1.72,1.7-.38,1.84,1.37,3.37,3.12,2.63,2.35-.99,1.58-4.81-1.4-4.33Z"/>
        <path class="clsCoin-12" d="M76.27,76.9c3.09-.63,4.51,5.42,1.2,5.11-2.47-.24-3.49-4.64-1.2-5.11ZM76.76,78.61c-1.85.1-.47,3.6,1.07,2.46.95-.71.08-2.52-1.07-2.46Z"/>
        <path class="clsCoin-12" d="M87.12,78.67c-.37.13-1.17-.05-1.37.3-.04.08-.31,1.04-.3,1.09l.84.93-.72.98c-.18.11-.94-.55-1.2-.6-.15-.01-.8.73-1,.6-.08-.14-.28-.38-.21-.53s.8-.61,1.02-.86c1.71-1.94.95-5.11-1.46-6.02l.46-.6,1.21.7,1.18-.59.65.98-.82.98.4,1.12,1.31.13v1.38Z"/>
        <path class="clsCoin-12" d="M77.27,83.07c-.02.1-.15.18-.24.21-.31.09-2.52-.06-2.98-.12-.88-.12-2.26-2.43-2.22-3.3.02-.44,1.83-1.78,2.27-2.07-.74,2.18.81,5.03,3.17,5.29Z"/>
        <path class="clsCoin-12" d="M44.46,74.86c.19.31-.3,1.2-.49,1.48-.9,1.35-3.33,3.18-4.99,3.23s.09-2.01.65-2.44l.37.29c-.16.46-.73.69-.65,1.25.18.26,1.53-.47,1.78-.61.62-.36,1.38-.95,1.84-1.5,1.2-1.45.01-1.14-.98-.59l-.36-.35c-.04-.18.99-.6,1.2-.67.34-.12.84-.31,1.19-.26.07,0,.43.15.44.17Z"/>
        <path class="clsCoin-12" d="M82.89,81.03l-.41-.97c2.04-1.29,1.09-4.21-1.3-4.23l1.18-.98c2.84.78,3.21,4.96.53,6.19Z"/>
        <path class="clsCoin-12" d="M73.04,71.51l-5.45-1.51c.38-.19,1.17-.93,1.52-1,.58-.12,2.56.75,3.24.88l.69,1.63Z"/>
        <polygon class="clsCoin-12" points="41.79 76.96 40.73 77.57 37.07 74.24 38.08 73.39 41.79 76.96"/>
        <path class="clsCoin-12" d="M51.56,60.61c-.95.89-2.19,1.5-3.36,2.05-1.68.79-3.51,1.54-5.34,1.86,1.28-1.05,2.89-1.87,4.42-2.54,1.01-.44,2.27-.95,3.33-1.23.32-.08.61-.19.96-.14ZM48.38,61.91c-.16-.15-2.58,1.03-2.84,1.27-.09.08-.2.12-.17.28.78-.22,1.66-.51,2.36-.93.08-.05.8-.47.65-.61Z"/>
        <path class="clsCoin-11" d="M81.79,76.23c1.66.26,2.05,2.83.49,3.5-.62-1.15-1.4-2.24-1.75-3.5.39.04.89-.06,1.26,0Z"/>
        <path class="clsCoin-8" d="M82.56,95.6c.02.14-.19.09-.28.08-1.17-.09-2.72-.5-3.83-.89-2.6-.91-5.09-2.54-7.04-4.48l2.61,1.74c2.64,1.56,5.51,2.96,8.54,3.55Z"/>
        <path class="clsCoin-12" d="M87.93,65.16c-.05.37,1.3,1.38,1.3,1.51l-1.58,1.59-1.5-1.5,1.58-1.51.2-.08ZM88.07,66.08c-.82.07-.82,1.39.13,1.1.62-.19.37-1.15-.13-1.1Z"/>
        <path class="clsCoin-12" d="M28.28,81.84c.03-.13.24-.14.37-.24,1.33-1.08,1.9-3.11,1.83-4.76,0-.1-.19-.62.04-.52,1.48,1.53-.03,5.56-2.24,5.53Z"/>
        <path class="clsCoin-12" d="M29.91,76.47c-1.7.77-2.62,3.29-2.12,5.05-.97.1-.74-1.35-.64-1.98.15-.91.74-2.18,1.38-2.86.36-.38,1.14-1.02,1.38-.21Z"/>
        <path class="clsCoin-8" d="M83.37,98.44l-.69.08c-2.7-.17-5.29-.83-7.74-1.94-.6-.27-1.29-.6-1.82-.99,3.3,1.3,6.74,2.31,10.25,2.85Z"/>
        <path class="clsCoin-8" d="M67.59,96.82c.02.15-.17.07-.25.05-2.16-.62-4.76-2.23-6.3-3.87l-1.34-1.79c2.33,2.21,4.91,4.36,7.89,5.62Z"/>
        <path class="clsCoin-12" d="M77.94,71.41l-.09-.33c1.06-.49.84-2.04-.3-2.08-.58-.02-1.02.86-1.17-.03,1.91-1.63,4.06,1.38,1.74,2.52l-.18-.07Z"/>
        <path class="clsCoin-8" d="M63.52,97.79c-2.09-.86-3.91-2.34-5.37-4.03v-.12s.23-.01.23-.01l.05-.23c1.55,1.63,3.25,3.1,5.09,4.39Z"/>
        <path class="clsCoin-12" d="M28.28,67.6c-.21-.24.66-1.48.85-1.71.51-.62,1.19-1.19,1.96-1.46.07.06.11.1.12.2.09.92-1.92,2.95-2.93,2.97ZM30.29,65.25c-.25.02-1.69,1.22-1.15,1.62.36-.14,1.35-1.07,1.34-1.43,0-.11-.08-.21-.19-.19Z"/>
        <path class="clsCoin-8" d="M86.71,92.99c-.06.15-.48.09-.61.08-2.71-.16-5.35-1.08-7.36-2.93l2.33,1.21c1.79.8,3.69,1.39,5.64,1.64Z"/>
        <path class="clsCoin-12" d="M75.32,76.96c-1.75,1.76-.2,4.92,2,5.45h1.09c-2.49.87-4.36-1.72-4.06-4.02.07-.5.46-1.26.97-1.43Z"/>
        <path class="clsCoin-8" d="M42.52,101.21l.73-6.02c.24,2.07.05,4.09-.73,6.02Z"/>
        <path class="clsCoin-8" d="M60.75,60.12l-.16,1.14c-.15,0-.17.04-.17-.12,0-.32.15-.62.16-.93-.29.08-.23,1.04-.45,1.06-.17.01-.05-.24-.05-.29.02-.26.07-.51.09-.76-.21-.04-.14.03-.19.18-.08.26-.08.54-.14.8-.11.12-.15-.01-.16-.12-.04-.31.13-.62.08-.94-.39.19.1.94-.41.98l.08-1.06c-.12-.02-.12.14-.14.23-.06.25-.09.57-.11.83h-.24s.08-1.06.08-1.06c-.35.2.07.95-.41.98l.08-1.06c-.25.14-.14.52-.22.8-.04.14.02.21-.19.18l.08-1.14,2.36.33Z"/>
        <path class="clsCoin-12" d="M80.28,82.9c-.37.08-.52-.31-.84-.39-.16.15-.62.33-.7.53-.13.32.4.17.48.44l-1.38-.08,1.05-.78c.62-.71.97-1.54,1.07-2.47.36.18.06.8.1,1.01.02.11.22.21.22.25,0,.03-.23.19-.28.29-.24.45-.06.88.28,1.21Z"/>
        <path class="clsCoin-12" d="M73.28,83.14c-.36-.04-.86.12-1.15-.11-.22-.18-.92-1.77-.79-1.98l.31-.14c.37.89,1.01,1.52,1.63,2.24Z"/>
        <path class="clsCoin-12" d="M78.14,70.59c-.17.17-.38.26-.59.12-.06-.04-.66-.9-.67-.96-.16-.57,1.19-.75,1.42-.03.09.29.07.65-.15.87Z"/>
        <path class="clsCoin-8" d="M74.01,94.86c.01.16-.24.06-.33.04-.87-.16-1.77-.55-2.62-.8l-2.09-1.04c.18-.06.34.14.46.15.15.01.23-.16.43-.11.65.16,2.14,1.08,2.93,1.39.38.15.82.29,1.22.37Z"/>
        <path class="clsCoin-8" d="M41.22,102.11l-.46-1.04c-.36-1.06-.5-2.11-.44-3.23l.19-.04.06-.33.25,2.47.39,2.17Z"/>
        <path class="clsCoin-8" d="M44.31,99.34l1.14-4.07c-.03.17.15.31.15.44.02.38-.2,1.39-.32,1.79-.19.61-.55,1.36-.97,1.84Z"/>
        <path class="clsCoin-8" d="M67.53,91.91c.09.05.22.01.31.06v.21c.43-.15.7.36,1.13.41-.14.2-.26.08-.2.41-1.49-.86-2.85-1.92-4.11-3.09l2.67,1.77c.1.03.15.21.2.24Z"/>
        <path class="clsCoin-1" d="M39.51,87.87c.41.38.65.35,1.11.1.74-.41,1.28-1.39.67-2.13.92.21.39,1.33,0,1.83-.44.57-1.8,1.55-1.79.21Z"/>
        <path class="clsCoin-8" d="M82.64,93.89c.01.14-.27.09-.36.08-.66-.05-1.38-.25-2.02-.43l-.96-.47,3.34.81Z"/>
        <path class="clsCoin-12" d="M71.74,83.15c-.11,0-.24.02-.35-.02-.34-.1-.68-1.66-.46-2.02l.81,2.03Z"/>
        <path class="clsCoin-8" d="M61.16,61.83c0,.14.04.17-.12.16-.42-.03-.94-.12-1.37-.17-.59-.07-1.29-.15-1.86-.26-.14-.03-.36-.01-.31-.22l3.66.49Z"/>
        <path class="clsCoin-12" d="M37.43,73.1s.14.03.13.07c-.37.57-.98,1.09-1.71,1.02.52-.38,1.09-.71,1.51-1.22.06-.02.02.08.07.13Z"/>
        <path class="clsCoin-12" d="M80.99,81.86c.35.35-.06,1.01-.49.72-.48-.32,0-1.21.49-.72Z"/>
        <path class="clsCoin-12" d="M29.99,76.88v.81c-.48-.26-.72.01-1.14.24-.1-.11.82-1.21,1.14-1.06Z"/>
        <path class="clsCoin-12" d="M46.02,77.37c-.6-.41-1.1-1.02-1.14-1.79l1.01,1.47.13.32Z"/>
        <path class="clsCoin-12" d="M82.8,82.9c-.6-.41-.8-1.26-.89-1.95l.8,1.6.09.36Z"/>
        <path class="clsCoin-8" d="M72.79,136.45c-.2.15-.58-.52-.61-.65-.09-.28-.02-.61-.04-.9l.65,1.55Z"/>
        <path class="clsCoin-8" d="M64.74,140.84l-.8.22-.51.02.53-.73c.13.39.35.53.77.49Z"/>
        <path class="clsCoin-12" d="M70.84,83.15l-.28-.24-.2.25c-.28-1.2.33-.92.49,0Z"/>
        <path class="clsCoin-12" d="M28.2,80.38h-.24c-.06-.06.1-.74.14-.88.04-.16.12-.5.27-.59.06.52-.27.92-.16,1.46Z"/>
        <path class="clsCoin-8" d="M71.79,132.73c.08.11.15.5.07.63l-.2-.37-.57-.61c.16.02.64.25.71.35Z"/>
        <path class="clsCoin-8" d="M58.31,59.71c-.07.32-.04.68-.1,1-.03.14-.04.27-.22.22.05-.32.06-.66.12-.98.03-.14,0-.29.2-.24Z"/>
        <path class="clsCoin-8" d="M67.74,98.94c.2.81-.58.08-.81-.17l.81.17Z"/>
        <path class="clsCoin-12" d="M89.48,66.3c-.1-.12-1.11-.84-.97-.98.18.03,1.07.87.97.98Z"/>
        <path class="clsCoin-8" d="M56.52,139.78c.11-.38.33-.82.65-1.06-.12.37-.37.79-.65,1.06Z"/>
        <path class="clsCoin-8" d="M60.99,60.2c-.09.28-.08.58-.15.87-.04.14.06.23-.17.19.05-.29.07-.59.15-.87.04-.14-.06-.23.17-.19Z"/>
        <path class="clsCoin-12" d="M47,78.83c-.11.11-.62-.43-.41-.65l.41.65Z"/>
        <path class="clsCoin-12" d="M71.57,77.94c-.2.35-.67.06-.98.08-.02-.14.18-.08.28-.08.23,0,.46,0,.69,0Z"/>
        <path class="clsCoin-12" d="M81.66,80.46c-.3-.15-.42-.49-.41-.81l.41.81Z"/>
        <path class="clsCoin-12" d="M81.34,82.82c.31-.33.24-.57.2-.98.22.26.22.96-.2.98Z"/>
        <path class="clsCoin-8" d="M56.44,91.12c-.2.04-.25-.18-.33-.32.2-.04.25.18.33.32Z"/>
        <path class="clsCoin-8" d="M57.58,92.5c-.15-.09-.35-.24-.32-.41.15.09.35.24.32.41Z"/>
        <path class="clsCoin-8" d="M66.69,139.05l-.32-.32c.16-.02.34.15.32.32Z"/>
        <path class="clsCoin-8" d="M57.25,92.5c-.13-.06-.27-.18-.24-.33.13.06.27.18.24.33Z"/>
        <path class="clsCoin-1" d="M55.37,100.23c-2.99-.38-6.13.29-8.37,2.37.58-3.59,3.99-5.12,7.36-4.88.2.01,1,.11,1.1.2.22.19-.02,1.94-.09,2.31Z"/>
        <path class="clsCoin-1" d="M51.96,120.09c2.41,1.79,5.26,3.06,8.27,3.41,3.2.37,6.32-.39,9.12-1.93l2.31-1.52c-2.97,3.3-7.53,5.13-11.98,4.33-2.69-.49-5.63-2.07-7.55-4-.09-.09-.19-.14-.16-.29Z"/>
        <path class="clsCoin-1" d="M64.82,114.8c.77.71,1.36,1.92.75,2.9-.58.93-1.09.41-1.81.63-.21.06-.42.38-.62.52-.93.65-1.82.64-2.74,0-.2-.14-.41-.45-.62-.52-.68-.21-1.19.25-1.79-.57-.73-.99-.03-2.3.81-2.97-.35.75-.73,1.56-.29,2.36s.65.09,1.12.17c.63.11.97.97,1.81,1.05,1.2.12,1.21-.38,2.04-.82s.93.34,1.38-.09c.65-.62.27-1.96-.03-2.68Z"/>
        <path class="clsCoin-1" d="M60.1,113.99c1.18-.45,2.55-.27,3.58.45-.29,0-.58-.19-.88-.26-.97-.22-2.33-.09-3.1.6l-.42,1.25c-.13-1.13.42-2.27.63-3.4.23-1.22.34-2.64.27-3.89-.01-.18-.31-2.07-.21-2.07.74,2.37.84,4.94.12,7.32Z"/>
        <path class="clsCoin-1" d="M65.23,125.7l-.41.44c-1.82,1.35-4.97,1.37-6.5-.44,2.2.79,4.72.81,6.92,0Z"/>
        <path class="clsCoin-1" d="M73.77,120.9c-.22-.17-.31-.47-.49-.69-.4-.48-.93-.82-1.46-1.14l-1.22-.53c1.58-.43,3.32.61,3.17,2.36Z"/>
        <path class="clsCoin-1" d="M52.86,118.54l-1.06.44c-.62.33-1.15.78-1.62,1.31l-.41.61c-.18-1.65,1.6-2.76,3.09-2.36Z"/>
        <path class="clsCoin-1" d="M50.3,115.21c.35-.06.31.59-.09.48-.22-.06-.09-.45.09-.48Z"/>
        <path class="clsCoin-1" d="M72.14,114.55c-.15-.2.36-.6.48-.19.1.36-.42.27-.48.19Z"/>
        <path class="clsCoin-1" d="M50.91,114.24c.4-.25.6.57.04.39-.18-.05-.1-.36-.04-.39Z"/>
        <path class="clsCoin-1" d="M73.01,115.22c.38-.1.3.44.07.46-.25.02-.42-.36-.07-.46Z"/>
        <polygon class="clsCoin-1" points="48.54 115.45 48.82 115.39 49.03 115.64 48.76 115.85 48.54 115.45"/>
        <path class="clsCoin-1" d="M74.5,115.77s-.05-.37,0-.4c.07-.05.37,0,.4.12.08.25-.28.37-.4.28Z"/>
        <path class="clsCoin-1" d="M48.26,113.26c.37-.11.33.44.08.49-.23.05-.29-.42-.08-.49Z"/>
        <path class="clsCoin-1" d="M47.61,114.4c.39-.12.47.34.24.4s-.52-.32-.24-.4Z"/>
        <path class="clsCoin-1" d="M46.97,115.21c.25-.04.37.42.06.48-.25.04-.37-.42-.06-.48Z"/>
        <path class="clsCoin-1" d="M46.5,114.63c-.03.05-.36.14-.4-.03-.12-.48.67-.4.4.03Z"/>
        <path class="clsCoin-1" d="M49.12,114.23c.1-.08.48.01.4.28-.1.34-.66-.08-.4-.28Z"/>
        <path class="clsCoin-1" d="M49.6,116.75c-.1-.45.39-.61.41-.12l-.41.12Z"/>
        <path class="clsCoin-1" d="M74.14,114.15c.24-.06.38.5,0,.47-.23-.02-.23-.41,0-.47Z"/>
        <path class="clsCoin-1" d="M70.92,114.72l-.41-.12c.02-.48.5-.33.41.12Z"/>
        <path class="clsCoin-1" d="M71.82,115.29c.2.15-.15.53-.32.4-.23-.17.08-.58.32-.4Z"/>
        <path class="clsCoin-1" d="M73.45,116.35c.21-.26.63.3.2.4-.19.05-.26-.33-.2-.4Z"/>
        <path class="clsCoin-1" d="M75.32,113.34c.11.56-.58.55-.31.01h.31Z"/>
        <path class="clsCoin-1" d="M52.65,114.31c.37-.1.37.51,0,.41-.16-.05-.16-.36,0-.41Z"/>
        <path class="clsCoin-1" d="M75.6,114.39c.37-.1.37.51,0,.41-.16-.05-.16-.36,0-.41Z"/>
        <path class="clsCoin-1" d="M76.62,115.21l.05.33c-.65.37-.35-.53-.05-.33Z"/>
        <path class="clsCoin-1" d="M51.96,115.29c.09.07.12.5-.2.41-.29-.08-.03-.57.2-.41Z"/>
        <path class="clsCoin-1" d="M76.94,114.64v-.32c.54-.06.54.38,0,.32Z"/>
        <path class="clsCoin-1" d="M43.88,84.71c1.05-.21,1.43,1.45.3,1.61s-1.18-1.43-.3-1.61ZM44.05,85.11c-.36.05-.56.56-.25.79.85.28.91-.89.25-.79Z"/>
        <path class="clsCoin-1" d="M65.61,80.23c1.27-.29,1.36,1.72.16,1.61-.97-.09-.99-1.42-.16-1.61ZM66.18,81.34c.44-.44-.48-1.09-.75-.47-.23.51.46.76.75.47Z"/>
        <path class="clsCoin-1" d="M52.18,82.19c1.31-.3,1.33,1.77.09,1.59-.87-.12-.86-1.42-.09-1.59ZM52.26,82.59c-.48.14-.38.98.29.78.48-.14.41-.99-.29-.78Z"/>
        <path class="clsCoin-1" d="M63.76,67.6c.02.12-.21.15-.28.15-.5,0-1.18-.1-1.7-.16-2.17-.25-4.58-.6-6.74-.99-.42-.08-1.03-.17-1.42-.29-.11-.03-.25-.03-.27-.17l10.42,1.46Z"/>
        <path class="clsCoin-1" d="M62.7,75.58c.02.14-.18.08-.28.08-2.23.09-6.93-.78-9.25-1.25-.17-.03-.37-.06-.54-.12-.14-.04-.22.04-.18-.18l10.25,1.47Z"/>
        <path class="clsCoin-1" d="M62.95,72.89l-.77.08c-2.75-.61-6.46-.5-9.09-1.33-.09-.03-.25-.02-.23-.14l10.09,1.38Z"/>
        <path class="clsCoin-1" d="M63.35,70.37c-2.96-.34-5.96-.63-8.89-1.16-.37-.07-.95-.11-1.2-.38,2.72.38,5.46.65,8.17,1.07.48.07,1.17.14,1.6.27.12.04.29.05.32.2Z"/>
        <path class="clsCoin-1" d="M62.46,76.15c.01.14-.28.09-.36.08-2.88-.23-6.16-.74-9.02-1.23-.19-.03-.61-.06-.7-.23l10.09,1.38Z"/>
        <path class="clsCoin-1" d="M62.78,73.46c0,.15-.35.09-.45.08-2.67-.19-5.79-.72-8.45-1.15-.31-.05-.67-.09-.97-.17-.08-.02-.25-.02-.23-.14l10.09,1.38Z"/>
        <path class="clsCoin-1" d="M63.11,70.78l-.78.08c-2.83-.59-6.3-.55-9.04-1.29-.14-.04-.23.06-.19-.17l10.01,1.38Z"/>
        <path class="clsCoin-1" d="M39.43,111.55c-.98-1.26-.28-3.98,1.71-3.09-.12-.63-1.13-2.34-1.75-2.44-.78-.12-1.46.49-1.79,1.13l-.61,1.63c-.05-1.33.21-2.91,1.63-3.42-.02-.12-.37-.21-.47-.22-1.79-.25-2.29,1.73-2.3,3.15l-.17-.77c.05-1.96.96-3.84,3.22-2.97,2.44.93,4.28,5.42,3.31,7.79-.37.9-1.1,1.49-2.12,1.19-.18-.05-1.05-.69-.91-.84,1.75,1.7,2.83-.14,2.58-1.97-.16-1.17-1.43-2.62-2.14-.96-.04.1-.2.47-.2.53v1.26Z"/>
        <path class="clsCoin-1" d="M87.77,108.21l-.45-1.87c-.45-1.13-1.23-1.49-2.4-1.06.55.39.94.6,1.24,1.24.06.12.31.84.31.91v1.26c-.12.02-.12-.14-.14-.23-.19-.79-.33-1.52-1.01-2.09-1.51-1.28-2.53,1-3,2.15,1.65-.88,2.43.74,2.16,2.2l-.45.97c.09-.73.14-1.31-.15-2.01-.55-1.35-1.69-.43-2.01.55-.6,1.85.57,4.42,2.44,2.36.07.16-.41.62-.57.73-1.02.72-2.08-.03-2.44-1.06-.85-2.45.9-6.9,3.43-7.79,1.2-.42,2.26.03,2.75,1.2.07.17.29.8.29.93v1.59Z"/>
        <path class="clsCoin-1" d="M71.07,74.21c.77-.1,1.01,1.08.37,1.27-1.04.31-1.27-1.15-.37-1.27ZM71.39,74.62c-.44-.43-.87.56-.26.56.31,0,.46-.37.26-.56Z"/>
        <path class="clsCoin-1" d="M69.03,72.18c.98-.21,1.11,1.11.29,1.27-.78.15-1.07-1.1-.29-1.27ZM69.11,72.41c-.37.1-.37.88.21.71.41-.12.22-.82-.21-.71Z"/>
        <path class="clsCoin-1" d="M69.27,74.54c.88-.2,1,1.06.29,1.19-.81.14-.97-1.04-.29-1.19ZM69.69,74.86c-.35-.23-.78.17-.48.52l.2.09.24-.13.03-.48Z"/>
        <path class="clsCoin-1" d="M56.36,137.18c-1.32-.64-2.89-1.72-3.17-3.25l.81,1.1,2.36,2.15Z"/>
        <path class="clsCoin-1" d="M67.18,137.26c-.03-.15.11-.23.2-.33.77-.77,1.76-1.37,2.49-2.23.22-.26.33-.55.57-.77-.28,1.58-1.95,2.62-3.25,3.34Z"/>
        <polygon class="clsCoin-1" points="70.84 67.68 70.47 67.52 70.45 67.26 71.65 63.66 71.93 63.63 72.07 63.82 70.84 67.68"/>
        <path class="clsCoin-1" d="M72.47,62.73c.03.38-.23.6-.53.32-.16-.45.18-.47.53-.32Z"/>
        <path class="clsCoin-1" d="M78.71,61.28c2.99-.48,3.76,3.35,1.4,4.33-1.75.74-3.5-.79-3.12-2.63.15-.74.97-1.58,1.72-1.7ZM78.96,61.52c-2.61.32-2.21,4.42.71,3.96,2.21-.35,2.06-4.3-.71-3.96Z"/>
        <path class="clsCoin-1" d="M76.76,78.61c1.16-.06,2.03,1.75,1.07,2.46-1.54,1.15-2.93-2.36-1.07-2.46Z"/>
        <path class="clsCoin-1" d="M48.38,61.91c.15.14-.57.56-.65.61-.7.42-1.58.71-2.36.93-.03-.15.08-.2.17-.28.27-.23,2.68-1.41,2.84-1.27Z"/>
        <path class="clsCoin-1" d="M88.07,66.08c.51-.04.76.92.13,1.1-.96.29-.95-1.03-.13-1.1ZM87.98,66.39c-.32.05-.22.61.06.56.32-.05.22-.61-.06-.56Z"/>
        <path class="clsCoin-1" d="M30.29,65.25c.12-.02.19.08.19.19,0,.35-.98,1.29-1.34,1.43-.54-.39.9-1.59,1.15-1.62Z"/>
        <path class="clsCoin-8" d="M69.43,105.62c.8-.13,1.05,1.46.29,1.84-1.07.53-1.28-1.68-.29-1.84Z"/>
        <path class="clsCoin-8" d="M53.89,105.62c.94-.15,1.13,1.91.14,1.94-.9.03-1.05-1.8-.14-1.94Z"/>
        <path class="clsCoin-1" d="M44.05,85.11c.66-.1.6,1.07-.25.79-.31-.23-.11-.73.25-.79Z"/>
        <path class="clsCoin-1" d="M66.18,81.34c-.29.29-.98.04-.75-.47.28-.62,1.2.03.75.47Z"/>
        <path class="clsCoin-1" d="M52.26,82.59c.7-.21.77.64.29.78-.67.2-.77-.64-.29-.78Z"/>
        <path class="clsCoin-8" d="M71.39,74.62c.19.19.04.55-.26.56-.61,0-.18-.99.26-.56Z"/>
        <path class="clsCoin-8" d="M69.11,72.41c.44-.11.62.58.21.71-.58.17-.58-.61-.21-.71Z"/>
        <path class="clsCoin-8" d="M69.69,74.86l-.03.48-.24.13-.2-.09c-.3-.35.12-.75.48-.52Z"/>
        <path class="clsCoin-12" d="M78.96,61.52c2.77-.34,2.92,3.61.71,3.96-2.92.46-3.32-3.64-.71-3.96ZM79.11,62.18c-1.42.07-1.7,2.16-.26,2.58,1.95.57,2.37-2.69.26-2.58Z"/>
        <path class="clsCoin-12" d="M87.98,66.39c.28-.05.38.5.06.56-.28.05-.38-.5-.06-.56Z"/>
        <path class="clsCoin-1" d="M79.11,62.18c2.11-.11,1.69,3.15-.26,2.58-1.44-.42-1.16-2.51.26-2.58ZM79.04,62.41c-1.23.18-1.21,2.21.21,2.17,1.49-.04,1.27-2.39-.21-2.17Z"/>
        <path class="clsCoin-8" d="M79.04,62.41c1.48-.22,1.71,2.13.21,2.17-1.43.04-1.45-1.99-.21-2.17Z"/>
        <path class="clsCoin-3" d="M54.91,129.72c0,.1.02.19.07.27-2.4-1.05-4.72-1.91-6.8-3.63-.36-.3-.68-.59-.98-.89-.03-.85,1.19-.05,1.61-.1.39-.23.03-.67.18-.91.08-.13.55-.21.66-.43.23-.5-.8-.97-.59-1.3.31-.5,1.68.38,1.96.73.35.44.24.63.37,1.09.1.4.31.79.25,1.22l-.6.15c-.42.48.52,1.65,1,1.67.31,0,.72-.42,1-.35.36.2.36.68.67.93.35.3,1.3.4,1.34.91.01.2-.13.46-.14.66Z"/>
        <path class="clsCoin-1" d="M77.26,117.18c.07.07-.53.58-.59.66.36.49.47.14.82-.11.13-.09.3-.22.46-.25l-.74.81c.34.47.83.85,1.04,1.4l-1.26-1.18c-.08.11-.35.27-.31.41.01.05.57.66.68.81.14.2.31.43.4.66l-1.3-1.28-.22.31c.4.42.79.87,1.03,1.41l-1.26-1.18-1.01,1.13c.05-.18.15-.36.24-.53.08-.15.52-.78.5-.87-.02-.08-.19-.24-.29-.16l-.89.96.73-1.25-1.03-.97c.27,0,1.12.76,1.25.74l.22-.32c-.23-.25-.52-.44-.74-.7-.05-.06-.12-.08-.1-.17l1.05.68.32-.35-.49-.58.71.44.77-.54ZM76.5,118.06l-.32.32.22.26.37-.32c.01-.06-.2-.27-.26-.26ZM75.74,119l.26.09c.46-.34-.13-.59-.26-.09Z"/>
        <path class="clsCoin-1" d="M46.7,103.56l-.98,1.34.42.49c.48-.42.81-1.03,1.41-1.3l-1.17,1.61c.41.64.85,1.26,1.1,1.98l-1.34-1.63c-.09.16-.46.51-.42.67.02.07.42.64.51.81.16.31.28.67.4,1l-1.17-1.57-.25.54.64,1.49-.88-1.24-.82,1.31.58-1.65-.42-.57-1.08,1.57.83-1.86-1.28-1.66c.05-.05.36.21.42.26.15.12.35.29.49.42.17.15.32.4.45.51.06.06.08.06.16.05l.28-.43-.9-1.21c.12-.03.16.07.23.13.3.25.55.59.85.85l.47-.55-.64-.88.91.65c.12-.26.43-.55.65-.75.06-.06.48-.4.52-.36ZM45.52,106.24l.39-.55-.42-.49-.42.54c.05.1.34.58.45.5ZM45,107.02l.2-.49-.39-.49-.25.48c.13.12.2.29.3.42.04.05,0,.12.15.08Z"/>
        <path class="clsCoin-8" d="M67.88,113.12s3.08-.92,6.94-.44c0,0,1.45-5.1-.65-8.11s-5.35-1.36-6.14.66c-.79,2.02-1.53,4.66-.15,7.89Z"/>
        <path class="clsCoin-8" d="M55.59,113.09s-3-.9-6.86-.42c0,0-1.54-5.09.56-8.1,2.09-3.01,5.35-1.36,6.14.66s1.54,4.63.16,7.86Z"/>
        <path class="clsCoin-1" d="M67.5,107.72l-.16.61c-.18,1.36-.03,2.69.24,4.03l-.42-1.17c-.91-2.81.09-7.9,3.41-8.65,4-.91,5.49,4.68,4.89,7.66l-.48,1.76c.26-1.82.24-3.65-.33-5.41-.9-2.8-3.3-4.47-5.7-1.99.2,0,.32-.19.51-.26,1.51-.54,2.69.61,3.25,1.91.8,1.9.61,4.22-.42,5.99l2.21.27,1.04.38c-2.63-.35-5.3-.13-7.89.33l1.3-.53c-.5-.67-.97-1.49-1.2-2.3-.08-.27-.27-1.04-.27-1.28v-1.34ZM69.43,105.62c-.99.16-.78,2.37.29,1.84.76-.38.51-1.96-.29-1.84Z"/>
        <path class="clsCoin-1" d="M55.95,109.14c-.09.92-.54,2.11-.99,2.91-.09.17-.35.42-.39.51-.06.15.06.11.12.12.3.09.56.16.85.29.1.04.33.08.33.2-2.62-.43-5.33-.71-7.97-.33.03-.15.17-.14.27-.17.95-.32,2.07-.39,3.06-.48-.7-1.12-1.06-2.62-.98-3.94.14-2.17,1.58-5.02,4.15-3.79.04-.18-.1-.18-.19-.26-1.34-1.31-3.17-1.04-4.32.35-1.68,2.02-1.79,5.18-1.27,7.64-.14-.06-.2-.38-.24-.53-.62-1.99-.65-4.14.08-6.11,1.62-4.34,6.01-4.07,7.61.13.68,1.77.67,3.75.22,5.58l-.42,1.09c.36-1.39.39-2.76.23-4.18l-.15-.62c-.04.51.05,1.08,0,1.59ZM53.89,105.62c-.91.14-.76,1.97.14,1.94.99-.03.8-2.09-.14-1.94Z"/>
      </g>
    </g>
  </g>
</svg>