<?xml version="1.0" encoding="UTF-8"?>
<svg id="Layer_1" data-name="Layer 1" xmlns="http://www.w3.org/2000/svg" viewBox="0 0 507 200.95">
  <defs>
    <style>
      .cls-1 {
        fill: #fff;
      }
    </style>
  </defs>
  <path class="cls-1" d="M114.62,48.9c0-.62.23-1.16.69-1.62s1-.69,1.62-.69h22.02c.62,0,1.16.23,1.62.69.46.46.69,1,.69,1.62v35.87c0,.61.23,1.16.69,1.62.46.46,1,.69,1.62.69h8.78c.61,0,1.15-.23,1.62-.69.46-.46.69-1,.69-1.62v-35.87c0-.62.23-1.16.69-1.62.46-.46,1-.69,1.62-.69h22.02c.61,0,1.15.23,1.62.69.46.46.69,1,.69,1.62v103.15c0,.61-.23,1.15-.69,1.62s-1,.69-1.62.69h-22.02c-.62,0-1.15-.23-1.62-.69-.46-.46-.69-1-.69-1.62v-35.87c0-.61-.23-1.15-.69-1.62s-1-.69-1.62-.69h-8.78c-.61,0-1.16.23-1.62.69-.46.46-.69,1-.69,1.62v35.87c0,.61-.23,1.15-.69,1.62-.46.46-1,.69-1.62.69h-22.02c-.61,0-1.16-.23-1.62-.69-.46-.46-.69-1-.69-1.62V48.9Z"/>
  <path class="cls-1" d="M190.67,48.9c0-.62.23-1.16.69-1.62s1-.69,1.62-.69h62.05c.61,0,1.15.23,1.62.69.46.46.69,1,.69,1.62v22.02c0,.61-.23,1.16-.69,1.62-.46.46-1,.69-1.62.69h-35.26c-.72,0-1.31.23-1.77.69-.46.46-.69,1-.69,1.62v9.24c0,.61.23,1.16.69,1.62.46.46,1.05.69,1.77.69h27.1c.62,0,1.16.23,1.62.69.46.46.69,1.05.69,1.77v21.86c0,.72-.23,1.31-.69,1.77-.46.46-1,.69-1.62.69h-27.1c-.72,0-1.31.23-1.77.69-.46.46-.69,1-.69,1.62v9.08c0,.72.23,1.31.69,1.77.46.46,1.05.69,1.77.69h35.26c.61,0,1.15.23,1.62.69s.69,1,.69,1.62v22.02c0,.61-.23,1.15-.69,1.62s-1,.69-1.62.69h-62.05c-.62,0-1.16-.23-1.62-.69-.46-.46-.69-1-.69-1.62V48.9Z"/>
  <path class="cls-1" d="M264.57,48.9c0-.62.23-1.16.69-1.62s1-.69,1.62-.69h62.05c.61,0,1.15.23,1.62.69.46.46.69,1,.69,1.62v22.02c0,.61-.23,1.16-.69,1.62-.46.46-1,.69-1.62.69h-35.26c-.72,0-1.31.23-1.77.69s-.69,1-.69,1.62v9.24c0,.61.23,1.16.69,1.62.46.46,1.05.69,1.77.69h27.1c.62,0,1.16.23,1.62.69.46.46.69,1.05.69,1.77v21.86c0,.72-.23,1.31-.69,1.77-.46.46-1,.69-1.62.69h-27.1c-.72,0-1.31.23-1.77.69-.46.46-.69,1-.69,1.62v9.08c0,.72.23,1.31.69,1.77.46.46,1.05.69,1.77.69h35.26c.61,0,1.15.23,1.62.69s.69,1,.69,1.62v22.02c0,.61-.23,1.15-.69,1.62-.46.46-1,.69-1.62.69h-62.05c-.62,0-1.16-.23-1.62-.69-.46-.46-.69-1-.69-1.62V48.9Z"/>
  <path class="cls-1" d="M336,128.34c0-.41.1-.82.31-1.23l32.33-50.19c.51-.82.54-1.64.08-2.47-.46-.82-1.15-1.23-2.08-1.23h-28.33c-.62,0-1.16-.23-1.62-.69s-.69-1-.69-1.62v-22.02c0-.62.23-1.16.69-1.62.46-.46,1-.69,1.62-.69h62.04c.62,0,1.16.23,1.62.69.46.46.69,1,.69,1.62v23.71c0,.41-.11.82-.31,1.23l-32.33,50.19c-.51.82-.54,1.64-.08,2.46.46.82,1.15,1.23,2.08,1.23h28.33c.62,0,1.16.23,1.62.69.46.46.69,1,.69,1.62v22.02c0,.61-.23,1.15-.69,1.62-.46.46-1,.69-1.62.69h-62.04c-.62,0-1.16-.23-1.62-.69-.46-.46-.69-1-.69-1.62v-23.71Z"/>
</svg>