<?xml version="1.0" encoding="UTF-8"?><svg id="Layer_1" xmlns="http://www.w3.org/2000/svg" viewBox="0 0 412.38 200.95"><defs><style>.cls-1{fill:#fff;}.cls-2{fill:#449917;}</style></defs><path class="cls-2" d="M114.71,58.85c-6.06.84-11.02,6.59-12.71,14.22-.54,2.44-.93,5.03-1.29,7.64-1.42,10.44-2.84,20.88-4.26,31.32-.95,7-1.75,14.92,1.55,20.58,3.61,6.19,10.57,6.89,16.46,5.67,5.9-1.21,11.88-3.77,17.71-2.08,6.82,1.98,12.22,9.5,19.13,10.76,9.6,1.75,18.13-8.98,27.81-9.58,8.45-.53,16.07,6.68,24.45,8.07,9.28,1.54,18.35-4.15,27.69-4.97,8.43-.74,16.74,2.51,25.17,3.18,6.84.55,13.69-.61,20.48-1.76,8.3-1.4,16.6-2.81,24.9-4.21,4.09-.69,8.32-1.44,11.63-4.92,1.47-1.54,2.63-3.59,3.1-5.97,2.18-10.9-10.67-15.9-9.14-25.47,1.07-6.67,8.32-8.34,10.62-14.47,1.41-3.77.53-8.45-1.36-11.84-1.9-3.39-4.65-5.77-7.34-8.07-10.39-8.89-21.51-18.09-33.95-18.46-8.97-.27-17.68,4.15-26.65,4.55-11.78.53-23.54-5.89-35.15-3.21-7.39,1.7-14.15,7-21.61,8.01-8.65,1.17-17.07-3.54-25.68-5.17-9.01-1.71-18.17-.02-27.17,1.66-8.03,1.5-16.06,3-24.09,4.5-.09,0-.19.02-.3.03Z"/><path class="cls-1" d="M131.7,71.01c0-.32.12-.61.36-.85s.53-.36.85-.36h11.56c.32,0,.61.12.85.36.24.24.36.53.36.85v18.83c0,.32.12.61.36.85.24.24.53.36.85.36h4.61c.32,0,.61-.12.85-.36.24-.24.36-.53.36-.85v-18.83c0-.32.12-.61.36-.85.24-.24.52-.36.85-.36h11.56c.32,0,.61.12.85.36.24.24.36.53.36.85v54.15c0,.32-.12.61-.36.85s-.53.36-.85.36h-11.56c-.32,0-.61-.12-.85-.36s-.36-.53-.36-.85v-18.83c0-.32-.12-.61-.36-.85s-.53-.36-.85-.36h-4.61c-.32,0-.61.12-.85.36-.24.24-.36.53-.36.85v18.83c0,.32-.12.61-.36.85-.24.24-.53.36-.85.36h-11.56c-.32,0-.61-.12-.85-.36-.24-.24-.36-.53-.36-.85v-54.15Z"/><path class="cls-1" d="M171.63,71.01c0-.32.12-.61.36-.85s.52-.36.85-.36h32.57c.32,0,.61.12.85.36.24.24.36.53.36.85v11.56c0,.32-.12.61-.36.85-.24.24-.53.36-.85.36h-18.51c-.38,0-.69.12-.93.36s-.36.53-.36.85v4.85c0,.32.12.61.36.85.24.24.55.36.93.36h14.22c.32,0,.61.12.85.36.24.24.36.55.36.93v11.48c0,.38-.12.69-.36.93-.24.24-.53.36-.85.36h-14.22c-.38,0-.69.12-.93.36-.24.24-.36.53-.36.85v4.77c0,.38.12.69.36.93.24.24.55.36.93.36h18.51c.32,0,.61.12.85.36s.36.53.36.85v11.56c0,.32-.12.61-.36.85s-.53.36-.85.36h-32.57c-.32,0-.61-.12-.85-.36-.24-.24-.36-.53-.36-.85v-54.15Z"/><path class="cls-1" d="M210.42,71.01c0-.32.12-.61.36-.85s.52-.36.85-.36h32.57c.32,0,.61.12.85.36.24.24.36.53.36.85v11.56c0,.32-.12.61-.36.85-.24.24-.53.36-.85.36h-18.51c-.38,0-.69.12-.93.36s-.36.53-.36.85v4.85c0,.32.12.61.36.85.24.24.55.36.93.36h14.22c.32,0,.61.12.85.36.24.24.36.55.36.93v11.48c0,.38-.12.69-.36.93-.24.24-.53.36-.85.36h-14.22c-.38,0-.69.12-.93.36-.24.24-.36.53-.36.85v4.77c0,.38.12.69.36.93.24.24.55.36.93.36h18.51c.32,0,.61.12.85.36s.36.53.36.85v11.56c0,.32-.12.61-.36.85s-.53.36-.85.36h-32.57c-.32,0-.61-.12-.85-.36-.24-.24-.36-.53-.36-.85v-54.15Z"/><path class="cls-1" d="M247.91,112.71c0-.21.05-.43.16-.65l16.97-26.35c.27-.43.28-.86.04-1.29-.24-.43-.61-.65-1.09-.65h-14.87c-.32,0-.61-.12-.85-.36s-.36-.53-.36-.85v-11.56c0-.32.12-.61.36-.85.24-.24.53-.36.85-.36h32.57c.32,0,.61.12.85.36.24.24.36.53.36.85v12.45c0,.22-.06.43-.16.65l-16.97,26.35c-.27.43-.28.86-.04,1.29.24.43.61.65,1.09.65h14.87c.32,0,.61.12.85.36.24.24.36.53.36.85v11.56c0,.32-.12.61-.36.85-.24.24-.53.36-.85.36h-32.57c-.32,0-.61-.12-.85-.36-.24-.24-.36-.53-.36-.85v-12.45Z"/></svg>