<?xml version="1.0" encoding="UTF-8"?><svg id="Layer_1" xmlns="http://www.w3.org/2000/svg" viewBox="0 0 412.38 200.95"><path d="M72.22,84c0-.27.1-.5.3-.71.2-.2.44-.3.71-.3h9.62c.27,0,.5.1.71.3.2.2.3.44.3.71v15.67c0,.27.1.5.3.71.2.2.44.3.71.3h3.83c.27,0,.5-.1.71-.3.2-.2.3-.44.3-.71v-15.67c0-.27.1-.5.3-.71.2-.2.44-.3.71-.3h9.62c.27,0,.5.1.71.3s.3.44.3.71v45.07c0,.27-.1.5-.3.71-.2.2-.44.3-.71.3h-9.62c-.27,0-.5-.1-.71-.3-.2-.2-.3-.44-.3-.71v-15.68c0-.27-.1-.5-.3-.71-.2-.2-.44-.3-.71-.3h-3.83c-.27,0-.5.1-.71.3s-.3.44-.3.71v15.68c0,.27-.1.5-.3.71s-.44.3-.71.3h-9.62c-.27,0-.5-.1-.71-.3s-.3-.44-.3-.71v-45.07Z"/><path d="M105.45,84c0-.27.1-.5.3-.71s.44-.3.71-.3h27.11c.27,0,.5.1.71.3.2.2.3.44.3.71v9.62c0,.27-.1.5-.3.71-.2.2-.44.3-.71.3h-15.41c-.31,0-.57.1-.77.3s-.3.44-.3.71v4.04c0,.27.1.5.3.71.2.2.46.3.77.3h11.84c.27,0,.5.1.71.3.2.2.3.46.3.77v9.55c0,.31-.1.57-.3.77-.2.2-.44.3-.71.3h-11.84c-.31,0-.57.1-.77.3-.2.2-.3.44-.3.71v3.97c0,.31.1.57.3.77.2.2.46.3.77.3h15.41c.27,0,.5.1.71.3s.3.44.3.71v9.62c0,.27-.1.5-.3.71s-.44.3-.71.3h-27.11c-.27,0-.5-.1-.71-.3-.2-.2-.3-.44-.3-.71v-45.07Z"/><path d="M137.75,84c0-.27.1-.5.3-.71.2-.2.44-.3.71-.3h27.11c.27,0,.5.1.71.3.2.2.3.44.3.71v9.62c0,.27-.1.5-.3.71s-.44.3-.71.3h-15.41c-.31,0-.57.1-.77.3-.2.2-.3.44-.3.71v4.04c0,.27.1.5.3.71s.46.3.77.3h11.84c.27,0,.5.1.71.3.2.2.3.46.3.77v9.55c0,.31-.1.57-.3.77-.2.2-.44.3-.71.3h-11.84c-.31,0-.57.1-.77.3-.2.2-.3.44-.3.71v3.97c0,.31.1.57.3.77.2.2.46.3.77.3h15.41c.27,0,.5.1.71.3.2.2.3.44.3.71v9.62c0,.27-.1.5-.3.71-.2.2-.44.3-.71.3h-27.11c-.27,0-.5-.1-.71-.3-.2-.2-.3-.44-.3-.71v-45.07Z"/><path d="M168.96,118.72c0-.18.04-.36.13-.54l14.13-21.93c.22-.36.23-.72.03-1.08-.2-.36-.5-.54-.91-.54h-12.38c-.27,0-.5-.1-.71-.3-.2-.2-.3-.44-.3-.71v-9.62c0-.27.1-.5.3-.71.2-.2.44-.3.71-.3h27.11c.27,0,.5.1.71.3s.3.44.3.71v10.36c0,.18-.04.36-.13.54l-14.13,21.93c-.23.36-.24.72-.03,1.08.2.36.5.54.91.54h12.38c.27,0,.5.1.71.3.2.2.3.44.3.71v9.62c0,.27-.1.5-.3.71-.2.2-.44.3-.71.3h-27.11c-.27,0-.5-.1-.71-.3s-.3-.44-.3-.71v-10.36Z"/><path d="M201.12,84c0-.27.1-.5.3-.71.2-.2.44-.3.71-.3h9.62c.27,0,.5.1.71.3.2.2.3.44.3.71v33.37c0,.31.1.57.3.77s.46.3.77.3h15.41c.27,0,.5.1.71.3.2.2.3.44.3.71v9.62c0,.27-.1.5-.3.71-.2.2-.44.3-.71.3h-27.11c-.27,0-.5-.1-.71-.3s-.3-.44-.3-.71v-45.07Z"/><path d="M260.12,128.94c0,.31-.09.58-.27.81-.22.22-.47.34-.74.34h-9.49c-.27,0-.5-.09-.71-.27-.2-.18-.3-.4-.3-.67l-.27-4.17c0-.27-.1-.49-.3-.67-.2-.18-.44-.27-.71-.27h-3.36c-.27,0-.51.09-.71.27-.2.18-.3.4-.3.67l-.27,4.17c0,.27-.1.49-.3.67-.2.18-.44.27-.71.27h-9.49c-.31,0-.56-.11-.74-.34s-.27-.49-.27-.81l4.98-45.01c.09-.63.45-.94,1.08-.94h16.82c.27,0,.5.09.71.27.2.18.3.4.3.67l5.05,45.01ZM246.46,95.37c-.04-.49-.33-.74-.84-.74s-.77.25-.77.74l-1.01,15.88c-.04.31.04.58.27.81.22.22.47.34.74.34h1.61c.27,0,.51-.11.71-.34s.3-.49.3-.81l-1.01-15.88Z"/><path d="M262.68,84c0-.27.1-.5.3-.71.2-.2.44-.3.71-.3h9.89c.54,0,.87.25,1.01.74l4.17,16.48c.09.4.36.56.81.47.4-.04.61-.27.61-.67v-16.01c0-.27.1-.5.3-.71.2-.2.44-.3.71-.3h9.62c.27,0,.5.1.71.3.2.2.3.44.3.71v45.07c0,.27-.1.5-.3.71-.2.2-.44.3-.71.3h-9.89c-.54,0-.88-.25-1.01-.74l-4.17-16.48c-.09-.4-.36-.56-.81-.47-.4.04-.61.27-.61.67v16.01c0,.27-.1.5-.3.71-.2.2-.44.3-.71.3h-9.62c-.27,0-.5-.1-.71-.3-.2-.2-.3-.44-.3-.71v-45.07Z"/><path d="M295.84,84c0-.27.1-.5.3-.71.2-.2.44-.3.71-.3h14.2c1.93.05,3.64.36,5.15.94s2.74,1.26,3.7,2.02c.96.76,1.78,1.85,2.46,3.26.67,1.41,1.18,2.66,1.51,3.73s.59,2.57.77,4.47c.18,1.91.28,3.38.3,4.41.02,1.03.03,2.54.03,4.51v.34c0,1.97-.01,3.49-.03,4.54-.02,1.05-.12,2.52-.3,4.41-.18,1.88-.44,3.38-.77,4.47-.34,1.1-.84,2.35-1.51,3.77-.67,1.41-1.49,2.5-2.46,3.26-.96.76-2.2,1.44-3.7,2.02s-3.22.9-5.15.94h-14.2c-.27,0-.5-.1-.71-.3-.2-.2-.3-.44-.3-.71v-45.07ZM313.33,107.48v-4.98c0-.67-.03-1.28-.1-1.82-.07-.54-.15-1.13-.24-1.78s-.2-1.21-.34-1.68c-.13-.47-.3-.91-.51-1.31-.2-.4-.45-.72-.74-.94-.29-.22-.62-.34-.98-.34h-1.88c-.31,0-.57.1-.77.3-.2.2-.3.44-.3.71v21.73c0,.31.1.57.3.77.2.2.46.3.77.3h1.88c.36,0,.68-.11.98-.34.29-.22.54-.54.74-.94.2-.4.37-.84.51-1.31s.25-1.03.34-1.68.16-1.25.2-1.78.08-1.15.1-1.85c.02-.7.03-1.25.03-1.65v-1.41Z"/></svg>