<?xml version="1.0" encoding="UTF-8"?>
<svg id="Layer_1" data-name="Layer 1" xmlns="http://www.w3.org/2000/svg" viewBox="0 0 446.45 495.1" fill="none" stroke="none">
  <defs>
    <style>
      .MsctHLprD-1 {
        fill: #522720;
      }

      .MsctHLprD-2 {
        fill: #45ffaf;
      }

      .MsctHLprD-3 {
        fill: #7bff5f;
      }

      .MsctHLprD-4 {
        fill: #fff;
      }

      .MsctHLprD-5 {
        fill: #76efff;
      }

      .MsctHLprD-6 {
        fill: #e2b060;
      }

      .MsctHLprD-7 {
        fill: #fdcd8d;
      }

      .MsctHLprD-8 {
        fill: #ceba7dff;
      }

      .MsctHLprD-9 {
        fill: #ffd58a;
      }

      .MsctHLprD-10 {
        fill: #b7b7b7;
      }
    </style>
  </defs>
  <path class="MsctHLprD-8" d="M343.72,465.85c-34.39-.34-68.77-2.41-103.17-2.42-13.81-.02-47.62.36-61.9.46-16.4.09-50.97.46-67.06.67-1.31.02-4.06.01-5.39-.08-18.8-.5-37.01-10.36-47.83-25.77-6.57-9.19-10.7-20.34-11.44-31.65-.68-13.26-2.71-172.89-3.06-186.06-.11-10.81.52-21.72,2.35-32.4,2.31-14.29,6.43-28.47,12.19-41.73,13.59-31.84,36.93-59.46,65.76-78.58,28.95-19.3,63.7-29.6,98.45-29.83,11.52-.17,23.69.37,35.16,2.13,26.26,4.09,51.59,14.02,73.55,29,45.54,30.74,75.52,83.11,78.21,138.02.31,3.67.25,8.56.33,12.26-.19,16.89-1.25,88.91-1.47,107.04-.27,13.15-.59,49.06-.82,61.9-.16,5.89.02,15.44-.65,21.39-3.38,31.38-31.76,56.33-63.22,55.65h0ZM343.72,453.7c29.36-.6,51.41-25.44,49.18-54.57-.26-18.31-.68-53.49-.95-72.22-.22-18.64-1.26-89.83-1.47-107.03-.15-3.3-.2-7.66-.55-10.94-2.6-33.83-16.35-66.67-38.59-92.26-24.6-28.77-59.57-48.21-96.96-54.01-10.5-1.59-21.01-2.03-31.7-1.88-17.64.03-35.43,2.83-52.11,8.63-46.12,15.66-83.69,52.92-99.76,98.91-4.95,13.74-7.8,28.29-8.87,42.84-.74,22.08-3.23,174.29-3.03,197.49.87,8.44,3.65,16.7,8.45,23.77,8.66,13.02,23.69,21.59,39.31,22.36,6.38.41,24,.33,30.72.51,30.12,0,73.22.89,103.17.82,34.4-.01,68.78-2.09,103.17-2.42h0Z"/>
  <circle class="MsctHLprD-8" cx="222.78" cy="239.87" r="100.18"/>
  <path class="MsctHLprD-8" d="M130.32,356.43c-6.06.84-11.02,6.59-12.71,14.22-.54,2.44-.93,5.03-1.29,7.64-1.42,10.44-2.84,20.88-4.26,31.32-.95,7-1.75,14.92,1.55,20.58,3.61,6.19,10.57,6.89,16.46,5.67s11.88-3.77,17.71-2.08c6.82,1.98,12.22,9.5,19.13,10.76,9.6,1.75,18.13-8.98,27.81-9.58,8.45-.53,16.07,6.68,24.45,8.07,9.28,1.54,18.35-4.15,27.69-4.97,8.43-.74,16.74,2.51,25.17,3.18,6.84.55,13.69-.61,20.48-1.76,8.3-1.4,16.6-2.81,24.9-4.21,4.09-.69,8.32-1.44,11.63-4.92,1.47-1.54,2.63-3.59,3.1-5.97,2.18-10.9-10.67-15.9-9.14-25.47,1.07-6.67,8.32-8.34,10.62-14.47,1.41-3.77.53-8.45-1.36-11.84-1.9-3.39-4.65-5.77-7.34-8.07-10.39-8.89-21.51-18.09-33.95-18.46-8.97-.27-17.68,4.15-26.65,4.55-11.78.53-23.54-5.89-35.15-3.21-7.39,1.7-14.15,7-21.61,8.01-8.65,1.17-17.07-3.54-25.68-5.17-9.01-1.71-18.17-.02-27.17,1.66-8.03,1.5-16.06,3-24.09,4.5-.09,0-.19.02-.3.03Z"/>
  <path class="MsctHLprD-8" d="M215.76,127.52c-.53-.13-.45.24-.52.62-.16.82-.18,1.7-.31,2.52.48.12.5-.21.57-.57.15-.83.08-1.74.27-2.57ZM222.04,128.57l-6.08-.84-.21,2.93c.54.09.38-.08.48-.45.2-.72-.08-1.7.57-2.06l-.21,2.72c1.24-.06.13-2.01,1.04-2.51l-.21,2.72h.63c.04-.68.11-1.49.27-2.14.05-.21.06-.63.36-.58l-.21,2.72c1.29-.09.05-2.02,1.04-2.51.12.81-.31,1.6-.21,2.41.03.29.13.62.42.32.15-.67.17-1.4.36-2.06.11-.36-.07-.55.48-.45-.04.66-.19,1.3-.24,1.97,0,.14-.3.78.13.75.55-.04.4-2.51,1.15-2.72-.03.81-.42,1.59-.42,2.41,0,.42.03.34.43.32l.42-2.93ZM271.9,128.8l-1.84-.2c-.15,2.54-2.61,2.7-3.73.62l-1.52.74c.31,1.01.98,1.46.1,2.4-1.25,1.32-2.16.05-2.63.29l-.84,1.49c0,.61.94.58,1.16.93.24.39.21,2-.2,2.33-.37.3-1.14.18-1.5.61l.46,1.65,1.72.06.78,2.06c-1.52.72-1.33,1.56,0,2.32.68.1.85-.77,1.47-.86.69-.1,1.42.44,2.06.61l.15,2.1,1.65.44c.08-1.47.53-2.9,2.38-2.27.44.15.59,1.09.88,1.44l.32.12,1.64-.86c-1.58-1.82.56-4.16,2.47-2.65l.28-.06.61-1.45c-1.03-.7-1.61-1.36-1.2-2.72.38-1.26,2.91.05,1.84-2.87-2.32.86-3.67-1.78-1.73-3.24l-1.34-1.35c-1.17.95-1.68,1.48-3.09.38-.64-.5-.21-1.37-.36-2.05ZM222.67,128.78c-.6-.1-.35.12-.45.48-.2.72-.25,1.5-.39,2.24.59.1.35-.12.45-.48.2-.74.17-1.51.39-2.24ZM198.36,129.83c-.88-.12-1.64.15-2.46.36-2.74.71-5.96,2.03-8.58,3.16-3.94,1.71-8.08,3.83-11.39,6.53,4.72-.82,9.45-2.74,13.76-4.78,3.01-1.42,6.21-2.99,8.66-5.27ZM223.09,132.97l-9.43-1.26c-.15.54.44.5.79.57,1.48.28,3.28.47,4.8.66,1.12.14,2.46.38,3.54.45.42.03.33-.05.31-.42ZM251.8,152.46l3.95-17.69c-.15-.63-4.11-1.79-4.9-1.61l-6.39,17.41,7.33,1.89ZM199.62,171.54c4.57.57,9.13,1.14,13.7,1.7,1.46.18,3.53.8,4.86.82,2.73.04,6.17-1.15,9-1.05,1.56-.63.06-2.62.15-3.43.06-.59,1.24-1.93,1.39-3.41.13-1.23-.44-3-.36-3.49.08-.52.95-1.32,1.17-2.19.13-.52.3-1.93.28-2.47-.03-.7-.46-1.35-.43-1.87.03-.47.6-1.19.74-1.78.84-3.43,1.17-7.82-.23-11.12-1.53-3.62-5.11-5.48-7.45-8.48-.33-.24-7.28-1.38-8.07-1.39s-2,1.26-2.83,1.77c-3.6,2.21-7.66,3.3-9.31,7.67-.51,1.34-1.35,5.63-1.37,7.03-.01.8.57,1.57.55,2.09-.02.47-.67,1.09-.86,1.57-.98,2.54.11,3.76-.11,5.33-.12.9-1.38,2.57-1.45,4.24-.04.91.54,1.7.4,2.68-.11.75-1.03,1.77-1.2,3-.2,1.49.41,3.03.31,3.9-.04.36-.86,1.44-1.06,2.25-.11.43-.5,3.14-.34,3.32l13.41-2.94-10.32-1.73-.79-.57,13.55,1.8,1.96-.34-14.79-2.51-.51-.42ZM195.42,133.6c-.27-.21-5.35,2.61-6.14,2.97-4.18,1.91-8.55,3.59-13.05,4.57l3.26,8.51c4.85-1.05,9.62-2.68,14.12-4.76.73-.34,5.31-2.59,5.5-2.9.16-.26-.15-.63-.12-.94s.36-.44.31-.74c-.14-.82-.86-.52-1.35-.74-1.22-.54-1.75-2.47-2.1-3.66l1.26-.1-.42-1.36-1.01-.03-.24-.81ZM138.42,147.85c2.6-.06,7.78-5.27,7.55-7.66-.02-.26-.13-.36-.32-.51-1.97.69-3.71,2.17-5.04,3.76-.49.59-2.74,3.77-2.2,4.4ZM156.91,151.66c.07-.11.57-.19.58-.35l-10.58-10.37-2.09,3.35c-1.59,1.76-3.36,3.22-5.34,4.5l16.68,15.4c2.03.2,5.59-3.2,6.18-5.12-1.66-.78-1.86-2.21-.22-3.16l-3.04-3.04c-.74,1.47-2.74-.24-2.15-1.22ZM292.04,141.56l-.52.21-4.08,3.88,3.87,3.87,4.08-4.08c0-.33-3.47-2.92-3.35-3.88ZM296.03,144.5c.25-.29-2.04-2.45-2.51-2.51-.34.36,2.25,2.2,2.51,2.51ZM199.41,151c-.04-2.83.56-5.65,1.26-8.38-6.41,3.78-13.39,6.8-20.75,8.18l11.45,28.94,4.26-1.07c-.07-1.74.12-3.47.63-5.14.14-.45.59-.75.63-1.26.1-1.33-.58-2.12-.14-4.12.28-1.28,1.19-2.14,1.3-2.66.1-.43-.55-1.46-.54-2.21.03-1.95,1.11-3.45,1.26-4.64.1-.78-.36-1.4-.38-2.07-.03-1.04.41-3.1,1.01-3.99-1.34.35-1.66-1.08-.94-1.99l.94.42ZM289.46,149.18c-.53-.55-1.42-1.07-1.92-1.75-6.22,6.12-12.58,12.23-20.01,16.87,2.04.45,3.69.99,3.56,3.46l1.25-.42c.44.45-1.97,2.8-2.62,1.69-.08-.14.17-1.03-.16-1.43-.21-.25-.99-.22-1.2-1l1.04-.31c.05-.63-.66-.78-1.15-.84-1.68-.2-5.03.42-4.92,2.59.06,1.13.49,1.91,1.61,2.18,4.3,1.02,7.38-.73,10.53-3.41l-.6-.67.07-.49c5.3-4.85,9.84-10.55,14.78-15.72v1.26c1.54-.24.31-1.41-.28-2.02ZM266.32,157.65l.47.18c5.96-2.93.43-10.68-4.49-6.48.37,2.3,1.51.02,3,.08,2.95.11,3.49,4.11.77,5.37l.24.86ZM253.69,157.91l-1.77-4.2c-1.76-.34-6.85-2.56-8.35-2.26-.91.18-2.95,2.11-3.93,2.59l14.04,3.88ZM266.82,155.53c.57-.58.63-1.49.4-2.24-.58-1.87-4.07-1.39-3.64.07.04.14,1.58,2.36,1.73,2.47.54.37,1.08.13,1.51-.3ZM251.16,172.14l3.28-12.77-16.04-4.61-5.04,17.6,17.79-.23ZM161.98,162.02c-.13-.13-.04-.39-.19-.33-1.08,1.32-2.53,2.15-3.88,3.14,1.88.18,3.45-1.14,4.4-2.62.02-.11-.24-.09-.33-.19ZM173.21,171.95l-9.56-9.2-2.59,2.19,9.43,8.59,2.72-1.57ZM289.95,176.36v-3.56l-3.37-.34-1.04-2.9,2.1-2.52-1.67-2.53-3.04,1.51-3.12-1.79-1.18,1.55c6.22,2.34,8.18,10.52,3.77,15.51-.57.64-2.44,1.83-2.62,2.21s.33,1.01.53,1.37c.52.34,2.19-1.59,2.59-1.55.66.13,2.62,1.84,3.08,1.55l1.85-2.53-2.17-2.39c-.03-.14.67-2.62.78-2.81.51-.9,2.57-.45,3.52-.77ZM180.09,166.54c-.04-.06-.96-.42-1.13-.45-.92-.12-2.19.36-3.08.67-.53.19-3.19,1.24-3.08,1.72l.93.9c2.55-1.42,5.61-2.2,2.52,1.53-1.17,1.42-3.14,2.93-4.74,3.86-.64.38-4.14,2.25-4.59,1.58-.19-1.45,1.28-2.03,1.69-3.23l-.96-.74c-1.45,1.13-5.93,6.43-1.67,6.29,4.28-.14,10.53-4.85,12.85-8.33.48-.72,1.75-3.01,1.26-3.8ZM279.05,182.43c6.9-3.16,5.96-13.94-1.36-15.93l-3.05,2.52c6.17.06,8.62,7.58,3.36,10.91l1.05,2.51ZM184.11,173l-.33-.82-2.6-3.79c.09,1.97,1.39,3.56,2.93,4.61ZM142.61,170.69c-.61-2.1-2.62-.45-3.56.53-1.65,1.73-3.16,5-3.54,7.35-.27,1.63-.84,5.37,1.65,5.11-1.31-4.52,1.07-11,5.45-13ZM276.22,170.07c-.97-.15-2.24.11-3.25,0,.92,3.25,2.91,6.06,4.51,9.02,4.02-1.73,3-8.35-1.26-9.02ZM138.42,184.53c5.67.07,9.56-10.31,5.76-14.25-.58-.24-.1,1.09-.09,1.35.16,4.26-1.3,9.49-4.72,12.27-.33.27-.86.28-.94.62ZM142.82,171.75c-.81-.39-3.2,2.44-2.93,2.72,1.07-.6,1.7-1.3,2.93-.63v-2.09ZM262.02,171.79c-5.89,1.2-3.26,12.55,3.1,13.16,8.53.81,4.85-14.77-3.1-13.16ZM259.56,171.96c-1.3.44-2.33,2.4-2.5,3.68-.78,5.92,4.06,12.59,10.46,10.35h-2.82c-5.65-1.36-9.65-9.51-5.15-14.04ZM180.29,175.14c-.06-.1-.51-.23-.7-.45-.31-.36-1.01-1.52-1.42-1.45-3.64,3.13-7.41,6.01-12.3,6.78l5.35,6.81.57.18,11.89-4.8-1.89-2.83c.57-.31,1.11-1.54,1.36-2.2.28-.75.59-1.67-.52-1.88.31,1.52-1.58,2.24-2.2.83-.15-.34-.03-.77-.15-1ZM264.59,187.68c-6.1-.67-10.09-8-8.18-13.63-1.14.75-5.8,4.2-5.84,5.33-.08,2.24,3.46,8.21,5.72,8.51,1.17.15,6.87.55,7.67.31.24-.07.57-.26.62-.53ZM243.62,174.48c-1.51-.57-3.23-.05-4.71-.01-23.97.54-46.94,5.78-68.71,15.55-.72.32-1.48.61-2.24.8-.26.35,1.38,1.29,1.68,1.57.34.3,1.45,1.59,1.66,1.67.5.18,1.23-.5,2.11.42,2.52,2.65-2.5,9.26-5.82,7.91-1.87-.76-.75-2.5-.94-3.48-.04-.23-1.43-1.61-1.63-1.39l-1.47,8.38c11.63-5.46,24.12-9.61,36.67-12.47,14.87-3.39,30.21-5.27,45.48-5.55-.95-1.39.03-3.08,1.47-3.46-.19-.4-.67-.05-.84-.19-.21-.17-1.18-4.36-1.41-5.1-.39-1.29-1.13-2.81-1.43-4.03-.05-.22.02-.43.11-.62ZM249.92,174.47c-.59.01-1.19-.03-1.78,0-.25.01-.78-.16-.73.21.78-.04,2,.69,2.51-.21ZM186.62,176.77l-1.04-1.67c-.55.57.76,1.96,1.04,1.67ZM138.21,180.76c-.27-1.39.58-2.43.42-3.77-.37.21-.58,1.11-.69,1.51-.09.35-.51,2.12-.36,2.26h.63ZM166.29,192.49c-1.28-.55-2.48-1.26-3.77-1.78-1.43-.57-6.55-1.92-7.35-2.73-.3-.31.26-.55-1.1-1.4s-1.77-.98-3.13-1.26c-.73-.15-1.37-1.19-1.96-1.64-.11-.26.39-.36.24-.83-.07-.22-2.27-3.43-2.55-3.77-.1-.13-.4-.52-.5-.44-.32,1.63-1.5,2.86-2.24,4.29,2.55,3.5,5.32,6.6,9.37,8.38,3.46,1.52,7.28,1.92,10.61,3.85,2.05,1.19,3.54,2.74,4.99,4.58,1.51-.41,2.84-1.86,2.62-3.49-.61.37-.85-.09-1.25-.53l.42-.62c-.21-.52-3.9-3.47-4.51-3.67-.11-.03-.34-.06-.31.1l.42.94ZM275.91,180.97l-1.04-2.09c-.04.84.26,1.71,1.04,2.09ZM272.35,187.25c-.86-.85-1.34-1.96-.72-3.13.13-.25.71-.67.71-.75,0-.1-.52-.37-.58-.65-.1-.55.68-2.14-.26-2.6-.24,2.4-1.16,4.55-2.75,6.37l-2.7,2.01,3.56.21c-.21-.69-1.56-.29-1.23-1.12.2-.5,1.37-.96,1.79-1.36.83.2,1.22,1.21,2.16,1.01ZM254.32,187.88c-1.59-1.85-3.23-3.47-4.19-5.77l-.8.36c-.33.54,1.47,4.66,2.03,5.11.74.59,2.03.19,2.95.3ZM278.84,187.25l-.24-.92-2.07-4.11c.23,1.78.76,3.97,2.3,5.03ZM250.34,187.88l-2.09-5.24c-.56.92.32,4.93,1.19,5.2.29.09.61.04.9.04ZM274.18,184.58c-1.25-1.25-2.51,1.03-1.27,1.85,1.11.74,2.16-.96,1.27-1.85ZM275.07,187.04c1.1-.03,1.09-1.85.52-2.51.09,1.04.27,1.66-.52,2.51ZM248.03,187.88c-.41-2.36-1.97-3.09-1.25,0l.52-.63.73.63ZM167.34,200.04c-.04,3.46,3.46.93,4.6-.53,1.01-1.29,2.36-4.17,0-4.71,1.57,1.92.17,4.44-1.74,5.49-1.21.66-1.82.73-2.87-.25ZM239.5,210.46c-.14-.08-.25-.54-.52-.62l-6.87-4.55c3.24,3.01,6.75,5.75,10.59,7.96-.14-.85.16-.53.52-1.04-1.11-.12-1.81-1.44-2.93-1.05l.02-.53c-.22-.12-.57-.03-.8-.16ZM288.9,213.25c-5.04-.63-9.91-2.17-14.54-4.22l-6-3.11c5.17,4.76,11.98,7.15,18.96,7.55.34.02,1.43.16,1.58-.22ZM278.21,219.95c-7.81-1.52-15.18-5.13-21.99-9.14l-6.72-4.49c5.01,5,11.42,9.18,18.13,11.53,2.86,1,6.85,2.08,9.86,2.3.23.02.78.16.73-.2ZM210.94,208.42c-.18-.36-.33-.93-.84-.83.18.36.33.93.84.83ZM239.65,223.1c-7.69-3.25-14.33-8.76-20.33-14.46l3.45,4.61c3.97,4.21,10.66,8.37,16.23,9.97.2.06.69.26.64-.12ZM250.76,235.25c-11.93.65-23.8-3.3-33.6-9.89-5.7-3.83-10.58-8.78-14.52-14.38l-14.93,4.18c-.16,8.76-2.48,17.93-9.16,23.96.17,2.22.19,4.5.13,6.73-.14,5.13,0,9.52.2,14.66.59,15.26-2.39,27.76,10.8,38.67,5.95,4.92,12.65,7.09,19.52,10.24,4.04,1.85,7.25,4.15,11.76,5.01,8.38,1.58,12.48-1.88,19.46-5.15,9.03-4.23,16.44-6,23.33-13.97,8.09-9.36,6.14-18.63,6.49-29.97l1.04-14.01c-1.27-5.01-2.32-10.15-2.7-15.32-.05-.74.19-3.72-.2-3.99l-8.61-.51,2.13,3.84.7,2.66c-5.17-4.71-12.22-6.73-19.18-6.28,1.96,1.5,4.5,2.34,6.84,3.12.33.11.6-.18.49.44ZM213.87,211.99c.05-.44-.45-.82-.83-1.05-.05.44.45.82.83,1.05ZM213.03,211.99c.07-.38-.28-.69-.62-.84-.07.38.28.69.62.84ZM256.21,218.07c-1.04-.21-2.16-.56-3.14-.95-2.02-.81-5.87-3.17-7.55-3.58-.52-.13-.73.32-1.12.29-.31-.03-.73-.52-1.19-.37l5.39,2.67c2.19.64,4.51,1.63,6.75,2.05.22.04.88.3.85-.11ZM278.42,215.55l-8.59-2.1,2.46,1.2c1.65.46,3.48.96,5.19,1.1.23.02.97.17.94-.2ZM229.17,225.61c-4.74-3.33-9.1-7.13-13.1-11.31l-.14.6-.6.03v.31c3.77,4.36,8.46,8.17,13.83,10.38ZM175.09,234.41c2.02-4.97,2.52-10.18,1.89-15.51l-1.89,15.51ZM179.71,229.59c1.09-1.22,2.02-3.16,2.5-4.73.31-1.02.89-3.63.83-4.61-.02-.35-.47-.71-.4-1.14l-2.93,10.48ZM280.31,227.29c-9.05-1.38-17.92-3.98-26.41-7.34,1.35.99,3.13,1.85,4.68,2.55,6.33,2.86,12.98,4.57,19.94,5l1.79-.22ZM171.74,236.72l-1.02-5.58-.66-6.36-.16.84-.49.11c-.15,2.89.21,5.58,1.12,8.31l1.19,2.68ZM240.05,228.56l-2.08-.44c.59.64,2.58,2.52,2.08.44ZM176.33,271.48c-.11-5.53-.15-11.11-.6-16.63-.45-5.49-.8-8.76-4.6-13-5.74-6.4-14.36-4.96-16.05,3.87-1.27,6.65,1.2,14.9,5.57,20.02,3.84,4.5,9.69,7.73,15.69,5.74ZM273.21,271.7c13.05,2.93,22.12-12.4,21.35-23.76-.92-13.77-14.96-12.29-19.47-1.45-1.43,3.43-1.79,14.31-1.92,18.41-.07,2.26.05,4.54.03,6.8ZM209.47,314.05c.03-.57.12-1.45-.57-1.64-.73-.21-5.05,1.08-6.04,1.43-1.32.48-2.56,1.13-3.82,1.73-.4,2.01-.63,4.05-1.21,6.03s-1.58,3.73-2.17,5.63c3.89,2.85,8.11,5.25,12.63,6.96,2.68-7.83,7.44-6.65,10.92-.23.4.73,1.12,3.22,1.88,3.36.53.1,1.22-.06,1.78,0-1.59-3.86-3.72-6.7-7.06-9.18-3.43-2.55-9.26-5.44-11.42-9.12-.56-.95-1.15-2.09-.61-3.2l-.42-.2c.24-1.28,1.34-2,2.62-1.76.32.06.55.37.84.39.71.05,1.77-.83,2.63-.19ZM212.4,314.68v7.65c0,.06-.22.21-.18.39l.18.23c3.87,2.38,7.61,4.62,10.24,8.43.87,1.26,1.42,2.69,2.34,3.84,1.97-5.99,7.35-9.59,12.53-12.62l-.17-3.94c-8.2,4.04-18.25,1.96-24.94-3.98ZM250.48,315.58c-.19-.25-1.42-.85-1.82-.9l1.47,1.57.52.94c.22-.33.03-1.34-.17-1.61ZM248.65,324.75c.31.22.06,1.58,1.8,1.25.72-.14.62-.92.43-1.48-.23-.67-.91-.7-1.38-1.13-1.26-1.16-.84-3.56-1.35-5.15l-2.2-1.46c.31,1.43-1.6,2.86-1.84,3.71-.12.41.06,1-.14,1.33-.33.53-.83-.27-1.16-.12-.84.37-2.93,2.33-3.92,3.01-1.66,1.14-3.47,2.1-5.08,3.31-3.14,2.35-5.75,5.52-6.93,9.31l1.86-.02c1.24-3.41,5.29-11.55,9.88-7.84,1.32,1.07,2.02,3.15,2.51,4.72l6.91-3.15c.06-.41-.45-.05-.65-.33-.65-.89-.88-4.96-1.86-6.16.75-.04,1.47.32,2.2.38.27.02.76-.28.93-.16ZM253.06,325.16l-1.67-3.98c.05.75-.13,1.59.09,2.32.1.33,1.08,2.05,1.58,1.66ZM211.15,333.76c.72-.68,1.35-1.78,1.67-2.72-.83.61-1.4,1.75-1.67,2.72ZM237.34,331.87c.04-.45-.42-.89-.84-.84l.84.84ZM232.31,336.48c-1.09.11-1.65-.25-1.99-1.26l-1.36,1.88,1.3-.06,2.05-.57Z"/>
  <path class="MsctHLprD-8" d="M271.28,251.3c-1.27-5.01-2.33-10.15-2.71-15.32-.05-.74.19-3.72-.19-3.99l-8.61-.51,2.13,3.84.7,2.65c-5.17-4.7-12.22-6.73-19.18-6.28,1.96,1.49,4.51,2.33,6.84,3.12.33.11.6-.19.5.44-11.94.65-23.8-3.3-33.6-9.89-5.7-3.83-10.58-8.78-14.53-14.38l-14.93,4.18c-.16,8.76-2.49,17.92-9.17,23.96.17,2.21.2,4.5.14,6.72-.14,5.13,0,9.52.2,14.66.55,14.2-1.99,26.02,8.28,36.38.77.77,1.6,1.53,2.52,2.29,5.37,4.44,11.35,6.64,17.52,9.35.67.29,1.33.58,2,.89,4.04,1.84,7.25,4.15,11.76,5,8.39,1.58,12.48-1.88,19.46-5.15,9.04-4.23,16.44-6,23.34-13.97,8.08-9.36,6.14-18.63,6.49-29.97l1.04-14.02Z"/>
  <path class="MsctHLprD-1" d="M307.02,201.09c-6.4-5.5-16.17-7.73-24.09-10.06l-2.01-5.32,2.02-1.4c.76-.07,2.19,1.69,3.09,1.44.33-.08,2.83-3.27,2.78-3.54-1.5-1.88-3.06-1.88-1.6-4.71l3.55-.54c-.07-.83.29-4.09-.18-4.48-.1-.09-.31-.13-.45-.18-.95-.3-2.05.09-2.92-.49l-.78-2.24c.11-.54,2.29-1.49,2.25-2.54,0-.46-2.58-3.69-2.93-3.59l-2.82,1.74-2.21-1.71,10.59-12.08c.44-.34.92.22,1.57-.08.25-.11,2.88-2.82,3.25-3.25.75-.85,1.8-1.8,1.53-2.99-.26-1.16-4.54-5.5-5.76-5.03l-5.11,4.76c-.55.58.17,1.44-.08,2-.14.31-2.95,2.98-3.47,3.46-2.6,2.49-6.87,6.55-9.78,8.45-.48.31-1.42.9-1.95.99-.3.05-.42-.23-.63-.33-.04.68.54.79-.27,1.31-.69.45-1.95.95-2.45.06l.41-.1.24-1.65c.85-.24,1.37.09,2.07.38.06-1.01,1.55-.66.8-1.96-.34-.6-1.05-.63-.67-1.54l1.55-.57.17-2.18c-.22-.36-2.14.15-1.61-1.36.17-.5,1.21-.28.64-1.55-.88-1.98-2.17-.47-2.77-.77-.83-.44-.05-1.32-.3-1.8l-1.37-.6-.43-.19c.05-.16.12-.29.2-.38.67-.06,1.85.77,2.39.35.4-2.5,1.85-2.92,2.89-.45l2.69-1.05c.31-.44-1.4-1.94.11-2.94.83-.56,1.65,1.09,2.51.01.19-.24.93-1.8.9-1.99-2.11-1.16-2.3-2.73.46-2.83l-.23-2.9c-2.22.35-3.34-1.16-1.47-2.67.11-.58-1.52-1.9-1.95-2.33-1.17.53-1.25,1.76-2.71.8l-.15-2.09-2.88-.42c-.32.83-.18,1.82-1.28,1.99-1.12.18-1.15-1.31-2.01-1.39-.59.07-2.18.73-2.18,1.36,0,.61.84,1.05.21,2.12-.63,1.09-1.83-.25-2.32-.02-.39.45-1.47,2.16-1.16,2.63.32.5,1.47.24,1.39,1.57-.05,1.03-1.32.99-2.11,1.16.36.58.09,2.68.76,2.9.72.24,2.1-.47,2.18.99.04.86-1.32,1.1-.91,2.11.11.27,1.25,1.45,1.47,1.51.63.17,1.04-1.05,2.06-1.04,2.34.03.52,4.91-.75,4.32-.91-1.59-1.33-1.9-3.04-.95l.32,1.58c-.91.92-1.86-.46-2.92-.44l-4.58-3.9,2.05-9.69c-.14-1.38-2.6-2.05-3.76-2.33-.95-.22-2.51-.67-3.25.12l-3.15,7.72c-4.19-1.56-8.94-2.52-13.41-2.9-1.22-.12-5.94-.03-6.61-.33-.17-.08-2.44-2.18-2.47-2.34-.19-.78.97-1.66-.17-2.56-.2-.15-.67-.2-.71-.24-.12-.17.98-3.29.3-4.16-.76-.98-8.12-1.98-9.01-1.3-.73.56-.47,3-.75,3.87-.19.59-1.04.15-1.26.47l-.37,2.51c-2.7,1.56-5.64,2.73-8.09,4.7-.43-.01-3-7.07-3.48-8.04-1.02-2.01-1.68-1.7-3.76-1.29-5.4,1.04-17.17,6.3-21.35,9.87-.61.53-1.53,1.23-1.14,2.14l4.47,11.27c-3.27,4.57-5.73,9.64-7.54,14.97l-6.59-6.06c.29-1.74-.19-3.55-1.05-5.05l-17.01-16.74c-2.41-1.23-6.19,2.81-7.5,4.61-.64.87-2.01,3-1.94,4.04.07,1.2,3.36,3.5,4.33,4.42,4.51,4.29,8.89,8.73,13.52,12.9,1.71.72,3.56.87,5.34.73l6.29,5.87c-1.46,1.24-3.81,4.1-3.77,6.08.02,1.52,3.09,4.01,3.74,5.49l-1.43,6.14-9.01-3.05c-3.64-1.5-7.96-5.55-9.42-9.24-.37-.93.21-3.38-.16-4.86-.69-2.75-4.35-4.58-6.84-3.15-3.47,1.99-6.82,10.41-5.39,14.13.8,2.1,4.23,2.92,6.24,2.23.67-.24,2.43-1.67,2.76-1.49,2.42,4.05,6.04,7.22,10.44,8.95,3.1,1.21,6.65,1.51,9.42,3.48l-2.14,10.81c-6.48,3.35-20.92,11.66-21.27,19.82-.31,7.31,10.3,10.12,15.93,11l-1.92,2.79c-4.94,9.15-.14,23.68,7.69,29.89,4.07,3.23,9.37,5.11,14.56,3.88.42.29.15,4.93.21,5.87,1.05,15.23,14.81,25.66,28.3,29.87.06.51,0,.33-.29.45-1.64.58-6.62,2.03-7.57,3.33-.62.85-.57,2.93-.8,4.02-.72,3.45-1.85,6.14-3.46,9.25.12,1.3,5.74,4.8,7.02,5.55,6.8,3.94,14.73,6.48,22.6,7.16,9.47.82,21.89-3.17,29.84-8.29.85-.54,4.65-3.22,4.95-3.87.36-.77-1.04-2.75-1.4-3.63-1.35-3.29-1.47-5.78-2.37-8.95-.73-2.59-5.42-3.9-7.76-4.59-.31-.1-.37.11-.31-.43,11.77-4,23.42-11.8,26.81-24.43.98-3.69,1.15-7.41,1.27-11.2,12.17,2.24,21.38-8.78,23.58-19.7,2.03-10.06-1.47-22.02-13.94-19.49l.66-3.33c5.16-.92,10.8-2.25,14.22-6.52-2.08.11-4.12-.12-6.17-.43-.29-.04-.65-.08-.32-.41,9.15-3.33,29.13-12.22,15.81-23.68ZM261.16,149.72c.51.16,1.28-.28,1.51-.76l-.18-1.53c2.16-.78,1.37,2,3.65,1.23.04-.02.08-.04.11-.07.13-.11.23-.32.31-.58.05-.16.09-.34.14-.52.03-.09.05-.18.07-.26.27.31,1.28.47,1.36.75.13.48-.54.87.11,1.55,1.18,1.25,1.93-.05,2.29.02,1.63,1.02.12,1.36-.04,2.23-.35,1.92,1.77,1.53,1.86,1.85.44,2.03-1.87.74-2.07,2.76-.08.85,1.24,1.11.93,1.73-.48.93-1.86-.14-2.71.41-.5.31-.1,1.45-.66,1.27l-.54-1.33c6.47-3.96.06-12.5-5.54-7.48l-1.36-1.78c.54-.43.4.4.76.51ZM270.24,265.32c-.35,11.34,1.59,20.61-6.49,29.97-6.9,7.97-14.3,9.74-23.34,13.97-6.98,3.27-11.07,6.73-19.46,5.15-4.51-.85-7.72-3.16-11.76-5-.67-.31-1.33-.6-2-.89-6.17-2.71-12.15-4.91-17.52-9.35-.92-.76-1.75-1.52-2.52-2.29-10.27-10.36-7.73-22.18-8.28-36.38-.2-5.14-.34-9.53-.2-14.66.06-2.22.03-4.51-.14-6.72,6.68-6.04,9.01-15.2,9.17-23.96l14.93-4.18c3.95,5.6,8.83,10.55,14.53,14.38,9.8,6.59,21.66,10.54,33.6,9.89.1-.63-.17-.33-.5-.44-2.33-.79-4.88-1.63-6.84-3.12,6.96-.45,14.01,1.58,19.18,6.28l-.7-2.65-2.13-3.84,8.61.51c.38.27.14,3.25.19,3.99.38,5.17,1.44,10.31,2.71,15.32l-1.04,14.02Z"/>
  <path class="MsctHLprD-10" d="M270.28,156.4c-.08.85,1.24,1.11.93,1.73-.48.93-1.86-.15-2.7.4-.5.31-.1,1.45-.66,1.28l-.54-1.33c6.47-3.96.06-12.5-5.54-7.48l-1.36-1.78c.54-.43.4.4.76.51.52.16,1.28-.27,1.52-.76l-.19-1.53c2.16-.78,1.37,1.99,3.65,1.23.04-.02.08-.04.11-.07.13-.11.23-.32.31-.58.06-.16.1-.34.15-.52.02-.09.05-.18.07-.26.27.31,1.28.47,1.36.75.13.48-.54.86.11,1.55,1.18,1.24,1.92-.05,2.28.02,1.63,1.03.12,1.36-.04,2.23-.35,1.92,1.78,1.53,1.86,1.86.44,2.03-1.87.73-2.07,2.76Z"/>
  <path class="MsctHLprD-7" d="M271.28,251.3c-1.27-5.01-2.33-10.15-2.71-15.32-.05-.74.19-3.72-.19-3.99l-8.61-.51,2.13,3.84.7,2.65c-5.17-4.7-12.22-6.73-19.18-6.28,1.96,1.49,4.51,2.33,6.84,3.12.33.11.6-.19.5.44-11.94.65-23.8-3.3-33.6-9.89-5.7-3.83-10.58-8.78-14.53-14.38l-14.93,4.18c-.16,8.76-2.49,17.92-9.17,23.96.17,2.21.2,4.5.14,6.72-.14,5.13,0,9.52.2,14.66.55,14.2-1.99,26.02,8.28,36.38.77.77,1.6,1.53,2.52,2.29,5.37,4.44,11.35,6.64,17.52,9.35.67.29,1.33.58,2,.89,4.04,1.84,7.25,4.15,11.76,5,8.39,1.58,12.48-1.88,19.46-5.15,9.04-4.23,16.44-6,23.34-13.97,8.08-9.36,6.14-18.63,6.49-29.97l1.04-14.02ZM247.36,237.82c10.3-2.33,14.14,12.05,12.59,19.72l-1.23,4.53c.68-4.68.62-9.4-.83-13.94-2.32-7.21-8.5-11.5-14.68-5.13.52-.02.82-.49,1.32-.67,3.9-1.4,6.94,1.57,8.36,4.93,2.07,4.9,1.58,10.88-1.09,15.44l5.71.7,2.68.98c-6.76-.9-13.64-.33-20.33.84l3.35-1.36c-1.29-1.72-2.5-3.84-3.08-5.93-.2-.7-.69-2.69-.69-3.29v-3.46l-.42,1.57c-.45,3.5-.07,6.94.63,10.37l-1.08-3.01c-2.34-7.23.23-20.35,8.79-22.29ZM253.8,271.67c-.64.04-1.07-.94-.18-1.18.98-.26.77,1.14.18,1.18ZM251.39,268.78c-.39-.52.93-1.55,1.22-.49.25.92-1.07.7-1.22.49ZM249.71,271.72c-.58-.43.22-1.51.83-1.05.52.39-.38,1.38-.83,1.05ZM248.24,269.2l-1.04-.32c.05-1.24,1.29-.84,1.04.32ZM219.89,263.8c.58-3.15.87-6.81.69-10.01-.02-.47-.8-5.34-.53-5.34,1.9,6.09,2.16,12.72.32,18.86,3.03-1.16,6.56-.7,9.22,1.16-.76,0-1.49-.5-2.26-.68-2.51-.57-6-.23-7.98,1.55l-1.08,3.21c-.33-2.92,1.08-5.85,1.62-8.75ZM217.01,269.41c-.9,1.93-1.88,4.02-.74,6.09,1.18,2.15,1.68.24,2.89.44,1.63.28,2.51,2.49,4.65,2.7,3.11.31,3.13-.98,5.25-2.11,2.02-1.08,2.4.87,3.55-.22,1.68-1.59.7-5.04-.09-6.9,1.99,1.82,3.5,4.95,1.93,7.48-1.49,2.4-2.82,1.06-4.66,1.63-.54.16-1.08.97-1.6,1.33-2.39,1.68-4.68,1.66-7.05,0-.52-.36-1.06-1.17-1.6-1.33-1.74-.54-3.07.63-4.62-1.46-1.89-2.55-.09-5.92,2.09-7.65ZM209.99,245.94c1.74,4.57,1.72,9.67.55,14.38l-1.07,2.8c.92-3.58,1-7.09.6-10.77l-.39-1.59c-.1,1.31.13,2.79,0,4.08-.24,2.37-1.4,5.44-2.56,7.51-.24.43-.9,1.07-1,1.3-.17.38.15.27.3.32.78.23,1.45.41,2.2.74.26.11.84.2.85.51-6.75-1.11-13.74-1.82-20.54-.84.06-.39.43-.35.7-.45,2.44-.82,5.33-1,7.89-1.23-1.8-2.89-2.74-6.74-2.51-10.16.37-5.58,4.07-12.93,10.68-9.75.12-.46-.27-.46-.48-.67-3.46-3.36-8.15-2.67-11.13.9-4.33,5.21-4.61,13.34-3.27,19.68-.37-.16-.51-.98-.63-1.35-1.6-5.12-1.68-10.67.21-15.73,4.17-11.18,15.48-10.48,19.6.32ZM188.21,268.37c1-.3,1.2.88.61,1.04-.62.16-1.34-.81-.61-1.04ZM189.87,265.43c.95-.28.85,1.12.21,1.26-.6.12-.74-1.1-.21-1.26ZM191.16,272.12l-.55-1.03.7-.17.54.66-.69.54ZM192.08,267.95c.25-.2,1.24.04,1.04.73-.27.88-1.71-.21-1.04-.73ZM194.38,274.12l-1.05.32c-.25-1.16.99-1.56,1.05-.32ZM194.8,283.56l-1.05,1.57c-.47-4.26,4.12-7.12,7.96-6.08l-2.73,1.15c-1.61.86-2.97,2.01-4.18,3.36ZM195.14,270.47c.9-.15.8,1.52-.24,1.25-.57-.16-.24-1.17.24-1.25ZM196.7,267.97c1.04-.66,1.56,1.46.1,1.01-.45-.14-.25-.92-.1-1.01ZM199.41,270.67c.24.17.31,1.28-.52,1.04-.75-.2-.07-1.46.52-1.04ZM201.19,269.2c-.42-.12-.42-.93,0-1.04.96-.27.96,1.31,0,1.04ZM205.59,225.4c.5.04,2.56.29,2.83.52.56.48-.06,4.99-.23,5.96-7.71-.99-15.78.75-21.57,6.09,1.51-9.25,10.29-13.18,18.97-12.57ZM185.34,268.97c-.08.14-.91.35-1.02-.09-.31-1.23,1.71-1.02,1.02.09ZM186.7,271.7c-.65.11-.95-1.09-.15-1.23.65-.11.95,1.09.15,1.23ZM232.5,298.63c-4.69,3.49-12.81,3.53-16.74-1.13,5.65,2.04,12.16,2.1,17.81,0l-1.07,1.13ZM219.28,294.08c-6.93-1.26-14.5-5.33-19.46-10.31-.22-.22-.49-.36-.41-.74,6.2,4.62,13.55,7.89,21.3,8.78,8.25.94,16.28-1,23.48-4.97l5.94-3.91c-7.66,8.5-19.39,13.22-30.85,11.15ZM255.57,285.13c-.57-.44-.78-1.21-1.26-1.78-1.03-1.24-2.39-2.11-3.76-2.94l-3.15-1.36c4.07-1.1,8.56,1.57,8.17,6.08ZM255.26,274.44c-.49.12-.67-.84-.52-1.04.55-.68,1.62.77.52,1.04ZM256.52,268.94c-.61-.06-.6-1.06.01-1.2.62-.14.98,1.29-.01,1.2ZM257.47,271.92c-.12-.08-.12-.95,0-1.04.18-.12.95.02,1.04.31.2.65-.72.95-1.04.73ZM258.76,265.67l.8-.03c.27,1.43-1.5,1.42-.8.03ZM260.29,269.41c-.42-.12-.42-.93,0-1.04.97-.28.97,1.31,0,1.04ZM262.91,270.46l.12.84c-1.67.96-.9-1.37-.12-.84ZM263.75,268.99v-.84c1.39-.15,1.4.99,0,.84Z"/>
  <path class="MsctHLprD-10" d="M243.62,174.48c-.09.19-.16.4-.11.62.3,1.22,1.04,2.74,1.43,4.03.23.75,1.2,4.93,1.41,5.1.17.14.65-.2.84.19-1.44.38-2.41,2.07-1.47,3.46-15.27.28-30.62,2.16-45.48,5.55-12.55,2.86-25.05,7.01-36.67,12.47l1.47-8.38c.2-.23,1.58,1.16,1.63,1.39.19.99-.93,2.73.94,3.48,3.32,1.35,8.34-5.26,5.82-7.91-.88-.93-1.61-.24-2.11-.42-.21-.08-1.32-1.37-1.66-1.67-.3-.27-1.94-1.22-1.68-1.57.76-.2,1.52-.48,2.24-.8,21.77-9.76,44.73-15.01,68.71-15.55,1.48-.03,3.2-.56,4.71.01ZM234.56,180.38c-2.16.49-2.09,3.9.4,4.14,3.1.3,2.87-4.88-.4-4.14ZM199.98,185.41c-2,.45-2.02,3.79.22,4.11,3.2.46,3.16-4.87-.22-4.11ZM178.6,191.9c-2.27.46-2.21,4.56.77,4.15,2.91-.4,1.92-4.69-.77-4.15Z"/>
  <path class="MsctHLprD-5" d="M199.62,171.54l.51.42,14.79,2.51-1.96.34-13.55-1.8.79.57,10.32,1.73-13.41,2.94c-.16-.18.23-2.89.34-3.32.21-.81,1.02-1.89,1.06-2.25.1-.87-.51-2.42-.31-3.9.17-1.24,1.09-2.25,1.2-3,.14-.98-.44-1.77-.4-2.68.07-1.67,1.33-3.34,1.45-4.24.21-1.57-.87-2.79.11-5.33.19-.48.84-1.1.86-1.57.02-.52-.56-1.29-.55-2.09.02-1.4.86-5.69,1.37-7.03,1.65-4.37,5.71-5.46,9.31-7.67.84-.51,2.04-1.78,2.83-1.77s7.73,1.15,8.07,1.39c2.34,2.99,5.92,4.86,7.45,8.48,1.4,3.3,1.07,7.68.23,11.12-.15.59-.71,1.31-.74,1.78-.03.52.4,1.18.43,1.87.02.54-.14,1.95-.28,2.47-.22.87-1.09,1.67-1.17,2.19-.08.49.49,2.26.36,3.49-.16,1.48-1.33,2.82-1.39,3.41-.09.81,1.41,2.8-.15,3.43-2.83-.1-6.28,1.1-9,1.05-1.33-.02-3.4-.64-4.86-.82-4.57-.57-9.13-1.13-13.7-1.7ZM229.8,147.85l-26.83-3.77c.06.37.42.36.7.45,1.01.3,2.57.54,3.66.74,5.55,1,11.75,1.92,17.36,2.55,1.34.15,3.08.39,4.38.41.19,0,.77-.08.73-.38ZM228.75,154.98c-.09-.39-.52-.43-.84-.52-1.11-.35-2.9-.51-4.12-.7-6.98-1.08-14.04-1.77-21.03-2.75.64.7,2.14.81,3.1.99,7.55,1.37,15.27,2.11,22.89,2.99ZM228.12,156.03l-25.78-3.56c-.1.6.12.35.48.45,7.07,1.92,16.01,1.82,23.29,3.33l2-.22ZM227.7,161.48l-25.99-3.56c-.05.3.36.29.58.35,6.77,2.13,16.33,1.85,23.42,3.41l1.99-.2ZM227.28,162.94l-25.99-3.56c-.05.3.37.29.59.35.76.21,1.69.32,2.49.45,6.86,1.12,14.9,2.48,21.76,2.97.25.02,1.15.17,1.15-.21ZM227.07,168.39l-26.4-3.78c-.1.57.1.36.46.48.43.14.94.21,1.39.3,5.99,1.19,18.08,3.45,23.83,3.21.25-.01.78.16.73-.21ZM226.44,169.86l-25.99-3.56c.25.44,1.31.51,1.81.6,7.38,1.26,15.81,2.58,23.24,3.17.23.02.98.17.94-.2Z"/>
  <path class="MsctHLprD-7" d="M176.33,271.48c-6,1.98-11.85-1.24-15.69-5.74-4.37-5.12-6.84-13.37-5.57-20.02,1.69-8.83,10.31-10.27,16.05-3.87,3.81,4.25,4.15,7.51,4.6,13,.45,5.52.49,11.1.6,16.63ZM167.13,261.03v-3.25c0-.16.4-1.11.52-1.37,1.83-4.28,5.1-.53,5.51,2.47.65,4.73-2.14,9.45-6.65,5.08-.36.38,1.87,2.03,2.34,2.16,2.62.76,4.49-.74,5.45-3.07,2.51-6.1-2.25-17.66-8.52-20.06-5.84-2.23-8.16,2.6-8.3,7.65l.43,1.99c.02-3.67,1.31-8.76,5.93-8.12.24.03,1.14.26,1.2.58-3.65,1.3-4.32,5.38-4.19,8.8l1.57-4.19c.85-1.66,2.6-3.23,4.6-2.92,1.62.25,4.22,4.65,4.52,6.28-5.11-2.27-6.92,4.72-4.4,7.97Z"/>
  <path class="MsctHLprD-7" d="M273.21,271.7c.02-2.26-.1-4.54-.03-6.8.12-4.1.49-14.98,1.92-18.41,4.5-10.84,18.54-12.32,19.47,1.45.76,11.37-8.3,26.7-21.35,23.76ZM291.63,252.44v-4.09c0-.33-.56-1.98-.74-2.41-1.24-3.02-4-4.19-7.07-3.1-6.53,2.3-11.04,13.77-8.84,20.07.92,2.65,3.65,4.58,6.28,2.73.41-.29,1.66-1.48,1.47-1.89-4.81,5.3-7.83-1.3-6.28-6.07.82-2.52,3.75-4.88,5.17-1.41.73,1.8.62,3.3.38,5.17l1.16-2.5c.69-3.76-1.32-7.94-5.56-5.67,1.22-2.96,3.85-8.82,7.74-5.54,1.73,1.46,2.09,3.33,2.59,5.38.05.21.06.63.36.58v-3.25c0-.19-.65-2.02-.8-2.35-.76-1.67-1.76-2.21-3.18-3.21,3.02-1.12,5.02-.19,6.18,2.73l1.16,4.82Z"/>
  <path class="MsctHLprD-3" d="M199.41,151l-.94-.42c-.73.91-.4,2.34.94,1.99-.6.89-1.04,2.94-1.01,3.99.02.68.48,1.3.38,2.07-.15,1.19-1.23,2.69-1.26,4.64-.01.75.64,1.79.54,2.21-.12.52-1.02,1.38-1.3,2.66-.44,2,.24,2.79.14,4.12-.04.5-.49.81-.63,1.26-.51,1.67-.7,3.39-.63,5.14l-4.26,1.07-11.45-28.94c7.35-1.38,14.34-4.4,20.75-8.18-.69,2.73-1.3,5.56-1.26,8.38Z"/>
  <path class="MsctHLprD-2" d="M251.16,172.14l-17.79.23,5.04-17.6,16.04,4.61-3.28,12.77ZM243.36,159.63c-2,.44-1.27,3.67.74,3.28,2.13-.41,1.78-3.83-.74-3.28ZM248.61,164.87c-2.33.3-1.73,4.07.95,3.27,1.66-.49,1.03-3.52-.95-3.27ZM243.99,165.71c-1.77.4-1.35,3.44.74,3.07,1.83-.33,1.54-3.58-.74-3.07Z"/>
  <path class="MsctHLprD-10" d="M156.91,151.66c-.59.99,1.41,2.69,2.15,1.22l3.04,3.04c-1.64.95-1.44,2.37.22,3.16-.59,1.92-4.15,5.32-6.18,5.12l-16.68-15.4c1.99-1.28,3.75-2.75,5.34-4.5l2.09-3.35,10.58,10.37c0,.16-.51.24-.58.35Z"/>
  <path class="MsctHLprD-9" d="M212.4,314.68c6.69,5.94,16.73,8.02,24.94,3.98l.17,3.94c-5.18,3.03-10.56,6.63-12.53,12.62-.92-1.15-1.47-2.58-2.34-3.84-2.63-3.81-6.37-6.05-10.24-8.43l-.18-.23c-.03-.19.18-.34.18-.39v-7.65Z"/>
  <path class="MsctHLprD-4" d="M209.47,314.05c-.86-.64-1.91.24-2.63.19-.29-.02-.52-.33-.84-.39-1.28-.24-2.39.49-2.62,1.76l.42.2c-.54,1.11.05,2.25.61,3.2,2.17,3.67,7.99,6.57,11.42,9.12,3.34,2.48,5.47,5.32,7.06,9.18-.56-.06-1.25.1-1.78,0-.76-.14-1.48-2.63-1.88-3.36-3.49-6.43-8.25-7.6-10.92.23-4.52-1.71-8.74-4.11-12.63-6.96.59-1.9,1.6-3.66,2.17-5.63s.81-4.01,1.21-6.03c1.26-.6,2.5-1.26,3.82-1.73.98-.35,5.31-1.64,6.04-1.43.69.19.6,1.08.57,1.64ZM210.73,327.05l-6.08-5.55-2.09-2.83c.73,3.95,4.77,6.73,8.17,8.38Z"/>
  <path class="MsctHLprD-3" d="M195.42,133.6l.24.81,1.01.03.42,1.36-1.26.1c.35,1.2.89,3.12,2.1,3.66.49.22,1.21-.08,1.35.74.05.29-.28.44-.31.74s.28.68.12.94c-.19.31-4.77,2.57-5.5,2.9-4.5,2.08-9.27,3.71-14.12,4.76l-3.26-8.51c4.5-.97,8.87-2.65,13.05-4.57.8-.37,5.87-3.18,6.14-2.97Z"/>
  <path class="MsctHLprD-10" d="M289.46,149.18c.59.61,1.82,1.78.28,2.02v-1.26c-4.95,5.16-9.49,10.86-14.79,15.72l-.07.49.6.67c-3.15,2.68-6.23,4.43-10.53,3.41-1.13-.27-1.55-1.05-1.61-2.18-.11-2.17,3.24-2.79,4.92-2.59.49.06,1.19.21,1.15.84l-1.04.31c.21.78.99.75,1.2,1,.34.4.08,1.28.16,1.43.65,1.11,3.06-1.24,2.62-1.69l-1.25.42c.13-2.46-1.53-3.01-3.56-3.46,7.44-4.64,13.8-10.75,20.01-16.87.49.68,1.39,1.19,1.92,1.75Z"/>
  <path class="MsctHLprD-10" d="M180.29,175.14c.13.22,0,.65.15,1,.62,1.41,2.51.69,2.2-.83,1.11.21.8,1.13.52,1.88-.25.66-.79,1.89-1.36,2.2l1.89,2.83-11.89,4.8-.57-.18-5.35-6.81c4.89-.78,8.66-3.65,12.3-6.78.41-.06,1.11,1.09,1.42,1.45.19.22.64.35.7.45Z"/>
  <path class="MsctHLprD-10" d="M166.29,192.49l-.42-.94c-.03-.16.2-.14.31-.1.61.2,4.29,3.15,4.51,3.67l-.42.62c.41.44.64.9,1.25.53.21,1.63-1.11,3.09-2.62,3.49-1.45-1.84-2.94-3.39-4.99-4.58-3.33-1.93-7.15-2.33-10.61-3.85-4.05-1.78-6.82-4.87-9.37-8.38.74-1.43,1.92-2.67,2.24-4.29.11-.08.4.31.5.44.28.33,2.47,3.55,2.55,3.77.16.47-.35.57-.24.83.59.45,1.23,1.49,1.96,1.64,1.35.28,1.83.45,3.13,1.26,1.36.85.8,1.09,1.1,1.4.79.81,5.91,2.16,7.35,2.73,1.3.52,2.5,1.22,3.77,1.78Z"/>
  <path class="MsctHLprD-4" d="M248.65,324.75c-.17-.12-.66.18-.93.16-.73-.06-1.45-.42-2.2-.38.98,1.2,1.21,5.27,1.86,6.16.2.28.71-.08.65.33l-6.91,3.15c-.5-1.57-1.19-3.65-2.51-4.72-4.59-3.71-8.64,4.43-9.88,7.84l-1.86.02c1.19-3.79,3.8-6.95,6.93-9.31,1.61-1.21,3.42-2.17,5.08-3.31.99-.68,3.07-2.63,3.92-3.01.33-.15.83.65,1.16.12.21-.33.02-.91.14-1.33.24-.85,2.15-2.28,1.84-3.71l2.2,1.46c.51,1.59.09,3.99,1.35,5.15.47.43,1.16.46,1.38,1.13.19.57.28,1.34-.43,1.48-1.74.33-1.49-1.03-1.8-1.25ZM238.6,327.26c3.37-1.86,7.67-4.53,8.38-8.59-.61.57-.9,1.33-1.46,2-1.88,2.22-4.43,3.78-6.4,5.75-.24.24-.59.45-.52.84Z"/>
  <path class="MsctHLprD-2" d="M251.8,152.46l-7.33-1.89,6.39-17.41c.79-.19,4.75.98,4.9,1.61l-3.95,17.69ZM252.22,135.29c-.9-.39-1.77-.33-1.36.83.78.72,1.43.15,1.36-.83ZM248.03,148.06l3.16-9.95-.35-.5-.73.1-3.08,9.26.06.68.95.42Z"/>
  <path class="MsctHLprD-10" d="M271.9,128.8c.15.68-.28,1.56.36,2.05,1.41,1.1,1.92.58,3.09-.38l1.34,1.35c-1.94,1.46-.59,4.1,1.73,3.24,1.07,2.92-1.47,1.62-1.84,2.87-.41,1.36.17,2.02,1.2,2.72l-.61,1.45-.28.06c-1.91-1.51-4.05.83-2.47,2.65l-1.64.86-.32-.12c-.28-.35-.43-1.29-.88-1.44-1.85-.62-2.29.8-2.38,2.27l-1.65-.44-.15-2.1c-.64-.18-1.38-.71-2.06-.61-.62.09-.79.95-1.47.86-1.33-.76-1.51-1.6,0-2.32l-.78-2.06-1.72-.06-.46-1.65c.36-.43,1.13-.31,1.5-.61.41-.33.44-1.93.2-2.33-.22-.35-1.16-.32-1.16-.93l.84-1.49c.46-.24,1.38,1.04,2.63-.29.89-.94.21-1.39-.1-2.4l1.52-.74c1.12,2.08,3.58,1.92,3.73-.62l1.84.2ZM268.31,131.55c-1.93.31-4.03,2.49-4.42,4.38-.98,4.73,3.53,8.68,8.04,6.78,6.06-2.55,4.08-12.39-3.62-11.16Z"/>
  <path class="MsctHLprD-10" d="M262.02,171.79c7.95-1.62,11.63,13.97,3.1,13.16-6.36-.61-8.98-11.96-3.1-13.16ZM263.28,176.2c-4.78.26-1.21,9.28,2.76,6.33,2.46-1.83.22-6.49-2.76-6.33Z"/>
  <path class="MsctHLprD-10" d="M289.95,176.36c-.95.32-3.01-.12-3.52.77-.11.2-.81,2.67-.78,2.81l2.17,2.39-1.85,2.53c-.46.29-2.42-1.42-3.08-1.55-.4-.03-2.07,1.89-2.59,1.55-.2-.36-.72-.98-.53-1.37s2.06-1.57,2.62-2.21c4.41-4.99,2.45-13.17-3.77-15.51l1.18-1.55,3.12,1.79,3.04-1.51,1.67,2.53-2.1,2.52,1.04,2.9,3.37.34v3.56Z"/>
  <path class="MsctHLprD-10" d="M264.59,187.68c-.05.27-.38.46-.62.53-.8.23-6.5-.16-7.67-.31-2.26-.3-5.81-6.27-5.72-8.51.04-1.13,4.7-4.58,5.84-5.33-1.91,5.63,2.08,12.95,8.18,13.63Z"/>
  <path class="MsctHLprD-10" d="M180.09,166.54c.49.79-.78,3.08-1.26,3.8-2.31,3.48-8.57,8.19-12.85,8.33-4.26.14.23-5.16,1.67-6.29l.96.74c-.41,1.2-1.87,1.79-1.69,3.23.45.66,3.94-1.21,4.59-1.58,1.59-.93,3.56-2.44,4.74-3.86,3.09-3.73.03-2.94-2.52-1.53l-.93-.9c-.11-.47,2.55-1.53,3.08-1.72.89-.31,2.15-.79,3.08-.67.17.02,1.1.38,1.13.45Z"/>
  <path class="MsctHLprD-10" d="M279.05,182.43l-1.05-2.51c5.27-3.33,2.82-10.85-3.36-10.91l3.05-2.52c7.31,2,8.26,12.77,1.36,15.93Z"/>
  <path class="MsctHLprD-2" d="M253.69,157.91l-14.04-3.88c.98-.48,3.02-2.4,3.93-2.59,1.5-.3,6.58,1.92,8.35,2.26l1.77,4.2Z"/>
  <polygon class="MsctHLprD-10" points="173.21 171.95 170.48 173.52 161.06 164.93 163.64 162.75 173.21 171.95"/>
  <path class="MsctHLprD-3" d="M198.36,129.83c-2.45,2.29-5.65,3.85-8.66,5.27-4.32,2.04-9.05,3.96-13.76,4.78,3.3-2.7,7.45-4.82,11.39-6.53,2.61-1.14,5.83-2.45,8.58-3.16.83-.21,1.58-.48,2.46-.36ZM190.19,133.18c-.41-.38-6.63,2.66-7.32,3.26-.24.21-.52.32-.44.72,2.02-.58,4.27-1.32,6.08-2.41.21-.13,2.07-1.21,1.67-1.57Z"/>
  <path class="MsctHLprD-8" d="M276.22,170.07c4.26.67,5.28,7.29,1.26,9.02-1.61-2.95-3.59-5.76-4.51-9.02,1.01.11,2.28-.15,3.25,0Z"/>
  <path class="MsctHLprD-4" d="M278.21,219.95c.05.36-.5.22-.73.2-3.01-.22-6.99-1.29-9.86-2.3-6.7-2.35-13.12-6.53-18.13-11.53l6.72,4.49c6.81,4.01,14.18,7.61,21.99,9.14Z"/>
  <path class="MsctHLprD-10" d="M292.04,141.56c-.12.95,3.35,3.55,3.35,3.88l-4.08,4.08-3.87-3.87,4.08-3.88.52-.21ZM292.4,143.92c-2.12.18-2.12,3.58.34,2.84,1.61-.48.96-2.96-.34-2.84Z"/>
  <path class="MsctHLprD-10" d="M138.42,184.53c.09-.34.61-.35.94-.62,3.42-2.78,4.88-8.02,4.72-12.27,0-.26-.48-1.59.09-1.35,3.8,3.94-.09,14.32-5.76,14.25Z"/>
  <path class="MsctHLprD-10" d="M142.61,170.69c-4.38,1.99-6.76,8.47-5.45,13-2.5.26-1.92-3.48-1.65-5.11.38-2.35,1.9-5.62,3.54-7.35.94-.99,2.94-2.63,3.56-.53Z"/>
  <path class="MsctHLprD-4" d="M280.31,227.29l-1.79.22c-6.96-.43-13.61-2.14-19.94-5-1.55-.7-3.33-1.56-4.68-2.55,8.49,3.35,17.36,5.95,26.41,7.34Z"/>
  <path class="MsctHLprD-4" d="M239.65,223.1c.05.38-.44.17-.64.12-5.58-1.6-12.26-5.75-16.23-9.97l-3.45-4.61c6,5.7,12.64,11.22,20.33,14.46Z"/>
  <path class="MsctHLprD-10" d="M266.32,157.65l-.24-.86c2.72-1.25,2.17-5.25-.77-5.37-1.49-.06-2.63,2.22-3-.08,4.92-4.19,10.45,3.55,4.49,6.48l-.47-.18Z"/>
  <path class="MsctHLprD-4" d="M229.17,225.61c-5.37-2.21-10.06-6.02-13.83-10.38v-.31s.59-.03.59-.03l.14-.6c4,4.19,8.36,7.98,13.1,11.31Z"/>
  <path class="MsctHLprD-10" d="M138.42,147.85c-.54-.63,1.71-3.82,2.2-4.4,1.32-1.59,3.06-3.07,5.04-3.76.19.15.29.25.32.51.23,2.38-4.95,7.59-7.55,7.66ZM143.58,141.8c-.65.06-4.35,3.15-2.97,4.16.92-.35,3.48-2.77,3.46-3.67,0-.27-.2-.55-.49-.49Z"/>
  <path class="MsctHLprD-4" d="M288.9,213.25c-.15.37-1.24.24-1.58.22-6.98-.4-13.79-2.79-18.96-7.55l6,3.11c4.62,2.06,9.49,3.59,14.54,4.22Z"/>
  <path class="MsctHLprD-10" d="M259.56,171.96c-4.5,4.52-.5,12.68,5.15,14.03h2.82c-6.4,2.25-11.24-4.42-10.46-10.34.17-1.28,1.2-3.25,2.5-3.68Z"/>
  <path class="MsctHLprD-4" d="M175.09,234.41l1.89-15.51c.63,5.32.14,10.54-1.89,15.51Z"/>
  <path class="MsctHLprD-4" d="M222.04,128.57l-.42,2.93c-.4.02-.43.1-.43-.32,0-.82.39-1.6.42-2.41-.75.21-.6,2.68-1.15,2.72-.43.03-.14-.62-.13-.75.05-.67.19-1.31.24-1.97-.55-.09-.37.09-.48.45-.2.66-.21,1.39-.36,2.06-.29.3-.39-.03-.42-.32-.1-.81.34-1.59.21-2.41-1,.49.25,2.42-1.04,2.51l.21-2.72c-.3-.05-.3.37-.36.58-.16.65-.23,1.47-.27,2.14h-.63s.21-2.73.21-2.73c-.91.5.19,2.45-1.04,2.51l.21-2.72c-.64.37-.37,1.34-.57,2.06-.1.37.06.54-.48.45l.21-2.93,6.08.84Z"/>
  <path class="MsctHLprD-10" d="M272.35,187.25c-.94.2-1.34-.81-2.16-1.01-.42.39-1.59.86-1.79,1.36-.33.83,1.02.43,1.23,1.12l-3.56-.21,2.7-2.01c1.59-1.82,2.51-3.96,2.75-6.37.94.46.15,2.05.26,2.6.05.28.58.55.58.65,0,.08-.58.5-.71.75-.63,1.17-.15,2.27.72,3.13Z"/>
  <path class="MsctHLprD-10" d="M254.32,187.88c-.93-.11-2.21.3-2.95-.3-.57-.45-2.36-4.57-2.03-5.11l.8-.36c.96,2.3,2.6,3.92,4.19,5.77Z"/>
  <path class="MsctHLprD-10" d="M266.82,155.53c-.43.43-.97.67-1.51.3-.16-.11-1.69-2.32-1.73-2.47-.42-1.46,3.06-1.94,3.64-.07.23.75.18,1.66-.4,2.24Z"/>
  <path class="MsctHLprD-4" d="M256.21,218.07c.03.41-.63.16-.85.11-2.24-.42-4.56-1.41-6.75-2.05l-5.39-2.67c.45-.14.88.35,1.19.37.39.03.6-.42,1.12-.29,1.68.41,5.52,2.77,7.55,3.58.98.39,2.1.74,3.14.95Z"/>
  <path class="MsctHLprD-4" d="M171.74,236.72l-1.19-2.68c-.92-2.73-1.28-5.43-1.12-8.31l.49-.11.16-.84.66,6.36,1.02,5.58Z"/>
  <path class="MsctHLprD-4" d="M179.71,229.59l2.93-10.48c-.07.43.38.8.4,1.14.06.97-.51,3.58-.83,4.61-.48,1.57-1.41,3.5-2.5,4.73Z"/>
  <path class="MsctHLprD-4" d="M239.5,210.46c.22.13.58.04.8.16l-.02.53c1.12-.39,1.83.93,2.93,1.05-.36.51-.66.19-.52,1.04-3.83-2.21-7.35-4.95-10.59-7.96l6.87,4.55c.27.08.38.54.52.62Z"/>
  <path class="MsctHLprD-1" d="M167.34,200.04c1.05.99,1.66.91,2.87.25,1.91-1.05,3.31-3.57,1.74-5.49,2.36.54,1,3.42,0,4.71-1.14,1.46-4.65,3.99-4.6.53Z"/>
  <path class="MsctHLprD-4" d="M278.42,215.55c.04.37-.71.22-.94.2-1.71-.13-3.54-.64-5.19-1.1l-2.46-1.2,8.59,2.1Z"/>
  <path class="MsctHLprD-10" d="M250.34,187.88c-.29,0-.62.05-.9-.04-.87-.27-1.75-4.28-1.19-5.2l2.09,5.24Z"/>
  <path class="MsctHLprD-4" d="M223.09,132.97c.01.37.11.45-.31.42-1.08-.07-2.42-.31-3.54-.45-1.52-.19-3.32-.38-4.8-.66-.35-.07-.94-.03-.79-.57l9.43,1.26Z"/>
  <path class="MsctHLprD-10" d="M161.98,162.02c.1.1.35.07.33.19-.96,1.48-2.52,2.8-4.4,2.62,1.35-.99,2.8-1.82,3.88-3.14.15-.06.06.2.19.33Z"/>
  <path class="MsctHLprD-10" d="M274.18,184.58c.89.89-.16,2.59-1.27,1.85-1.24-.83.02-3.11,1.27-1.85Z"/>
  <path class="MsctHLprD-10" d="M142.82,171.75v2.09c-1.24-.67-1.86.03-2.93.63-.27-.29,2.12-3.11,2.93-2.72Z"/>
  <path class="MsctHLprD-10" d="M184.11,173c-1.54-1.05-2.84-2.64-2.93-4.61l2.6,3.79.33.82Z"/>
  <path class="MsctHLprD-10" d="M278.84,187.25c-1.54-1.06-2.07-3.25-2.3-5.03l2.07,4.11.24.92Z"/>
  <path class="MsctHLprD-4" d="M253.06,325.16c-.51.39-1.48-1.33-1.58-1.66-.22-.73-.05-1.57-.09-2.32l1.67,3.98Z"/>
  <path class="MsctHLprD-4" d="M232.31,336.48l-2.05.57-1.3.06,1.36-1.88c.34,1.01.9,1.37,1.99,1.26Z"/>
  <path class="MsctHLprD-10" d="M248.03,187.88l-.73-.63-.52.63c-.72-3.1.84-2.36,1.25,0Z"/>
  <path class="MsctHLprD-10" d="M138.21,180.76h-.63c-.15-.14.26-1.91.36-2.26.11-.4.32-1.3.69-1.51.16,1.35-.69,2.38-.42,3.77Z"/>
  <path class="MsctHLprD-4" d="M250.48,315.58c.2.27.39,1.29.17,1.61l-.52-.94-1.47-1.57c.41.05,1.64.65,1.82.9Z"/>
  <path class="MsctHLprD-4" d="M215.76,127.52c-.18.83-.11,1.74-.27,2.57-.07.36-.09.69-.57.57.14-.83.15-1.7.31-2.52.07-.37,0-.74.52-.62Z"/>
  <path class="MsctHLprD-4" d="M240.05,228.56c.5,2.08-1.48.21-2.08-.44l2.08.44Z"/>
  <path class="MsctHLprD-10" d="M296.03,144.5c-.26-.32-2.85-2.15-2.51-2.51.47.06,2.76,2.23,2.51,2.51Z"/>
  <path class="MsctHLprD-4" d="M211.15,333.76c.28-.97.85-2.11,1.67-2.72-.32.94-.95,2.04-1.67,2.72Z"/>
  <path class="MsctHLprD-4" d="M222.67,128.78c-.22.73-.19,1.5-.39,2.24-.1.36.15.58-.45.48.14-.74.19-1.51.39-2.24.1-.36-.15-.58.45-.48Z"/>
  <path class="MsctHLprD-10" d="M186.62,176.77c-.28.29-1.59-1.11-1.04-1.67l1.04,1.67Z"/>
  <path class="MsctHLprD-10" d="M249.92,174.47c-.52.89-1.73.16-2.51.21-.05-.37.48-.2.73-.21.59-.02,1.19.01,1.78,0Z"/>
  <path class="MsctHLprD-10" d="M275.91,180.97c-.78-.39-1.09-1.26-1.04-2.09l1.04,2.09Z"/>
  <path class="MsctHLprD-10" d="M275.07,187.04c.79-.85.62-1.47.52-2.51.57.66.58,2.48-.52,2.51Z"/>
  <path class="MsctHLprD-4" d="M210.94,208.42c-.51.09-.66-.47-.84-.83.51-.09.66.47.84.83Z"/>
  <path class="MsctHLprD-4" d="M213.87,211.99c-.38-.22-.89-.61-.83-1.05.38.22.89.61.83,1.05Z"/>
  <path class="MsctHLprD-4" d="M237.34,331.87l-.84-.84c.42-.05.88.39.84.84Z"/>
  <path class="MsctHLprD-4" d="M213.03,211.99c-.34-.15-.69-.46-.62-.84.34.15.69.46.62.84Z"/>
  <path class="MsctHLprD-1" d="M208.19,231.88c-7.71-.99-15.78.75-21.57,6.09,1.51-9.26,10.28-13.19,18.96-12.57.5.04,2.56.29,2.83.52.56.48-.06,4.99-.23,5.96Z"/>
  <path class="MsctHLprD-1" d="M199.41,283.04c6.2,4.62,13.55,7.88,21.3,8.77,8.25.95,16.28-1,23.48-4.96l5.94-3.91c-7.66,8.5-19.39,13.21-30.85,11.14-6.93-1.25-14.5-5.32-19.46-10.3-.22-.22-.49-.36-.41-.74Z"/>
  <path class="MsctHLprD-1" d="M232.53,269.41c1.98,1.82,3.49,4.95,1.92,7.48-1.49,2.4-2.81,1.05-4.66,1.63-.54.17-1.08.97-1.6,1.34-2.39,1.68-4.68,1.66-7.05,0-.52-.36-1.06-1.17-1.6-1.34-1.74-.54-3.07.63-4.62-1.46-1.89-2.55-.09-5.92,2.09-7.65-.9,1.93-1.88,4.02-.74,6.09s1.68.24,2.89.44c1.63.28,2.51,2.49,4.65,2.7,3.1.31,3.13-.98,5.24-2.11s2.4.87,3.55-.22c1.68-1.59.7-5.04-.09-6.9Z"/>
  <path class="MsctHLprD-1" d="M220.37,267.32c3.04-1.16,6.57-.7,9.22,1.15-.76,0-1.49-.5-2.26-.68-2.51-.57-6-.24-7.98,1.54l-1.08,3.22c-.33-2.92,1.08-5.86,1.61-8.76.58-3.15.88-6.81.7-10.01-.03-.47-.8-5.34-.53-5.34,1.9,6.09,2.16,12.72.32,18.86Z"/>
  <path class="MsctHLprD-1" d="M233.57,297.5l-1.07,1.13c-4.69,3.49-12.81,3.53-16.75-1.13,5.66,2.04,12.17,2.1,17.81,0Z"/>
  <path class="MsctHLprD-1" d="M255.58,285.13c-.58-.44-.79-1.21-1.26-1.78-1.03-1.25-2.4-2.11-3.76-2.94l-3.15-1.36c4.07-1.1,8.56,1.57,8.17,6.08Z"/>
  <path class="MsctHLprD-1" d="M201.71,279.06l-2.73,1.14c-1.61.86-2.97,2.02-4.18,3.37l-1.05,1.57c-.47-4.26,4.11-7.12,7.96-6.07Z"/>
  <path class="MsctHLprD-1" d="M195.14,270.47c.9-.15.8,1.52-.23,1.24-.58-.15-.24-1.16.23-1.24Z"/>
  <path class="MsctHLprD-1" d="M251.39,268.78c-.38-.52.94-1.54,1.23-.49.25.92-1.07.69-1.23.49Z"/>
  <path class="MsctHLprD-1" d="M196.71,267.97c1.04-.65,1.55,1.46.1,1.01-.45-.14-.25-.92-.1-1.01Z"/>
  <path class="MsctHLprD-1" d="M253.62,270.49c.98-.26.76,1.13.18,1.18-.64.05-1.07-.93-.18-1.18Z"/>
  <polygon class="MsctHLprD-1" points="190.61 271.09 191.31 270.92 191.85 271.58 191.16 272.12 190.61 271.09"/>
  <path class="MsctHLprD-1" d="M257.47,271.92c-.12-.08-.12-.95,0-1.04.18-.12.95.01,1.04.31.2.65-.72.94-1.04.73Z"/>
  <path class="MsctHLprD-1" d="M189.88,265.43c.94-.28.85,1.12.2,1.25-.6.12-.73-1.09-.2-1.25Z"/>
  <path class="MsctHLprD-1" d="M188.21,268.38c1-.31,1.2.88.61,1.04s-1.33-.81-.61-1.04Z"/>
  <path class="MsctHLprD-1" d="M186.55,270.48c.65-.11.95,1.09.15,1.23-.65.11-.95-1.09-.15-1.23Z"/>
  <path class="MsctHLprD-1" d="M185.34,268.97c-.09.14-.92.35-1.03-.09-.31-1.24,1.71-1.02,1.03.09Z"/>
  <path class="MsctHLprD-1" d="M192.08,267.95c.25-.2,1.24.04,1.04.73-.26.88-1.7-.21-1.04-.73Z"/>
  <path class="MsctHLprD-1" d="M193.33,274.44c-.25-1.16.99-1.56,1.04-.32l-1.04.32Z"/>
  <path class="MsctHLprD-1" d="M256.53,267.74c.62-.14.98,1.29-.01,1.2-.6-.05-.6-1.06.01-1.2Z"/>
  <path class="MsctHLprD-1" d="M248.24,269.2l-1.04-.32c.05-1.25,1.29-.84,1.04.32Z"/>
  <path class="MsctHLprD-1" d="M250.54,270.68c.52.39-.38,1.37-.83,1.04-.58-.43.22-1.5.83-1.04Z"/>
  <path class="MsctHLprD-1" d="M254.75,273.4c.54-.68,1.61.77.51,1.04-.48.12-.67-.84-.51-1.04Z"/>
  <path class="MsctHLprD-1" d="M259.56,265.64c.27,1.43-1.5,1.42-.8.03l.8-.03Z"/>
  <path class="MsctHLprD-1" d="M201.19,268.16c.96-.27.96,1.31,0,1.04-.42-.12-.42-.93,0-1.04Z"/>
  <path class="MsctHLprD-1" d="M260.3,268.37c.96-.27.96,1.31,0,1.04-.42-.12-.42-.93,0-1.04Z"/>
  <path class="MsctHLprD-1" d="M262.91,270.46l.12.84c-1.67.96-.9-1.38-.12-.84Z"/>
  <path class="MsctHLprD-1" d="M199.41,270.67c.24.17.32,1.28-.52,1.05-.75-.21-.07-1.46.52-1.05Z"/>
  <path class="MsctHLprD-1" d="M263.75,268.99v-.84c1.39-.15,1.4.98,0,.84Z"/>
  <path class="MsctHLprD-1" d="M178.6,191.9c2.69-.55,3.68,3.75.77,4.15-2.98.41-3.04-3.69-.77-4.15ZM179.02,192.95c-.93.14-1.45,1.44-.65,2.03,2.18.73,2.34-2.29.65-2.03Z"/>
  <path class="MsctHLprD-1" d="M234.56,180.38c3.27-.74,3.5,4.44.4,4.14-2.49-.24-2.56-3.65-.4-4.14ZM236.04,183.22c1.14-1.13-1.23-2.8-1.94-1.2-.59,1.31,1.18,1.95,1.94,1.2Z"/>
  <path class="MsctHLprD-1" d="M199.98,185.41c3.38-.76,3.42,4.57.22,4.11-2.24-.32-2.22-3.66-.22-4.11ZM200.19,186.46c-1.24.37-.98,2.52.75,2.01,1.24-.37,1.05-2.55-.75-2.01Z"/>
  <path class="MsctHLprD-1" d="M229.8,147.85c.04.3-.54.38-.73.38-1.3-.02-3.05-.26-4.38-.41-5.6-.64-11.81-1.55-17.36-2.55-1.09-.2-2.65-.44-3.66-.74-.28-.08-.64-.08-.7-.45l26.83,3.77Z"/>
  <path class="MsctHLprD-1" d="M227.07,168.39c.05.37-.48.2-.73.21-5.75.24-17.84-2.02-23.83-3.21-.45-.09-.96-.16-1.39-.3-.35-.11-.55.09-.46-.48l26.4,3.78Z"/>
  <path class="MsctHLprD-1" d="M227.7,161.48l-1.99.2c-7.08-1.57-16.65-1.29-23.42-3.41-.22-.07-.63-.05-.58-.35l25.99,3.56Z"/>
  <path class="MsctHLprD-1" d="M228.75,154.98c-7.62-.88-15.34-1.62-22.89-2.99-.96-.17-2.46-.28-3.1-.99,6.99.99,14.05,1.67,21.03,2.75,1.22.19,3.01.35,4.12.7.31.1.75.13.84.52Z"/>
  <path class="MsctHLprD-1" d="M226.44,169.86c.04.37-.71.22-.94.2-7.43-.59-15.86-1.91-23.24-3.17-.5-.08-1.56-.15-1.81-.6l25.99,3.56Z"/>
  <path class="MsctHLprD-1" d="M227.28,162.94c0,.38-.9.22-1.15.21-6.87-.49-14.91-1.85-21.76-2.97-.79-.13-1.73-.24-2.49-.45-.22-.06-.64-.05-.59-.35l25.99,3.56Z"/>
  <path class="MsctHLprD-1" d="M228.12,156.03l-2,.22c-7.28-1.51-16.23-1.41-23.29-3.33-.36-.1-.58.15-.48-.45l25.78,3.56Z"/>
  <path class="MsctHLprD-1" d="M167.13,261.03c-2.52-3.24-.71-10.24,4.4-7.97-.3-1.63-2.9-6.02-4.52-6.28-2-.31-3.75,1.26-4.6,2.92l-1.57,4.19c-.13-3.43.54-7.51,4.19-8.8-.06-.31-.96-.54-1.2-.58-4.61-.63-5.9,4.46-5.93,8.12l-.43-1.99c.14-5.06,2.46-9.88,8.3-7.65,6.27,2.39,11.03,13.96,8.52,20.06-.96,2.33-2.83,3.83-5.45,3.07-.47-.13-2.7-1.78-2.34-2.16,4.51,4.37,7.3-.35,6.65-5.08-.41-3.01-3.68-6.76-5.51-2.47-.11.26-.52,1.21-.52,1.37v3.25Z"/>
  <path class="MsctHLprD-1" d="M291.63,252.44l-1.16-4.82c-1.16-2.92-3.16-3.85-6.18-2.73,1.42.99,2.43,1.54,3.18,3.21.15.32.8,2.15.8,2.35v3.25c-.3.05-.31-.37-.36-.58-.5-2.04-.86-3.91-2.59-5.38-3.89-3.28-6.51,2.58-7.74,5.54,4.24-2.27,6.25,1.91,5.56,5.67l-1.16,2.5c.24-1.87.35-3.37-.38-5.17-1.42-3.47-4.35-1.11-5.17,1.41-1.54,4.78,1.47,11.37,6.28,6.07.19.41-1.06,1.6-1.47,1.89-2.63,1.84-5.36-.08-6.28-2.73-2.19-6.3,2.32-17.76,8.84-20.07,3.08-1.09,5.83.08,7.07,3.1.18.43.74,2.07.74,2.41v4.09Z"/>
  <path class="MsctHLprD-1" d="M248.61,164.87c1.97-.25,2.61,2.78.95,3.27-2.68.8-3.28-2.97-.95-3.27ZM249.45,165.93c-1.13-1.11-2.25,1.45-.68,1.43.79,0,1.18-.95.68-1.43Z"/>
  <path class="MsctHLprD-1" d="M243.36,159.63c2.52-.55,2.87,2.87.74,3.28-2.01.39-2.74-2.84-.74-3.28ZM243.57,160.24c-.96.25-.96,2.27.54,1.82,1.06-.32.58-2.11-.54-1.82Z"/>
  <path class="MsctHLprD-1" d="M243.99,165.71c2.28-.51,2.58,2.74.74,3.07-2.09.37-2.51-2.67-.74-3.07ZM245.07,166.53c-.91-.59-2,.43-1.23,1.34l.52.23.63-.34.07-1.23Z"/>
  <path class="MsctHLprD-1" d="M210.73,327.05c-3.4-1.65-7.44-4.43-8.17-8.38l2.09,2.83,6.08,5.55Z"/>
  <path class="MsctHLprD-1" d="M238.6,327.26c-.07-.4.27-.6.52-.84,1.97-1.97,4.53-3.54,6.4-5.75.56-.66.85-1.43,1.46-2-.71,4.06-5.01,6.74-8.38,8.59Z"/>
  <polygon class="MsctHLprD-1" points="248.03 148.06 247.08 147.64 247.02 146.96 250.11 137.71 250.84 137.61 251.19 138.11 248.03 148.06"/>
  <path class="MsctHLprD-1" d="M252.22,135.29c.07.98-.58,1.55-1.36.83-.41-1.16.46-1.22,1.36-.83Z"/>
  <path class="MsctHLprD-1" d="M268.31,131.55c7.69-1.22,9.67,8.62,3.62,11.16-4.51,1.89-9.02-2.05-8.04-6.78.39-1.9,2.49-4.08,4.42-4.38ZM268.94,132.19c-6.73.83-5.69,11.38,1.82,10.2,5.7-.9,5.31-11.08-1.82-10.2Z"/>
  <path class="MsctHLprD-1" d="M263.28,176.2c2.98-.16,5.22,4.5,2.76,6.33-3.97,2.96-7.54-6.07-2.76-6.33Z"/>
  <path class="MsctHLprD-1" d="M190.19,133.18c.4.37-1.46,1.45-1.67,1.57-1.81,1.08-4.06,1.83-6.08,2.41-.08-.39.2-.51.44-.72.68-.6,6.91-3.64,7.32-3.26Z"/>
  <path class="MsctHLprD-1" d="M292.4,143.92c1.3-.11,1.95,2.36.34,2.84-2.46.74-2.46-2.66-.34-2.84ZM292.18,144.72c-.82.14-.56,1.56.16,1.44.82-.14.56-1.56-.16-1.44Z"/>
  <path class="MsctHLprD-1" d="M143.58,141.8c.3-.06.49.22.49.49.02.91-2.54,3.32-3.46,3.67-1.38-1.01,2.31-4.1,2.97-4.16Z"/>
  <path class="MsctHLprD-4" d="M244.41,245.77c2.06-.32,2.71,3.75.74,4.73-2.75,1.38-3.3-4.33-.74-4.73Z"/>
  <path class="MsctHLprD-4" d="M204.38,245.77c2.42-.38,2.92,4.92.37,5.01-2.32.08-2.71-4.64-.37-5.01Z"/>
  <path class="MsctHLprD-1" d="M179.02,192.95c1.69-.26,1.53,2.76-.65,2.03-.8-.59-.28-1.89.65-2.03Z"/>
  <path class="MsctHLprD-1" d="M236.04,183.22c-.76.75-2.53.11-1.94-1.2.72-1.6,3.08.07,1.94,1.2Z"/>
  <path class="MsctHLprD-1" d="M200.19,186.46c1.8-.54,1.99,1.64.75,2.01-1.72.51-1.99-1.64-.75-2.01Z"/>
  <path class="MsctHLprD-4" d="M249.45,165.93c.5.49.11,1.42-.68,1.43-1.57.02-.46-2.55.68-1.43Z"/>
  <path class="MsctHLprD-4" d="M243.57,160.24c1.12-.29,1.61,1.5.54,1.82-1.51.45-1.5-1.58-.54-1.82Z"/>
  <path class="MsctHLprD-4" d="M245.07,166.53l-.07,1.23-.63.34-.52-.23c-.77-.91.32-1.93,1.23-1.34Z"/>
  <path class="MsctHLprD-10" d="M268.94,132.19c7.13-.88,7.52,9.3,1.82,10.2-7.51,1.18-8.55-9.37-1.82-10.2ZM269.34,133.88c-3.66.19-4.38,5.55-.67,6.64,5.02,1.47,6.1-6.92.67-6.64Z"/>
  <path class="MsctHLprD-10" d="M292.18,144.72c.71-.12.97,1.3.16,1.44-.71.12-.97-1.3-.16-1.44Z"/>
  <path class="MsctHLprD-1" d="M269.34,133.88c5.43-.28,4.35,8.11-.67,6.64-3.71-1.09-2.99-6.45.67-6.64ZM269.15,134.48c-3.17.47-3.12,5.7.55,5.6,3.85-.1,3.26-6.17-.55-5.6Z"/>
  <path class="MsctHLprD-4" d="M269.15,134.48c3.82-.57,4.4,5.49.55,5.6-3.67.1-3.73-5.13-.55-5.6Z"/>
  <path class="MsctHLprD-6" d="M207,307.83c-.01.25.06.48.19.69-6.17-2.71-12.15-4.91-17.52-9.35-.92-.76-1.75-1.52-2.52-2.29-.08-2.19,3.06-.14,4.15-.27,1-.59.08-1.72.46-2.34.2-.33,1.42-.53,1.69-1.12.59-1.29-2.05-2.49-1.51-3.36.81-1.3,4.32.98,5.04,1.88.9,1.13.63,1.62.94,2.8.27,1.03.8,2.04.64,3.14l-1.54.38c-1.09,1.24,1.33,4.26,2.58,4.29.81,0,1.86-1.08,2.58-.89.93.52.93,1.74,1.72,2.4.91.77,3.36,1.04,3.45,2.34.03.51-.34,1.19-.35,1.7Z"/>
  <path class="MsctHLprD-1" d="M264.57,275.53c.18.18-1.38,1.49-1.52,1.71.92,1.27,1.21.36,2.11-.3.34-.24.77-.58,1.18-.65l-1.91,2.09c.86,1.21,2.13,2.18,2.67,3.62l-3.23-3.04c-.21.28-.91.69-.81,1.05.03.13,1.47,1.71,1.74,2.08.37.51.79,1.11,1.04,1.69l-3.36-3.3-.56.8c1.03,1.09,2.03,2.25,2.65,3.63l-3.23-3.04-2.6,2.92c.12-.46.39-.94.61-1.35.21-.38,1.33-2.01,1.28-2.23-.05-.21-.5-.61-.75-.41l-2.28,2.48,1.88-3.22-2.64-2.49c.69-.02,2.88,1.96,3.23,1.91l.57-.82c-.59-.64-1.33-1.12-1.89-1.79-.12-.14-.31-.21-.25-.44l2.71,1.76.83-.91-1.25-1.48,1.82,1.13,1.98-1.38ZM262.62,277.82l-.83.83.56.68.95-.84c.03-.16-.51-.7-.67-.68ZM260.64,280.22l.67.24c1.19-.87-.33-1.53-.67-.24Z"/>
  <path class="MsctHLprD-1" d="M185.85,240.46l-2.53,3.44,1.07,1.25c1.24-1.09,2.08-2.64,3.64-3.35l-3.01,4.15c1.05,1.64,2.19,3.24,2.84,5.11l-3.45-4.2c-.24.41-1.19,1.3-1.08,1.73.05.19,1.09,1.64,1.31,2.07.4.81.72,1.74,1.03,2.59l-3.02-4.04-.65,1.39,1.66,3.83-2.27-3.2-2.1,3.36,1.49-4.25-1.07-1.47-2.77,4.04,2.13-4.79-3.3-4.29c.13-.12.92.54,1.09.68.39.32.89.75,1.27,1.09.43.39.83,1.02,1.16,1.32.16.14.19.14.42.12l.73-1.1-2.32-3.11c.32-.07.4.18.59.33.76.64,1.43,1.52,2.19,2.18l1.22-1.42-1.64-2.27,2.35,1.68c.31-.68,1.1-1.43,1.68-1.94.17-.14,1.22-1.04,1.35-.92ZM182.82,247.36l1.01-1.43-1.09-1.26-1.07,1.4c.13.26.87,1.49,1.15,1.29ZM181.47,249.37l.52-1.25-1.02-1.27-.66,1.24c.33.3.51.74.77,1.07.11.14,0,.31.38.21Z"/>
  <g>
    <path class="MsctHLprD-8" d="M71.98,227.47c-.14,0-.25-.06-.35-.17-.1-.11-.15-.23-.14-.37l.15-4.97c0-.14.06-.26.16-.36.11-.1.23-.15.36-.15l16.87.53c.16,0,.29-.04.4-.14.11-.1.16-.23.17-.4l.25-7.96c0-.14.06-.26.16-.36.11-.1.23-.15.36-.15l4.86.15c.14,0,.25.06.35.17s.15.23.14.37l-.44,14c0,.14-.06.26-.16.36-.11.1-.23.15-.36.15l-22.78-.71Z"/>
    <path class="MsctHLprD-8" d="M74.91,195.62c-.13-.03-.23-.11-.31-.24-.07-.13-.09-.26-.06-.39l3.5-13.56c.03-.13.11-.24.24-.32.12-.08.25-.1.38-.06l4.71,1.21c.13.03.23.11.31.24.07.13.09.26.06.39l-1.99,7.71c-.04.16-.02.3.05.43.07.13.17.21.31.24l1.98.51c.13.03.26.01.38-.06s.21-.19.25-.35l1.53-5.92c.03-.13.11-.24.24-.32.12-.08.26-.09.42-.05l4.68,1.21c.15.04.27.12.34.25.07.13.09.26.06.39l-1.53,5.92c-.04.16-.02.3.05.42.07.13.18.21.31.24l1.94.5c.15.04.29.02.42-.05.12-.08.21-.19.25-.35l1.99-7.71c.04-.13.11-.24.24-.32s.25-.1.38-.06l4.71,1.21c.13.03.23.11.31.24.07.13.09.26.06.39l-3.5,13.56c-.04.13-.11.24-.24.32s-.25.1-.38.06l-22.07-5.69Z"/>
    <path class="MsctHLprD-8" d="M111.56,162.6c.14.07.24.18.3.31.05.15.04.29-.02.42l-2.22,4.37c-.06.12-.16.21-.29.26-.13.05-.25.05-.37-.01l-1.94-.83c-.12-.06-.25-.07-.37-.01-.13.05-.22.14-.29.26l-.79,1.55c-.06.12-.08.25-.04.39.03.13.11.23.23.29l1.82,1.08c.12.06.2.16.23.29.03.13.02.26-.04.39l-2.22,4.37c-.07.14-.18.23-.33.26-.14.03-.29.01-.43-.06l-19.12-12.6c-.26-.18-.32-.42-.17-.71l3.94-7.75c.06-.12.16-.21.29-.26.13-.05.25-.05.37.01l21.47,7.99ZM93.23,161.19c-.23-.09-.41-.02-.53.22-.12.24-.07.41.15.53l6.92,4.1c.13.09.27.11.43.06.15-.05.26-.14.32-.26l.38-.74c.06-.12.07-.26.01-.4-.05-.14-.15-.25-.29-.33l-7.39-3.17Z"/>
    <path class="MsctHLprD-8" d="M118.73,143.8c-.25-.08-.46-.03-.62.17-.1.13-.15.26-.13.41.01.15.07.26.18.35l3.88,3.16c.11.09.17.2.18.35.01.15-.02.27-.11.38l-3.14,3.85c-.09.11-.2.17-.35.19-.15.02-.27-.02-.38-.1l-17.66-14.41c-.11-.09-.17-.2-.18-.35-.01-.15.02-.27.11-.38l4.44-5.44c.83-1.02,1.75-1.77,2.75-2.24s2.01-.66,3.03-.56c1.02.1,2.01.37,2.99.8s1.94,1.04,2.89,1.82c2.34,1.91,3.64,3.95,3.9,6.14.02.19.13.33.33.4l6.66,2.6c.17.08.27.2.31.37.04.17,0,.32-.12.47l-3.18,3.91c-.16.2-.36.24-.6.14l-5.16-2.01ZM114.17,139.5c.15-.18.26-.36.33-.54.07-.18.08-.36.02-.54-.06-.18-.11-.33-.15-.46-.04-.12-.15-.28-.33-.45-.18-.17-.31-.29-.39-.36-.08-.06-.23-.19-.46-.38-.23-.19-.36-.3-.41-.33-.04-.04-.18-.14-.4-.32-.22-.18-.37-.3-.46-.38-.09-.07-.24-.18-.44-.32s-.38-.22-.51-.24-.29-.03-.47-.05c-.18-.01-.36.03-.53.13s-.33.24-.47.42l-.62.75c-.1.12-.15.26-.13.41.01.15.07.26.18.35l3.88,3.16c.11.09.23.12.38.1.14-.02.27-.09.37-.21l.62-.75Z"/>
    <path class="MsctHLprD-8" d="M122.33,114.44c-.08-.11-.12-.23-.1-.38s.08-.26.19-.35l4-3.17c.22-.17.43-.18.64-.03l6.87,5.19c.16.13.32.11.47-.07.15-.15.16-.3.03-.46l-5.03-6.35c-.08-.11-.12-.23-.1-.38s.08-.26.19-.35l3.89-3.09c.11-.09.24-.12.38-.11.15.02.26.08.34.18l14.16,17.86c.08.11.12.23.1.38-.02.15-.08.26-.19.35l-4,3.17c-.22.17-.43.18-.64.03l-6.87-5.19c-.16-.13-.32-.11-.47.07-.15.15-.16.3-.03.46l5.03,6.35c.08.11.12.23.1.38s-.08.26-.19.35l-3.9,3.09c-.11.09-.24.12-.38.11-.15-.01-.26-.08-.34-.18l-14.16-17.86Z"/>
    <path class="MsctHLprD-8" d="M172.71,109.36c-.31.77-.84,1.31-1.6,1.64s-1.52.34-2.29.05-1.32-.82-1.65-1.57c-.33-.75-.33-1.5-.01-2.26.32-.76.85-1.3,1.61-1.63.75-.33,1.52-.35,2.28-.07s1.31.8,1.64,1.55c.33.75.33,1.51.02,2.27Z"/>
    <path class="MsctHLprD-8" d="M183.53,81.91c-.03-.13,0-.26.08-.38.08-.12.19-.2.32-.23l6.86-1.47c1.29-.28,2.47-.29,3.55-.03s1.98.74,2.71,1.45c.73.71,1.34,1.54,1.83,2.49.49.95.86,2.02,1.11,3.21s.35,2.31.3,3.38c-.06,1.07-.27,2.08-.65,3.03-.38.95-1,1.76-1.88,2.44s-1.96,1.15-3.25,1.43l-.95.2c-.16.03-.28.11-.36.23-.08.12-.11.25-.08.38l1.05,4.89c.03.13,0,.26-.08.38-.08.12-.19.2-.32.23l-4.86,1.04c-.14.03-.27,0-.39-.07-.12-.08-.2-.18-.23-.32l-4.78-22.29ZM193.3,91.47c.23-.05.42-.12.59-.21.17-.09.29-.23.36-.41.07-.18.12-.33.17-.45.04-.12.05-.31.02-.56-.03-.25-.05-.42-.08-.52s-.06-.29-.12-.58c-.06-.29-.1-.46-.11-.52-.01-.05-.05-.22-.11-.5-.06-.28-.1-.47-.12-.58-.02-.11-.07-.29-.15-.52s-.16-.41-.25-.5-.2-.21-.34-.33-.3-.2-.49-.22-.41-.02-.63.03l-.95.2c-.16.03-.28.11-.36.23-.08.12-.11.25-.08.38l1.05,4.89c.03.13.1.24.23.32.12.08.26.1.42.07l.95-.2Z"/>
    <path class="MsctHLprD-8" d="M206.24,77.73c0-.14.04-.26.13-.37s.22-.17.35-.17l4.96-.3c.14,0,.26.04.37.13s.17.21.18.35l1.03,16.84c0,.16.07.29.18.38s.25.14.41.13l7.94-.48c.14,0,.26.04.37.13.11.1.17.21.18.35l.3,4.86c0,.14-.04.26-.13.37s-.22.17-.35.17l-13.98.85c-.14,0-.26-.04-.37-.13s-.17-.21-.18-.35l-1.39-22.75Z"/>
    <path class="MsctHLprD-8" d="M241.46,100.84c-.01.16-.07.29-.17.39-.13.1-.26.15-.4.14l-4.88-.42c-.14-.01-.26-.07-.35-.17-.1-.1-.14-.22-.13-.35l.04-2.11c.01-.13-.03-.25-.13-.35-.1-.1-.21-.16-.35-.17l-1.73-.15c-.14-.01-.26.02-.38.1-.11.08-.17.19-.19.33l-.32,2.09c-.01.14-.07.24-.18.33-.11.08-.24.12-.38.1l-4.88-.42c-.16-.01-.28-.08-.37-.2s-.12-.26-.1-.42l4.5-22.46c.07-.31.27-.46.59-.43l8.66.74c.14.01.26.07.35.17.1.1.14.22.13.35l.66,22.9ZM235.87,83.33c0-.25-.14-.39-.4-.41s-.41.09-.43.34l-1.2,7.96c-.04.16,0,.3.1.42.11.12.23.19.37.2l.83.07c.14.01.26-.03.38-.14.11-.1.18-.24.19-.39l.16-8.04Z"/>
    <path class="MsctHLprD-8" d="M250.73,91.82c.01-.07.02-.12,0-.17-.92-6.64-1.46-10.77-1.62-12.39-.03-.17.02-.31.17-.43.14-.12.3-.16.46-.12l5.05,1.13c.14.03.24.1.33.21.08.11.11.23.08.37l-1.06,8.09c-.05.22.06.36.32.42.26.06.42-.02.46-.25l2.45-7.78c.05-.13.14-.22.26-.29.12-.07.25-.08.39-.05l4.99,1.11c.18.04.31.14.38.31.07.17.06.32-.01.47l-6.67,10.43s-.06.09-.07.16l-2.36,10.56c-.03.13-.11.24-.23.31-.12.08-.25.1-.39.07l-4.85-1.08c-.14-.03-.24-.11-.32-.23s-.1-.25-.08-.38l2.33-10.46Z"/>
    <path class="MsctHLprD-8" d="M277.11,111.22c-.77.29-1.54.27-2.29-.06-.75-.33-1.28-.88-1.59-1.65-.31-.77-.3-1.52.03-2.27.33-.75.88-1.26,1.65-1.54.77-.28,1.53-.26,2.28.07.75.33,1.29.87,1.6,1.63s.31,1.51-.02,2.26c-.33.75-.88,1.27-1.65,1.56Z"/>
    <path class="MsctHLprD-8" d="M300.25,119.04c.07-.26,0-.46-.21-.61-.13-.09-.27-.13-.42-.11-.14.02-.25.09-.33.2l-2.88,4.09c-.08.11-.19.18-.33.2-.14.02-.27,0-.39-.08l-4.06-2.86c-.11-.08-.18-.19-.21-.34s0-.27.08-.38l13.13-18.63c.08-.11.19-.18.33-.2.14-.02.27,0,.39.08l5.74,4.04c1.08.76,1.89,1.62,2.43,2.59.54.96.8,1.96.77,2.98-.03,1.02-.22,2.04-.59,3.04s-.9,2.01-1.61,3.01c-1.74,2.47-3.69,3.91-5.85,4.32-.19.03-.32.15-.38.36l-2.13,6.82c-.07.18-.18.29-.35.34-.16.05-.32.02-.47-.08l-4.12-2.9c-.21-.15-.27-.34-.18-.59l1.65-5.29ZM304.22,114.18c.19.13.38.23.56.29.18.06.36.06.54-.01.18-.07.33-.13.45-.18s.26-.17.43-.36.27-.33.33-.41c.06-.08.17-.25.34-.49s.27-.38.3-.43c.03-.05.13-.18.29-.42.16-.23.28-.39.34-.49s.16-.25.29-.46c.12-.22.19-.39.2-.53,0-.13.01-.29.01-.47,0-.18-.06-.35-.17-.51s-.26-.31-.45-.44l-.79-.56c-.13-.09-.27-.13-.42-.11-.14.02-.25.09-.33.2l-2.88,4.09c-.08.11-.1.24-.08.38s.11.26.24.36l.8.56Z"/>
    <path class="MsctHLprD-8" d="M323.41,114.62c.09-.1.21-.15.36-.15.15,0,.27.05.37.14l10.05,9.75c.1.1.15.22.16.36s-.04.27-.14.37l-3.39,3.49c-.09.1-.21.15-.36.15-.15,0-.27-.05-.37-.14l-5.71-5.54c-.12-.11-.25-.17-.39-.17-.15,0-.27.05-.36.15l-1.42,1.46c-.09.1-.14.22-.14.37,0,.15.06.28.18.39l4.39,4.26c.1.1.15.22.16.36,0,.15-.05.28-.16.39l-3.36,3.47c-.11.11-.24.17-.38.17-.15,0-.27-.05-.37-.14l-4.39-4.26c-.12-.11-.25-.17-.39-.17-.15,0-.27.05-.36.15l-1.4,1.44c-.11.11-.16.24-.16.39,0,.15.06.27.18.39l5.71,5.54c.1.1.15.22.16.36,0,.15-.04.27-.14.37l-3.39,3.49c-.09.1-.21.15-.36.15-.15,0-.27-.05-.37-.14l-10.05-9.75c-.1-.1-.15-.22-.16-.36,0-.15.04-.27.14-.37l15.87-16.36Z"/>
    <path class="MsctHLprD-8" d="M330.45,138.05s.04-.03.08-.06c.8-.6,1.42-1.06,1.86-1.38.44-.32,1.07-.73,1.9-1.24.83-.51,1.52-.85,2.07-1.04.56-.19,1.23-.35,2.01-.49.79-.14,1.49-.12,2.11.06.62.18,1.29.52,1.99,1,.71.48,1.37,1.14,2,1.97.79,1.06,1.32,2.07,1.58,3.05.26.98.25,1.9,0,2.77-.26.86-.63,1.65-1.1,2.35-.48.71-1.1,1.43-1.89,2.16-.22.2-.45.21-.69.04l-4.15-2.96c-.15-.09-.23-.22-.23-.39,0-.17.05-.32.17-.43,1.58-1.37,2.12-2.38,1.62-3.05-.14-.19-.33-.3-.57-.36s-.53-.01-.87.11c-.34.13-.66.26-.95.41-.29.14-.66.37-1.12.69-.46.32-.82.56-1.08.75-.26.18-.64.46-1.12.83-.49.37-.85.65-1.09.84-.24.19-.58.47-1.01.83-.44.36-.77.66-.99.9-.22.24-.44.5-.66.8-.22.29-.33.56-.35.81-.01.24.05.46.19.64.5.67,1.63.43,3.38-.72.14-.08.29-.09.46-.04.17.05.27.16.31.33l1.68,4.83c.11.26.04.47-.21.63-.92.55-1.79.96-2.6,1.22-.81.26-1.67.4-2.57.41-.9.01-1.79-.24-2.66-.76-.87-.52-1.7-1.29-2.48-2.33-.63-.83-1.08-1.66-1.36-2.48-.28-.82-.42-1.55-.42-2.2,0-.65.17-1.33.52-2.05.35-.72.7-1.32,1.03-1.8s.86-1.05,1.57-1.71c.71-.65,1.28-1.15,1.71-1.49.43-.34,1.04-.8,1.84-1.41.04-.03.06-.05.08-.06Z"/>
    <path class="MsctHLprD-8" d="M343.68,158.44c.06-.03.1-.07.13-.11,4.4-5.06,7.15-8.18,8.26-9.37.11-.14.25-.19.44-.16.19.03.32.12.39.26l2.48,4.55c.07.12.08.25.05.39-.03.13-.1.23-.22.3l-6.79,4.53c-.2.11-.24.28-.11.51.13.23.29.3.49.19l7.47-3.28c.13-.04.26-.04.39,0,.13.05.23.13.29.25l2.44,4.49c.09.16.09.33.01.49-.08.16-.2.26-.36.3l-12.25,1.84c-.05,0-.11.02-.17.05l-9.5,5.17c-.12.07-.25.08-.39.03s-.24-.12-.31-.25l-2.38-4.37c-.07-.12-.08-.25-.04-.39.04-.14.12-.24.24-.31l9.41-5.12Z"/>
    <path class="MsctHLprD-8" d="M351.29,171.77s.05-.02.1-.04c.94-.34,1.66-.61,2.18-.78s1.24-.39,2.18-.63c.94-.25,1.7-.38,2.28-.39.58-.02,1.28.02,2.07.11.79.09,1.46.31,2,.67.54.36,1.08.87,1.62,1.54s.98,1.49,1.34,2.47c.46,1.24.66,2.37.63,3.38s-.31,1.9-.8,2.65c-.5.75-1.08,1.4-1.74,1.93-.66.54-1.47,1.05-2.43,1.52-.27.12-.49.07-.67-.16l-3.12-4.04c-.12-.13-.16-.28-.11-.44.05-.17.14-.29.28-.36,1.91-.85,2.72-1.67,2.43-2.45-.08-.22-.23-.39-.44-.5-.21-.12-.5-.17-.87-.14s-.71.06-1.03.12c-.32.06-.74.17-1.27.34-.53.17-.95.3-1.25.4-.3.1-.74.25-1.32.46-.58.21-1,.38-1.29.49-.28.12-.69.28-1.21.5-.52.22-.92.41-1.2.57s-.56.36-.86.57c-.29.22-.48.44-.57.67-.09.23-.09.45,0,.67.29.78,1.43.88,3.44.29.16-.03.31,0,.45.09.14.09.21.23.2.41l.21,5.11c.03.29-.09.47-.38.55-1.04.26-1.99.4-2.84.41s-1.71-.1-2.58-.35-1.64-.75-2.33-1.5-1.25-1.73-1.7-2.95c-.36-.98-.55-1.9-.58-2.77-.03-.87.05-1.61.23-2.23.18-.62.55-1.22,1.09-1.81.55-.58,1.05-1.06,1.51-1.42.46-.37,1.12-.76,2-1.18.87-.42,1.56-.73,2.07-.93s1.23-.47,2.17-.81l.1-.04Z"/>
    <path class="MsctHLprD-8" d="M369.34,189.86c.13-.03.26,0,.38.08.12.08.19.19.22.33l.96,4.88c.03.14,0,.27-.08.39s-.19.2-.32.22l-16.56,3.25c-.16.03-.27.11-.35.23s-.1.26-.07.42l1.53,7.81c.03.14,0,.27-.08.39s-.19.2-.32.22l-4.77.94c-.13.03-.26,0-.38-.08-.12-.08-.19-.19-.22-.33l-2.7-13.74c-.03-.14,0-.27.08-.39s.19-.2.32-.22l22.37-4.39Z"/>
    <path class="MsctHLprD-8" d="M373.11,212.86c.14,0,.26.04.36.14.11.1.16.22.17.36l.46,14c0,.14-.04.26-.14.37s-.22.16-.35.17l-4.86.16c-.14,0-.26-.04-.36-.14s-.16-.22-.17-.36l-.26-7.96c0-.16-.06-.29-.17-.39s-.23-.15-.36-.14l-2.04.07c-.14,0-.25.06-.35.17s-.15.24-.14.4l.2,6.11c0,.14-.04.26-.14.37s-.23.16-.39.17l-4.83.16c-.16,0-.29-.04-.4-.14s-.16-.22-.17-.36l-.2-6.11c0-.16-.06-.29-.17-.39-.11-.1-.23-.15-.36-.14l-2.01.07c-.16,0-.29.06-.39.17s-.14.24-.14.4l.26,7.96c0,.14-.04.26-.14.37s-.22.16-.35.17l-4.86.16c-.14,0-.26-.04-.36-.14-.11-.1-.16-.22-.17-.36l-.46-14c0-.14.04-.26.14-.37s.22-.16.35-.17l22.78-.74Z"/>
  </g>
  <g>
    <g>
      <path class="MsctHLprD-8" d="M346.78,275.83c-1.73,4.4-.3,9.51,3.55,12.36.14.11.2.29.13.46-.43.97-1.89,4.25-2.56,5.75-.1.22-.4.17-.44-.07-.41-2.62-1.72-5.09-3.83-6.9-.65-.56-1.69-.34-2.05.44-2.12,4.56-1,9.99,2.73,13.33.24.21.32.55.19.84l-1.78,3.99c-.55,1.24-2.14,1.5-4.05.06,0,0-.96-.75-1.58-1.52-.61-.78-1.06-1.69-1.36-2.71-.3-1.02-.51-1.98-.63-2.83-.13-.86-.1-1.88.09-3.09.19-1.2.4-2.23.62-3.1.23-.86.57-1.94,1.06-3.23.49-1.3.9-2.35,1.23-3.14.33-.8.8-1.86,1.39-3.2s1.08-2.4,1.45-3.17c.37-.77.88-1.79,1.52-3.04.65-1.25,1.22-2.23,1.7-2.96.49-.72,1.1-1.56,1.87-2.5.77-.95,1.51-1.66,2.23-2.14.72-.48,1.56-.95,2.52-1.41.97-.47,1.94-.73,2.93-.8.99-.06,2.1.02,3.33.25.37.07.74.15,1.11.25.75.2,1.14,1.05.83,1.76l-6.04,13.56c-.06.14-.27.1-.27-.06-.08-2.91-1.36-5.74-3.64-7.72-.75-.65-1.89-.37-2.26.55Z"/>
      <path class="MsctHLprD-8" d="M365.39,293.42l-3.24,6.18c-.4.76-.96,1.75-1.69,2.95-.72,1.2-1.36,2.15-1.91,2.82-.55.69-1.23,1.48-2.06,2.37-.83.9-1.61,1.56-2.35,1.99-.75.44-1.62.86-2.61,1.26-.99.4-1.98.6-2.98.61-.65,0-1.53-.13-2.39-.31-1.47-.31-2.25-1.92-1.55-3.25l2.32-4.42c.13-.24.4-.37.67-.32,3.86.67,7.73-1.19,9.63-4.6.44-.8-.03-1.79-.94-1.92-2.13-.32-4.25.13-6.02,1.18-.15.09-.33-.07-.25-.23l2.75-5.24c.11-.21.36-.3.58-.22,3.92,1.35,8.29.1,10.91-3.07.71-.86.31-2.19-.77-2.49-1.89-.54-3.86-.48-5.68.08-.99.31-1.92.77-2.77,1.37l8.07-15.39c.29-.56,1.03-.73,1.52-.34.23.18.45.36.66.55.93.82,1.67,1.63,2.23,2.44.57.83.97,1.75,1.2,2.8.23,1.04.39,1.99.45,2.86.06.87-.04,1.89-.31,3.08-.26,1.18-.52,2.2-.77,3.03-.25.85-.66,1.9-1.24,3.18-.57,1.28-1.06,2.31-1.46,3.07Z"/>
    </g>
    <g>
      <path class="MsctHLprD-8" d="M103.08,275.83c1.73,4.4.3,9.51-3.55,12.36-.14.11-.2.29-.13.46.43.97,1.89,4.25,2.56,5.75.1.22.4.17.44-.07.41-2.62,1.72-5.09,3.83-6.9.65-.56,1.69-.34,2.05.44,2.12,4.56,1,9.99-2.73,13.33-.24.21-.32.55-.19.84l1.78,3.99c.55,1.24,2.14,1.5,4.05.06,0,0,.96-.75,1.58-1.52.61-.78,1.06-1.69,1.36-2.71.3-1.02.51-1.98.63-2.83.13-.86.1-1.88-.09-3.09-.19-1.2-.4-2.23-.62-3.1-.23-.86-.57-1.94-1.06-3.23-.49-1.3-.9-2.35-1.23-3.14-.33-.8-.8-1.86-1.39-3.2-.6-1.34-1.08-2.4-1.45-3.17-.37-.77-.88-1.79-1.52-3.04-.65-1.25-1.22-2.23-1.7-2.96-.49-.72-1.1-1.56-1.87-2.5-.77-.95-1.51-1.66-2.23-2.14-.72-.48-1.56-.95-2.52-1.41-.97-.47-1.94-.73-2.93-.8-.99-.06-2.1.02-3.33.25-.37.07-.74.15-1.11.25-.75.2-1.14,1.05-.83,1.76l6.04,13.56c.06.14.27.1.27-.06.08-2.91,1.36-5.74,3.64-7.72.75-.65,1.89-.37,2.26.55Z"/>
      <path class="MsctHLprD-8" d="M84.46,293.42l3.24,6.18c.4.76.96,1.75,1.69,2.95.72,1.2,1.36,2.15,1.91,2.82.55.69,1.23,1.48,2.06,2.37.83.9,1.61,1.56,2.35,1.99.75.44,1.62.86,2.61,1.26.99.4,1.98.6,2.98.61.65,0,1.53-.13,2.39-.31,1.47-.31,2.25-1.92,1.55-3.25l-2.32-4.42c-.13-.24-.4-.37-.67-.32-3.86.67-7.73-1.19-9.63-4.6-.44-.8.03-1.79.94-1.92,2.13-.32,4.25.13,6.02,1.18.15.09.33-.07.25-.23l-2.75-5.24c-.11-.21-.36-.3-.58-.22-3.92,1.35-8.29.1-10.91-3.07-.71-.86-.31-2.19.77-2.49,1.89-.54,3.86-.48,5.68.08.99.31,1.92.77,2.77,1.37l-8.07-15.39c-.29-.56-1.03-.73-1.52-.34-.23.18-.45.36-.66.55-.93.82-1.67,1.63-2.23,2.44-.57.83-.97,1.75-1.2,2.8-.23,1.04-.39,1.99-.45,2.86-.06.87.04,1.89.31,3.08.26,1.18.52,2.2.77,3.03.25.85.66,1.9,1.24,3.18.57,1.28,1.06,2.31,1.46,3.07Z"/>
    </g>
  </g>
  <g>
    <path class="MsctHLprD-4" d="M147.31,368.59c0-.32.12-.61.36-.85s.53-.36.85-.36h11.56c.32,0,.61.12.85.36.24.24.36.53.36.85v18.83c0,.32.12.61.36.85.24.24.53.36.85.36h4.61c.32,0,.61-.12.85-.36.24-.24.36-.53.36-.85v-18.83c0-.32.12-.61.36-.85.24-.24.52-.36.85-.36h11.56c.32,0,.61.12.85.36.24.24.36.53.36.85v54.15c0,.32-.12.61-.36.85s-.53.36-.85.36h-11.56c-.32,0-.61-.12-.85-.36s-.36-.53-.36-.85v-18.83c0-.32-.12-.61-.36-.85s-.53-.36-.85-.36h-4.61c-.32,0-.61.12-.85.36-.24.24-.36.53-.36.85v18.83c0,.32-.12.61-.36.85-.24.24-.53.36-.85.36h-11.56c-.32,0-.61-.12-.85-.36-.24-.24-.36-.53-.36-.85v-54.15Z"/>
    <path class="MsctHLprD-4" d="M187.23,368.59c0-.32.12-.61.36-.85s.52-.36.85-.36h32.57c.32,0,.61.12.85.36.24.24.36.53.36.85v11.56c0,.32-.12.61-.36.85-.24.24-.53.36-.85.36h-18.51c-.38,0-.69.12-.93.36s-.36.53-.36.85v4.85c0,.32.12.61.36.85.24.24.55.36.93.36h14.22c.32,0,.61.12.85.36.24.24.36.55.36.93v11.48c0,.38-.12.69-.36.93-.24.24-.53.36-.85.36h-14.22c-.38,0-.69.12-.93.36-.24.24-.36.53-.36.85v4.77c0,.38.12.69.36.93.24.24.55.36.93.36h18.51c.32,0,.61.12.85.36s.36.53.36.85v11.56c0,.32-.12.61-.36.85s-.53.36-.85.36h-32.57c-.32,0-.61-.12-.85-.36-.24-.24-.36-.53-.36-.85v-54.15Z"/>
    <path class="MsctHLprD-4" d="M226.02,368.59c0-.32.12-.61.36-.85s.52-.36.85-.36h32.57c.32,0,.61.12.85.36.24.24.36.53.36.85v11.56c0,.32-.12.61-.36.85-.24.24-.53.36-.85.36h-18.51c-.38,0-.69.12-.93.36s-.36.53-.36.85v4.85c0,.32.12.61.36.85.24.24.55.36.93.36h14.22c.32,0,.61.12.85.36.24.24.36.55.36.93v11.48c0,.38-.12.69-.36.93-.24.24-.53.36-.85.36h-14.22c-.38,0-.69.12-.93.36-.24.24-.36.53-.36.85v4.77c0,.38.12.69.36.93.24.24.55.36.93.36h18.51c.32,0,.61.12.85.36s.36.53.36.85v11.56c0,.32-.12.61-.36.85s-.53.36-.85.36h-32.57c-.32,0-.61-.12-.85-.36-.24-.24-.36-.53-.36-.85v-54.15Z"/>
    <path class="MsctHLprD-4" d="M263.52,410.29c0-.21.05-.43.16-.65l16.97-26.35c.27-.43.28-.86.04-1.29-.24-.43-.61-.65-1.09-.65h-14.87c-.32,0-.61-.12-.85-.36s-.36-.53-.36-.85v-11.56c0-.32.12-.61.36-.85.24-.24.53-.36.85-.36h32.57c.32,0,.61.12.85.36.24.24.36.53.36.85v12.45c0,.22-.06.43-.16.65l-16.97,26.35c-.27.43-.28.86-.04,1.29.24.43.61.65,1.09.65h14.87c.32,0,.61.12.85.36.24.24.36.53.36.85v11.56c0,.32-.12.61-.36.85-.24.24-.53.36-.85.36h-32.57c-.32,0-.61-.12-.85-.36-.24-.24-.36-.53-.36-.85v-12.45Z"/>
  </g>
  <path class="MsctHLprD-4" d="M240.4,265.09s7.92-2.37,17.87-1.12c0,0,3.73-13.14-1.66-20.89-5.39-7.75-13.79-3.51-15.81,1.7-2.02,5.21-3.93,12.01-.39,20.31Z"/>
  <path class="MsctHLprD-4" d="M208.75,265.01s-7.72-2.33-17.67-1.08c0,0-3.96-13.11,1.43-20.86,5.39-7.75,13.79-3.51,15.81,1.7,2.02,5.21,3.96,11.94.42,20.24Z"/>
  <path class="MsctHLprD-1" d="M239.44,251.18l-.42,1.57c-.45,3.5-.07,6.93.62,10.37l-1.07-3.01c-2.35-7.24.23-20.35,8.78-22.29,10.31-2.33,14.15,12.05,12.6,19.72l-1.23,4.53c.67-4.68.62-9.4-.84-13.94-2.32-7.21-8.49-11.51-14.67-5.13.52-.02.82-.49,1.32-.67,3.9-1.4,6.94,1.57,8.36,4.93,2.07,4.89,1.58,10.88-1.09,15.44l5.7.69,2.68.98c-6.76-.9-13.64-.32-20.33.84l3.35-1.36c-1.29-1.72-2.5-3.84-3.08-5.93-.19-.7-.69-2.69-.69-3.29v-3.46ZM244.41,245.77c-2.55.4-2.01,6.11.74,4.73,1.97-.98,1.31-5.06-.74-4.73Z"/>
  <path class="MsctHLprD-1" d="M209.68,254.85c-.24,2.36-1.39,5.43-2.56,7.5-.24.43-.91,1.07-1,1.3-.17.38.16.27.31.32.77.23,1.45.41,2.2.74.26.11.84.2.85.51-6.75-1.11-13.73-1.82-20.54-.84.07-.39.43-.35.71-.45,2.44-.83,5.33-1.01,7.89-1.23-1.8-2.89-2.74-6.74-2.51-10.16.37-5.58,4.07-12.94,10.69-9.75.11-.46-.27-.46-.48-.67-3.46-3.36-8.15-2.67-11.13.9-4.33,5.21-4.61,13.33-3.27,19.68-.37-.16-.51-.98-.63-1.36-1.6-5.12-1.68-10.67.21-15.73,4.17-11.18,15.48-10.47,19.6.32,1.74,4.57,1.72,9.67.55,14.38l-1.07,2.8c.92-3.59,1-7.1.6-10.77l-.39-1.6c-.1,1.32.13,2.79,0,4.09ZM204.38,245.77c-2.34.37-1.95,5.09.37,5.01,2.55-.08,2.05-5.39-.37-5.01Z"/>
</svg>