<?xml version="1.0" encoding="UTF-8"?><svg id="Layer_1" xmlns="http://www.w3.org/2000/svg" viewBox="0 0 404.13 528.28"><defs><style>.cls-1{fill:#fff;}</style></defs><path d="M195.15,136.13c-.52-.12-.44.24-.52.61-.16.81-.17,1.67-.31,2.49.47.12.5-.2.56-.56.15-.82.08-1.71.26-2.53ZM201.34,137.17l-5.99-.83-.2,2.89c.53.09.37-.08.47-.45.19-.71-.07-1.67.56-2.03l-.2,2.68c1.22-.06.13-1.98,1.03-2.47l-.2,2.68h.62c.04-.67.11-1.47.27-2.11.05-.21.06-.62.35-.57l-.2,2.68c1.27-.09.05-1.99,1.03-2.48.12.8-.31,1.57-.21,2.37.03.28.13.61.42.31.14-.66.16-1.38.36-2.03.11-.36-.07-.54.47-.45-.04.65-.18,1.28-.23,1.94,0,.13-.29.77.13.74.54-.04.4-2.47,1.13-2.68-.03.8-.41,1.57-.42,2.37,0,.41.03.33.42.31l.41-2.89ZM250.43,137.39l-1.81-.2c-.15,2.5-2.57,2.66-3.67.61l-1.5.73c.3.99.97,1.44.09,2.36-1.23,1.3-2.13.05-2.59.28l-.83,1.47c0,.6.93.57,1.14.92.24.39.21,1.97-.19,2.29-.36.29-1.12.17-1.48.6l.45,1.63,1.69.06.77,2.03c-1.49.71-1.31,1.53,0,2.28.67.1.83-.76,1.45-.84.67-.09,1.4.43,2.03.6l.15,2.07,1.63.43c.08-1.45.52-2.85,2.34-2.24.44.15.58,1.07.86,1.42l.32.12,1.62-.84c-1.55-1.79.55-4.1,2.43-2.61l.27-.06.6-1.43c-1.01-.69-1.58-1.34-1.18-2.68.37-1.24,2.87.05,1.82-2.83-2.28.84-3.61-1.75-1.7-3.19l-1.32-1.33c-1.15.94-1.65,1.45-3.04.37-.63-.49-.21-1.35-.35-2.02ZM201.96,137.37c-.59-.1-.35.12-.44.48-.19.71-.25,1.48-.38,2.2.59.1.35-.12.44-.48.19-.72.17-1.48.38-2.2ZM178.02,138.4c-.87-.12-1.61.15-2.43.36-2.7.7-5.87,1.99-8.44,3.11-3.87,1.68-7.96,3.77-11.21,6.43,4.64-.81,9.3-2.7,13.55-4.71,2.97-1.4,6.11-2.94,8.53-5.19ZM202.37,141.5l-9.29-1.24c-.15.53.43.49.78.56,1.46.27,3.23.46,4.72.65,1.1.14,2.42.38,3.48.44.41.03.32-.05.31-.41ZM230.64,160.69l3.89-17.42c-.14-.62-4.05-1.76-4.82-1.58l-6.29,17.14,7.22,1.86ZM179.26,179.47c4.49.56,8.99,1.12,13.49,1.68,1.43.18,3.47.78,4.78.81,2.68.04,6.08-1.14,8.87-1.04,1.54-.62.06-2.58.15-3.38.06-.58,1.22-1.9,1.37-3.36.13-1.21-.43-2.95-.35-3.44.08-.52.93-1.3,1.15-2.16.13-.51.3-1.9.27-2.43-.03-.68-.46-1.33-.42-1.84.03-.47.59-1.17.73-1.75.83-3.38,1.15-7.7-.22-10.94-1.51-3.56-5.03-5.4-7.34-8.35-.33-.24-7.17-1.36-7.94-1.37s-1.97,1.24-2.79,1.75c-3.55,2.17-7.54,3.25-9.16,7.55-.5,1.32-1.33,5.54-1.35,6.92,0,.79.56,1.54.54,2.05-.02.47-.66,1.07-.84,1.55-.96,2.5.1,3.7-.1,5.25-.12.88-1.36,2.53-1.43,4.17-.04.9.53,1.67.39,2.64-.11.74-1.01,1.74-1.18,2.96-.2,1.47.41,2.99.3,3.84-.04.35-.84,1.42-1.05,2.22-.11.43-.49,3.1-.34,3.27l13.2-2.89-10.16-1.7-.78-.56,13.34,1.78,1.92-.34-14.56-2.47-.5-.42ZM175.13,142.12c-.27-.2-5.26,2.57-6.05,2.93-4.11,1.88-8.41,3.54-12.84,4.5l3.21,8.38c4.77-1.03,9.47-2.64,13.9-4.69.72-.33,5.22-2.55,5.41-2.86.16-.25-.14-.62-.12-.92s.35-.43.3-.73c-.14-.8-.85-.51-1.33-.73-1.2-.53-1.72-2.43-2.07-3.61l1.24-.1-.42-1.34-1-.03-.24-.8ZM119.01,156.15c2.56-.06,7.66-5.19,7.43-7.54-.02-.25-.13-.35-.31-.5-1.94.68-3.65,2.14-4.96,3.7-.48.58-2.7,3.71-2.16,4.34ZM137.21,159.9c.07-.11.56-.19.57-.35l-10.42-10.21-2.06,3.3c-1.57,1.73-3.3,3.17-5.26,4.43l16.42,15.16c2,.2,5.5-3.15,6.08-5.04-1.64-.77-1.83-2.17-.22-3.11l-2.99-2.99c-.73,1.45-2.7-.23-2.12-1.2ZM270.26,149.96l-.52.2-4.02,3.82,3.81,3.81,4.02-4.02c0-.32-3.42-2.88-3.3-3.82ZM274.18,152.85c.25-.28-2.01-2.41-2.47-2.48-.33.36,2.22,2.16,2.47,2.48ZM179.05,159.24c-.04-2.78.56-5.57,1.24-8.25-6.31,3.72-13.19,6.69-20.43,8.05l11.28,28.49,4.19-1.06c-.07-1.72.11-3.42.62-5.06.14-.44.58-.74.62-1.24.1-1.31-.57-2.09-.14-4.06.28-1.26,1.17-2.11,1.28-2.62.1-.42-.54-1.44-.53-2.18.03-1.92,1.09-3.39,1.24-4.57.1-.77-.35-1.38-.37-2.04-.03-1.03.4-3.05.99-3.93-1.32.34-1.64-1.06-.92-1.96l.92.41ZM267.71,157.46c-.52-.54-1.4-1.05-1.89-1.72-6.12,6.02-12.38,12.04-19.71,16.61,2,.44,3.63.98,3.51,3.4l1.24-.41c.43.44-1.94,2.76-2.58,1.66-.08-.14.17-1.01-.16-1.4-.21-.25-.98-.22-1.18-.98l1.03-.31c.05-.62-.65-.77-1.13-.83-1.65-.19-4.95.41-4.84,2.55.06,1.11.48,1.88,1.59,2.14,4.23,1.01,7.27-.72,10.37-3.35l-.59-.66.07-.48c5.21-4.78,9.69-10.39,14.55-15.47v1.24c1.52-.24.3-1.39-.28-1.99ZM244.93,165.8l.46.18c5.87-2.89.43-10.51-4.42-6.38.37,2.26,1.49.02,2.96.08,2.9.11,3.44,4.05.76,5.28l.24.85ZM232.5,166.05l-1.74-4.14c-1.74-.33-6.74-2.52-8.22-2.22-.9.18-2.91,2.08-3.87,2.55l13.82,3.82ZM245.43,163.71c.57-.57.62-1.47.39-2.21-.57-1.84-4-1.37-3.59.07.04.14,1.55,2.33,1.71,2.43.54.36,1.07.13,1.49-.29ZM230,180.06l3.23-12.57-15.8-4.54-4.96,17.33,17.52-.22ZM142.2,170.1c-.12-.13-.04-.39-.19-.33-1.06,1.3-2.49,2.12-3.82,3.09,1.85.18,3.39-1.13,4.33-2.58.02-.11-.23-.09-.33-.18ZM153.26,179.87l-9.42-9.06-2.55,2.15,9.28,8.46,2.68-1.55ZM268.2,184.21v-3.51l-3.32-.34-1.02-2.85,2.07-2.48-1.65-2.5-2.99,1.48-3.07-1.76-1.16,1.53c6.12,2.3,8.05,10.35,3.71,15.27-.56.63-2.4,1.8-2.58,2.18-.19.38.32,1,.52,1.35.51.34,2.16-1.56,2.55-1.53.65.13,2.58,1.81,3.03,1.53l1.82-2.49-2.13-2.35c-.03-.14.66-2.58.77-2.77.5-.88,2.53-.44,3.47-.76ZM160.04,174.55c-.04-.06-.95-.42-1.12-.44-.91-.12-2.16.36-3.03.66-.53.18-3.14,1.22-3.03,1.69l.92.89c2.51-1.39,5.53-2.17,2.48,1.5-1.16,1.39-3.1,2.88-4.66,3.8-.63.37-4.07,2.21-4.52,1.56-.19-1.42,1.26-2,1.66-3.18l-.94-.73c-1.43,1.11-5.84,6.33-1.65,6.19s10.37-4.78,12.65-8.2c.47-.71,1.72-2.96,1.24-3.75ZM257.47,190.2c6.8-3.11,5.86-13.72-1.34-15.69l-3,2.48c6.08.06,8.49,7.46,3.3,10.74l1.03,2.47ZM163.99,180.91l-.33-.8-2.56-3.73c.09,1.94,1.37,3.5,2.88,4.54ZM123.13,178.64c-.61-2.06-2.58-.45-3.5.52-1.62,1.71-3.11,4.93-3.49,7.24-.26,1.6-.83,5.29,1.63,5.03-1.29-4.45,1.05-10.83,5.36-12.79ZM254.68,178.02c-.95-.15-2.21.11-3.2,0,.9,3.2,2.86,5.97,4.44,8.88,3.95-1.7,2.95-8.22-1.24-8.88ZM119.01,192.26c5.58.07,9.41-10.15,5.67-14.03-.57-.24-.1,1.08-.09,1.33.16,4.19-1.28,9.35-4.65,12.08-.33.27-.84.28-.93.62ZM123.34,179.67c-.8-.38-3.15,2.4-2.89,2.68,1.05-.59,1.67-1.28,2.89-.62v-2.06ZM240.7,179.72c-5.8,1.18-3.21,12.36,3.05,12.95,8.4.8,4.78-14.55-3.05-12.95ZM238.28,179.88c-1.28.43-2.29,2.37-2.46,3.63-.77,5.83,3.99,12.4,10.3,10.19h-2.77c-5.56-1.34-9.5-9.37-5.07-13.82ZM160.23,183.02c-.05-.1-.5-.23-.69-.44-.3-.35-.99-1.49-1.4-1.43-3.58,3.08-7.3,5.91-12.11,6.68l5.26,6.71.57.18,11.71-4.72-1.86-2.78c.56-.3,1.09-1.51,1.34-2.17.28-.74.58-1.64-.51-1.86.31,1.5-1.56,2.21-2.17.82-.15-.34-.03-.76-.15-.98ZM243.23,195.36c-6-.66-9.93-7.87-8.05-13.41-1.12.74-5.71,4.14-5.75,5.25-.08,2.2,3.41,8.08,5.64,8.38,1.15.15,6.76.54,7.55.31.23-.07.56-.26.61-.52ZM222.59,182.37c-1.49-.56-3.18-.05-4.64-.01-23.6.53-46.21,5.7-67.64,15.31-.7.32-1.45.6-2.2.79-.26.35,1.35,1.27,1.65,1.54.33.3,1.43,1.57,1.64,1.64.49.18,1.21-.5,2.08.42,2.48,2.61-2.46,9.12-5.73,7.79-1.84-.75-.74-2.46-.93-3.43-.04-.22-1.41-1.59-1.6-1.36l-1.44,8.25c11.45-5.38,23.75-9.46,36.11-12.28,14.64-3.34,29.75-5.19,44.78-5.47-.93-1.36.03-3.03,1.44-3.4-.19-.39-.66-.05-.83-.19-.2-.17-1.16-4.29-1.39-5.02-.39-1.27-1.12-2.76-1.41-3.97-.05-.21.02-.42.11-.61ZM228.78,182.36c-.58.01-1.17-.03-1.76,0-.25.01-.77-.16-.72.2.77-.04,1.97.67,2.48-.2ZM166.47,184.62l-1.03-1.65c-.54.56.75,1.93,1.03,1.65ZM118.8,188.55c-.27-1.37.57-2.39.41-3.71-.36.21-.57,1.09-.68,1.49-.09.35-.5,2.09-.35,2.23h.62ZM146.45,200.1c-1.26-.54-2.44-1.24-3.72-1.75-1.41-.56-6.45-1.89-7.23-2.69-.3-.3.25-.54-1.09-1.37s-1.75-.97-3.08-1.24c-.72-.15-1.35-1.18-1.93-1.62-.11-.25.39-.35.23-.81-.07-.21-2.24-3.38-2.51-3.71-.1-.12-.39-.51-.5-.43-.31,1.6-1.48,2.82-2.2,4.23,2.51,3.45,5.24,6.49,9.22,8.25,3.41,1.5,7.17,1.89,10.45,3.79,2.02,1.17,3.49,2.7,4.91,4.51,1.49-.4,2.79-1.83,2.58-3.44-.6.37-.83-.09-1.24-.52l.41-.61c-.21-.51-3.84-3.42-4.44-3.61-.1-.03-.34-.06-.3.1l.41.93ZM254.37,188.75l-1.03-2.06c-.04.82.26,1.68,1.03,2.06ZM250.86,194.94c-.85-.84-1.32-1.93-.71-3.08.13-.25.7-.66.7-.74,0-.1-.52-.36-.57-.64-.1-.54.67-2.11-.25-2.56-.24,2.37-1.14,4.48-2.71,6.27l-2.66,1.98,3.51.21c-.2-.68-1.54-.29-1.21-1.1.2-.5,1.35-.95,1.76-1.34.81.2,1.2,1.2,2.13,1ZM233.12,195.56c-1.57-1.82-3.18-3.41-4.12-5.68l-.78.36c-.33.53,1.44,4.58,2,5.03.73.58,1.99.18,2.91.29ZM257.26,194.94l-.23-.9-2.03-4.05c.23,1.75.75,3.91,2.27,4.95ZM229.2,195.56l-2.06-5.16c-.55.9.31,4.85,1.17,5.12.28.09.6.04.89.04ZM252.67,192.31c-1.23-1.23-2.47,1.01-1.25,1.83,1.09.73,2.13-.95,1.25-1.83ZM253.55,194.73c1.08-.03,1.07-1.82.51-2.47.09,1.02.26,1.64-.51,2.47ZM226.93,195.56c-.4-2.32-1.94-3.05-1.24,0l.51-.62.72.62ZM147.49,207.53c-.04,3.4,3.41.92,4.53-.52.99-1.27,2.33-4.1,0-4.64,1.55,1.89.17,4.37-1.71,5.41-1.19.65-1.79.72-2.83-.25ZM218.53,217.79c-.14-.08-.25-.53-.52-.61l-6.77-4.48c3.19,2.96,6.65,5.66,10.42,7.84-.14-.84.15-.52.51-1.03-1.09-.12-1.78-1.42-2.89-1.04l.02-.52c-.22-.12-.56-.03-.79-.16ZM267.16,220.53c-4.96-.62-9.76-2.13-14.31-4.16l-5.91-3.06c5.09,4.69,11.8,7.04,18.67,7.43.33.02,1.41.16,1.56-.21ZM256.64,227.13c-7.69-1.5-14.94-5.05-21.65-9l-6.62-4.42c4.93,4.92,11.24,9.04,17.85,11.35,2.82.99,6.74,2.04,9.71,2.26.23.02.77.15.72-.2ZM190.4,215.78c-.18-.36-.33-.91-.83-.82.18.36.33.91.83.82ZM218.67,230.23c-7.57-3.2-14.11-8.63-20.01-14.24l3.4,4.54c3.91,4.15,10.49,8.24,15.98,9.81.2.06.68.26.63-.11ZM229.61,242.19c-11.75.64-23.43-3.25-33.08-9.74-5.61-3.77-10.41-8.65-14.3-14.16l-14.7,4.11c-.16,8.63-2.45,17.65-9.02,23.59.17,2.18.19,4.43.13,6.62-.13,5.05,0,9.37.2,14.43.58,15.03-2.36,27.33,10.63,38.07,5.86,4.84,12.45,6.98,19.22,10.08,3.98,1.82,7.13,4.09,11.58,4.93,8.25,1.56,12.29-1.85,19.16-5.07,8.89-4.17,16.19-5.91,22.97-13.76,7.96-9.21,6.05-18.34,6.39-29.51l1.02-13.8c-1.25-4.93-2.29-9.99-2.66-15.08-.05-.73.19-3.67-.2-3.93l-8.47-.5,2.1,3.78.69,2.62c-5.09-4.63-12.03-6.62-18.88-6.19,1.93,1.47,4.44,2.3,6.74,3.07.32.11.59-.18.48.43ZM193.29,219.29c.05-.43-.44-.81-.82-1.03-.05.43.44.81.82,1.03ZM192.47,219.29c.07-.37-.28-.68-.61-.83-.07.37.28.68.61.83ZM234.97,225.28c-1.02-.21-2.12-.55-3.09-.93-1.99-.79-5.78-3.12-7.43-3.52-.51-.12-.72.32-1.1.29-.3-.03-.72-.51-1.17-.37l5.31,2.63c2.16.63,4.44,1.6,6.65,2.02.22.04.87.29.84-.11ZM256.85,222.8l-8.46-2.06,2.42,1.19c1.62.45,3.43.95,5.11,1.08.23.02.96.17.92-.2ZM208.36,232.7c-4.67-3.28-8.96-7.02-12.9-11.14l-.14.59-.59.03v.31c3.72,4.29,8.33,8.04,13.62,10.21ZM155.12,241.37c1.99-4.89,2.48-10.03,1.86-15.27l-1.86,15.27ZM159.66,236.62c1.07-1.21,1.99-3.11,2.46-4.66.31-1.01.87-3.58.81-4.54-.02-.34-.46-.7-.39-1.12l-2.88,10.32ZM258.7,234.36c-8.91-1.36-17.64-3.92-26-7.22,1.32.98,3.08,1.82,4.61,2.51,6.23,2.82,12.78,4.5,19.63,4.92l1.76-.21ZM151.82,243.64l-1-5.5-.65-6.26-.15.83-.48.11c-.15,2.84.2,5.5,1.11,8.18l1.18,2.64ZM219.07,235.61l-2.04-.43c.58.63,2.54,2.48,2.04.43ZM156.33,277.87c-.11-5.45-.15-10.94-.59-16.38-.44-5.41-.79-8.62-4.53-12.8-5.65-6.3-14.14-4.88-15.8,3.81-1.25,6.55,1.19,14.67,5.49,19.71,3.78,4.43,9.54,7.61,15.44,5.65ZM251.71,278.08c12.85,2.89,21.77-12.21,21.02-23.4-.91-13.56-14.73-12.1-19.16-1.42-1.41,3.38-1.77,14.09-1.89,18.13-.07,2.22.05,4.47.03,6.69ZM188.96,319.78c.03-.56.12-1.43-.56-1.62-.71-.2-4.97,1.06-5.94,1.41-1.3.47-2.52,1.12-3.76,1.71-.39,1.98-.62,3.98-1.19,5.93s-1.56,3.67-2.14,5.54c3.83,2.81,7.98,5.17,12.44,6.85,2.64-7.71,7.32-6.55,10.76-.22.39.72,1.1,3.17,1.85,3.31.52.1,1.2-.06,1.75,0-1.57-3.8-3.66-6.6-6.95-9.04s-9.11-5.36-11.25-8.97c-.55-.94-1.13-2.05-.6-3.15l-.41-.2c.23-1.26,1.32-1.97,2.58-1.74.31.06.54.37.83.38.7.05,1.74-.82,2.59-.19ZM191.85,320.4v7.53c0,.06-.21.2-.18.39l.17.23c3.81,2.34,7.49,4.55,10.08,8.3.86,1.24,1.4,2.64,2.31,3.78,1.94-5.9,7.24-9.44,12.34-12.42l-.16-3.88c-8.08,3.97-17.97,1.93-24.55-3.92ZM229.34,321.29c-.18-.25-1.39-.84-1.79-.89l1.44,1.55.52.93c.22-.32.03-1.32-.17-1.59ZM227.53,330.32c.3.22.06,1.56,1.77,1.23.7-.14.61-.9.43-1.46-.22-.66-.9-.68-1.36-1.11-1.24-1.14-.83-3.51-1.33-5.07l-2.17-1.44c.3,1.41-1.57,2.81-1.82,3.65-.12.41.06.98-.14,1.31-.32.52-.81-.26-1.14-.12-.83.37-2.88,2.29-3.86,2.96-1.63,1.12-3.42,2.07-5,3.25-3.09,2.32-5.66,5.43-6.83,9.16l1.83-.02c1.22-3.36,5.21-11.38,9.73-7.72,1.3,1.05,1.99,3.1,2.48,4.65l6.8-3.1c.06-.4-.44-.05-.64-.32-.64-.88-.87-4.89-1.83-6.07.74-.04,1.45.32,2.17.37.26.02.75-.27.91-.16ZM231.88,330.72l-1.65-3.92c.05.74-.12,1.56.09,2.28.1.33,1.06,2.02,1.56,1.64ZM190.61,339.18c.71-.67,1.33-1.75,1.65-2.68-.81.6-1.37,1.73-1.65,2.68ZM216.4,337.32c.04-.44-.41-.88-.82-.82l.82.82ZM211.45,341.86c-1.07.11-1.62-.24-1.96-1.24l-1.34,1.85,1.28-.05,2.02-.56Z"/><path d="M285.01,208.57c-6.3-5.42-15.93-7.61-23.72-9.91l-1.98-5.23,1.99-1.38c.76-.07,2.16,1.66,3.04,1.42.33-.09,2.79-3.23,2.74-3.49-1.48-1.85-3.02-1.85-1.57-4.64l3.49-.53c-.07-.81.29-4.02-.17-4.41-.1-.09-.31-.13-.45-.17-.94-.29-2.02.09-2.88-.48l-.76-2.21c.1-.53,2.25-1.46,2.22-2.5-.02-.45-2.54-3.62-2.89-3.53l-2.77,1.71-2.18-1.68,10.43-11.89c.44-.33.91.21,1.55-.08.25-.11,2.84-2.77,3.2-3.19.73-.84,1.77-1.77,1.5-2.95-.25-1.14-4.47-5.41-5.67-4.95l-5.02,4.69c-.55.57.16,1.41-.09,1.96-.14.31-2.9,2.93-3.41,3.41-2.56,2.46-6.76,6.45-9.63,8.32-.47.3-1.4.88-1.92.98-.3.05-.41-.23-.63-.33-.04.67.53.78-.26,1.29-.68.44-1.92.94-2.42.06l.41-.1.24-1.63c.83-.23,1.35.1,2.03.38.06-.99,1.53-.65.79-1.93-.34-.6-1.04-.62-.66-1.52l1.53-.56.17-2.15c-.22-.35-2.11.15-1.59-1.34.17-.49,1.19-.28.64-1.53-.87-1.96-2.14-.46-2.73-.76-.83-.43-.06-1.3-.3-1.76l-1.35-.6-.42-.18c.06-.16.12-.29.2-.37.66-.06,1.82.76,2.35.34.4-2.46,1.82-2.88,2.85-.45l2.65-1.03c.31-.44-1.37-1.91.11-2.89.82-.55,1.62,1.07,2.47,0,.18-.23.91-1.77.88-1.96-2.07-1.14-2.26-2.69.45-2.79l-.22-2.85c-2.19.34-3.29-1.14-1.45-2.63.11-.57-1.49-1.87-1.92-2.3-1.15.52-1.23,1.73-2.66.79l-.15-2.06-2.84-.41c-.31.82-.17,1.79-1.26,1.96-1.1.17-1.14-1.29-1.98-1.37-.58.07-2.15.72-2.15,1.34,0,.6.83,1.03.21,2.08-.63,1.07-1.8-.25-2.29-.02-.38.44-1.45,2.12-1.14,2.58.32.49,1.45.24,1.37,1.55-.05,1.02-1.3.97-2.08,1.14.36.58.1,2.64.75,2.86.72.24,2.07-.46,2.15.97.04.85-1.3,1.09-.89,2.08.11.26,1.22,1.43,1.45,1.49.62.17,1.03-1.03,2.03-1.03,2.3.03.52,4.83-.74,4.25-.89-1.57-1.31-1.87-3-.94l.32,1.56c-.9.91-1.83-.45-2.88-.43l-4.51-3.85,2.02-9.54c-.14-1.36-2.56-2.02-3.7-2.29-.94-.22-2.47-.66-3.19.12l-3.1,7.6c-4.12-1.53-8.81-2.48-13.21-2.86-1.2-.11-5.84-.02-6.5-.32-.17-.08-2.41-2.15-2.44-2.3-.18-.77.96-1.64-.17-2.52-.19-.15-.66-.2-.69-.24-.13-.17.96-3.24.29-4.1-.75-.96-8-1.95-8.88-1.27-.72.55-.46,2.95-.74,3.81-.18.58-1.02.15-1.23.46l-.37,2.47c-2.66,1.53-5.56,2.69-7.96,4.63-.43,0-2.96-6.96-3.43-7.92-1-1.98-1.65-1.67-3.7-1.27-5.32,1.03-16.9,6.21-21.02,9.72-.6.52-1.51,1.21-1.12,2.11l4.4,11.09c-3.23,4.5-5.64,9.5-7.43,14.74l-6.49-5.97c.29-1.71-.19-3.5-1.03-4.98l-16.75-16.48c-2.38-1.22-6.1,2.77-7.38,4.54-.63.86-1.98,2.95-1.92,3.97.07,1.18,3.31,3.45,4.27,4.36,4.43,4.23,8.75,8.59,13.3,12.7,1.69.71,3.5.86,5.26.72l6.19,5.78c-1.43,1.22-3.75,4.05-3.71,5.99.02,1.49,3.04,3.95,3.68,5.4l-1.41,6.04-8.87-3c-3.58-1.48-7.84-5.47-9.27-9.1-.36-.91.21-3.33-.16-4.78-.68-2.71-4.28-4.51-6.73-3.1-3.41,1.96-6.72,10.24-5.31,13.91.79,2.07,4.17,2.88,6.14,2.19.67-.23,2.4-1.65,2.72-1.46,2.38,3.98,5.95,7.11,10.28,8.81,3.05,1.19,6.55,1.49,9.27,3.43l-2.11,10.64c-6.38,3.3-20.6,11.48-20.94,19.51-.31,7.19,10.14,9.96,15.68,10.82l-1.89,2.75c-4.86,9.01-.14,23.31,7.57,29.43,4.01,3.18,9.23,5.03,14.34,3.81.41.29.14,4.86.21,5.79,1.03,14.99,14.58,25.26,27.86,29.41.06.5,0,.33-.29.44-1.61.58-6.52,2-7.45,3.28-.61.83-.56,2.89-.79,3.96-.72,3.39-1.83,6.05-3.41,9.11.12,1.28,5.65,4.73,6.91,5.46,6.69,3.88,14.5,6.38,22.25,7.06,9.32.8,21.55-3.12,29.38-8.17.83-.53,4.58-3.17,4.87-3.81.35-.75-1.03-2.71-1.38-3.57-1.33-3.24-1.45-5.7-2.33-8.81-.72-2.55-5.34-3.85-7.65-4.52-.3-.1-.37.11-.3-.42,11.59-3.94,23.06-11.62,26.39-24.06.97-3.62,1.14-7.29,1.26-11.02,11.98,2.2,21.05-8.64,23.22-19.39,1.99-9.91-1.45-21.68-13.73-19.19l.64-3.27c5.08-.91,10.63-2.22,14-6.42-2.05.11-4.06-.12-6.08-.42-.28-.04-.64-.08-.31-.41,9.01-3.27,28.68-12.03,15.57-23.31ZM239.85,157.99c.51.16,1.26-.27,1.49-.75l-.18-1.5c2.13-.77,1.35,1.96,3.59,1.21.04-.02.08-.04.11-.07.13-.11.22-.32.3-.57.06-.16.1-.33.14-.51.02-.09.05-.17.07-.25.26.3,1.26.46,1.34.74.13.47-.53.85.11,1.53,1.16,1.22,1.89-.05,2.25.02,1.61,1.01.12,1.34-.04,2.19-.34,1.89,1.75,1.51,1.84,1.83.43,1.99-1.84.72-2.04,2.72-.08.83,1.22,1.09.91,1.7-.47.91-1.83-.14-2.66.4-.49.31-.1,1.43-.65,1.26l-.53-1.31c6.37-3.9.06-12.3-5.45-7.36l-1.34-1.76c.53-.42.4.4.75.5Z"/><path class="cls-1" d="M248.83,164.56c-.08.83,1.22,1.09.91,1.7-.47.91-1.83-.14-2.66.4-.49.31-.1,1.43-.65,1.26l-.53-1.31c6.37-3.9.06-12.3-5.45-7.36l-1.34-1.76c.53-.42.4.4.75.5.51.16,1.26-.27,1.49-.75l-.18-1.5c2.13-.77,1.35,1.96,3.59,1.21.04-.02.08-.04.11-.07.13-.11.22-.32.3-.57.06-.16.1-.33.14-.51.02-.09.05-.17.07-.25.26.3,1.26.46,1.34.74.13.47-.53.85.11,1.53,1.16,1.22,1.89-.05,2.25.02,1.61,1.01.12,1.34-.04,2.19-.34,1.89,1.75,1.51,1.84,1.83.43,1.99-1.84.72-2.04,2.72Z"/><path class="cls-1" d="M229.61,242.19c.11-.62-.16-.33-.48-.43-2.3-.77-4.81-1.6-6.74-3.07,6.85-.44,13.79,1.55,18.88,6.19l-.69-2.62-2.1-3.78,8.47.5c.38.27.14,3.21.2,3.93.37,5.09,1.42,10.15,2.66,15.08l-1.02,13.8c-.35,11.17,1.57,20.3-6.39,29.51-6.79,7.85-14.08,9.59-22.97,13.76-6.87,3.22-10.91,6.63-19.16,5.07-4.45-.84-7.6-3.11-11.58-4.93-6.77-3.09-13.36-5.24-19.22-10.08-12.99-10.73-10.05-23.04-10.63-38.07-.19-5.06-.33-9.38-.2-14.43.06-2.19.04-4.44-.13-6.62,6.58-5.94,8.86-14.96,9.02-23.59l14.7-4.11c3.89,5.51,8.69,10.39,14.3,14.16,9.65,6.49,21.33,10.38,33.08,9.74ZM187.7,238.88c.17-.95.78-5.4.23-5.87-.27-.23-2.29-.48-2.79-.51-8.54-.6-17.19,3.26-18.67,12.38,5.7-5.26,13.64-6.97,21.23-6ZM189.17,261.49c.13-1.27-.09-2.73,0-4.02l.39,1.57c.4,3.61.32,7.07-.59,10.6l1.06-2.76c1.15-4.64,1.17-9.66-.55-14.16-4.06-10.63-15.19-11.32-19.3-.32-1.86,4.98-1.78,10.44-.2,15.49.12.37.26,1.18.62,1.34-1.32-6.25-1.04-14.25,3.22-19.37,2.93-3.52,7.55-4.2,10.96-.89.21.2.58.2.47.66-6.52-3.14-10.16,4.1-10.52,9.6-.22,3.36.7,7.15,2.47,10-2.52.22-5.37.4-7.77,1.21-.27.09-.63.06-.69.44,6.7-.96,13.58-.26,20.22.83,0-.31-.58-.39-.84-.5-.74-.33-1.4-.5-2.16-.73-.14-.04-.46.06-.3-.31.1-.22.75-.86.99-1.28,1.15-2.04,2.28-5.06,2.52-7.39ZM218.47,257.88v3.4c0,.6.48,2.56.68,3.24.57,2.05,1.77,4.14,3.04,5.84l-3.3,1.34c6.58-1.15,13.36-1.71,20.01-.83l-2.64-.97-5.61-.68c2.62-4.49,3.11-10.38,1.07-15.2-1.4-3.31-4.39-6.23-8.23-4.85-.49.18-.79.64-1.3.66,6.08-6.27,12.17-2.05,14.45,5.05,1.43,4.46,1.49,9.11.82,13.72l1.21-4.46c1.53-7.55-2.25-21.72-12.4-19.42-8.42,1.91-10.96,14.82-8.65,21.95l1.06,2.96c-.68-3.38-1.06-6.76-.61-10.21l.41-1.55ZM199.69,273.77c1.81-6.05,1.56-12.57-.31-18.57-.26,0,.5,4.79.52,5.26.18,3.15-.12,6.75-.69,9.85-.53,2.86-1.91,5.75-1.59,8.62l1.06-3.17c1.95-1.75,5.39-2.08,7.86-1.52.76.17,1.48.66,2.22.67-2.61-1.83-6.09-2.28-9.08-1.14ZM169.67,271.91c-.52.16-.39,1.36.2,1.23.64-.13.73-1.51-.2-1.23ZM238.28,272.12l-.79.03c-.69,1.36,1.06,1.38.79-.03ZM230.23,275.21c.15.2,1.45.43,1.21-.48-.28-1.04-1.58-.04-1.21.48ZM235.29,274.18c-.6.14-.61,1.13-.01,1.18.97.09.62-1.32.01-1.18ZM165.21,275.4c.68-1.09-1.31-1.3-1.01-.09.11.43.92.22,1.01.09ZM171.84,274.39c-.65.51.76,1.58,1.02.71.2-.68-.78-.91-1.02-.71ZM176.39,274.41c-.15.09-.35.86.1,1,1.43.44.93-1.64-.1-1ZM180.81,274.59c-.41.12-.41.91,0,1.03.95.27.95-1.29,0-1.03ZM227.13,275.62c.24-1.14-.98-1.54-1.03-.31l1.03.31ZM242.4,275.42c1.38.14,1.37-.97,0-.82v.82ZM168.03,274.81c-.71.22,0,1.18.6,1.02s.38-1.32-.6-1.02ZM239,274.8c-.41.12-.41.91,0,1.03.95.27.95-1.29,0-1.03ZM211.66,275.83c.77,1.83,1.74,5.22.09,6.79-1.13,1.07-1.51-.84-3.5.22-2.08,1.11-2.11,2.38-5.16,2.08-2.11-.21-2.98-2.38-4.58-2.66-1.19-.2-1.68,1.68-2.85-.44s-.16-4.1.73-5.99c-2.15,1.7-3.92,5.02-2.06,7.53,1.53,2.06,2.83.9,4.55,1.43.53.16,1.06.96,1.57,1.32,2.33,1.63,4.59,1.65,6.94,0,.51-.36,1.04-1.15,1.57-1.32,1.82-.56,3.13.76,4.59-1.6,1.54-2.49.06-5.57-1.89-7.36ZM166.39,276.88c-.79.13-.49,1.32.15,1.21.79-.13.49-1.32-.15-1.21ZM174.85,276.88c-.47.08-.8,1.07-.23,1.22,1.02.27,1.11-1.37.23-1.22ZM232.43,276.89c-.88.24-.46,1.2.17,1.16.58-.04.79-1.42-.17-1.16ZM241.58,276.86c-.77-.52-1.52,1.77.12.83l-.12-.83ZM179.05,277.07c-.58-.41-1.25.82-.51,1.03.82.23.75-.86.51-1.03ZM229.4,277.07c-.6-.45-1.39.6-.82,1.02.44.33,1.33-.64.82-1.02ZM170.39,277.48l.54,1.02.68-.53-.53-.65-.69.16ZM236.22,278.3c.32.21,1.22-.08,1.02-.72-.09-.29-.85-.43-1.02-.31-.12.08-.12.94,0,1.02ZM233.54,279.76c-.15.19.03,1.14.51,1.02,1.08-.27.03-1.7-.51-1.02ZM173.07,280.78l1.03-.31c-.05-1.23-1.27-.83-1.03.31ZM181.32,285.32c-3.79-1.03-8.3,1.79-7.84,5.98l1.03-1.54c1.19-1.33,2.53-2.47,4.11-3.32l2.69-1.12ZM234.35,291.31c.38-4.44-4.04-7.06-8.04-5.98l3.1,1.33c1.35.82,2.69,1.67,3.71,2.9.47.56.67,1.32,1.24,1.75ZM179.06,289.24c-.08.37.19.51.41.73,4.88,4.91,12.33,8.91,19.16,10.15,11.28,2.04,22.84-2.61,30.37-10.97l-5.85,3.85c-7.09,3.9-15,5.82-23.12,4.89-7.63-.88-14.87-4.09-20.97-8.64ZM212.69,303.48c-5.56,2.07-11.97,2.01-17.54,0,3.88,4.59,11.87,4.55,16.49,1.12l1.05-1.12Z"/><path class="cls-1" d="M222.59,182.37c-.09.19-.16.4-.11.61.29,1.2,1.02,2.69,1.41,3.97.22.73,1.18,4.86,1.39,5.02.17.14.64-.2.83.19-1.42.37-2.37,2.04-1.44,3.4-15.03.28-30.14,2.13-44.78,5.47-12.36,2.82-24.66,6.9-36.11,12.28l1.44-8.25c.19-.22,1.56,1.14,1.6,1.36.18.97-.91,2.68.93,3.43,3.27,1.33,8.21-5.18,5.73-7.79-.87-.91-1.59-.24-2.08-.42-.21-.08-1.3-1.34-1.64-1.64-.3-.27-1.91-1.2-1.65-1.54.75-.19,1.5-.48,2.2-.79,21.43-9.61,44.04-14.78,67.64-15.31,1.46-.03,3.15-.55,4.64.01ZM213.66,188.18c-2.12.48-2.05,3.84.39,4.07,3.05.29,2.83-4.81-.39-4.07ZM179.62,193.13c-1.97.44-1.99,3.73.22,4.04,3.15.45,3.11-4.79-.22-4.04ZM158.57,199.52c-2.23.45-2.17,4.49.76,4.08s1.89-4.62-.76-4.08Z"/><path class="cls-1" d="M179.26,179.47l.5.42,14.56,2.47-1.92.34-13.34-1.78.78.56,10.16,1.7-13.2,2.89c-.15-.18.23-2.84.34-3.27.2-.8,1.01-1.87,1.05-2.22.1-.86-.5-2.38-.3-3.84.17-1.22,1.07-2.21,1.18-2.96.14-.96-.43-1.74-.39-2.64.07-1.64,1.31-3.29,1.43-4.17.21-1.55-.86-2.74.1-5.25.18-.48.83-1.08.84-1.55.02-.51-.55-1.27-.54-2.05.02-1.38.85-5.6,1.35-6.92,1.62-4.3,5.62-5.38,9.16-7.55.82-.5,2-1.75,2.79-1.75s7.61,1.13,7.94,1.37c2.3,2.95,5.83,4.79,7.34,8.35,1.38,3.25,1.05,7.56.22,10.94-.14.58-.7,1.29-.73,1.75-.03.52.39,1.16.42,1.84.02.53-.14,1.92-.27,2.43-.22.86-1.07,1.64-1.15,2.16-.08.49.48,2.23.35,3.44-.15,1.46-1.31,2.78-1.37,3.36-.09.8,1.39,2.76-.15,3.38-2.79-.1-6.18,1.08-8.87,1.04-1.31-.02-3.35-.63-4.78-.81-4.5-.56-8.99-1.12-13.49-1.68ZM208.97,156.15l-26.41-3.71c.06.36.41.36.69.44.99.3,2.53.54,3.6.73,5.46.99,11.57,1.89,17.09,2.52,1.31.15,3.03.38,4.31.4.18,0,.76-.07.71-.37ZM207.94,163.16c-.09-.38-.51-.42-.82-.52-1.1-.35-2.85-.5-4.06-.69-6.87-1.07-13.82-1.74-20.71-2.71.63.69,2.11.8,3.05.97,7.43,1.35,15.04,2.08,22.53,2.95ZM207.32,164.2l-25.38-3.51c-.1.59.12.34.48.44,6.96,1.89,15.77,1.79,22.93,3.28l1.97-.21ZM206.91,169.56l-25.58-3.51c-.05.29.36.28.57.35,6.66,2.09,16.08,1.82,23.05,3.36l1.96-.2ZM206.5,171.01l-25.58-3.51c-.05.3.36.29.58.35.75.21,1.67.31,2.45.44,6.75,1.1,14.67,2.44,21.43,2.92.25.02,1.13.17,1.13-.2ZM206.29,176.37l-26-3.72c-.1.56.1.36.45.47.42.14.93.2,1.37.29,5.9,1.18,17.8,3.4,23.46,3.16.25-.01.77.16.72-.2ZM205.67,177.82l-25.58-3.51c.25.44,1.29.5,1.78.59,7.26,1.24,15.57,2.54,22.88,3.12.23.02.96.16.92-.2Z"/><path class="cls-1" d="M156.33,277.87c-5.9,1.95-11.66-1.22-15.44-5.65-4.3-5.04-6.74-13.16-5.49-19.71,1.66-8.69,10.16-10.11,15.8-3.81,3.75,4.18,4.09,7.39,4.53,12.8.45,5.44.48,10.93.59,16.38ZM147.28,267.58v-3.2c0-.16.4-1.09.51-1.35,1.8-4.22,5.02-.52,5.42,2.43.64,4.65-2.11,9.3-6.55,5-.36.38,1.84,2,2.3,2.13,2.58.75,4.42-.73,5.37-3.02,2.47-6.01-2.21-17.39-8.39-19.75-5.75-2.19-8.04,2.56-8.17,7.54l.43,1.96c.02-3.61,1.29-8.62,5.83-8,.24.03,1.12.26,1.18.57-3.6,1.28-4.26,5.29-4.12,8.67l1.54-4.13c.84-1.63,2.56-3.18,4.53-2.87,1.59.25,4.16,4.58,4.45,6.18-5.03-2.24-6.81,4.65-4.33,7.84Z"/><path class="cls-1" d="M251.71,278.08c.02-2.22-.1-4.47-.03-6.69.12-4.04.48-14.75,1.89-18.13,4.43-10.67,18.25-12.13,19.16,1.42.75,11.19-8.17,26.28-21.02,23.4ZM269.85,259.12v-4.02c0-.33-.55-1.95-.73-2.37-1.22-2.97-3.93-4.12-6.97-3.05-6.42,2.27-10.87,13.55-8.71,19.76.91,2.61,3.6,4.51,6.19,2.69.4-.28,1.63-1.46,1.44-1.86-4.74,5.22-7.71-1.28-6.19-5.98.8-2.48,3.7-4.8,5.09-1.39.72,1.77.61,3.25.38,5.09l1.14-2.47c.68-3.7-1.3-7.82-5.48-5.58,1.2-2.91,3.79-8.69,7.62-5.45,1.71,1.44,2.06,3.28,2.55,5.29.05.21.06.62.35.57v-3.2c0-.19-.64-1.99-.79-2.31-.75-1.64-1.73-2.18-3.13-3.16,2.97-1.11,4.95-.19,6.08,2.68l1.14,4.74Z"/><path class="cls-1" d="M179.05,159.24l-.92-.41c-.72.9-.4,2.3.92,1.96-.59.87-1.02,2.9-.99,3.93.02.67.47,1.28.37,2.04-.15,1.17-1.22,2.65-1.24,4.57-.01.74.63,1.76.53,2.18-.12.51-1.01,1.36-1.28,2.62-.44,1.97.23,2.75.14,4.06-.04.5-.48.8-.62,1.24-.51,1.64-.69,3.34-.62,5.06l-4.19,1.06-11.28-28.49c7.24-1.36,14.11-4.33,20.43-8.05-.68,2.69-1.28,5.47-1.24,8.25Z"/><path class="cls-1" d="M230,180.06l-17.52.22,4.96-17.33,15.8,4.54-3.23,12.57ZM222.33,167.74c-1.97.43-1.25,3.61.73,3.23,2.1-.4,1.75-3.77-.73-3.23ZM227.5,172.9c-2.3.29-1.7,4.01.93,3.22,1.63-.49,1.01-3.47-.93-3.22ZM222.95,173.73c-1.74.39-1.33,3.39.73,3.02,1.81-.32,1.51-3.53-.73-3.02Z"/><path class="cls-1" d="M137.21,159.9c-.58.97,1.39,2.65,2.12,1.2l2.99,2.99c-1.61.94-1.41,2.34.22,3.11-.58,1.89-4.09,5.24-6.08,5.04l-16.42-15.16c1.96-1.26,3.69-2.71,5.26-4.43l2.06-3.3,10.42,10.21c0,.16-.5.23-.57.35Z"/><path class="cls-1" d="M191.85,320.4c6.58,5.85,16.48,7.89,24.55,3.92l.16,3.88c-5.1,2.98-10.4,6.52-12.34,12.42-.9-1.14-1.45-2.54-2.31-3.78-2.59-3.75-6.27-5.96-10.08-8.3l-.17-.23c-.03-.18.18-.33.18-.39v-7.53Z"/><path class="cls-1" d="M188.96,319.78c-.84-.63-1.88.23-2.59.19-.29-.02-.51-.33-.83-.38-1.27-.23-2.35.48-2.58,1.74l.41.2c-.54,1.1.04,2.21.6,3.15,2.13,3.62,7.87,6.47,11.25,8.97s5.38,5.24,6.95,9.04c-.55-.06-1.23.1-1.75,0-.75-.14-1.45-2.59-1.85-3.31-3.43-6.33-8.12-7.48-10.76.22-4.45-1.68-8.61-4.04-12.44-6.85.58-1.87,1.57-3.6,2.14-5.54s.8-3.95,1.19-5.93c1.24-.59,2.46-1.24,3.76-1.71.97-.35,5.23-1.61,5.94-1.41.68.19.59,1.06.56,1.62ZM190.2,332.57l-5.99-5.46-2.06-2.79c.72,3.89,4.7,6.63,8.05,8.25Z"/><path class="cls-1" d="M175.13,142.12l.24.8,1,.03.42,1.34-1.24.1c.35,1.18.87,3.07,2.07,3.61.48.21,1.19-.08,1.33.73.05.29-.28.44-.3.73s.27.67.12.92c-.19.31-4.7,2.53-5.41,2.86-4.43,2.05-9.13,3.65-13.9,4.69l-3.21-8.38c4.43-.96,8.73-2.61,12.84-4.5.79-.36,5.78-3.13,6.05-2.93Z"/><path class="cls-1" d="M267.71,157.46c.58.6,1.8,1.75.28,1.99v-1.24c-4.87,5.08-9.34,10.7-14.56,15.47l-.07.48.59.66c-3.1,2.64-6.14,4.36-10.37,3.35-1.11-.26-1.53-1.03-1.59-2.14-.11-2.14,3.19-2.75,4.84-2.55.48.06,1.18.21,1.13.83l-1.03.31c.21.76.97.74,1.18.98.33.39.08,1.26.16,1.4.64,1.1,3.01-1.22,2.58-1.66l-1.24.41c.12-2.42-1.5-2.96-3.51-3.4,7.32-4.57,13.58-10.58,19.71-16.61.49.67,1.37,1.18,1.89,1.72Z"/><path class="cls-1" d="M160.23,183.02c.12.22,0,.64.15.98.61,1.39,2.47.68,2.17-.82,1.09.21.79,1.12.51,1.86-.25.65-.77,1.86-1.34,2.17l1.86,2.78-11.71,4.72-.57-.18-5.26-6.71c4.81-.76,8.53-3.59,12.11-6.68.4-.06,1.09,1.08,1.4,1.43.18.21.63.35.69.44Z"/><path class="cls-1" d="M146.45,200.1l-.41-.93c-.03-.16.2-.13.3-.1.6.2,4.23,3.1,4.44,3.61l-.41.61c.4.43.63.89,1.24.52.21,1.61-1.1,3.04-2.58,3.44-1.42-1.81-2.89-3.34-4.91-4.51-3.28-1.9-7.04-2.29-10.45-3.79-3.99-1.75-6.71-4.8-9.22-8.25.73-1.41,1.89-2.63,2.2-4.23.11-.08.39.31.5.43.27.33,2.44,3.5,2.51,3.71.15.46-.34.56-.23.81.58.44,1.21,1.47,1.93,1.62,1.33.27,1.8.44,3.08,1.24,1.34.83.79,1.07,1.09,1.37.78.8,5.82,2.13,7.23,2.69,1.28.51,2.46,1.21,3.72,1.75Z"/><path class="cls-1" d="M227.53,330.32c-.16-.12-.65.18-.91.16-.72-.05-1.43-.41-2.17-.37.96,1.18,1.19,5.19,1.83,6.07.2.27.7-.08.64.32l-6.8,3.1c-.49-1.54-1.17-3.6-2.48-4.65-4.52-3.66-8.51,4.36-9.73,7.72l-1.83.02c1.17-3.73,3.74-6.85,6.83-9.16,1.58-1.19,3.37-2.13,5-3.25.97-.67,3.03-2.59,3.86-2.96.33-.15.82.64,1.14.12.2-.32.02-.9.14-1.31.24-.84,2.12-2.24,1.82-3.65l2.17,1.44c.5,1.56.08,3.93,1.33,5.07.47.43,1.14.45,1.36,1.11.19.56.28,1.32-.43,1.46-1.71.33-1.46-1.01-1.77-1.23ZM217.64,332.78c3.31-1.83,7.55-4.46,8.25-8.46-.6.56-.89,1.31-1.44,1.97-1.85,2.18-4.36,3.72-6.3,5.66-.24.24-.58.44-.51.83Z"/><path class="cls-1" d="M230.64,160.69l-7.22-1.86,6.29-17.14c.77-.18,4.68.96,4.82,1.58l-3.89,17.42ZM231.05,143.78c-.89-.38-1.74-.32-1.34.82.77.71,1.41.15,1.34-.82ZM226.92,156.35l3.11-9.8-.35-.5-.72.1-3.04,9.12.06.67.93.41Z"/><path class="cls-1" d="M250.43,137.39c.15.67-.28,1.53.35,2.02,1.39,1.08,1.89.57,3.04-.37l1.32,1.33c-1.91,1.44-.58,4.04,1.7,3.19,1.05,2.88-1.44,1.59-1.82,2.83-.4,1.34.17,1.99,1.18,2.68l-.6,1.43-.27.06c-1.88-1.49-3.99.82-2.43,2.61l-1.62.84-.32-.12c-.28-.35-.43-1.27-.86-1.42-1.82-.61-2.26.79-2.34,2.24l-1.63-.43-.15-2.07c-.63-.17-1.35-.7-2.03-.6-.61.09-.78.94-1.45.84-1.31-.75-1.49-1.57,0-2.28l-.77-2.03-1.69-.06-.45-1.63c.36-.43,1.11-.31,1.48-.6.4-.32.43-1.9.19-2.29-.21-.35-1.14-.32-1.14-.92l.83-1.47c.46-.24,1.36,1.02,2.59-.28.87-.93.21-1.37-.09-2.36l1.5-.73c1.1,2.05,3.52,1.89,3.67-.61l1.81.2ZM246.89,140.1c-1.9.3-3.97,2.45-4.35,4.31-.97,4.66,3.48,8.54,7.91,6.68,5.96-2.51,4.01-12.2-3.56-10.99Z"/><path class="cls-1" d="M240.7,179.72c7.83-1.59,11.45,13.76,3.05,12.95-6.26-.6-8.84-11.78-3.05-12.95ZM241.94,184.06c-4.7.26-1.19,9.14,2.72,6.23,2.42-1.8.21-6.39-2.72-6.23Z"/><path class="cls-1" d="M268.2,184.21c-.94.32-2.97-.12-3.47.76-.11.19-.8,2.63-.77,2.77l2.13,2.35-1.82,2.49c-.45.28-2.38-1.4-3.03-1.53-.39-.03-2.03,1.86-2.55,1.53-.2-.35-.71-.97-.52-1.35.18-.37,2.03-1.55,2.58-2.18,4.34-4.91,2.41-12.97-3.71-15.27l1.16-1.53,3.07,1.76,2.99-1.48,1.65,2.5-2.07,2.48,1.02,2.85,3.32.34v3.51Z"/><path class="cls-1" d="M243.23,195.36c-.05.26-.38.46-.61.52-.79.23-6.4-.16-7.55-.31-2.23-.3-5.72-6.17-5.64-8.38.04-1.11,4.63-4.51,5.75-5.25-1.88,5.54,2.05,12.75,8.05,13.41Z"/><path class="cls-1" d="M160.04,174.55c.48.78-.77,3.03-1.24,3.75-2.28,3.42-8.43,8.06-12.65,8.2s.22-5.09,1.65-6.19l.94.73c-.4,1.18-1.84,1.76-1.66,3.18.45.65,3.88-1.19,4.52-1.56,1.57-.92,3.51-2.4,4.66-3.8,3.05-3.67.03-2.9-2.48-1.5l-.92-.89c-.11-.47,2.51-1.51,3.03-1.69.87-.3,2.12-.78,3.03-.66.17.02,1.08.38,1.12.44Z"/><path class="cls-1" d="M257.47,190.2l-1.03-2.47c5.19-3.28,2.77-10.68-3.3-10.74l3-2.48c7.2,1.97,8.13,12.58,1.34,15.69Z"/><path class="cls-1" d="M232.5,166.05l-13.82-3.82c.96-.47,2.97-2.36,3.87-2.55,1.47-.3,6.48,1.89,8.22,2.22l1.74,4.14Z"/><polygon class="cls-1" points="153.26 179.87 150.58 181.42 141.3 172.97 143.84 170.81 153.26 179.87"/><path class="cls-1" d="M178.02,138.4c-2.41,2.25-5.56,3.79-8.53,5.19-4.25,2.01-8.91,3.9-13.55,4.71,3.25-2.66,7.34-4.75,11.21-6.43,2.57-1.12,5.74-2.41,8.44-3.11.81-.21,1.56-.47,2.43-.36ZM169.97,141.71c-.4-.37-6.53,2.62-7.2,3.21-.24.21-.51.32-.43.7,1.99-.57,4.2-1.3,5.99-2.37.21-.12,2.04-1.19,1.65-1.55Z"/><path class="cls-1" d="M254.68,178.02c4.2.66,5.2,7.18,1.24,8.88-1.58-2.91-3.54-5.67-4.44-8.88.99.11,2.25-.15,3.2,0Z"/><path class="cls-1" d="M256.64,227.13c.05.35-.49.22-.72.2-2.97-.22-6.89-1.27-9.71-2.26-6.6-2.31-12.92-6.43-17.85-11.35l6.62,4.42c6.7,3.95,13.96,7.5,21.65,9Z"/><path class="cls-1" d="M270.26,149.96c-.12.94,3.3,3.49,3.3,3.82l-4.02,4.02-3.81-3.81,4.02-3.82.52-.2ZM270.6,152.27c-2.08.18-2.09,3.52.34,2.8,1.58-.47.95-2.91-.34-2.8Z"/><path class="cls-1" d="M119.01,192.26c.09-.34.6-.35.93-.62,3.37-2.74,4.81-7.89,4.65-12.08,0-.25-.48-1.57.09-1.33,3.74,3.88-.09,14.1-5.67,14.03Z"/><path class="cls-1" d="M123.13,178.64c-4.32,1.96-6.65,8.34-5.36,12.79-2.46.26-1.89-3.42-1.63-5.03.38-2.31,1.87-5.54,3.49-7.24.92-.97,2.9-2.59,3.5-.52Z"/><path class="cls-1" d="M258.7,234.36l-1.76.21c-6.85-.43-13.4-2.1-19.63-4.92-1.53-.69-3.28-1.53-4.61-2.51,8.36,3.3,17.09,5.86,26,7.22Z"/><path class="cls-1" d="M218.67,230.23c.05.38-.43.17-.63.11-5.49-1.57-12.07-5.67-15.98-9.81l-3.4-4.54c5.9,5.61,12.45,11.04,20.01,14.24Z"/><path class="cls-1" d="M244.93,165.8l-.24-.85c2.68-1.23,2.14-5.17-.76-5.28-1.47-.06-2.59,2.19-2.96-.08,4.85-4.13,10.28,3.5,4.42,6.38l-.46-.18Z"/><path class="cls-1" d="M208.36,232.7c-5.29-2.17-9.9-5.92-13.62-10.21v-.31s.58-.03.58-.03l.14-.59c3.94,4.12,8.23,7.86,12.9,11.14Z"/><path class="cls-1" d="M119.01,156.15c-.54-.62,1.68-3.76,2.16-4.34,1.3-1.56,3.01-3.02,4.96-3.7.19.15.29.25.31.5.22,2.35-4.87,7.48-7.43,7.54ZM124.09,150.19c-.64.06-4.28,3.11-2.92,4.1.91-.34,3.43-2.72,3.41-3.62,0-.27-.19-.54-.49-.48Z"/><path class="cls-1" d="M267.16,220.53c-.14.37-1.22.23-1.56.21-6.87-.4-13.57-2.75-18.67-7.43l5.91,3.06c4.55,2.03,9.35,3.54,14.31,4.16Z"/><path class="cls-1" d="M238.28,179.88c-4.43,4.45-.5,12.48,5.07,13.81h2.77c-6.3,2.21-11.07-4.35-10.3-10.18.17-1.26,1.18-3.2,2.46-3.63Z"/><path class="cls-1" d="M155.12,241.37l1.86-15.27c.62,5.24.13,10.37-1.86,15.27Z"/><path class="cls-1" d="M201.34,137.17l-.41,2.89c-.39.02-.42.1-.42-.31,0-.8.39-1.57.42-2.37-.74.21-.59,2.64-1.13,2.68-.42.03-.14-.61-.13-.74.05-.66.19-1.29.23-1.94-.54-.09-.36.09-.47.45-.19.65-.21,1.37-.36,2.03-.29.3-.38-.03-.42-.31-.1-.8.33-1.57.21-2.37-.98.48.24,2.39-1.03,2.48l.2-2.68c-.29-.05-.3.37-.35.57-.16.64-.23,1.44-.27,2.11h-.62s.2-2.68.2-2.68c-.9.5.19,2.41-1.03,2.47l.2-2.68c-.63.36-.37,1.32-.56,2.03-.1.37.06.53-.47.45l.2-2.89,5.99.83Z"/><path class="cls-1" d="M250.86,194.94c-.93.2-1.32-.8-2.13-1-.42.39-1.57.84-1.76,1.34-.33.82,1.01.42,1.21,1.1l-3.51-.21,2.66-1.98c1.56-1.79,2.47-3.9,2.71-6.27.92.45.15,2.02.25,2.56.05.28.57.54.57.64,0,.08-.57.49-.7.74-.62,1.15-.15,2.24.71,3.08Z"/><path class="cls-1" d="M233.12,195.56c-.91-.11-2.17.29-2.91-.29-.56-.45-2.33-4.5-2-5.03l.78-.36c.94,2.27,2.56,3.86,4.12,5.68Z"/><path class="cls-1" d="M245.43,163.71c-.42.43-.95.66-1.49.29-.15-.1-1.67-2.29-1.71-2.43-.42-1.44,3.02-1.91,3.59-.07.23.74.17,1.64-.39,2.21Z"/><path class="cls-1" d="M234.97,225.28c.03.41-.62.15-.84.11-2.2-.42-4.49-1.39-6.65-2.02l-5.31-2.63c.45-.14.86.34,1.17.37.38.03.59-.41,1.1-.29,1.65.4,5.44,2.73,7.43,3.52.97.39,2.07.73,3.09.93Z"/><path class="cls-1" d="M151.82,243.64l-1.18-2.64c-.9-2.69-1.26-5.34-1.11-8.18l.48-.11.15-.83.65,6.26,1,5.5Z"/><path class="cls-1" d="M159.66,236.62l2.88-10.32c-.07.42.37.78.39,1.12.06.96-.51,3.53-.81,4.54-.47,1.55-1.39,3.45-2.46,4.66Z"/><path class="cls-1" d="M218.53,217.79c.22.13.57.04.79.16l-.02.52c1.1-.38,1.8.92,2.89,1.04-.36.5-.65.19-.51,1.03-3.77-2.18-7.23-4.88-10.42-7.84l6.77,4.48c.26.08.38.53.52.61Z"/><path class="cls-1" d="M147.49,207.53c1.03.97,1.64.9,2.83.25,1.88-1.03,3.26-3.52,1.71-5.41,2.32.53.98,3.37,0,4.64-1.13,1.44-4.58,3.93-4.53.52Z"/><path class="cls-1" d="M256.85,222.8c.04.37-.7.22-.92.2-1.68-.13-3.49-.63-5.11-1.08l-2.42-1.19,8.46,2.06Z"/><path class="cls-1" d="M229.2,195.56c-.29,0-.61.05-.89-.04-.86-.27-1.73-4.21-1.17-5.12l2.06,5.16Z"/><path class="cls-1" d="M202.37,141.5c.01.37.1.44-.31.41-1.06-.07-2.38-.31-3.48-.44-1.49-.19-3.26-.38-4.72-.65-.34-.06-.92-.03-.78-.56l9.29,1.24Z"/><path class="cls-1" d="M142.2,170.1c.1.1.35.07.33.18-.94,1.46-2.49,2.76-4.33,2.58,1.33-.98,2.76-1.79,3.82-3.09.15-.06.06.2.19.33Z"/><path class="cls-1" d="M252.67,192.31c.88.88-.16,2.55-1.25,1.83-1.22-.81.02-3.06,1.25-1.83Z"/><path class="cls-1" d="M123.34,179.67v2.06c-1.22-.66-1.84.03-2.89.62-.27-.28,2.09-3.06,2.89-2.68Z"/><path class="cls-1" d="M163.99,180.91c-1.51-1.04-2.79-2.6-2.88-4.54l2.56,3.73.33.8Z"/><path class="cls-1" d="M257.26,194.94c-1.52-1.04-2.04-3.2-2.27-4.95l2.03,4.05.23.9Z"/><path class="cls-1" d="M231.88,330.72c-.5.38-1.46-1.31-1.56-1.64-.22-.72-.04-1.54-.09-2.28l1.65,3.92Z"/><path class="cls-1" d="M211.45,341.86l-2.02.56-1.28.05,1.34-1.85c.34.99.89,1.35,1.96,1.24Z"/><path class="cls-1" d="M226.93,195.56l-.72-.62-.51.62c-.71-3.05.83-2.32,1.24,0Z"/><path class="cls-1" d="M118.8,188.55h-.62c-.14-.14.26-1.88.35-2.23.11-.4.31-1.28.68-1.49.16,1.33-.68,2.34-.41,3.71Z"/><path class="cls-1" d="M229.34,321.29c.2.27.39,1.27.17,1.59l-.52-.93-1.44-1.55c.4.05,1.61.64,1.79.89Z"/><path class="cls-1" d="M195.15,136.13c-.18.82-.11,1.71-.26,2.53-.07.36-.09.68-.56.56.14-.82.15-1.67.31-2.49.07-.37,0-.73.52-.61Z"/><path class="cls-1" d="M219.07,235.61c.5,2.05-1.46.2-2.04-.43l2.04.43Z"/><path class="cls-1" d="M274.18,152.85c-.26-.31-2.81-2.12-2.47-2.48.46.06,2.72,2.2,2.47,2.48Z"/><path class="cls-1" d="M190.61,339.18c.27-.95.83-2.08,1.65-2.68-.31.93-.94,2.01-1.65,2.68Z"/><path class="cls-1" d="M201.96,137.37c-.22.72-.19,1.48-.38,2.2-.09.36.14.57-.44.48.14-.72.19-1.49.38-2.2.1-.35-.15-.57.44-.48Z"/><path class="cls-1" d="M166.47,184.62c-.28.29-1.57-1.09-1.03-1.65l1.03,1.65Z"/><path class="cls-1" d="M228.78,182.36c-.51.88-1.7.16-2.48.2-.05-.36.47-.19.72-.2.58-.02,1.17.01,1.76,0Z"/><path class="cls-1" d="M254.37,188.75c-.77-.38-1.07-1.24-1.03-2.06l1.03,2.06Z"/><path class="cls-1" d="M253.55,194.73c.78-.83.61-1.45.51-2.47.56.65.57,2.44-.51,2.47Z"/><path class="cls-1" d="M190.4,215.78c-.5.09-.65-.46-.83-.82.5-.09.65.46.83.82Z"/><path class="cls-1" d="M193.29,219.29c-.38-.22-.88-.6-.82-1.03.38.22.88.6.82,1.03Z"/><path class="cls-1" d="M216.4,337.32l-.82-.82c.41-.05.87.38.82.82Z"/><path class="cls-1" d="M192.47,219.29c-.34-.15-.68-.45-.61-.83.34.15.68.45.61.83Z"/><path d="M218.47,257.88l-.41,1.55c-.45,3.45-.07,6.83.61,10.21l-1.06-2.96c-2.31-7.12.22-20.04,8.65-21.95,10.15-2.3,13.93,11.86,12.4,19.42l-1.21,4.46c.66-4.61.61-9.26-.82-13.72-2.28-7.1-8.36-11.33-14.45-5.05.51-.02.81-.48,1.3-.66,3.84-1.38,6.83,1.55,8.23,4.85,2.04,4.82,1.55,10.71-1.07,15.2l5.61.68,2.64.97c-6.66-.89-13.43-.32-20.01.83l3.3-1.34c-1.27-1.7-2.46-3.78-3.04-5.84-.19-.69-.68-2.65-.68-3.24v-3.4ZM223.36,252.55c-2.51.39-1.98,6.02.73,4.66,1.94-.97,1.29-4.98-.73-4.66Z"/><path d="M189.17,261.49c-.24,2.33-1.37,5.35-2.52,7.39-.24.42-.89,1.06-.99,1.28-.16.37.16.27.3.31.76.23,1.42.4,2.16.73.25.11.83.2.84.5-6.64-1.09-13.52-1.79-20.22-.83.06-.38.42-.35.69-.44,2.4-.81,5.25-.99,7.77-1.21-1.77-2.85-2.7-6.64-2.47-10,.36-5.5,4-12.74,10.52-9.6.11-.46-.27-.46-.47-.66-3.41-3.31-8.03-2.63-10.96.89-4.27,5.13-4.54,13.13-3.22,19.37-.36-.16-.51-.97-.62-1.34-1.57-5.04-1.65-10.5.2-15.49,4.11-11,15.24-10.31,19.3.32,1.72,4.49,1.7,9.52.55,14.16l-1.06,2.76c.91-3.53.99-6.99.59-10.6l-.39-1.57c-.09,1.3.13,2.75,0,4.02ZM183.95,252.55c-2.3.36-1.92,5.01.36,4.93,2.51-.08,2.02-5.31-.36-4.93Z"/><path d="M187.7,238.88c-7.59-.97-15.54.74-21.23,6,1.48-9.11,10.13-12.98,18.67-12.38.5.04,2.52.28,2.79.51.55.47-.06,4.91-.23,5.87Z"/><path d="M179.06,289.24c6.11,4.55,13.34,7.76,20.97,8.64,8.12.93,16.03-.98,23.12-4.89l5.85-3.85c-7.54,8.37-19.09,13.01-30.37,10.97-6.82-1.23-14.28-5.24-19.16-10.15-.22-.22-.49-.36-.41-.73Z"/><path d="M211.66,275.83c1.95,1.79,3.44,4.88,1.89,7.36-1.46,2.36-2.77,1.04-4.59,1.6-.53.16-1.06.96-1.57,1.32-2.35,1.65-4.61,1.63-6.94,0-.51-.36-1.04-1.15-1.57-1.32-1.72-.53-3.02.63-4.55-1.43-1.86-2.51-.09-5.83,2.06-7.53-.89,1.9-1.85,3.96-.73,5.99s1.65.23,2.85.44c1.61.27,2.47,2.45,4.58,2.66,3.05.3,3.08-.97,5.16-2.08s2.37.85,3.5-.22c1.65-1.57.69-4.97-.09-6.79Z"/><path d="M199.69,273.77c2.99-1.14,6.46-.69,9.08,1.14-.75,0-1.46-.49-2.22-.67-2.47-.56-5.91-.23-7.86,1.52l-1.06,3.17c-.32-2.87,1.06-5.76,1.59-8.62.57-3.1.86-6.7.69-9.85-.03-.46-.79-5.25-.52-5.26,1.87,6,2.12,12.52.31,18.57Z"/><path d="M212.69,303.48l-1.05,1.12c-4.62,3.43-12.61,3.47-16.49-1.12,5.57,2.01,11.98,2.07,17.54,0Z"/><path d="M234.35,291.31c-.57-.43-.78-1.19-1.24-1.75-1.02-1.23-2.36-2.08-3.71-2.9l-3.1-1.33c4-1.08,8.43,1.54,8.04,5.98Z"/><path d="M181.32,285.32l-2.69,1.12c-1.58.85-2.92,1.99-4.11,3.32l-1.03,1.54c-.47-4.19,4.05-7.01,7.84-5.98Z"/><path d="M174.85,276.88c.89-.15.79,1.5-.23,1.22-.57-.15-.24-1.15.23-1.22Z"/><path d="M230.23,275.21c-.38-.51.92-1.52,1.21-.48.25.91-1.06.68-1.21.48Z"/><path d="M176.39,274.41c1.02-.64,1.53,1.44.1,1-.45-.14-.25-.9-.1-1Z"/><path d="M232.43,276.89c.96-.26.75,1.12.17,1.16-.63.05-1.05-.92-.17-1.16Z"/><polygon points="170.39 277.48 171.08 277.32 171.61 277.97 170.93 278.5 170.39 277.48"/><path d="M236.22,278.3c-.12-.08-.12-.94,0-1.02.18-.12.93.01,1.02.31.2.64-.71.93-1.02.72Z"/><path d="M169.67,271.91c.93-.28.84,1.1.2,1.23-.59.12-.72-1.08-.2-1.23Z"/><path d="M168.03,274.81c.98-.3,1.18.87.6,1.02s-1.31-.8-.6-1.02Z"/><path d="M166.39,276.88c.64-.11.94,1.07.15,1.21-.64.11-.94-1.07-.15-1.21Z"/><path d="M165.21,275.4c-.09.14-.9.34-1.01-.09-.3-1.22,1.69-1.01,1.01.09Z"/><path d="M171.84,274.39c.25-.19,1.23.04,1.02.71-.26.87-1.68-.2-1.02-.71Z"/><path d="M173.07,280.78c-.24-1.14.98-1.54,1.03-.31l-1.03.31Z"/><path d="M235.29,274.18c.61-.14.96,1.27-.01,1.18-.6-.05-.59-1.05.01-1.18Z"/><path d="M227.13,275.62l-1.03-.31c.05-1.23,1.27-.83,1.03.31Z"/><path d="M229.4,277.07c.51.38-.37,1.35-.82,1.02-.57-.42.21-1.48.82-1.02Z"/><path d="M233.54,279.76c.53-.67,1.59.76.51,1.02-.48.12-.66-.83-.51-1.02Z"/><path d="M238.28,272.12c.27,1.41-1.48,1.4-.79.03l.79-.03Z"/><path d="M180.81,274.59c.95-.27.95,1.29,0,1.03-.41-.12-.41-.91,0-1.03Z"/><path d="M239,274.8c.95-.27.95,1.29,0,1.03-.41-.12-.41-.91,0-1.03Z"/><path d="M241.58,276.86l.12.83c-1.64.94-.89-1.35-.12-.83Z"/><path d="M179.05,277.07c.24.17.31,1.26-.51,1.03-.73-.21-.07-1.44.51-1.03Z"/><path d="M242.4,275.42v-.82c1.37-.15,1.38.97,0,.82Z"/><path d="M158.57,199.52c2.65-.54,3.62,3.69.76,4.08s-2.99-3.63-.76-4.08ZM158.98,200.55c-.91.14-1.43,1.42-.64,2,2.15.72,2.3-2.25.64-2Z"/><path d="M213.66,188.18c3.22-.73,3.45,4.37.39,4.07-2.45-.24-2.52-3.59-.39-4.07ZM215.12,190.97c1.12-1.12-1.21-2.75-1.91-1.18-.58,1.29,1.17,1.92,1.91,1.18Z"/><path d="M179.62,193.13c3.33-.75,3.37,4.5.22,4.04-2.21-.32-2.18-3.6-.22-4.04ZM179.82,194.16c-1.22.36-.96,2.48.74,1.98,1.22-.36,1.03-2.51-.74-1.98Z"/><path d="M208.97,156.15c.04.3-.53.38-.71.37-1.28-.02-3-.25-4.31-.4-5.51-.63-11.63-1.53-17.09-2.52-1.07-.19-2.61-.43-3.6-.73-.28-.08-.63-.08-.69-.44l26.41,3.71Z"/><path d="M206.29,176.37c.05.36-.47.19-.72.2-5.67.24-17.56-1.98-23.46-3.16-.44-.09-.95-.16-1.37-.29-.35-.11-.55.09-.45-.47l26,3.72Z"/><path d="M206.91,169.56l-1.96.2c-6.97-1.54-16.39-1.27-23.05-3.36-.22-.07-.62-.05-.57-.35l25.58,3.51Z"/><path d="M207.94,163.16c-7.5-.87-15.1-1.59-22.53-2.95-.94-.17-2.42-.28-3.05-.97,6.89.97,13.84,1.64,20.71,2.71,1.2.19,2.96.34,4.06.69.31.1.73.13.82.52Z"/><path d="M205.67,177.82c.04.37-.7.22-.92.2-7.31-.58-15.62-1.88-22.88-3.12-.49-.08-1.54-.15-1.78-.59l25.58,3.51Z"/><path d="M206.5,171.01c0,.37-.89.22-1.13.2-6.76-.48-14.68-1.82-21.43-2.92-.78-.13-1.7-.23-2.45-.44-.21-.06-.63-.05-.58-.35l25.58,3.51Z"/><path d="M207.32,164.2l-1.97.21c-7.17-1.49-15.98-1.39-22.93-3.28-.35-.1-.57.15-.48-.44l25.38,3.51Z"/><path d="M147.28,267.58c-2.48-3.19-.7-10.08,4.33-7.84-.29-1.6-2.85-5.93-4.45-6.18-1.97-.31-3.69,1.24-4.53,2.87l-1.54,4.13c-.13-3.37.53-7.39,4.12-8.67-.06-.31-.94-.53-1.18-.57-4.54-.62-5.81,4.39-5.83,8l-.43-1.96c.13-4.98,2.42-9.73,8.17-7.54,6.18,2.36,10.86,13.74,8.39,19.75-.94,2.29-2.78,3.77-5.37,3.02-.46-.13-2.66-1.75-2.3-2.13,4.44,4.3,7.18-.35,6.55-5-.4-2.96-3.62-6.65-5.42-2.43-.11.26-.51,1.19-.51,1.35v3.2Z"/><path d="M269.85,259.12l-1.14-4.74c-1.14-2.87-3.12-3.79-6.08-2.68,1.4.98,2.39,1.52,3.13,3.16.14.32.79,2.12.79,2.31v3.2c-.29.05-.3-.36-.35-.57-.49-2.01-.84-3.85-2.55-5.29-3.83-3.23-6.41,2.54-7.62,5.45,4.18-2.24,6.15,1.88,5.48,5.58l-1.14,2.47c.23-1.85.35-3.32-.38-5.09-1.39-3.42-4.29-1.1-5.09,1.39-1.52,4.7,1.45,11.2,6.19,5.98.19.4-1.04,1.57-1.44,1.86-2.59,1.82-5.28-.08-6.19-2.69-2.16-6.2,2.28-17.49,8.71-19.76,3.03-1.07,5.74.08,6.97,3.05.17.42.73,2.04.73,2.37v4.02Z"/><path d="M227.5,172.9c1.94-.25,2.56,2.73.93,3.22-2.64.79-3.23-2.93-.93-3.22ZM228.32,173.95c-1.12-1.09-2.21,1.43-.67,1.41.78,0,1.16-.93.67-1.41Z"/><path d="M222.33,167.74c2.48-.54,2.83,2.83.73,3.23-1.98.38-2.7-2.8-.73-3.23ZM222.53,168.35c-.94.24-.95,2.24.54,1.79,1.05-.31.57-2.08-.54-1.79Z"/><path d="M222.95,173.73c2.24-.51,2.54,2.7.73,3.02-2.06.36-2.47-2.63-.73-3.02ZM224.01,174.54c-.9-.59-1.97.42-1.21,1.32l.52.23.62-.33.07-1.21Z"/><path d="M190.2,332.57c-3.35-1.62-7.32-4.36-8.05-8.25l2.06,2.79,5.99,5.46Z"/><path d="M217.64,332.78c-.07-.39.27-.59.51-.83,1.94-1.94,4.46-3.48,6.3-5.66.55-.65.84-1.41,1.44-1.97-.7,4-4.94,6.63-8.25,8.46Z"/><polygon points="226.92 156.35 225.99 155.94 225.93 155.27 228.97 146.16 229.69 146.06 230.03 146.56 226.92 156.35"/><path d="M231.05,143.78c.07.97-.57,1.53-1.34.82-.4-1.14.45-1.2,1.34-.82Z"/><path d="M246.89,140.1c7.58-1.21,9.52,8.48,3.56,10.99-4.44,1.87-8.88-2.02-7.91-6.68.39-1.87,2.46-4.01,4.35-4.31ZM247.51,140.73c-6.63.82-5.61,11.21,1.79,10.04,5.61-.88,5.23-10.91-1.79-10.04Z"/><path d="M241.94,184.06c2.93-.16,5.14,4.43,2.72,6.23-3.91,2.91-7.42-5.97-2.72-6.23Z"/><path d="M169.97,141.71c.39.36-1.44,1.43-1.65,1.55-1.78,1.07-4,1.8-5.99,2.37-.08-.39.19-.5.43-.7.67-.59,6.8-3.59,7.2-3.21Z"/><path d="M270.6,152.27c1.28-.11,1.92,2.33.34,2.8-2.42.72-2.42-2.62-.34-2.8ZM270.39,153.07c-.8.14-.55,1.53.15,1.42.8-.14.55-1.53-.15-1.42Z"/><path d="M124.09,150.19c.29-.05.48.21.49.48.02.89-2.5,3.27-3.41,3.62-1.36-.99,2.28-4.04,2.92-4.1Z"/><path class="cls-1" d="M223.36,252.55c2.03-.32,2.67,3.69.73,4.66-2.71,1.36-3.25-4.27-.73-4.66Z"/><path class="cls-1" d="M183.95,252.55c2.38-.37,2.88,4.85.36,4.93-2.29.08-2.67-4.57-.36-4.93Z"/><path class="cls-1" d="M158.98,200.55c1.67-.25,1.51,2.72-.64,2-.79-.58-.28-1.86.64-2Z"/><path class="cls-1" d="M215.12,190.97c-.75.74-2.49.11-1.91-1.18.7-1.57,3.03.07,1.91,1.18Z"/><path class="cls-1" d="M179.82,194.16c1.77-.53,1.96,1.62.74,1.98-1.7.5-1.96-1.62-.74-1.98Z"/><path class="cls-1" d="M228.32,173.95c.49.48.11,1.4-.67,1.41-1.54.02-.45-2.51.67-1.41Z"/><path class="cls-1" d="M222.53,168.35c1.1-.28,1.58,1.48.54,1.79-1.48.44-1.48-1.55-.54-1.79Z"/><path class="cls-1" d="M224.01,174.54l-.07,1.21-.62.33-.52-.23c-.76-.9.31-1.9,1.21-1.32Z"/><path class="cls-1" d="M247.51,140.73c7.02-.87,7.41,9.16,1.79,10.04-7.4,1.16-8.42-9.22-1.79-10.04ZM247.9,142.4c-3.6.18-4.31,5.47-.66,6.54,4.94,1.45,6-6.81.66-6.54Z"/><path class="cls-1" d="M270.39,153.07c.7-.12.96,1.28.15,1.42-.7.12-.96-1.28-.15-1.42Z"/><path d="M247.9,142.4c5.35-.27,4.28,7.99-.66,6.54-3.65-1.07-2.94-6.35.66-6.54ZM247.72,142.98c-3.12.46-3.07,5.61.54,5.51,3.79-.1,3.21-6.07-.54-5.51Z"/><path class="cls-1" d="M247.72,142.98c3.76-.56,4.33,5.41.54,5.51-3.62.1-3.67-5.05-.54-5.51Z"/><path d="M178.22,303.59l-1.51.38c-1.08,1.22,1.3,4.2,2.54,4.22.79.02,1.82-1.06,2.54-.87.91.51.92,1.71,1.69,2.37.89.76,3.31,1.02,3.39,2.3.03.5-.33,1.17-.35,1.67-.03,1.5,2.68,2.18,2.93,3.56-.26.2-5.26-2.26-5.95-2.6-3.96-1.95-8.38-4.4-11.94-6.99-1-.73-4.33-3.21-4.53-4.3-.52-2.87,2.9-.58,4.04-.72.99-.59.08-1.7.46-2.31.2-.32,1.39-.52,1.66-1.1.58-1.26-2.02-2.44-1.48-3.31.79-1.28,4.25.97,4.96,1.86.89,1.11.62,1.59.93,2.75.26,1.02.79,2.01.63,3.09Z"/><path d="M243.21,281.85c.18.18-1.36,1.47-1.5,1.69.91,1.25,1.19.35,2.08-.29.33-.24.76-.57,1.17-.64l-1.88,2.06c.85,1.19,2.09,2.15,2.63,3.56l-3.18-2.99c-.21.28-.89.68-.8,1.03.03.13,1.45,1.68,1.71,2.05.36.51.78,1.09,1.02,1.66l-3.31-3.24-.55.79c1.01,1.07,2,2.21,2.61,3.58l-3.18-2.99-2.56,2.87c.12-.45.38-.92.6-1.33.2-.38,1.31-1.98,1.26-2.2-.05-.21-.49-.6-.74-.41l-2.25,2.44,1.85-3.17-2.6-2.45c.68-.02,2.83,1.93,3.18,1.88l.56-.8c-.58-.63-1.31-1.11-1.86-1.77-.12-.14-.3-.2-.25-.44l2.67,1.74.81-.9-1.23-1.46,1.79,1.11,1.95-1.36ZM241.29,284.11l-.82.82.55.67.93-.82c.03-.16-.5-.69-.66-.66ZM239.34,286.47l.66.24c1.17-.85-.32-1.5-.66-.24Z"/><path d="M165.7,247.33l-2.49,3.39,1.06,1.23c1.22-1.07,2.05-2.6,3.58-3.3l-2.96,4.08c1.04,1.61,2.16,3.19,2.79,5.03l-3.39-4.14c-.23.4-1.17,1.28-1.06,1.7.05.19,1.07,1.61,1.29,2.04.4.8.71,1.71,1.01,2.55l-2.98-3.97-.64,1.37,1.63,3.77-2.23-3.15-2.07,3.31,1.47-4.19-1.06-1.44-2.73,3.97,2.09-4.72-3.25-4.22c.13-.12.91.53,1.07.67.39.31.88.74,1.25,1.07.43.38.82,1,1.14,1.3.16.14.19.14.42.12l.72-1.08-2.28-3.06c.31-.07.39.17.58.33.75.63,1.41,1.5,2.15,2.15l1.2-1.4-1.62-2.24,2.32,1.65c.3-.67,1.09-1.41,1.66-1.91.16-.14,1.21-1.02,1.33-.91ZM162.72,254.11l.99-1.41-1.07-1.24-1.05,1.38c.13.26.85,1.46,1.13,1.27ZM161.39,256.1l.51-1.23-1-1.25-.65,1.22c.32.3.51.73.76,1.06.11.14,0,.3.38.21Z"/><path d="M51.26,231.31c-.14,0-.25-.06-.35-.17-.1-.11-.15-.23-.14-.37l.15-4.97c0-.14.06-.26.16-.36.11-.1.23-.15.36-.15l16.87.53c.16,0,.29-.04.4-.14.11-.1.16-.23.17-.4l.25-7.96c0-.14.06-.26.16-.36.11-.1.23-.15.36-.15l4.86.15c.14,0,.25.06.35.17s.15.23.14.37l-.44,14c0,.14-.06.26-.16.36-.11.1-.23.15-.36.15l-22.78-.71Z"/><path d="M54.18,199.46c-.13-.03-.23-.11-.31-.24-.07-.13-.09-.26-.06-.39l3.5-13.56c.03-.13.11-.24.24-.32.12-.08.25-.1.38-.06l4.71,1.21c.13.03.23.11.31.24.07.13.09.26.06.39l-1.99,7.71c-.04.16-.02.3.05.43.07.13.17.21.31.24l1.98.51c.13.03.26.01.38-.06s.21-.19.25-.35l1.53-5.92c.03-.13.11-.24.24-.32.12-.08.26-.09.42-.05l4.68,1.21c.15.04.27.12.34.25.07.13.09.26.06.39l-1.53,5.92c-.04.16-.02.3.05.42.07.13.18.21.31.24l1.94.5c.15.04.29.02.42-.05.12-.08.21-.19.25-.35l1.99-7.71c.04-.13.11-.24.24-.32s.25-.1.38-.06l4.71,1.21c.13.03.23.11.31.24.07.13.09.26.06.39l-3.5,13.56c-.04.13-.11.24-.24.32s-.25.1-.38.06l-22.07-5.69Z"/><path d="M90.84,166.43c.14.07.24.18.3.31.05.15.04.29-.02.42l-2.22,4.37c-.06.12-.16.21-.29.26-.13.05-.25.05-.37-.01l-1.94-.83c-.12-.06-.25-.07-.37-.01-.13.05-.22.14-.29.26l-.79,1.55c-.06.12-.08.25-.04.39.03.13.11.23.23.29l1.82,1.08c.12.06.2.16.23.29.03.13.02.26-.04.39l-2.22,4.37c-.07.14-.18.23-.33.26-.14.03-.29.01-.43-.06l-19.12-12.6c-.26-.18-.32-.42-.17-.71l3.94-7.75c.06-.12.16-.21.29-.26.13-.05.25-.05.37.01l21.47,7.99ZM72.51,165.03c-.23-.09-.41-.02-.53.22-.12.24-.07.41.15.53l6.92,4.1c.13.09.27.11.43.06.15-.05.26-.14.32-.26l.38-.74c.06-.12.07-.26.01-.4-.05-.14-.15-.25-.29-.33l-7.39-3.17Z"/><path d="M98,147.64c-.25-.08-.46-.03-.62.17-.1.13-.15.26-.13.41.01.15.07.26.18.35l3.88,3.16c.11.09.17.2.18.35.01.15-.02.27-.11.38l-3.14,3.85c-.09.11-.2.17-.35.19-.15.02-.27-.02-.38-.1l-17.66-14.41c-.11-.09-.17-.2-.18-.35-.01-.15.02-.27.11-.38l4.44-5.44c.83-1.02,1.75-1.77,2.75-2.24s2.01-.66,3.03-.56c1.02.1,2.01.37,2.99.8s1.94,1.04,2.89,1.82c2.34,1.91,3.64,3.95,3.9,6.14.02.19.13.33.33.4l6.66,2.6c.17.08.27.2.31.37.04.17,0,.32-.12.47l-3.18,3.91c-.16.2-.36.24-.6.14l-5.16-2.01ZM93.44,143.33c.15-.18.26-.36.33-.54.07-.18.08-.36.02-.54-.06-.18-.11-.33-.15-.46-.04-.12-.15-.28-.33-.45-.18-.17-.31-.29-.39-.36-.08-.06-.23-.19-.46-.38-.23-.19-.36-.3-.41-.33-.04-.04-.18-.14-.4-.32-.22-.18-.37-.3-.46-.38-.09-.07-.24-.18-.44-.32s-.38-.22-.51-.24-.29-.03-.47-.05c-.18-.01-.36.03-.53.13s-.33.24-.47.42l-.62.75c-.1.12-.15.26-.13.41.01.15.07.26.18.35l3.88,3.16c.11.09.23.12.38.1.14-.02.27-.09.37-.21l.62-.75Z"/><path d="M101.6,118.28c-.08-.11-.12-.23-.1-.38s.08-.26.19-.35l4-3.17c.22-.17.43-.18.64-.03l6.87,5.19c.16.13.32.11.47-.07.15-.15.16-.3.03-.46l-5.03-6.35c-.08-.11-.12-.23-.1-.38s.08-.26.19-.35l3.89-3.09c.11-.09.24-.12.38-.11.15.02.26.08.34.18l14.16,17.86c.08.11.12.23.1.38-.02.15-.08.26-.19.35l-4,3.17c-.22.17-.43.18-.64.03l-6.87-5.19c-.16-.13-.32-.11-.47.07-.15.15-.16.3-.03.46l5.03,6.35c.08.11.12.23.1.38s-.08.26-.19.35l-3.9,3.09c-.11.09-.24.12-.38.11-.15-.01-.26-.08-.34-.18l-14.16-17.86Z"/><path d="M151.98,113.2c-.31.77-.84,1.31-1.6,1.64s-1.52.34-2.29.05-1.32-.82-1.65-1.57c-.33-.75-.33-1.5-.01-2.26.32-.76.85-1.3,1.61-1.63.75-.33,1.52-.35,2.28-.07s1.31.8,1.64,1.55c.33.75.33,1.51.02,2.27Z"/><path d="M162.81,85.75c-.03-.13,0-.26.08-.38.08-.12.19-.2.32-.23l6.86-1.47c1.29-.28,2.47-.29,3.55-.03s1.98.74,2.71,1.45c.73.71,1.34,1.54,1.83,2.49.49.95.86,2.02,1.11,3.21s.35,2.31.3,3.38c-.06,1.07-.27,2.08-.65,3.03-.38.95-1,1.76-1.88,2.44s-1.96,1.15-3.25,1.43l-.95.2c-.16.03-.28.11-.36.23-.08.12-.11.25-.08.38l1.05,4.89c.03.13,0,.26-.08.38-.08.12-.19.2-.32.23l-4.86,1.04c-.14.03-.27,0-.39-.07-.12-.08-.2-.18-.23-.32l-4.78-22.29ZM172.57,95.31c.23-.05.42-.12.59-.21.17-.09.29-.23.36-.41.07-.18.12-.33.17-.45.04-.12.05-.31.02-.56-.03-.25-.05-.42-.08-.52s-.06-.29-.12-.58c-.06-.29-.1-.46-.11-.52-.01-.05-.05-.22-.11-.5-.06-.28-.1-.47-.12-.58-.02-.11-.07-.29-.15-.52s-.16-.41-.25-.5-.2-.21-.34-.33-.3-.2-.49-.22-.41-.02-.63.03l-.95.2c-.16.03-.28.11-.36.23-.08.12-.11.25-.08.38l1.05,4.89c.03.13.1.24.23.32.12.08.26.1.42.07l.95-.2Z"/><path d="M185.52,81.57c0-.14.04-.26.13-.37s.22-.17.35-.17l4.96-.3c.14,0,.26.04.37.13s.17.21.18.35l1.03,16.84c0,.16.07.29.18.38s.25.14.41.13l7.94-.48c.14,0,.26.04.37.13.11.1.17.21.18.35l.3,4.86c0,.14-.04.26-.13.37s-.22.17-.35.17l-13.98.85c-.14,0-.26-.04-.37-.13s-.17-.21-.18-.35l-1.39-22.75Z"/><path d="M220.73,104.68c-.01.16-.07.29-.17.39-.13.1-.26.15-.4.14l-4.88-.42c-.14-.01-.26-.07-.35-.17-.1-.1-.14-.22-.13-.35l.04-2.11c.01-.13-.03-.25-.13-.35-.1-.1-.21-.16-.35-.17l-1.73-.15c-.14-.01-.26.02-.38.1-.11.08-.17.19-.19.33l-.32,2.09c-.01.14-.07.24-.18.33-.11.08-.24.12-.38.1l-4.88-.42c-.16-.01-.28-.08-.37-.2s-.12-.26-.1-.42l4.5-22.46c.07-.31.27-.46.59-.43l8.66.74c.14.01.26.07.35.17.1.1.14.22.13.35l.66,22.9ZM215.15,87.17c0-.25-.14-.39-.4-.41s-.41.09-.43.34l-1.2,7.96c-.04.16,0,.3.1.42.11.12.23.19.37.2l.83.07c.14.01.26-.03.38-.14.11-.1.18-.24.19-.39l.16-8.04Z"/><path d="M230,95.66c.01-.07.02-.12,0-.17-.92-6.64-1.46-10.77-1.62-12.39-.03-.17.02-.31.17-.43.14-.12.3-.16.46-.12l5.05,1.13c.14.03.24.1.33.21.08.11.11.23.08.37l-1.06,8.09c-.05.22.06.36.32.42.26.06.42-.02.46-.25l2.45-7.78c.05-.13.14-.22.26-.29.12-.07.25-.08.39-.05l4.99,1.11c.18.04.31.14.38.31.07.17.06.32-.01.47l-6.67,10.43s-.06.09-.07.16l-2.36,10.56c-.03.13-.11.24-.23.31-.12.08-.25.1-.39.07l-4.85-1.08c-.14-.03-.24-.11-.32-.23s-.1-.25-.08-.38l2.33-10.46Z"/><path d="M256.38,115.06c-.77.29-1.54.27-2.29-.06-.75-.33-1.28-.88-1.59-1.65-.31-.77-.3-1.52.03-2.27.33-.75.88-1.26,1.65-1.54.77-.28,1.53-.26,2.28.07.75.33,1.29.87,1.6,1.63s.31,1.51-.02,2.26c-.33.75-.88,1.27-1.65,1.56Z"/><path d="M279.52,122.88c.07-.26,0-.46-.21-.61-.13-.09-.27-.13-.42-.11-.14.02-.25.09-.33.2l-2.88,4.09c-.08.11-.19.18-.33.2-.14.02-.27,0-.39-.08l-4.06-2.86c-.11-.08-.18-.19-.21-.34s0-.27.08-.38l13.13-18.63c.08-.11.19-.18.33-.2.14-.02.27,0,.39.08l5.74,4.04c1.08.76,1.89,1.62,2.43,2.59.54.96.8,1.96.77,2.98-.03,1.02-.22,2.04-.59,3.04s-.9,2.01-1.61,3.01c-1.74,2.47-3.69,3.91-5.85,4.32-.19.03-.32.15-.38.36l-2.13,6.82c-.07.18-.18.29-.35.34-.16.05-.32.02-.47-.08l-4.12-2.9c-.21-.15-.27-.34-.18-.59l1.65-5.29ZM283.5,118.02c.19.13.38.23.56.29.18.06.36.06.54-.01.18-.07.33-.13.45-.18s.26-.17.43-.36.27-.33.33-.41c.06-.08.17-.25.34-.49s.27-.38.3-.43c.03-.05.13-.18.29-.42.16-.23.28-.39.34-.49s.16-.25.29-.46c.12-.22.19-.39.2-.53,0-.13.01-.29.01-.47,0-.18-.06-.35-.17-.51s-.26-.31-.45-.44l-.79-.56c-.13-.09-.27-.13-.42-.11-.14.02-.25.09-.33.2l-2.88,4.09c-.08.11-.1.24-.08.38s.11.26.24.36l.8.56Z"/><path d="M302.68,118.45c.09-.1.21-.15.36-.15.15,0,.27.05.37.14l10.05,9.75c.1.1.15.22.16.36s-.04.27-.14.37l-3.39,3.49c-.09.1-.21.15-.36.15-.15,0-.27-.05-.37-.14l-5.71-5.54c-.12-.11-.25-.17-.39-.17-.15,0-.27.05-.36.15l-1.42,1.46c-.09.1-.14.22-.14.37,0,.15.06.28.18.39l4.39,4.26c.1.1.15.22.16.36,0,.15-.05.28-.16.39l-3.36,3.47c-.11.11-.24.17-.38.17-.15,0-.27-.05-.37-.14l-4.39-4.26c-.12-.11-.25-.17-.39-.17-.15,0-.27.05-.36.15l-1.4,1.44c-.11.11-.16.24-.16.39,0,.15.06.27.18.39l5.71,5.54c.1.1.15.22.16.36,0,.15-.04.27-.14.37l-3.39,3.49c-.09.1-.21.15-.36.15-.15,0-.27-.05-.37-.14l-10.05-9.75c-.1-.1-.15-.22-.16-.36,0-.15.04-.27.14-.37l15.87-16.36Z"/><path d="M309.72,141.89s.04-.03.08-.06c.8-.6,1.42-1.06,1.86-1.38.44-.32,1.07-.73,1.9-1.24.83-.51,1.52-.85,2.07-1.04.56-.19,1.23-.35,2.01-.49.79-.14,1.49-.12,2.11.06.62.18,1.29.52,1.99,1,.71.48,1.37,1.14,2,1.97.79,1.06,1.32,2.07,1.58,3.05.26.98.25,1.9,0,2.77-.26.86-.63,1.65-1.1,2.35-.48.71-1.1,1.43-1.89,2.16-.22.2-.45.21-.69.04l-4.15-2.96c-.15-.09-.23-.22-.23-.39,0-.17.05-.32.17-.43,1.58-1.37,2.12-2.38,1.62-3.05-.14-.19-.33-.3-.57-.36s-.53-.01-.87.11c-.34.13-.66.26-.95.41-.29.14-.66.37-1.12.69-.46.32-.82.56-1.08.75-.26.18-.64.46-1.12.83-.49.37-.85.65-1.09.84-.24.19-.58.47-1.01.83-.44.36-.77.66-.99.9-.22.24-.44.5-.66.8-.22.29-.33.56-.35.81-.01.24.05.46.19.64.5.67,1.63.43,3.38-.72.14-.08.29-.09.46-.04.17.05.27.16.31.33l1.68,4.83c.11.26.04.47-.21.63-.92.55-1.79.96-2.6,1.22-.81.26-1.67.4-2.57.41-.9.01-1.79-.24-2.66-.76-.87-.52-1.7-1.29-2.48-2.33-.63-.83-1.08-1.66-1.36-2.48-.28-.82-.42-1.55-.42-2.2,0-.65.17-1.33.52-2.05.35-.72.7-1.32,1.03-1.8s.86-1.05,1.57-1.71c.71-.65,1.28-1.15,1.71-1.49.43-.34,1.04-.8,1.84-1.41.04-.03.06-.05.08-.06Z"/><path d="M322.95,162.28c.06-.03.1-.07.13-.11,4.4-5.06,7.15-8.18,8.26-9.37.11-.14.25-.19.44-.16.19.03.32.12.39.26l2.48,4.55c.07.12.08.25.05.39-.03.13-.1.23-.22.3l-6.79,4.53c-.2.11-.24.28-.11.51.13.23.29.3.49.19l7.47-3.28c.13-.04.26-.04.39,0,.13.05.23.13.29.25l2.44,4.49c.09.16.09.33.01.49-.08.16-.2.26-.36.3l-12.25,1.84c-.05,0-.11.02-.17.05l-9.5,5.17c-.12.07-.25.08-.39.03s-.24-.12-.31-.25l-2.38-4.37c-.07-.12-.08-.25-.04-.39.04-.14.12-.24.24-.31l9.41-5.12Z"/><path d="M330.56,175.61s.05-.02.1-.04c.94-.34,1.66-.61,2.18-.78s1.24-.39,2.18-.63c.94-.25,1.7-.38,2.28-.39.58-.02,1.28.02,2.07.11.79.09,1.46.31,2,.67.54.36,1.08.87,1.62,1.54s.98,1.49,1.34,2.47c.46,1.24.66,2.37.63,3.38s-.31,1.9-.8,2.65c-.5.75-1.08,1.4-1.74,1.93-.66.54-1.47,1.05-2.43,1.52-.27.12-.49.07-.67-.16l-3.12-4.04c-.12-.13-.16-.28-.11-.44.05-.17.14-.29.28-.36,1.91-.85,2.72-1.67,2.43-2.45-.08-.22-.23-.39-.44-.5-.21-.12-.5-.17-.87-.14s-.71.06-1.03.12c-.32.06-.74.17-1.27.34-.53.17-.95.3-1.25.4-.3.1-.74.25-1.32.46-.58.21-1,.38-1.29.49-.28.12-.69.28-1.21.5-.52.22-.92.41-1.2.57s-.56.36-.86.57c-.29.22-.48.44-.57.67-.09.23-.09.45,0,.67.29.78,1.43.88,3.44.29.16-.03.31,0,.45.09.14.09.21.23.2.41l.21,5.11c.03.29-.09.47-.38.55-1.04.26-1.99.4-2.84.41s-1.71-.1-2.58-.35-1.64-.75-2.33-1.5-1.25-1.73-1.7-2.95c-.36-.98-.55-1.9-.58-2.77-.03-.87.05-1.61.23-2.23.18-.62.55-1.22,1.09-1.81.55-.58,1.05-1.06,1.51-1.42.46-.37,1.12-.76,2-1.18.87-.42,1.56-.73,2.07-.93s1.23-.47,2.17-.81l.1-.04Z"/><path d="M348.61,193.69c.13-.03.26,0,.38.08.12.08.19.19.22.33l.96,4.88c.03.14,0,.27-.08.39s-.19.2-.32.22l-16.56,3.25c-.16.03-.27.11-.35.23s-.1.26-.07.42l1.53,7.81c.03.14,0,.27-.08.39s-.19.2-.32.22l-4.77.94c-.13.03-.26,0-.38-.08-.12-.08-.19-.19-.22-.33l-2.7-13.74c-.03-.14,0-.27.08-.39s.19-.2.32-.22l22.37-4.39Z"/><path d="M352.39,216.7c.14,0,.26.04.36.14.11.1.16.22.17.36l.46,14c0,.14-.04.26-.14.37s-.22.16-.35.17l-4.86.16c-.14,0-.26-.04-.36-.14s-.16-.22-.17-.36l-.26-7.96c0-.16-.06-.29-.17-.39s-.23-.15-.36-.14l-2.04.07c-.14,0-.25.06-.35.17s-.15.24-.14.4l.2,6.11c0,.14-.04.26-.14.37s-.23.16-.39.17l-4.83.16c-.16,0-.29-.04-.4-.14s-.16-.22-.17-.36l-.2-6.11c0-.16-.06-.29-.17-.39-.11-.1-.23-.15-.36-.14l-2.01.07c-.16,0-.29.06-.39.17s-.14.24-.14.4l.26,7.96c0,.14-.04.26-.14.37s-.22.16-.35.17l-4.86.16c-.14,0-.26-.04-.36-.14-.11-.1-.16-.22-.17-.36l-.46-14c0-.14.04-.26.14-.37s.22-.16.35-.17l22.78-.74Z"/><path d="M53.95,363.25c0-.32.12-.59.35-.83.24-.24.51-.35.83-.35h11.28c.32,0,.59.12.83.35.24.24.35.51.35.83v18.37c0,.31.12.59.35.83.24.24.51.35.83.35h4.49c.31,0,.59-.12.83-.35.24-.24.35-.51.35-.83v-18.37c0-.32.12-.59.35-.83.24-.24.51-.35.83-.35h11.27c.31,0,.59.12.83.35s.35.51.35.83v52.83c0,.31-.12.59-.35.83-.24.24-.51.35-.83.35h-11.27c-.32,0-.59-.12-.83-.35-.24-.24-.35-.51-.35-.83v-18.37c0-.31-.12-.59-.35-.83-.24-.24-.51-.35-.83-.35h-4.49c-.31,0-.59.12-.83.35s-.35.51-.35.83v18.37c0,.31-.12.59-.35.83s-.51.35-.83.35h-11.28c-.31,0-.59-.12-.83-.35s-.35-.51-.35-.83v-52.83Z"/><path d="M92.9,363.25c0-.32.12-.59.35-.83s.51-.35.83-.35h31.78c.31,0,.59.12.83.35.24.24.35.51.35.83v11.27c0,.31-.12.59-.35.83-.24.24-.51.35-.83.35h-18.06c-.37,0-.67.12-.91.35s-.35.51-.35.83v4.73c0,.31.12.59.35.83.24.24.54.35.91.35h13.88c.32,0,.59.12.83.35.24.24.35.54.35.91v11.2c0,.37-.12.67-.35.91-.24.24-.51.35-.83.35h-13.88c-.37,0-.67.12-.91.35-.24.24-.35.51-.35.83v4.65c0,.37.12.67.35.91.24.24.54.35.91.35h18.06c.31,0,.59.12.83.35s.35.51.35.83v11.28c0,.31-.12.59-.35.83s-.51.35-.83.35h-31.78c-.31,0-.59-.12-.83-.35-.24-.24-.35-.51-.35-.83v-52.83Z"/><path d="M130.75,363.25c0-.32.12-.59.35-.83.24-.24.51-.35.83-.35h31.77c.32,0,.59.12.83.35.24.24.35.51.35.83v11.27c0,.31-.12.59-.35.83s-.51.35-.83.35h-18.06c-.37,0-.67.12-.91.35-.24.24-.35.51-.35.83v4.73c0,.31.12.59.35.83s.54.35.91.35h13.88c.31,0,.59.12.83.35.24.24.35.54.35.91v11.2c0,.37-.12.67-.35.91-.24.24-.51.35-.83.35h-13.88c-.37,0-.67.12-.91.35-.24.24-.35.51-.35.83v4.65c0,.37.12.67.35.91.24.24.54.35.91.35h18.06c.32,0,.59.12.83.35.24.24.35.51.35.83v11.28c0,.31-.12.59-.35.83-.24.24-.51.35-.83.35h-31.77c-.32,0-.59-.12-.83-.35-.24-.24-.35-.51-.35-.83v-52.83Z"/><path d="M167.33,403.94c0-.21.05-.42.16-.63l16.56-25.7c.26-.42.27-.84.04-1.26-.24-.42-.59-.63-1.06-.63h-14.51c-.32,0-.59-.12-.83-.35-.24-.24-.35-.51-.35-.83v-11.27c0-.32.12-.59.35-.83.24-.24.51-.35.83-.35h31.78c.31,0,.59.12.83.35s.35.51.35.83v12.14c0,.21-.05.42-.16.63l-16.56,25.7c-.26.42-.28.84-.04,1.26.24.42.59.63,1.06.63h14.51c.31,0,.59.12.83.35.24.24.35.51.35.83v11.28c0,.31-.12.59-.35.83-.24.24-.51.35-.83.35h-31.78c-.32,0-.59-.12-.83-.35s-.35-.51-.35-.83v-12.14Z"/><path d="M205.02,363.25c0-.32.12-.59.35-.83.24-.24.51-.35.83-.35h11.28c.32,0,.59.12.83.35.24.24.35.51.35.83v39.11c0,.37.12.67.35.91s.54.35.91.35h18.06c.31,0,.59.12.83.35.24.24.35.51.35.83v11.28c0,.31-.12.59-.35.83-.24.24-.51.35-.83.35h-31.78c-.31,0-.59-.12-.83-.35s-.35-.51-.35-.83v-52.83Z"/><path d="M274.17,415.92c0,.37-.11.68-.32.95-.26.26-.55.39-.87.39h-11.12c-.32,0-.59-.1-.83-.32-.24-.21-.35-.47-.35-.79l-.32-4.89c0-.31-.12-.58-.35-.79-.24-.21-.51-.32-.83-.32h-3.94c-.32,0-.59.11-.83.32-.24.21-.35.47-.35.79l-.32,4.89c0,.31-.12.58-.35.79-.24.21-.51.32-.83.32h-11.12c-.37,0-.66-.13-.87-.39s-.32-.58-.32-.95l5.83-52.75c.11-.74.52-1.1,1.26-1.1h19.71c.31,0,.59.11.83.32.24.21.35.47.35.79l5.91,52.75ZM258.16,376.58c-.05-.58-.38-.87-.98-.87s-.91.29-.91.87l-1.18,18.61c-.05.37.05.68.32.95.26.26.55.39.87.39h1.89c.32,0,.59-.13.83-.39s.35-.58.35-.95l-1.18-18.61Z"/><path d="M277.17,363.25c0-.32.12-.59.35-.83.24-.24.51-.35.83-.35h11.59c.63,0,1.02.29,1.18.87l4.89,19.32c.11.47.42.66.95.55.47-.05.71-.31.71-.79v-18.76c0-.32.12-.59.35-.83.24-.24.51-.35.83-.35h11.28c.31,0,.59.12.83.35.24.24.35.51.35.83v52.83c0,.31-.12.59-.35.83-.24.24-.51.35-.83.35h-11.59c-.63,0-1.03-.29-1.18-.87l-4.89-19.32c-.11-.47-.42-.66-.95-.55-.47.05-.71.32-.71.79v18.77c0,.31-.12.59-.35.83-.24.24-.51.35-.83.35h-11.28c-.32,0-.59-.12-.83-.35-.24-.24-.35-.51-.35-.83v-52.83Z"/><path d="M316.04,363.25c0-.32.12-.59.35-.83.24-.24.51-.35.83-.35h16.64c2.26.05,4.27.42,6.03,1.1s3.21,1.47,4.34,2.36c1.13.9,2.09,2.17,2.88,3.83.79,1.65,1.38,3.11,1.77,4.38s.7,3.01.91,5.24c.21,2.24.33,3.96.35,5.16.03,1.21.04,2.97.04,5.28v.39c0,2.31-.01,4.09-.04,5.32-.03,1.24-.15,2.96-.35,5.17-.21,2.21-.51,3.96-.91,5.24-.39,1.29-.99,2.76-1.77,4.42-.79,1.65-1.75,2.93-2.88,3.82-1.13.89-2.58,1.68-4.34,2.37s-3.77,1.05-6.03,1.1h-16.64c-.32,0-.59-.12-.83-.35-.24-.24-.35-.51-.35-.83v-52.83ZM336.54,390.77v-5.83c0-.79-.04-1.5-.12-2.13-.08-.63-.17-1.33-.28-2.09s-.24-1.42-.39-1.97c-.16-.55-.35-1.06-.59-1.54-.24-.47-.52-.84-.87-1.1-.34-.26-.72-.39-1.14-.39h-2.21c-.37,0-.67.12-.91.35-.24.24-.35.51-.35.83v25.47c0,.37.12.67.35.91.24.24.54.35.91.35h2.21c.42,0,.8-.13,1.14-.39.34-.26.63-.63.87-1.1.24-.47.43-.99.59-1.54s.29-1.21.39-1.97.18-1.46.24-2.09.09-1.35.12-2.17c.03-.81.04-1.46.04-1.93v-1.66Z"/></svg>