<?xml version="1.0" encoding="UTF-8"?><svg id="Layer_1" xmlns="http://www.w3.org/2000/svg" viewBox="0 0 302.92 364.04"><defs><style>.cls-1{fill:#fff;}</style></defs><path d="M64.01,250.99c-6.06.84-11.02,6.59-12.71,14.22-.54,2.44-.93,5.03-1.29,7.64-1.42,10.44-2.84,20.88-4.26,31.32-.95,7-1.75,14.92,1.55,20.58,3.61,6.19,10.57,6.89,16.46,5.67s11.88-3.77,17.71-2.08c6.82,1.98,12.22,9.5,19.13,10.76,9.6,1.75,18.13-8.98,27.81-9.58,8.45-.53,16.07,6.68,24.45,8.07,9.28,1.54,18.35-4.15,27.69-4.97,8.43-.74,16.74,2.51,25.17,3.18,6.84.55,13.69-.61,20.48-1.76,8.3-1.4,16.6-2.81,24.9-4.21,4.09-.69,8.32-1.44,11.63-4.92,1.47-1.54,2.63-3.59,3.1-5.97,2.18-10.9-10.67-15.9-9.14-25.47,1.07-6.67,8.32-8.34,10.62-14.47,1.41-3.77.53-8.45-1.36-11.84-1.9-3.39-4.65-5.77-7.34-8.07-10.39-8.89-21.51-18.09-33.95-18.46-8.97-.27-17.68,4.15-26.65,4.55-11.78.53-23.54-5.89-35.15-3.21-7.39,1.7-14.15,7-21.61,8.01-8.65,1.17-17.07-3.54-25.68-5.17-9.01-1.71-18.17-.02-27.17,1.66-8.03,1.5-16.06,3-24.09,4.5-.09,0-.19.02-.3.03Z"/><path class="cls-1" d="M81,263.15c0-.32.12-.61.36-.85s.53-.36.85-.36h11.56c.32,0,.61.12.85.36.24.24.36.53.36.85v18.83c0,.32.12.61.36.85.24.24.53.36.85.36h4.61c.32,0,.61-.12.85-.36.24-.24.36-.53.36-.85v-18.83c0-.32.12-.61.36-.85.24-.24.52-.36.85-.36h11.56c.32,0,.61.12.85.36.24.24.36.53.36.85v54.15c0,.32-.12.61-.36.85s-.53.36-.85.36h-11.56c-.32,0-.61-.12-.85-.36s-.36-.53-.36-.85v-18.83c0-.32-.12-.61-.36-.85s-.53-.36-.85-.36h-4.61c-.32,0-.61.12-.85.36-.24.24-.36.53-.36.85v18.83c0,.32-.12.61-.36.85-.24.24-.53.36-.85.36h-11.56c-.32,0-.61-.12-.85-.36-.24-.24-.36-.53-.36-.85v-54.15Z"/><path class="cls-1" d="M120.93,263.15c0-.32.12-.61.36-.85s.52-.36.85-.36h32.57c.32,0,.61.12.85.36.24.24.36.53.36.85v11.56c0,.32-.12.61-.36.85-.24.24-.53.36-.85.36h-18.51c-.38,0-.69.12-.93.36s-.36.53-.36.85v4.85c0,.32.12.61.36.85.24.24.55.36.93.36h14.22c.32,0,.61.12.85.36.24.24.36.55.36.93v11.48c0,.38-.12.69-.36.93-.24.24-.53.36-.85.36h-14.22c-.38,0-.69.12-.93.36-.24.24-.36.53-.36.85v4.77c0,.38.12.69.36.93.24.24.55.36.93.36h18.51c.32,0,.61.12.85.36s.36.53.36.85v11.56c0,.32-.12.61-.36.85s-.53.36-.85.36h-32.57c-.32,0-.61-.12-.85-.36-.24-.24-.36-.53-.36-.85v-54.15Z"/><path class="cls-1" d="M159.72,263.15c0-.32.12-.61.36-.85s.52-.36.85-.36h32.57c.32,0,.61.12.85.36.24.24.36.53.36.85v11.56c0,.32-.12.61-.36.85-.24.24-.53.36-.85.36h-18.51c-.38,0-.69.12-.93.36s-.36.53-.36.85v4.85c0,.32.12.61.36.85.24.24.55.36.93.36h14.22c.32,0,.61.12.85.36.24.24.36.55.36.93v11.48c0,.38-.12.69-.36.93-.24.24-.53.36-.85.36h-14.22c-.38,0-.69.12-.93.36-.24.24-.36.53-.36.85v4.77c0,.38.12.69.36.93.24.24.55.36.93.36h18.51c.32,0,.61.12.85.36s.36.53.36.85v11.56c0,.32-.12.61-.36.85s-.53.36-.85.36h-32.57c-.32,0-.61-.12-.85-.36-.24-.24-.36-.53-.36-.85v-54.15Z"/><path class="cls-1" d="M197.21,304.85c0-.21.05-.43.16-.65l16.97-26.35c.27-.43.28-.86.04-1.29-.24-.43-.61-.65-1.09-.65h-14.87c-.32,0-.61-.12-.85-.36s-.36-.53-.36-.85v-11.56c0-.32.12-.61.36-.85.24-.24.53-.36.85-.36h32.57c.32,0,.61.12.85.36.24.24.36.53.36.85v12.45c0,.22-.06.43-.16.65l-16.97,26.35c-.27.43-.28.86-.04,1.29.24.43.61.65,1.09.65h14.87c.32,0,.61.12.85.36.24.24.36.53.36.85v11.56c0,.32-.12.61-.36.85-.24.24-.53.36-.85.36h-32.57c-.32,0-.61-.12-.85-.36-.24-.24-.36-.53-.36-.85v-12.45Z"/><path d="M150.06,29.2c-.49-.12-.42.23-.49.57-.15.77-.16,1.58-.29,2.35.45.11.47-.19.53-.53.14-.77.08-1.62.25-2.4ZM155.92,30.17l-5.66-.78-.19,2.73c.5.08.35-.07.45-.42.18-.68-.07-1.58.53-1.92l-.19,2.54c1.15-.06.12-1.87.97-2.34l-.19,2.54h.58c.04-.63.1-1.39.25-2,.05-.2.06-.59.33-.54l-.19,2.54c1.21-.08.05-1.89.97-2.34.12.76-.29,1.49-.2,2.24.03.27.12.58.39.29.14-.63.15-1.31.34-1.92.1-.34-.07-.51.45-.42-.04.62-.17,1.21-.22,1.83,0,.13-.28.73.12.7.51-.03.38-2.34,1.07-2.53-.03.76-.39,1.48-.4,2.24,0,.39.03.31.4.3l.39-2.73ZM202.38,30.39l-1.71-.19c-.14,2.37-2.43,2.51-3.47.58l-1.42.69c.29.94.91,1.36.09,2.24-1.16,1.23-2.02.05-2.45.27l-.78,1.39c0,.57.88.54,1.08.87.22.37.2,1.86-.18,2.17-.34.28-1.06.16-1.4.57l.43,1.54,1.6.06.73,1.92c-1.41.67-1.24,1.45,0,2.16.63.09.79-.72,1.37-.8.64-.09,1.33.41,1.92.57l.14,1.95,1.54.41c.08-1.37.49-2.7,2.22-2.12.41.14.55,1.02.82,1.35l.3.11,1.53-.8c-1.47-1.7.52-3.88,2.3-2.47l.26-.06.57-1.35c-.96-.65-1.5-1.27-1.12-2.53.35-1.17,2.71.05,1.72-2.67-2.16.8-3.42-1.66-1.61-3.02l-1.25-1.26c-1.09.89-1.56,1.38-2.88.35-.6-.46-.2-1.28-.33-1.91ZM156.51,30.37c-.56-.09-.33.11-.42.45-.18.67-.23,1.4-.36,2.09.55.09.33-.11.42-.45.18-.69.16-1.4.36-2.09ZM133.85,31.35c-.82-.11-1.53.14-2.3.34-2.55.66-5.56,1.89-7.99,2.95-3.67,1.59-7.53,3.57-10.61,6.09,4.39-.77,8.8-2.56,12.83-4.46,2.81-1.33,5.79-2.78,8.07-4.91ZM156.9,34.28l-8.79-1.17c-.14.5.41.47.73.53,1.38.26,3.05.44,4.47.61,1.04.13,2.29.36,3.29.42.39.02.3-.04.29-.39ZM183.65,52.44l3.68-16.49c-.14-.58-3.83-1.67-4.56-1.5l-5.95,16.22,6.83,1.76ZM135.03,70.21c4.25.53,8.51,1.06,12.77,1.59,1.36.17,3.28.74,4.53.76,2.54.04,5.75-1.08,8.39-.98,1.45-.59.06-2.44.14-3.2.06-.55,1.15-1.8,1.3-3.18.12-1.15-.41-2.79-.33-3.25.08-.49.88-1.23,1.09-2.04.12-.48.28-1.8.26-2.3-.03-.65-.43-1.25-.4-1.74.03-.44.55-1.11.69-1.66.78-3.2,1.09-7.28-.21-10.36-1.43-3.37-4.76-5.11-6.94-7.9-.31-.22-6.79-1.29-7.52-1.29s-1.86,1.18-2.64,1.65c-3.36,2.06-7.13,3.07-8.67,7.15-.47,1.25-1.26,5.25-1.28,6.55,0,.74.53,1.46.51,1.94-.02.44-.62,1.01-.8,1.46-.91,2.37.1,3.5-.1,4.96-.11.84-1.29,2.4-1.35,3.95-.03.85.5,1.58.37,2.5-.1.7-.96,1.65-1.12,2.8-.19,1.39.38,2.83.29,3.64-.04.33-.8,1.34-.99,2.1-.1.4-.47,2.93-.32,3.1l12.5-2.74-9.62-1.61-.73-.53,12.63,1.68,1.82-.32-13.78-2.34-.47-.39ZM131.12,34.86c-.25-.19-4.98,2.43-5.72,2.77-3.89,1.78-7.96,3.35-12.16,4.26l3.04,7.93c4.52-.98,8.96-2.5,13.16-4.44.68-.31,4.94-2.41,5.12-2.7.15-.24-.14-.59-.11-.88s.33-.41.29-.69c-.13-.76-.8-.48-1.26-.69-1.13-.51-1.63-2.3-1.96-3.41l1.17-.1-.39-1.26-.94-.03-.22-.76ZM78,48.14c2.42-.06,7.25-4.91,7.04-7.13-.02-.24-.12-.33-.3-.48-1.84.65-3.46,2.03-4.69,3.51-.46.55-2.55,3.52-2.05,4.1ZM95.23,51.69c.06-.11.53-.18.54-.33l-9.86-9.67-1.95,3.13c-1.48,1.64-3.13,3-4.98,4.2l15.54,14.35c1.89.19,5.21-2.98,5.76-4.77-1.55-.73-1.73-2.05-.21-2.94l-2.83-2.83c-.69,1.37-2.56-.22-2.01-1.14ZM221.14,42.28l-.49.19-3.8,3.62,3.61,3.61,3.8-3.8c0-.31-3.23-2.73-3.12-3.61ZM224.86,45.02c.23-.27-1.9-2.28-2.34-2.34-.32.34,2.1,2.05,2.34,2.34ZM134.83,51.07c-.04-2.63.53-5.27,1.17-7.81-5.97,3.52-12.48,6.34-19.33,7.62l10.67,26.96,3.97-1c-.07-1.62.11-3.23.59-4.78.13-.42.55-.7.59-1.17.09-1.24-.54-1.97-.13-3.84.26-1.19,1.1-1.99,1.22-2.48.09-.4-.51-1.36-.5-2.06.03-1.82,1.03-3.21,1.18-4.32.09-.72-.33-1.3-.35-1.93-.03-.97.38-2.89.94-3.72-1.25.33-1.55-1.01-.87-1.85l.87.39ZM218.74,49.38c-.49-.51-1.33-1-1.79-1.63-5.79,5.7-11.72,11.39-18.65,15.72,1.9.42,3.44.93,3.32,3.22l1.17-.39c.41.42-1.84,2.61-2.44,1.57-.08-.13.16-.96-.15-1.33-.2-.23-.92-.21-1.12-.93l.97-.29c.04-.59-.61-.73-1.07-.78-1.56-.18-4.69.39-4.58,2.42.05,1.05.45,1.78,1.5,2.03,4,.95,6.88-.68,9.81-3.17l-.56-.62.07-.46c4.94-4.52,9.17-9.83,13.77-14.64v1.17c1.44-.23.28-1.32-.26-1.88ZM197.18,57.27l.44.17c5.55-2.73.4-9.95-4.18-6.04.35,2.14,1.41.02,2.8.07,2.75.1,3.25,3.83.72,5l.23.8ZM185.41,57.51l-1.65-3.92c-1.64-.31-6.38-2.39-7.78-2.1-.85.17-2.75,1.97-3.66,2.41l13.08,3.61ZM197.64,55.3c.54-.54.59-1.39.37-2.09-.54-1.74-3.79-1.3-3.4.07.04.14,1.47,2.2,1.62,2.3.51.34,1.01.12,1.41-.28ZM183.05,70.77l3.06-11.9-14.95-4.3-4.69,16.4,16.58-.21ZM99.95,61.34c-.12-.12-.03-.37-.18-.31-1,1.23-2.35,2-3.61,2.93,1.75.17,3.21-1.07,4.1-2.44.02-.11-.22-.08-.31-.17ZM110.42,70.6l-8.91-8.57-2.41,2.04,8.78,8,2.54-1.47ZM219.19,74.7v-3.32l-3.14-.32-.97-2.7,1.96-2.35-1.56-2.36-2.83,1.4-2.91-1.67-1.1,1.45c5.8,2.18,7.62,9.8,3.51,14.45-.53.6-2.27,1.71-2.45,2.06s.3.94.49,1.28c.49.32,2.04-1.48,2.41-1.45.61.12,2.44,1.72,2.87,1.45l1.72-2.36-2.02-2.22c-.03-.13.62-2.44.72-2.62.48-.84,2.4-.42,3.28-.72ZM116.83,65.55c-.04-.06-.9-.39-1.06-.42-.86-.11-2.04.34-2.87.63-.5.17-2.97,1.16-2.87,1.6l.87.84c2.38-1.32,5.23-2.05,2.35,1.42-1.09,1.32-2.93,2.73-4.41,3.59-.6.35-3.85,2.09-4.28,1.48-.18-1.35,1.19-1.9,1.57-3.01l-.89-.69c-1.35,1.05-5.53,5.99-1.56,5.86,3.99-.13,9.82-4.52,11.97-7.76.45-.67,1.63-2.81,1.17-3.55ZM209.04,80.36c6.43-2.95,5.55-12.99-1.26-14.85l-2.84,2.35c5.75.05,8.04,7.06,3.13,10.16l.98,2.34ZM120.57,71.58l-.31-.76-2.42-3.53c.09,1.84,1.3,3.31,2.73,4.3ZM81.9,69.42c-.57-1.95-2.44-.42-3.31.5-1.54,1.61-2.95,4.66-3.3,6.85-.25,1.52-.79,5,1.54,4.76-1.22-4.21.99-10.25,5.08-12.11ZM206.4,68.84c-.9-.14-2.09.1-3.03,0,.86,3.03,2.71,5.65,4.21,8.4,3.74-1.61,2.79-7.78-1.18-8.4ZM78,82.31c5.28.07,8.91-9.61,5.37-13.28-.54-.23-.09,1.02-.09,1.26.15,3.97-1.21,8.84-4.4,11.44-.31.25-.8.26-.88.58ZM82.1,70.4c-.75-.36-2.98,2.27-2.73,2.54.99-.56,1.58-1.21,2.73-.59v-1.95ZM193.17,70.45c-5.48,1.12-3.04,11.7,2.88,12.26,7.95.76,4.52-13.77-2.88-12.26ZM190.88,70.6c-1.21.41-2.17,2.24-2.33,3.43-.73,5.52,3.78,11.73,9.75,9.65h-2.62c-5.27-1.27-8.99-8.87-4.8-13.08ZM117.01,73.57c-.05-.09-.47-.22-.65-.42-.29-.33-.94-1.41-1.32-1.35-3.39,2.92-6.91,5.6-11.46,6.32l4.98,6.35.54.17,11.08-4.47-1.76-2.63c.53-.29,1.03-1.43,1.27-2.05.26-.7.55-1.56-.48-1.76.29,1.42-1.48,2.09-2.05.78-.14-.32-.03-.72-.14-.93ZM195.56,85.25c-5.68-.63-9.4-7.45-7.62-12.7-1.06.7-5.4,3.92-5.44,4.97-.08,2.09,3.22,7.65,5.33,7.93,1.09.14,6.4.51,7.15.29.22-.06.53-.25.58-.49ZM176.03,72.95c-1.41-.53-3.01-.04-4.39-.01-22.34.5-43.73,5.39-64.02,14.49-.67.3-1.38.57-2.08.75-.24.33,1.28,1.21,1.56,1.46.32.28,1.35,1.49,1.55,1.56.47.17,1.14-.47,1.97.4,2.35,2.47-2.33,8.63-5.42,7.37-1.74-.71-.7-2.33-.88-3.25-.04-.21-1.33-1.5-1.52-1.29l-1.37,7.81c10.84-5.09,22.48-8.95,34.17-11.62,13.85-3.16,28.15-4.91,42.38-5.17-.88-1.29.03-2.87,1.37-3.22-.18-.37-.62-.05-.78-.18-.19-.16-1.1-4.06-1.31-4.75-.37-1.2-1.06-2.61-1.33-3.75-.05-.2.02-.4.1-.58ZM181.89,72.94c-.55.01-1.11-.02-1.66,0-.24,0-.73-.15-.68.19.73-.04,1.86.64,2.34-.19ZM122.91,75.09l-.97-1.56c-.51.53.71,1.83.97,1.56ZM77.8,78.8c-.25-1.3.54-2.26.39-3.52-.35.2-.54,1.03-.64,1.41-.09.33-.47,1.97-.33,2.11h.58ZM103.97,89.74c-1.19-.52-2.31-1.17-3.52-1.66-1.34-.53-6.11-1.79-6.84-2.54-.28-.29.24-.51-1.03-1.3-1.21-.75-1.65-.91-2.91-1.17-.68-.14-1.27-1.11-1.82-1.53-.1-.24.37-.33.22-.77-.07-.2-2.12-3.2-2.37-3.51-.1-.12-.37-.49-.47-.41-.29,1.52-1.4,2.67-2.09,4,2.38,3.27,4.96,6.15,8.73,7.81,3.22,1.42,6.78,1.79,9.89,3.59,1.91,1.11,3.3,2.55,4.65,4.26,1.41-.38,2.64-1.74,2.44-3.26-.57.35-.79-.08-1.17-.49l.39-.58c-.2-.48-3.63-3.23-4.2-3.42-.1-.03-.32-.05-.29.09l.39.88ZM206.11,79l-.97-1.95c-.04.78.24,1.59.97,1.95ZM202.79,84.85c-.81-.79-1.25-1.82-.67-2.91.12-.23.67-.63.66-.7,0-.1-.49-.34-.54-.61-.1-.51.64-1.99-.24-2.42-.23,2.24-1.08,4.24-2.56,5.93l-2.52,1.87,3.32.2c-.19-.64-1.45-.27-1.15-1.04.19-.47,1.28-.9,1.67-1.27.77.19,1.14,1.13,2.02.94ZM185.99,85.44c-1.49-1.72-3.01-3.23-3.9-5.38l-.74.34c-.31.51,1.37,4.34,1.9,4.76.69.55,1.89.17,2.75.28ZM208.84,84.86l-.22-.85-1.93-3.83c.22,1.65.71,3.7,2.14,4.69ZM182.28,85.44l-1.95-4.88c-.52.86.3,4.59,1.11,4.84.27.08.57.04.84.04ZM204.5,82.36c-1.16-1.17-2.34.96-1.18,1.73,1.03.69,2.02-.9,1.18-1.73ZM205.33,84.66c1.03-.03,1.01-1.72.49-2.34.09.97.25,1.55-.49,2.34ZM180.14,85.44c-.38-2.2-1.84-2.88-1.17,0l.49-.59.68.59ZM104.95,96.77c-.04,3.22,3.22.87,4.29-.49.94-1.2,2.2-3.88,0-4.39,1.46,1.79.16,4.14-1.62,5.12-1.12.62-1.7.68-2.67-.24ZM172.18,106.48c-.13-.08-.24-.5-.49-.58l-6.4-4.24c3.02,2.8,6.29,5.36,9.86,7.42-.13-.79.15-.5.49-.97-1.03-.11-1.69-1.34-2.73-.98l.02-.49c-.21-.11-.53-.03-.74-.15ZM218.22,109.07c-4.7-.59-9.24-2.02-13.54-3.94l-5.59-2.9c4.82,4.44,11.17,6.66,17.67,7.04.31.02,1.34.15,1.47-.2ZM208.26,115.32c-7.27-1.42-14.14-4.78-20.49-8.51l-6.27-4.18c4.67,4.66,10.64,8.55,16.89,10.74,2.67.94,6.38,1.93,9.19,2.14.22.02.73.15.68-.19ZM145.57,104.58c-.17-.34-.31-.86-.78-.78.17.34.31.86.78.78ZM172.32,118.25c-7.16-3.03-13.35-8.16-18.94-13.48l3.22,4.3c3.7,3.92,9.93,7.8,15.13,9.29.19.05.65.25.6-.11ZM182.67,129.58c-11.12.61-22.17-3.07-31.31-9.21-5.31-3.57-9.86-8.18-13.53-13.4l-13.92,3.89c-.15,8.17-2.32,16.7-8.54,22.33.16,2.07.18,4.19.12,6.27-.13,4.78,0,8.87.19,13.66.55,14.22-2.23,25.87,10.06,36.03,5.55,4.58,11.79,6.61,18.19,9.54,3.76,1.72,6.75,3.87,10.96,4.66,7.81,1.47,11.63-1.75,18.13-4.8,8.42-3.94,15.32-5.59,21.74-13.02,7.54-8.72,5.72-17.36,6.05-27.93l.97-13.06c-1.18-4.67-2.17-9.46-2.52-14.28-.05-.69.18-3.47-.18-3.72l-8.02-.48,1.99,3.58.65,2.48c-4.82-4.39-11.39-6.27-17.87-5.86,1.82,1.4,4.2,2.18,6.38,2.91.3.1.56-.17.46.41ZM148.3,107.9c.05-.41-.42-.77-.78-.98-.05.41.42.77.78.98ZM147.52,107.9c.06-.35-.26-.64-.58-.78-.06.35.26.64.58.78ZM187.75,113.56c-.97-.19-2.01-.52-2.93-.88-1.89-.75-5.47-2.95-7.03-3.33-.48-.12-.68.3-1.04.27-.29-.02-.68-.48-1.11-.35l5.02,2.49c2.04.6,4.2,1.52,6.29,1.91.2.04.82.28.79-.11ZM208.45,111.22l-8-1.95,2.29,1.12c1.54.43,3.25.9,4.84,1.02.22.02.91.16.87-.19ZM162.56,120.59c-4.42-3.1-8.48-6.64-12.21-10.54l-.13.56-.56.03v.29c3.52,4.06,7.89,7.61,12.89,9.67ZM112.17,128.79c1.88-4.63,2.34-9.49,1.76-14.45l-1.76,14.45ZM116.47,124.3c1.01-1.14,1.88-2.94,2.33-4.41.29-.95.83-3.39.77-4.29-.02-.32-.43-.66-.37-1.06l-2.73,9.76ZM210.21,122.16c-8.43-1.29-16.69-3.71-24.61-6.84,1.25.92,2.92,1.72,4.36,2.38,5.89,2.67,12.09,4.26,18.58,4.66l1.67-.2ZM109.05,130.94l-.95-5.2-.61-5.93-.15.79-.45.1c-.14,2.69.19,5.2,1.05,7.75l1.11,2.5ZM172.7,123.35l-1.93-.41c.55.6,2.4,2.35,1.93.41ZM113.32,163.34c-.11-5.15-.14-10.35-.56-15.5-.42-5.12-.74-8.16-4.29-12.11-5.34-5.96-13.38-4.62-14.96,3.61-1.18,6.2,1.12,13.88,5.19,18.66,3.58,4.19,9.03,7.2,14.62,5.35ZM203.59,163.54c12.16,2.73,20.61-11.55,19.9-22.14-.86-12.83-13.94-11.45-18.14-1.35-1.33,3.2-1.67,13.33-1.79,17.16-.06,2.11.05,4.23.03,6.33ZM144.2,203.01c.03-.53.11-1.35-.53-1.53-.68-.19-4.71,1-5.62,1.33-1.23.44-2.38,1.06-3.56,1.61-.37,1.88-.59,3.77-1.12,5.61-.53,1.83-1.47,3.47-2.02,5.24,3.63,2.66,7.56,4.89,11.77,6.48,2.49-7.29,6.93-6.2,10.18-.21.37.68,1.04,3,1.75,3.13.49.09,1.14-.06,1.66,0-1.48-3.6-3.47-6.24-6.58-8.55-3.2-2.37-8.63-5.07-10.65-8.49-.52-.89-1.07-1.94-.57-2.98l-.39-.19c.22-1.19,1.25-1.86,2.45-1.64.3.05.51.35.78.36.66.04,1.65-.77,2.45-.18ZM146.94,203.59v7.13c0,.05-.2.19-.17.37l.16.21c3.6,2.21,7.09,4.31,9.54,7.85.81,1.17,1.33,2.5,2.18,3.58,1.84-5.58,6.85-8.93,11.68-11.76l-.16-3.67c-7.65,3.76-17.01,1.83-23.24-3.71ZM182.42,204.43c-.17-.24-1.32-.79-1.7-.84l1.37,1.46.49.88c.21-.3.03-1.25-.16-1.5ZM180.71,212.98c.29.2.05,1.48,1.67,1.16.67-.13.58-.85.4-1.38-.21-.63-.85-.65-1.29-1.05-1.18-1.08-.79-3.32-1.26-4.8l-2.05-1.36c.29,1.33-1.49,2.66-1.72,3.46-.11.38.06.93-.13,1.24-.31.49-.77-.25-1.08-.11-.79.35-2.73,2.17-3.65,2.8-1.55,1.06-3.23,1.96-4.73,3.08-2.92,2.19-5.35,5.14-6.46,8.67l1.74-.02c1.15-3.18,4.93-10.77,9.2-7.3,1.23,1,1.88,2.94,2.34,4.4l6.44-2.93c.05-.38-.42-.05-.61-.31-.61-.83-.82-4.62-1.73-5.74.7-.04,1.37.3,2.05.35.25.02.71-.26.86-.15ZM184.82,213.35l-1.56-3.71c.04.7-.12,1.48.09,2.16.09.31,1,1.91,1.47,1.55ZM145.77,221.36c.67-.64,1.26-1.66,1.56-2.54-.77.57-1.3,1.64-1.56,2.54ZM170.17,219.61c.04-.42-.39-.83-.78-.78l.78.78ZM165.49,223.9c-1.01.1-1.53-.23-1.85-1.17l-1.27,1.75,1.22-.05,1.91-.53Z"/><path d="M235.1,97.75c-5.96-5.13-15.07-7.21-22.45-9.38l-1.87-4.95,1.88-1.31c.71-.07,2.05,1.57,2.88,1.35.31-.08,2.64-3.05,2.59-3.3-1.4-1.75-2.86-1.75-1.49-4.39l3.3-.5c-.07-.77.27-3.81-.17-4.17-.1-.08-.29-.12-.42-.17-.89-.28-1.91.08-2.72-.45l-.72-2.09c.1-.5,2.13-1.38,2.1-2.37-.02-.43-2.41-3.43-2.74-3.34l-2.63,1.62-2.06-1.59,9.87-11.25c.41-.32.86.2,1.47-.08.23-.11,2.69-2.63,3.03-3.02.69-.8,1.68-1.68,1.42-2.79-.24-1.08-4.23-5.12-5.37-4.69l-4.75,4.44c-.52.54.15,1.34-.08,1.86-.13.29-2.75,2.78-3.23,3.23-2.42,2.32-6.4,6.1-9.12,7.88-.44.29-1.32.83-1.81.93-.29.05-.39-.22-.59-.31-.04.63.5.74-.25,1.22-.65.41-1.81.89-2.29.05l.38-.09.23-1.54c.79-.22,1.28.09,1.93.36.06-.94,1.45-.62.75-1.83-.32-.56-.99-.59-.62-1.44l1.44-.53.16-2.03c-.21-.33-1.99.14-1.5-1.26.16-.47,1.13-.26.6-1.44-.82-1.85-2.02-.44-2.58-.72-.78-.41-.05-1.23-.29-1.67l-1.28-.56-.4-.17c.05-.15.11-.27.19-.35.62-.06,1.72.71,2.23.32.38-2.33,1.72-2.72,2.69-.42l2.5-.98c.29-.41-1.3-1.81.11-2.74.77-.52,1.53,1.02,2.34,0,.17-.22.87-1.68.83-1.85-1.96-1.08-2.14-2.55.43-2.64l-.21-2.7c-2.07.32-3.11-1.08-1.37-2.49.11-.54-1.41-1.77-1.82-2.17-1.09.5-1.17,1.64-2.52.75l-.14-1.95-2.69-.39c-.29.77-.17,1.69-1.19,1.85-1.05.17-1.08-1.22-1.87-1.29-.55.07-2.03.68-2.04,1.27,0,.56.78.98.2,1.97-.59,1.02-1.71-.23-2.17-.02-.36.41-1.37,2.01-1.08,2.44.3.47,1.37.23,1.3,1.47-.05.96-1.23.92-1.97,1.08.34.55.09,2.5.71,2.71.68.23,1.96-.44,2.03.92.04.8-1.23,1.03-.84,1.97.11.25,1.16,1.35,1.37,1.41.59.16.97-.98,1.92-.97,2.18.03.49,4.57-.7,4.02-.84-1.48-1.24-1.77-2.84-.89l.3,1.47c-.85.86-1.73-.43-2.72-.41l-4.26-3.64,1.91-9.03c-.13-1.29-2.42-1.91-3.51-2.17-.89-.21-2.34-.62-3.02.11l-2.93,7.19c-3.9-1.45-8.33-2.35-12.5-2.71-1.14-.11-5.53-.02-6.15-.3-.16-.08-2.28-2.03-2.31-2.18-.17-.73.91-1.55-.16-2.38-.18-.14-.62-.19-.65-.23-.12-.16.91-3.07.28-3.88-.71-.91-7.57-1.84-8.4-1.2-.68.52-.44,2.79-.7,3.6-.17.55-.96.14-1.17.44l-.35,2.34c-2.52,1.45-5.26,2.54-7.54,4.38-.41,0-2.8-6.59-3.25-7.49-.95-1.87-1.56-1.58-3.5-1.2-5.03.98-16,5.87-19.9,9.2-.57.5-1.43,1.14-1.06,1.99l4.17,10.5c-3.05,4.26-5.34,8.99-7.03,13.95l-6.14-5.65c.27-1.62-.18-3.31-.98-4.71l-15.85-15.59c-2.25-1.15-5.77,2.62-6.99,4.29-.59.81-1.87,2.79-1.81,3.76.07,1.12,3.14,3.26,4.04,4.12,4.2,4,8.28,8.13,12.59,12.02,1.6.67,3.32.81,4.98.68l5.86,5.47c-1.35,1.16-3.55,3.83-3.51,5.67.02,1.41,2.88,3.74,3.48,5.11l-1.33,5.72-8.39-2.84c-3.39-1.4-7.42-5.18-8.78-8.61-.34-.87.2-3.15-.15-4.53-.64-2.56-4.05-4.26-6.37-2.93-3.23,1.85-6.36,9.7-5.02,13.16.75,1.96,3.95,2.72,5.81,2.08.63-.22,2.27-1.56,2.57-1.38,2.26,3.77,5.63,6.72,9.73,8.33,2.89,1.13,6.2,1.41,8.78,3.25l-1.99,10.07c-6.04,3.12-19.5,10.86-19.82,18.47-.29,6.81,9.6,9.42,14.84,10.24l-1.79,2.6c-4.6,8.53-.13,22.06,7.17,27.85,3.79,3.01,8.73,4.76,13.57,3.61.39.28.14,4.6.2,5.48.98,14.19,13.8,23.9,26.36,27.83.06.47,0,.31-.27.41-1.53.55-6.17,1.9-7.05,3.11-.58.79-.53,2.73-.74,3.75-.68,3.21-1.73,5.72-3.23,8.62.11,1.21,5.35,4.48,6.54,5.17,6.33,3.67,13.72,6.04,21.05,6.68,8.82.76,20.4-2.96,27.81-7.73.79-.5,4.33-3,4.61-3.6.33-.71-.97-2.56-1.31-3.38-1.26-3.07-1.37-5.39-2.2-8.34-.68-2.41-5.05-3.64-7.24-4.28-.29-.09-.35.11-.29-.4,10.97-3.73,21.82-11,24.98-22.77.92-3.43,1.08-6.9,1.19-10.43,11.34,2.08,19.92-8.18,21.97-18.35,1.89-9.38-1.38-20.52-12.99-18.17l.61-3.1c4.81-.86,10.06-2.1,13.25-6.08-1.94.11-3.84-.11-5.75-.4-.26-.04-.6-.08-.29-.38,8.53-3.1,27.15-11.39,14.74-22.06ZM192.37,49.88c.48.15,1.2-.26,1.41-.71l-.17-1.42c2.02-.73,1.28,1.86,3.4,1.14.04-.02.08-.04.11-.07.12-.11.21-.3.29-.54.05-.15.09-.32.14-.48.02-.08.05-.17.07-.24.25.29,1.19.44,1.26.7.12.44-.5.8.11,1.44,1.1,1.16,1.79-.05,2.13.02,1.52.96.11,1.26-.04,2.08-.32,1.79,1.65,1.43,1.74,1.73.41,1.89-1.75.68-1.93,2.57-.08.79,1.16,1.03.86,1.61-.44.87-1.73-.14-2.52.38-.47.29-.1,1.35-.62,1.19l-.5-1.24c6.03-3.69.06-11.64-5.16-6.97l-1.27-1.66c.5-.4.38.38.71.47Z"/><path class="cls-1" d="M200.86,56.1c-.08.79,1.16,1.03.86,1.61-.44.87-1.73-.14-2.52.38-.47.29-.1,1.35-.62,1.19l-.5-1.24c6.03-3.69.06-11.64-5.16-6.97l-1.27-1.66c.5-.4.38.38.71.47.48.15,1.2-.26,1.41-.71l-.17-1.42c2.02-.73,1.28,1.86,3.4,1.14.04-.02.08-.04.11-.07.12-.11.21-.3.29-.54.05-.15.1-.32.14-.48.02-.08.05-.17.07-.24.25.29,1.19.44,1.26.7.12.44-.5.8.11,1.44,1.1,1.16,1.79-.05,2.13.02,1.52.96.11,1.26-.04,2.08-.32,1.79,1.65,1.43,1.74,1.73.41,1.89-1.75.68-1.93,2.57Z"/><path class="cls-1" d="M182.67,129.58c.1-.58-.15-.31-.46-.41-2.18-.73-4.55-1.51-6.38-2.91,6.48-.41,13.05,1.47,17.87,5.86l-.65-2.48-1.99-3.58,8.02.48c.36.25.13,3.03.18,3.72.35,4.82,1.34,9.61,2.52,14.28l-.97,13.06c-.33,10.57,1.49,19.21-6.05,27.93-6.42,7.43-13.32,9.08-21.74,13.02-6.5,3.05-10.32,6.27-18.13,4.8-4.21-.79-7.2-2.94-10.96-4.66-6.4-2.93-12.65-4.96-18.19-9.54-12.29-10.16-9.51-21.81-10.06-36.03-.18-4.79-.32-8.88-.19-13.66.06-2.07.03-4.2-.12-6.27,6.22-5.62,8.39-14.16,8.54-22.33l13.92-3.89c3.68,5.21,8.23,9.83,13.53,13.4,9.13,6.14,20.19,9.82,31.31,9.21ZM143.01,126.44c.16-.9.74-5.11.21-5.55-.25-.21-2.17-.45-2.64-.48-8.09-.57-16.27,3.09-17.67,11.72,5.39-4.98,12.91-6.6,20.1-5.68ZM144.4,147.84c.12-1.21-.09-2.58,0-3.81l.37,1.49c.37,3.42.3,6.69-.56,10.03l1-2.61c1.09-4.39,1.11-9.15-.52-13.4-3.84-10.06-14.37-10.71-18.26-.3-1.76,4.71-1.68,9.88-.19,14.66.11.35.24,1.12.59,1.26-1.25-5.91-.99-13.48,3.05-18.34,2.77-3.33,7.15-3.97,10.37-.84.2.19.55.19.45.62-6.17-2.97-9.61,3.88-9.96,9.08-.21,3.18.66,6.77,2.34,9.47-2.38.21-5.08.38-7.35,1.15-.26.09-.6.06-.66.41,6.34-.91,12.85-.25,19.14.78,0-.29-.55-.37-.79-.48-.7-.31-1.33-.47-2.05-.69-.14-.04-.44.06-.28-.29.09-.21.71-.81.94-1.21,1.08-1.93,2.16-4.79,2.38-6.99ZM172.13,144.42v3.22c0,.57.46,2.42.64,3.07.54,1.94,1.67,3.92,2.87,5.52l-3.12,1.27c6.23-1.08,12.64-1.62,18.94-.78l-2.5-.92-5.31-.65c2.48-4.25,2.94-9.83,1.01-14.39-1.32-3.13-4.15-5.9-7.79-4.59-.47.17-.75.6-1.23.62,5.76-5.94,11.52-1.94,13.67,4.78,1.36,4.23,1.41,8.63.78,12.99l1.15-4.22c1.45-7.15-2.13-20.55-11.74-18.38-7.97,1.81-10.37,14.03-8.18,20.77l1,2.81c-.65-3.2-1-6.4-.58-9.66l.39-1.47ZM154.36,159.46c1.71-5.73,1.48-11.9-.29-17.58-.25,0,.47,4.53.5,4.97.17,2.98-.11,6.39-.65,9.32-.5,2.7-1.81,5.44-1.5,8.16l1-3c1.84-1.66,5.1-1.97,7.44-1.44.72.16,1.4.63,2.1.63-2.47-1.73-5.76-2.16-8.59-1.08ZM125.95,157.7c-.49.15-.37,1.28.19,1.17.6-.12.69-1.43-.19-1.17ZM190.88,157.89l-.75.03c-.65,1.29,1,1.31.75-.03ZM183.26,160.82c.14.19,1.37.41,1.14-.45-.27-.99-1.5-.03-1.14.45ZM188.05,159.85c-.57.13-.57,1.07-.01,1.12.92.08.59-1.25.01-1.12ZM121.72,161c.64-1.04-1.24-1.23-.96-.08.1.41.87.21.96.08ZM128,160.05c-.62.48.72,1.5.97.68.19-.64-.73-.86-.97-.68ZM132.31,160.06c-.14.09-.33.82.09.95,1.36.42.88-1.55-.09-.95ZM136.49,160.24c-.39.11-.39.86,0,.97.9.25.9-1.22,0-.97ZM180.33,161.21c.23-1.08-.93-1.46-.97-.29l.97.29ZM194.78,161.02c1.31.14,1.29-.92,0-.78v.78ZM124.39,160.44c-.67.21,0,1.12.57.97s.36-1.25-.57-.97ZM191.56,160.43c-.39.11-.39.86,0,.97.9.25.9-1.22,0-.97ZM165.69,161.41c.73,1.73,1.65,4.94.08,6.43-1.07,1.02-1.43-.8-3.31.21-1.97,1.05-2,2.26-4.89,1.97-2-.2-2.82-2.26-4.34-2.52-1.13-.19-1.59,1.59-2.69-.41-1.06-1.93-.15-3.88.69-5.67-2.03,1.61-3.71,4.75-1.95,7.13,1.44,1.95,2.68.86,4.31,1.36.5.16,1.01.91,1.49,1.25,2.21,1.55,4.35,1.57,6.57,0,.48-.34.99-1.09,1.49-1.25,1.72-.53,2.96.72,4.34-1.51,1.46-2.35.06-5.27-1.79-6.97ZM122.84,162.4c-.75.13-.46,1.25.14,1.14.75-.13.46-1.25-.14-1.14ZM130.85,162.4c-.44.07-.75,1.02-.22,1.16.97.26,1.05-1.3.22-1.16ZM185.34,162.42c-.83.23-.44,1.14.16,1.1.55-.04.74-1.34-.16-1.1ZM194,162.39c-.73-.5-1.44,1.68.11.79l-.11-.79ZM134.83,162.58c-.55-.39-1.18.78-.49.97.78.22.71-.82.49-.97ZM182.47,162.59c-.57-.43-1.31.57-.77.97.42.31,1.26-.61.77-.97ZM126.63,162.97l.51.96.64-.5-.5-.62-.65.16ZM188.93,163.75c.3.2,1.16-.07.97-.68-.09-.28-.8-.4-.97-.29-.11.08-.11.89,0,.97ZM186.39,165.13c-.15.18.03,1.08.48.97,1.02-.25.03-1.61-.48-.97ZM129.17,166.09l.97-.29c-.05-1.16-1.2-.78-.97.29ZM136.98,170.39c-3.58-.98-7.86,1.69-7.42,5.66l.98-1.46c1.13-1.26,2.4-2.34,3.89-3.14l2.55-1.06ZM187.16,176.06c.36-4.2-3.82-6.69-7.61-5.66l2.93,1.26c1.27.78,2.55,1.58,3.51,2.74.44.53.63,1.25,1.17,1.66ZM134.83,174.1c-.07.35.18.48.39.69,4.62,4.64,11.67,8.44,18.13,9.6,10.68,1.93,21.61-2.47,28.75-10.38l-5.53,3.64c-6.71,3.7-14.19,5.51-21.88,4.63-7.22-.83-14.07-3.87-19.85-8.17ZM166.66,187.58c-5.26,1.96-11.33,1.9-16.6,0,3.67,4.34,11.23,4.3,15.61,1.06l.99-1.06Z"/><path class="cls-1" d="M176.03,72.95c-.08.18-.15.37-.1.58.28,1.14.97,2.55,1.33,3.75.21.7,1.12,4.6,1.31,4.75.16.13.61-.19.78.18-1.34.35-2.25,1.93-1.37,3.22-14.23.26-28.53,2.02-42.38,5.17-11.69,2.67-23.34,6.53-34.17,11.62l1.37-7.81c.18-.21,1.48,1.08,1.52,1.29.17.92-.86,2.54.88,3.25,3.09,1.26,7.77-4.9,5.42-7.37-.82-.87-1.5-.23-1.97-.4-.2-.07-1.23-1.27-1.55-1.56-.28-.25-1.81-1.13-1.56-1.46.71-.18,1.42-.45,2.08-.75,20.29-9.1,41.68-13.99,64.02-14.49,1.38-.03,2.98-.52,4.39.01ZM167.58,78.45c-2.01.46-1.94,3.63.37,3.86,2.89.28,2.68-4.55-.37-3.86ZM135.36,83.14c-1.86.42-1.88,3.53.21,3.83,2.98.43,2.94-4.54-.21-3.83ZM115.44,89.18c-2.11.43-2.06,4.25.72,3.86s1.79-4.37-.72-3.86Z"/><path class="cls-1" d="M135.03,70.21l.47.39,13.78,2.34-1.82.32-12.63-1.68.73.53,9.62,1.61-12.5,2.74c-.15-.17.22-2.69.32-3.1.19-.76.95-1.77.99-2.1.1-.81-.47-2.25-.29-3.64.16-1.15,1.01-2.1,1.12-2.8.13-.91-.41-1.65-.37-2.5.06-1.55,1.24-3.11,1.35-3.95.2-1.46-.81-2.6.1-4.96.17-.45.78-1.02.8-1.46.02-.48-.52-1.2-.51-1.94.02-1.3.81-5.3,1.28-6.55,1.54-4.07,5.32-5.09,8.67-7.15.78-.48,1.9-1.66,2.64-1.65s7.21,1.07,7.52,1.29c2.18,2.79,5.52,4.53,6.94,7.9,1.3,3.07.99,7.16.21,10.36-.14.55-.66,1.22-.69,1.66-.03.49.37,1.1.4,1.74.02.5-.13,1.82-.26,2.3-.21.81-1.01,1.55-1.09,2.04-.07.46.45,2.11.33,3.25-.15,1.38-1.24,2.63-1.3,3.18-.08.76,1.31,2.61-.14,3.2-2.64-.1-5.85,1.02-8.39.98-1.24-.02-3.17-.59-4.53-.76-4.26-.53-8.51-1.06-12.77-1.59ZM163.14,48.14l-25-3.52c.06.34.39.34.65.42.94.28,2.4.51,3.41.69,5.17.93,10.95,1.79,16.17,2.38,1.24.14,2.87.36,4.08.38.17,0,.72-.07.68-.35ZM162.17,54.78c-.08-.36-.49-.4-.78-.49-1.04-.33-2.7-.48-3.84-.65-6.5-1.01-13.08-1.65-19.6-2.56.6.65,2,.76,2.89.92,7.03,1.28,14.23,1.97,21.33,2.79ZM161.58,55.76l-24.02-3.32c-.09.56.12.33.45.42,6.59,1.79,14.92,1.7,21.71,3.11l1.86-.2ZM161.19,60.84l-24.21-3.32c-.05.28.34.27.54.33,6.3,1.98,15.22,1.72,21.82,3.18l1.85-.19ZM160.8,62.2l-24.21-3.32c-.05.28.34.27.55.33.71.2,1.58.3,2.32.42,6.39,1.04,13.88,2.31,20.28,2.76.23.02,1.07.16,1.07-.19ZM160.61,67.28l-24.6-3.52c-.09.53.1.34.42.44.4.13.88.19,1.3.28,5.58,1.11,16.84,3.21,22.2,2.99.24,0,.73.15.68-.19ZM160.02,68.65l-24.21-3.32c.23.41,1.22.48,1.69.56,6.87,1.17,14.73,2.4,21.65,2.95.21.02.91.16.87-.19Z"/><path class="cls-1" d="M113.32,163.34c-5.59,1.85-11.04-1.16-14.62-5.35-4.07-4.77-6.38-12.46-5.19-18.66,1.57-8.22,9.61-9.57,14.96-3.61,3.55,3.96,3.87,7,4.29,12.11.42,5.15.46,10.34.56,15.5ZM104.75,153.6v-3.03c0-.15.38-1.03.48-1.28,1.71-3.99,4.75-.5,5.13,2.3.6,4.4-2,8.81-6.2,4.73-.34.36,1.75,1.89,2.18,2.02,2.44.71,4.19-.69,5.08-2.86,2.34-5.68-2.09-16.46-7.94-18.69-5.44-2.08-7.61,2.42-7.73,7.13l.4,1.85c.02-3.42,1.22-8.16,5.52-7.57.23.03,1.06.25,1.12.54-3.4,1.21-4.03,5.01-3.9,8.2l1.46-3.91c.79-1.54,2.42-3.01,4.29-2.72,1.51.23,3.93,4.33,4.21,5.85-4.76-2.12-6.45,4.4-4.1,7.42Z"/><path class="cls-1" d="M203.59,163.54c.02-2.1-.09-4.23-.03-6.33.12-3.82.46-13.96,1.79-17.16,4.2-10.1,17.28-11.48,18.14,1.35.71,10.59-7.73,24.88-19.9,22.14ZM220.76,145.59v-3.81c0-.31-.52-1.84-.69-2.24-1.16-2.81-3.72-3.9-6.59-2.89-6.08,2.15-10.28,12.83-8.24,18.7.86,2.47,3.4,4.26,5.86,2.54.38-.27,1.54-1.38,1.37-1.76-4.49,4.94-7.29-1.21-5.85-5.66.76-2.35,3.5-4.55,4.82-1.31.68,1.68.57,3.07.36,4.82l1.08-2.33c.64-3.51-1.23-7.4-5.18-5.28,1.14-2.76,3.58-8.22,7.21-5.16,1.62,1.36,1.95,3.11,2.41,5.01.05.2.06.59.34.54v-3.03c0-.18-.61-1.89-.74-2.19-.71-1.55-1.64-2.06-2.97-2.99,2.81-1.05,4.68-.18,5.76,2.54l1.08,4.49Z"/><path class="cls-1" d="M134.83,51.07l-.87-.39c-.68.85-.38,2.18.87,1.85-.55.83-.97,2.74-.94,3.72.02.63.44,1.21.35,1.93-.14,1.11-1.15,2.51-1.18,4.32-.01.7.59,1.66.5,2.06-.11.48-.95,1.29-1.22,2.48-.41,1.87.22,2.6.13,3.84-.03.47-.46.75-.59,1.17-.48,1.55-.66,3.16-.59,4.78l-3.97,1-10.67-26.96c6.85-1.28,13.36-4.1,19.33-7.62-.65,2.54-1.21,5.18-1.17,7.81Z"/><path class="cls-1" d="M183.05,70.77l-16.58.21,4.69-16.4,14.95,4.3-3.06,11.9ZM175.79,59.12c-1.87.41-1.19,3.42.69,3.06,1.99-.38,1.65-3.57-.69-3.06ZM180.68,63.99c-2.17.28-1.61,3.79.88,3.05,1.54-.46.96-3.28-.88-3.05ZM176.37,64.78c-1.65.37-1.26,3.2.69,2.86,1.71-.3,1.43-3.34-.69-2.86Z"/><path class="cls-1" d="M95.23,51.69c-.55.92,1.32,2.51,2.01,1.14l2.83,2.83c-1.52.89-1.34,2.21.21,2.94-.55,1.79-3.87,4.96-5.76,4.77l-15.54-14.35c1.85-1.2,3.5-2.56,4.98-4.2l1.95-3.13,9.86,9.67c0,.15-.48.22-.54.33Z"/><path class="cls-1" d="M146.94,203.59c6.23,5.54,15.59,7.47,23.24,3.71l.16,3.67c-4.83,2.82-9.84,6.17-11.68,11.76-.86-1.07-1.37-2.4-2.18-3.58-2.45-3.55-5.94-5.64-9.54-7.85l-.16-.21c-.03-.17.17-.31.17-.37v-7.13Z"/><path class="cls-1" d="M144.2,203.01c-.8-.6-1.78.22-2.45.18-.27-.02-.49-.31-.78-.36-1.2-.22-2.23.45-2.45,1.64l.39.19c-.51,1.04.04,2.09.57,2.98,2.02,3.42,7.45,6.12,10.65,8.49,3.11,2.31,5.09,4.96,6.58,8.55-.52-.06-1.17.1-1.66,0-.71-.13-1.38-2.45-1.75-3.13-3.25-5.99-7.68-7.08-10.18.21-4.22-1.59-8.14-3.83-11.77-6.48.55-1.77,1.49-3.41,2.02-5.24.54-1.84.75-3.74,1.12-5.61,1.18-.56,2.33-1.17,3.56-1.61.92-.33,4.95-1.52,5.62-1.33.64.18.56,1,.53,1.53ZM145.37,215.11l-5.67-5.17-1.95-2.64c.68,3.68,4.45,6.27,7.61,7.81Z"/><path class="cls-1" d="M131.12,34.86l.22.76.94.03.39,1.26-1.17.1c.33,1.11.83,2.91,1.96,3.41.45.2,1.13-.07,1.26.69.05.27-.26.41-.29.69s.26.63.11.88c-.18.29-4.44,2.39-5.12,2.7-4.19,1.94-8.64,3.46-13.16,4.44l-3.04-7.93c4.19-.91,8.26-2.47,12.16-4.26.74-.34,5.47-2.96,5.72-2.77Z"/><path class="cls-1" d="M218.74,49.38c.55.57,1.7,1.66.26,1.88v-1.17c-4.61,4.81-8.84,10.12-13.78,14.64l-.07.46.56.62c-2.93,2.49-5.81,4.13-9.81,3.17-1.05-.25-1.45-.98-1.5-2.03-.1-2.02,3.02-2.6,4.58-2.42.46.05,1.11.2,1.07.78l-.97.29c.19.72.92.7,1.12.93.31.37.07,1.19.15,1.33.6,1.04,2.85-1.15,2.44-1.57l-1.17.39c.12-2.29-1.42-2.81-3.32-3.22,6.93-4.32,12.86-10.02,18.65-15.72.46.63,1.29,1.11,1.79,1.63Z"/><path class="cls-1" d="M117.01,73.57c.12.21,0,.61.14.93.57,1.31,2.34.64,2.05-.78,1.03.2.75,1.06.48,1.76-.23.62-.73,1.76-1.27,2.05l1.76,2.63-11.08,4.47-.54-.17-4.98-6.35c4.55-.72,8.07-3.4,11.46-6.32.38-.06,1.03,1.02,1.32,1.35.17.2.6.33.65.42Z"/><path class="cls-1" d="M103.97,89.74l-.39-.88c-.03-.15.19-.13.29-.09.57.19,4,2.93,4.2,3.42l-.39.58c.38.41.6.84,1.17.49.2,1.52-1.04,2.88-2.44,3.26-1.35-1.71-2.74-3.16-4.65-4.26-3.11-1.8-6.67-2.17-9.89-3.59-3.77-1.66-6.35-4.54-8.73-7.81.69-1.33,1.79-2.49,2.09-4,.1-.08.37.29.47.41.26.31,2.31,3.31,2.37,3.51.15.44-.33.53-.22.77.55.42,1.14,1.39,1.82,1.53,1.26.26,1.7.42,2.91,1.17,1.27.79.75,1.01,1.03,1.3.74.76,5.51,2.01,6.84,2.54,1.21.48,2.33,1.14,3.52,1.66Z"/><path class="cls-1" d="M180.71,212.98c-.15-.11-.61.17-.86.15-.68-.05-1.35-.39-2.05-.35.91,1.12,1.13,4.91,1.73,5.74.19.26.66-.07.61.31l-6.44,2.93c-.46-1.46-1.11-3.4-2.34-4.4-4.28-3.46-8.05,4.13-9.2,7.3l-1.74.02c1.11-3.53,3.54-6.48,6.46-8.67,1.5-1.12,3.19-2.02,4.73-3.08.92-.63,2.86-2.45,3.65-2.8.31-.14.77.6,1.08.11.19-.31.02-.85.13-1.24.23-.8,2.01-2.12,1.72-3.46l2.05,1.36c.47,1.48.08,3.72,1.26,4.8.44.4,1.08.43,1.29,1.05.18.53.26,1.25-.4,1.38-1.62.31-1.39-.96-1.67-1.16ZM171.35,215.31c3.14-1.73,7.14-4.23,7.81-8.01-.57.53-.84,1.24-1.36,1.86-1.75,2.06-4.13,3.52-5.97,5.36-.23.23-.55.42-.48.79Z"/><path class="cls-1" d="M183.65,52.44l-6.83-1.76,5.95-16.22c.73-.17,4.43.91,4.56,1.5l-3.68,16.49ZM184.03,36.43c-.84-.36-1.65-.31-1.27.77.73.67,1.34.14,1.27-.77ZM180.13,48.33l2.94-9.27-.33-.47-.68.09-2.87,8.63.06.63.88.39Z"/><path class="cls-1" d="M202.38,30.39c.14.64-.26,1.45.33,1.91,1.32,1.02,1.79.54,2.88-.35l1.25,1.26c-1.81,1.36-.55,3.82,1.61,3.02,1,2.72-1.37,1.51-1.72,2.67-.38,1.26.16,1.88,1.12,2.53l-.57,1.35-.26.06c-1.78-1.41-3.77.77-2.3,2.47l-1.53.8-.3-.11c-.26-.33-.4-1.21-.82-1.35-1.72-.58-2.14.74-2.22,2.12l-1.54-.41-.14-1.95c-.59-.16-1.28-.66-1.92-.57-.58.08-.73.89-1.37.8-1.24-.71-1.41-1.49,0-2.16l-.73-1.92-1.6-.06-.43-1.54c.34-.4,1.05-.29,1.4-.57.38-.31.41-1.8.18-2.17-.2-.33-1.08-.3-1.08-.87l.78-1.39c.43-.22,1.29.97,2.45-.27.82-.88.2-1.3-.09-2.24l1.42-.69c1.04,1.94,3.34,1.79,3.47-.58l1.71.19ZM199.03,32.95c-1.8.29-3.75,2.32-4.12,4.08-.91,4.41,3.29,8.08,7.49,6.32,5.64-2.37,3.8-11.54-3.37-10.4Z"/><path class="cls-1" d="M193.17,70.45c7.41-1.51,10.83,13.02,2.88,12.26-5.92-.57-8.37-11.15-2.88-12.26ZM194.34,74.55c-4.45.24-1.12,8.65,2.57,5.9,2.29-1.71.2-6.05-2.57-5.9Z"/><path class="cls-1" d="M219.19,74.7c-.89.3-2.81-.12-3.28.72-.1.18-.75,2.49-.72,2.62l2.02,2.22-1.72,2.36c-.43.27-2.25-1.33-2.87-1.45-.37-.03-1.93,1.76-2.41,1.45-.19-.33-.67-.91-.49-1.28s1.92-1.46,2.45-2.06c4.11-4.65,2.28-12.27-3.51-14.45l1.1-1.45,2.91,1.67,2.83-1.4,1.56,2.36-1.96,2.35.97,2.7,3.14.32v3.32Z"/><path class="cls-1" d="M195.56,85.25c-.05.25-.36.43-.58.49-.75.22-6.06-.15-7.15-.29-2.11-.28-5.41-5.84-5.33-7.93.04-1.05,4.38-4.27,5.44-4.97-1.78,5.24,1.94,12.07,7.62,12.7Z"/><path class="cls-1" d="M116.83,65.55c.46.74-.73,2.87-1.17,3.55-2.16,3.24-7.98,7.63-11.97,7.76-3.97.13.21-4.81,1.56-5.86l.89.69c-.38,1.11-1.75,1.66-1.57,3.01.42.62,3.68-1.12,4.28-1.48,1.48-.87,3.32-2.28,4.41-3.59,2.88-3.48.03-2.74-2.35-1.42l-.87-.84c-.1-.44,2.37-1.43,2.87-1.6.83-.29,2.01-.74,2.87-.63.16.02,1.02.36,1.06.42Z"/><path class="cls-1" d="M209.04,80.36l-.98-2.34c4.91-3.1,2.62-10.11-3.13-10.16l2.84-2.35c6.81,1.86,7.7,11.9,1.26,14.85Z"/><path class="cls-1" d="M185.41,57.51l-13.08-3.61c.91-.44,2.81-2.24,3.66-2.41,1.39-.28,6.13,1.79,7.78,2.1l1.65,3.92Z"/><polygon class="cls-1" points="110.42 70.6 107.88 72.06 99.09 64.06 101.5 62.02 110.42 70.6"/><path class="cls-1" d="M133.85,31.35c-2.28,2.13-5.26,3.59-8.07,4.91-4.02,1.9-8.43,3.69-12.83,4.46,3.08-2.52,6.94-4.49,10.61-6.09,2.43-1.06,5.44-2.28,7.99-2.95.77-.2,1.47-.45,2.3-.34ZM126.23,34.47c-.38-.35-6.18,2.48-6.82,3.04-.22.2-.48.3-.41.67,1.88-.54,3.98-1.23,5.67-2.24.2-.12,1.93-1.12,1.56-1.47Z"/><path class="cls-1" d="M206.4,68.84c3.97.62,4.92,6.79,1.18,8.4-1.5-2.75-3.35-5.37-4.21-8.4.94.1,2.13-.14,3.03,0Z"/><path class="cls-1" d="M208.26,115.32c.05.34-.46.21-.68.19-2.81-.21-6.52-1.21-9.19-2.14-6.25-2.19-12.22-6.08-16.89-10.74l6.27,4.18c6.35,3.74,13.21,7.09,20.49,8.51Z"/><path class="cls-1" d="M221.14,42.28c-.11.89,3.12,3.31,3.12,3.61l-3.8,3.8-3.61-3.61,3.8-3.62.49-.19ZM221.47,44.47c-1.97.17-1.97,3.33.32,2.65,1.5-.45.9-2.75-.32-2.65Z"/><path class="cls-1" d="M78,82.31c.08-.32.57-.33.88-.58,3.19-2.59,4.55-7.47,4.4-11.44,0-.24-.45-1.49.09-1.26,3.54,3.67-.08,13.35-5.37,13.28Z"/><path class="cls-1" d="M81.9,69.42c-4.08,1.85-6.29,7.89-5.08,12.11-2.33.25-1.79-3.24-1.54-4.76.36-2.19,1.77-5.24,3.3-6.85.87-.92,2.74-2.45,3.31-.5Z"/><path class="cls-1" d="M210.21,122.16l-1.67.2c-6.49-.4-12.68-1.99-18.58-4.66-1.44-.65-3.11-1.45-4.36-2.38,7.91,3.12,16.17,5.55,24.61,6.84Z"/><path class="cls-1" d="M172.32,118.25c.05.36-.41.16-.6.11-5.2-1.49-11.42-5.36-15.13-9.29l-3.22-4.3c5.59,5.31,11.78,10.45,18.94,13.48Z"/><path class="cls-1" d="M197.18,57.27l-.23-.8c2.53-1.17,2.03-4.9-.72-5-1.39-.05-2.45,2.07-2.8-.07,4.59-3.91,9.73,3.31,4.18,6.04l-.44-.17Z"/><path class="cls-1" d="M162.56,120.59c-5-2.06-9.37-5.61-12.89-9.67v-.29s.55-.03.55-.03l.13-.56c3.73,3.9,7.79,7.44,12.21,10.54Z"/><path class="cls-1" d="M78,48.14c-.51-.59,1.59-3.56,2.05-4.1,1.23-1.48,2.85-2.86,4.69-3.51.18.14.27.23.3.48.21,2.22-4.61,7.08-7.04,7.13ZM82.81,42.5c-.61.05-4.05,2.94-2.76,3.88.86-.33,3.24-2.58,3.22-3.42,0-.25-.18-.51-.46-.46Z"/><path class="cls-1" d="M218.22,109.07c-.14.35-1.16.22-1.47.2-6.5-.38-12.84-2.6-17.67-7.04l5.59,2.9c4.31,1.92,8.85,3.35,13.54,3.94Z"/><path class="cls-1" d="M190.88,70.6c-4.19,4.22-.47,11.81,4.8,13.07h2.62c-5.97,2.09-10.47-4.12-9.75-9.64.16-1.19,1.12-3.02,2.33-3.43Z"/><path class="cls-1" d="M112.17,128.79l1.76-14.45c.59,4.96.13,9.82-1.76,14.45Z"/><path class="cls-1" d="M155.92,30.17l-.39,2.73c-.37.02-.4.09-.4-.3,0-.76.37-1.49.4-2.24-.7.2-.56,2.5-1.07,2.53-.4.03-.13-.57-.12-.7.05-.62.18-1.22.22-1.83-.51-.09-.35.08-.45.42-.18.62-.2,1.29-.34,1.92-.27.28-.36-.03-.39-.29-.09-.75.31-1.49.2-2.24-.93.46.23,2.26-.97,2.34l.19-2.54c-.28-.05-.28.35-.33.54-.15.61-.21,1.37-.25,2h-.58s.19-2.54.19-2.54c-.85.47.18,2.28-.97,2.34l.19-2.54c-.6.34-.35,1.25-.53,1.92-.09.35.06.51-.45.42l.19-2.73,5.66.78Z"/><path class="cls-1" d="M202.79,84.85c-.88.19-1.25-.75-2.02-.94-.39.37-1.48.8-1.67,1.27-.31.77.95.4,1.15,1.04l-3.32-.2,2.52-1.87c1.48-1.69,2.34-3.69,2.56-5.93.87.43.14,1.91.24,2.42.05.27.54.51.54.61,0,.07-.54.47-.66.7-.58,1.09-.14,2.12.67,2.91Z"/><path class="cls-1" d="M185.99,85.44c-.86-.1-2.06.28-2.75-.28-.53-.42-2.2-4.26-1.9-4.76l.74-.34c.89,2.15,2.42,3.65,3.9,5.38Z"/><path class="cls-1" d="M197.64,55.3c-.4.4-.9.62-1.41.28-.14-.1-1.58-2.17-1.62-2.3-.39-1.36,2.86-1.81,3.4-.07.22.7.16,1.55-.37,2.09Z"/><path class="cls-1" d="M187.75,113.56c.03.38-.59.14-.79.11-2.09-.4-4.25-1.31-6.29-1.91l-5.02-2.49c.42-.13.82.32,1.11.35.36.03.56-.39,1.04-.27,1.56.38,5.15,2.58,7.03,3.33.92.37,1.96.69,2.93.88Z"/><path class="cls-1" d="M109.05,130.94l-1.11-2.5c-.85-2.54-1.19-5.06-1.05-7.75l.45-.1.15-.79.61,5.93.95,5.2Z"/><path class="cls-1" d="M116.47,124.3l2.73-9.76c-.06.4.35.74.37,1.06.06.91-.48,3.34-.77,4.29-.45,1.46-1.32,3.26-2.33,4.41Z"/><path class="cls-1" d="M172.18,106.48c.21.12.54.04.74.15l-.02.49c1.05-.36,1.7.87,2.73.98-.34.48-.62.18-.49.97-3.57-2.06-6.85-4.62-9.86-7.42l6.4,4.24c.25.08.36.5.49.58Z"/><path class="cls-1" d="M104.95,96.77c.98.92,1.55.85,2.67.24,1.78-.98,3.08-3.33,1.62-5.12,2.2.5.93,3.19,0,4.39-1.07,1.36-4.33,3.71-4.29.49Z"/><path class="cls-1" d="M208.45,111.22c.03.35-.66.21-.87.19-1.59-.12-3.3-.59-4.84-1.02l-2.29-1.12,8,1.95Z"/><path class="cls-1" d="M182.28,85.44c-.27,0-.57.05-.84-.04-.81-.25-1.63-3.99-1.11-4.84l1.95,4.88Z"/><path class="cls-1" d="M156.9,34.28c.01.35.1.42-.29.39-1.01-.06-2.25-.29-3.29-.42-1.41-.18-3.09-.36-4.47-.61-.33-.06-.87-.02-.73-.53l8.79,1.17Z"/><path class="cls-1" d="M99.95,61.34c.09.09.33.07.31.17-.89,1.38-2.35,2.61-4.1,2.44,1.26-.92,2.61-1.69,3.61-2.93.14-.06.06.19.18.31Z"/><path class="cls-1" d="M204.5,82.36c.83.83-.15,2.41-1.18,1.73-1.16-.77.02-2.89,1.18-1.73Z"/><path class="cls-1" d="M82.1,70.4v1.95c-1.15-.63-1.74.03-2.73.59-.25-.27,1.98-2.9,2.73-2.54Z"/><path class="cls-1" d="M120.57,71.58c-1.43-.98-2.64-2.46-2.73-4.3l2.42,3.53.31.76Z"/><path class="cls-1" d="M208.84,84.86c-1.44-.98-1.93-3.03-2.14-4.69l1.93,3.83.22.85Z"/><path class="cls-1" d="M184.82,213.35c-.47.36-1.38-1.24-1.47-1.55-.2-.68-.04-1.46-.09-2.16l1.56,3.71Z"/><path class="cls-1" d="M165.49,223.9l-1.91.53-1.22.05,1.27-1.75c.32.94.84,1.28,1.85,1.17Z"/><path class="cls-1" d="M180.14,85.44l-.68-.59-.49.59c-.67-2.88.79-2.2,1.17,0Z"/><path class="cls-1" d="M77.8,78.8h-.58c-.14-.13.25-1.78.33-2.11.1-.38.29-1.21.64-1.41.15,1.25-.64,2.22-.39,3.52Z"/><path class="cls-1" d="M182.42,204.43c.19.26.37,1.2.16,1.5l-.49-.88-1.37-1.46c.38.05,1.52.6,1.7.84Z"/><path class="cls-1" d="M150.06,29.2c-.17.78-.11,1.62-.25,2.4-.06.34-.09.64-.53.53.13-.77.14-1.58.29-2.35.07-.35,0-.69.49-.57Z"/><path class="cls-1" d="M172.7,123.35c.47,1.94-1.38.19-1.93-.41l1.93.41Z"/><path class="cls-1" d="M224.86,45.02c-.24-.29-2.65-2-2.34-2.34.44.06,2.57,2.08,2.34,2.34Z"/><path class="cls-1" d="M145.77,221.36c.26-.9.79-1.97,1.56-2.54-.3.88-.89,1.9-1.56,2.54Z"/><path class="cls-1" d="M156.51,30.37c-.21.68-.18,1.4-.36,2.09-.09.34.14.54-.42.45.13-.69.18-1.41.36-2.09.09-.34-.14-.54.42-.45Z"/><path class="cls-1" d="M122.91,75.09c-.26.27-1.49-1.03-.97-1.56l.97,1.56Z"/><path class="cls-1" d="M181.89,72.94c-.48.83-1.61.15-2.34.19-.05-.34.44-.18.68-.19.55-.02,1.11.01,1.66,0Z"/><path class="cls-1" d="M206.11,79c-.73-.36-1.01-1.17-.97-1.95l.97,1.95Z"/><path class="cls-1" d="M205.33,84.66c.74-.79.57-1.37.49-2.34.53.62.54,2.31-.49,2.34Z"/><path class="cls-1" d="M145.57,104.58c-.47.09-.61-.44-.78-.78.47-.09.61.44.78.78Z"/><path class="cls-1" d="M148.3,107.9c-.36-.21-.83-.57-.78-.98.36.21.83.57.78.98Z"/><path class="cls-1" d="M170.17,219.61l-.78-.78c.39-.05.82.36.78.78Z"/><path class="cls-1" d="M147.52,107.9c-.32-.14-.65-.43-.58-.78.32.14.65.43.58.78Z"/><path d="M172.13,144.42l-.39,1.47c-.42,3.26-.06,6.46.58,9.66l-1-2.81c-2.19-6.74.21-18.96,8.18-20.77,9.6-2.18,13.18,11.23,11.74,18.38l-1.15,4.22c.63-4.36.58-8.76-.78-12.99-2.16-6.72-7.92-10.72-13.67-4.78.48-.02.76-.46,1.23-.62,3.64-1.31,6.47,1.46,7.79,4.59,1.93,4.56,1.47,10.13-1.01,14.39l5.31.65,2.5.92c-6.3-.84-12.71-.3-18.94.78l3.12-1.27c-1.2-1.6-2.33-3.58-2.87-5.52-.18-.65-.64-2.5-.64-3.07v-3.22ZM176.76,139.38c-2.38.37-1.87,5.69.69,4.41,1.83-.92,1.22-4.71-.69-4.41Z"/><path d="M144.4,147.84c-.22,2.2-1.3,5.06-2.38,6.99-.22.4-.84,1-.94,1.21-.15.35.15.25.28.29.72.22,1.35.38,2.05.69.24.11.78.19.79.48-6.29-1.03-12.8-1.69-19.14-.78.06-.36.4-.33.66-.41,2.27-.77,4.97-.94,7.35-1.15-1.68-2.7-2.55-6.28-2.34-9.47.34-5.2,3.79-12.05,9.96-9.08.1-.43-.25-.43-.45-.62-3.22-3.13-7.6-2.49-10.37.84-4.04,4.85-4.3,12.42-3.05,18.34-.34-.15-.48-.92-.59-1.26-1.49-4.77-1.57-9.94.19-14.66,3.89-10.41,14.42-9.76,18.26.3,1.62,4.25,1.61,9.01.52,13.4l-1,2.61c.86-3.34.93-6.61.56-10.03l-.37-1.49c-.09,1.23.12,2.6,0,3.81ZM139.46,139.38c-2.18.34-1.82,4.74.34,4.67,2.38-.08,1.91-5.02-.34-4.67Z"/><path d="M143.01,126.44c-7.19-.92-14.71.7-20.1,5.68,1.4-8.63,9.58-12.29,17.67-11.72.47.03,2.39.27,2.64.48.52.45-.05,4.65-.21,5.55Z"/><path d="M134.83,174.1c5.78,4.3,12.62,7.35,19.85,8.17,7.68.88,15.17-.93,21.88-4.63l5.53-3.64c-7.13,7.92-18.07,12.31-28.75,10.38-6.46-1.17-13.51-4.96-18.13-9.6-.21-.21-.46-.34-.39-.69Z"/><path d="M165.69,161.41c1.85,1.7,3.25,4.62,1.79,6.97s-2.62.98-4.34,1.51c-.5.15-1.01.91-1.49,1.25-2.22,1.57-4.36,1.55-6.57,0-.48-.34-.99-1.09-1.49-1.25-1.63-.5-2.86.59-4.31-1.36-1.76-2.38-.08-5.52,1.95-7.13-.84,1.79-1.75,3.75-.69,5.67,1.1,2,1.56.22,2.69.41,1.52.26,2.34,2.32,4.34,2.52,2.89.29,2.92-.91,4.89-1.97,1.88-1,2.24.81,3.31-.21,1.56-1.48.65-4.7-.08-6.43Z"/><path d="M154.36,159.46c2.83-1.08,6.12-.66,8.59,1.08-.71,0-1.39-.47-2.1-.63-2.34-.53-5.59-.22-7.44,1.44l-1,3c-.31-2.72,1-5.46,1.5-8.16.54-2.94.82-6.34.65-9.32-.02-.44-.75-4.97-.5-4.97,1.77,5.68,2.01,11.85.29,17.58Z"/><path d="M166.66,187.58l-.99,1.06c-4.37,3.25-11.94,3.29-15.61-1.06,5.27,1.9,11.34,1.96,16.6,0Z"/><path d="M187.16,176.06c-.54-.41-.73-1.12-1.17-1.66-.96-1.16-2.23-1.97-3.51-2.74l-2.93-1.26c3.79-1.03,7.98,1.46,7.61,5.66Z"/><path d="M136.98,170.39l-2.55,1.06c-1.5.8-2.76,1.88-3.89,3.14l-.98,1.46c-.44-3.97,3.83-6.64,7.42-5.66Z"/><path d="M130.85,162.4c.84-.14.75,1.42-.22,1.16-.54-.14-.23-1.09.22-1.16Z"/><path d="M183.26,160.82c-.36-.49.87-1.44,1.14-.45.23.86-1,.64-1.14.45Z"/><path d="M132.31,160.06c.97-.61,1.45,1.36.09.95-.42-.13-.23-.86-.09-.95Z"/><path d="M185.34,162.42c.91-.25.71,1.06.16,1.1-.6.04-1-.87-.16-1.1Z"/><polygon points="126.63 162.97 127.28 162.82 127.78 163.43 127.14 163.93 126.63 162.97"/><path d="M188.93,163.75c-.11-.08-.11-.89,0-.97.17-.11.88.01.97.29.19.6-.67.88-.97.68Z"/><path d="M125.95,157.7c.88-.26.79,1.04.19,1.17-.56.11-.68-1.02-.19-1.17Z"/><path d="M124.39,160.44c.93-.29,1.12.82.57.97s-1.24-.76-.57-.97Z"/><path d="M122.84,162.4c.61-.1.89,1.01.14,1.14-.61.1-.89-1.01-.14-1.14Z"/><path d="M121.72,161c-.08.13-.86.33-.96-.08-.29-1.15,1.6-.95.96.08Z"/><path d="M128,160.05c.23-.18,1.16.03.97.68-.25.82-1.59-.19-.97-.68Z"/><path d="M129.17,166.09c-.23-1.08.93-1.46.97-.29l-.97.29Z"/><path d="M188.05,159.85c.58-.13.91,1.2-.01,1.12-.56-.05-.56-.99.01-1.12Z"/><path d="M180.33,161.21l-.97-.29c.05-1.16,1.2-.78.97.29Z"/><path d="M182.47,162.59c.48.36-.35,1.28-.77.97-.54-.4.2-1.4.77-.97Z"/><path d="M186.39,165.13c.51-.64,1.5.72.48.97-.45.11-.63-.79-.48-.97Z"/><path d="M190.88,157.89c.25,1.34-1.4,1.32-.75.03l.75-.03Z"/><path d="M136.49,160.24c.9-.25.9,1.22,0,.97-.39-.11-.39-.86,0-.97Z"/><path d="M191.56,160.43c.9-.25.9,1.22,0,.97-.39-.11-.39-.86,0-.97Z"/><path d="M194,162.39l.11.79c-1.55.89-.84-1.28-.11-.79Z"/><path d="M134.83,162.58c.22.16.3,1.19-.49.97-.7-.19-.06-1.36.49-.97Z"/><path d="M194.78,161.02v-.78c1.29-.14,1.31.92,0,.78Z"/><path d="M115.44,89.18c2.51-.51,3.43,3.49.72,3.86s-2.83-3.43-.72-3.86ZM115.83,90.16c-.86.13-1.35,1.34-.6,1.89,2.03.68,2.18-2.13.6-1.89Z"/><path d="M167.58,78.45c3.05-.69,3.26,4.13.37,3.86-2.32-.22-2.38-3.4-.37-3.86ZM168.96,81.1c1.06-1.06-1.14-2.61-1.81-1.12-.55,1.22,1.1,1.82,1.81,1.12Z"/><path d="M135.36,83.14c3.15-.71,3.19,4.26.21,3.83-2.09-.3-2.07-3.41-.21-3.83ZM135.55,84.11c-1.15.34-.91,2.35.7,1.87,1.16-.34.98-2.37-.7-1.87Z"/><path d="M163.14,48.14c.04.28-.5.36-.68.35-1.21-.02-2.84-.24-4.08-.38-5.22-.59-11-1.45-16.17-2.38-1.01-.18-2.47-.41-3.41-.69-.26-.08-.59-.07-.65-.42l25,3.52Z"/><path d="M160.61,67.28c.05.34-.44.18-.68.19-5.36.22-16.62-1.88-22.2-2.99-.42-.08-.9-.15-1.3-.28-.33-.11-.52.09-.42-.44l24.6,3.52Z"/><path d="M161.19,60.84l-1.85.19c-6.6-1.46-15.51-1.2-21.82-3.18-.2-.06-.59-.05-.54-.33l24.21,3.32Z"/><path d="M162.17,54.78c-7.1-.82-14.29-1.51-21.33-2.79-.89-.16-2.29-.26-2.89-.92,6.52.92,13.09,1.55,19.6,2.56,1.14.18,2.8.32,3.84.65.29.09.7.12.78.49Z"/><path d="M160.02,68.65c.03.35-.66.21-.87.19-6.92-.55-14.78-1.78-21.65-2.95-.46-.08-1.45-.14-1.69-.56l24.21,3.32Z"/><path d="M160.8,62.2c0,.35-.84.21-1.07.19-6.4-.46-13.89-1.72-20.28-2.76-.74-.12-1.61-.22-2.32-.42-.2-.06-.59-.05-.55-.33l24.21,3.32Z"/><path d="M161.58,55.76l-1.86.2c-6.78-1.41-15.12-1.31-21.71-3.11-.34-.09-.54.14-.45-.42l24.02,3.32Z"/><path d="M104.75,153.6c-2.35-3.02-.66-9.54,4.1-7.42-.28-1.52-2.7-5.61-4.21-5.85-1.86-.29-3.5,1.18-4.29,2.72l-1.46,3.91c-.12-3.19.5-6.99,3.9-8.2-.05-.29-.89-.51-1.12-.54-4.3-.59-5.5,4.15-5.52,7.57l-.4-1.85c.13-4.71,2.29-9.21,7.73-7.13,5.85,2.23,10.28,13,7.94,18.69-.89,2.17-2.63,3.57-5.08,2.86-.43-.13-2.52-1.66-2.18-2.02,4.2,4.07,6.8-.33,6.2-4.73-.38-2.8-3.43-6.3-5.13-2.3-.1.24-.48,1.13-.48,1.28v3.03Z"/><path d="M220.76,145.59l-1.08-4.49c-1.08-2.72-2.95-3.59-5.76-2.54,1.33.92,2.26,1.44,2.97,2.99.14.3.74,2.01.74,2.19v3.03c-.28.04-.29-.34-.34-.54-.46-1.9-.8-3.65-2.41-5.01-3.63-3.06-6.07,2.4-7.21,5.16,3.95-2.12,5.82,1.78,5.18,5.28l-1.08,2.33c.22-1.75.33-3.14-.36-4.82-1.32-3.23-4.06-1.04-4.82,1.31-1.44,4.45,1.37,10.6,5.85,5.66.18.38-.98,1.49-1.37,1.76-2.45,1.72-5-.08-5.86-2.54-2.04-5.87,2.16-16.55,8.24-18.7,2.87-1.01,5.43.08,6.59,2.89.16.4.69,1.93.69,2.24v3.81Z"/><path d="M180.68,63.99c1.84-.24,2.43,2.59.88,3.05-2.49.74-3.06-2.77-.88-3.05ZM181.45,64.99c-1.06-1.04-2.1,1.35-.63,1.34.73,0,1.1-.88.63-1.34Z"/><path d="M175.79,59.12c2.34-.51,2.68,2.67.69,3.06-1.88.36-2.56-2.65-.69-3.06ZM175.98,59.69c-.89.23-.9,2.12.51,1.7.99-.3.54-1.97-.51-1.7Z"/><path d="M176.37,64.78c2.12-.48,2.4,2.56.69,2.86-1.95.35-2.34-2.49-.69-2.86ZM177.38,65.55c-.85-.55-1.86.4-1.15,1.25l.49.21.59-.32.07-1.15Z"/><path d="M145.37,215.11c-3.17-1.54-6.93-4.13-7.61-7.81l1.95,2.64,5.67,5.17Z"/><path d="M171.35,215.31c-.06-.37.26-.56.48-.79,1.84-1.84,4.22-3.3,5.97-5.36.52-.62.79-1.33,1.36-1.86-.66,3.78-4.67,6.28-7.81,8.01Z"/><polygon points="180.13 48.33 179.25 47.95 179.19 47.31 182.07 38.69 182.75 38.59 183.07 39.06 180.13 48.33"/><path d="M184.03,36.43c.07.91-.54,1.45-1.27.77-.38-1.08.43-1.14,1.27-.77Z"/><path d="M199.03,32.95c7.17-1.14,9.01,8.03,3.37,10.4-4.2,1.77-8.4-1.91-7.49-6.32.37-1.77,2.32-3.8,4.12-4.08ZM199.62,33.55c-6.27.78-5.31,10.61,1.7,9.51,5.31-.84,4.95-10.33-1.7-9.51Z"/><path d="M194.34,74.55c2.78-.15,4.87,4.19,2.57,5.9-3.7,2.75-7.03-5.65-2.57-5.9Z"/><path d="M126.23,34.47c.37.34-1.36,1.35-1.56,1.47-1.69,1.01-3.78,1.7-5.67,2.24-.08-.37.18-.47.41-.67.64-.56,6.44-3.39,6.82-3.04Z"/><path d="M221.47,44.47c1.22-.11,1.81,2.2.32,2.65-2.29.69-2.29-2.48-.32-2.65ZM221.27,45.22c-.76.13-.52,1.45.14,1.34.76-.13.52-1.45-.14-1.34Z"/><path d="M82.81,42.5c.28-.05.46.2.46.46.02.84-2.36,3.1-3.22,3.42-1.29-.94,2.16-3.82,2.76-3.88Z"/><path class="cls-1" d="M176.76,139.38c1.92-.3,2.53,3.49.69,4.41-2.57,1.28-3.07-4.04-.69-4.41Z"/><path class="cls-1" d="M139.46,139.38c2.25-.35,2.72,4.59.34,4.67-2.16.07-2.52-4.32-.34-4.67Z"/><path class="cls-1" d="M115.83,90.16c1.58-.24,1.43,2.57-.6,1.89-.75-.55-.26-1.76.6-1.89Z"/><path class="cls-1" d="M168.96,81.1c-.71.7-2.36.1-1.81-1.12.67-1.49,2.87.06,1.81,1.12Z"/><path class="cls-1" d="M135.55,84.11c1.68-.5,1.86,1.53.7,1.87-1.61.48-1.85-1.53-.7-1.87Z"/><path class="cls-1" d="M181.45,64.99c.46.45.1,1.33-.63,1.34-1.46.02-.42-2.37.63-1.34Z"/><path class="cls-1" d="M175.98,59.69c1.04-.27,1.5,1.4.51,1.7-1.4.42-1.4-1.47-.51-1.7Z"/><path class="cls-1" d="M177.38,65.55l-.07,1.15-.59.32-.49-.21c-.71-.85.3-1.8,1.15-1.25Z"/><path class="cls-1" d="M199.62,33.55c6.64-.82,7.01,8.67,1.7,9.51-7,1.1-7.97-8.73-1.7-9.51ZM199.99,35.13c-3.41.17-4.08,5.17-.62,6.19,4.67,1.37,5.68-6.45.62-6.19Z"/><path class="cls-1" d="M221.27,45.22c.66-.11.91,1.21.14,1.34-.66.11-.91-1.21-.14-1.34Z"/><path d="M199.99,35.13c5.06-.26,4.05,7.56-.62,6.19-3.46-1.01-2.78-6.01.62-6.19ZM199.81,35.68c-2.96.44-2.91,5.31.52,5.22,3.59-.1,3.04-5.75-.52-5.22Z"/><path class="cls-1" d="M199.81,35.68c3.56-.53,4.1,5.12.52,5.22-3.42.09-3.47-4.78-.52-5.22Z"/><path d="M134.03,187.68l-1.43.36c-1.02,1.15,1.23,3.97,2.4,4,.75.01,1.73-1.01,2.4-.83.86.48.87,1.62,1.6,2.24.84.72,3.13.97,3.21,2.18.03.47-.32,1.11-.33,1.58-.03,1.42,2.54,2.06,2.77,3.37-.24.19-4.97-2.14-5.63-2.46-3.75-1.85-7.93-4.16-11.3-6.62-.95-.69-4.1-3.03-4.29-4.07-.49-2.72,2.74-.55,3.82-.68.94-.55.08-1.6.43-2.18.19-.3,1.32-.49,1.57-1.05.55-1.2-1.91-2.31-1.4-3.13.75-1.21,4.02.92,4.69,1.76.84,1.05.59,1.5.88,2.6.25.96.75,1.9.59,2.92Z"/><path d="M195.54,167.11c.17.17-1.28,1.39-1.42,1.6.86,1.18,1.13.33,1.97-.28.32-.23.72-.54,1.1-.61l-1.78,1.95c.81,1.13,1.98,2.03,2.49,3.37l-3.01-2.83c-.19.26-.84.64-.76.98.03.12,1.37,1.59,1.62,1.94.34.48.73,1.03.97,1.57l-3.13-3.07-.52.75c.96,1.02,1.89,2.09,2.47,3.39l-3.01-2.83-2.42,2.72c.11-.43.36-.87.57-1.26.19-.36,1.24-1.87,1.19-2.08-.05-.2-.47-.57-.7-.39l-2.13,2.31,1.75-3-2.46-2.32c.64-.02,2.68,1.83,3.01,1.78l.53-.76c-.55-.59-1.24-1.05-1.76-1.67-.11-.13-.29-.19-.23-.41l2.52,1.64.77-.85-1.17-1.38,1.7,1.05,1.85-1.29ZM193.73,169.24l-.78.78.52.63.88-.78c.03-.15-.48-.66-.63-.63ZM191.88,171.48l.62.23c1.11-.81-.3-1.42-.62-.23Z"/><path d="M122.19,134.43l-2.35,3.21,1,1.17c1.15-1.01,1.94-2.46,3.39-3.12l-2.8,3.86c.98,1.53,2.04,3.02,2.65,4.76l-3.21-3.92c-.22.38-1.11,1.21-1,1.61.05.18,1.02,1.53,1.22,1.93.37.75.67,1.62.96,2.41l-2.82-3.76-.61,1.29,1.54,3.56-2.11-2.98-1.96,3.13,1.39-3.96-1-1.37-2.59,3.76,1.98-4.47-3.08-3.99c.12-.11.86.51,1.01.63.37.29.83.7,1.18,1.01.4.36.77.95,1.08,1.23.15.14.18.13.39.11l.68-1.03-2.16-2.9c.29-.07.37.16.55.31.71.6,1.33,1.42,2.04,2.04l1.14-1.33-1.53-2.12,2.19,1.56c.29-.63,1.03-1.33,1.57-1.8.15-.14,1.14-.97,1.26-.86ZM119.37,140.86l.94-1.33-1.02-1.17-1,1.3c.12.25.81,1.39,1.07,1.2ZM118.11,142.74l.48-1.17-.95-1.18-.61,1.15c.31.28.48.69.72,1,.1.13,0,.29.36.2Z"/></svg>